<svg xmlns="http://www.w3.org/2000/svg" width="68" height="61" fill="none" viewBox="0 0 68 61"><circle cx="43.655" cy="23.504" r="23.504" fill="url(#paint0_linear)"/><rect width="52.231" height="39.173" x="1" y="11.317" stroke="#fff" rx="6.964"/><path stroke="#fff" d="M18.029 55.697c-1.525 1.678-.335 4.369 1.932 4.369H34.27c2.267 0 3.457-2.69 1.932-4.369l-4.734-5.207h-8.705l-4.734 5.207zM1.435 41.785l5.817-8.267a3.482 3.482 0 015.38-.387l1.748 1.852a3.482 3.482 0 005.23-.192l7.07-8.675M33.209 23.504v14.799M39.303 31.339v6.964M45.396 26.116v12.187"/><defs><linearGradient id="paint0_linear" x1="58.454" x2="20.151" y1="38.303" y2="0" gradientUnits="userSpaceOnUse"><stop stop-color="#9121C2"/><stop offset="1" stop-color="#FF5E5E"/></linearGradient></defs></svg>