<svg xmlns="http://www.w3.org/2000/svg" width="68" height="58" fill="none" viewBox="0 0 68 58"><circle cx="46.703" cy="36.982" r="20.457" fill="url(#paint0_linear)"/><path stroke="#fff" d="M22.763 25.23H6.223A5.223 5.223 0 0 0 1 30.453v13.929a5.223 5.223 0 0 0 5.224 5.223h33.95a5.223 5.223 0 0 0 5.223-5.223V30.453a5.223 5.223 0 0 0-5.223-5.223H34.08"/><path stroke="#fff" d="M19.164 29.85c.08-.253.204-.489.367-.697l20.572-26.21a2.187 2.187 0 013.07-.37l3.608 2.831c.95.746 1.116 2.12.37 3.07L26.58 34.685a2.186 2.186 0 01-.589.521l-5.547 3.354c-1.724 1.042-3.82-.604-3.218-2.526l1.94-6.185zM20.085 29.685l5.846 4.588M37.075 8.04l5.845 4.588"/><defs><linearGradient id="paint0_linear" x1="60.063" x2="42.528" y1="57.439" y2="18.613" gradientUnits="userSpaceOnUse"><stop stop-color="#9121C2"/><stop offset="1" stop-color="#FF5E5E"/></linearGradient></defs></svg>