<svg xmlns="http://www.w3.org/2000/svg" width="84" height="52" fill="none" viewBox="0 0 84 52"><circle cx="41.785" cy="22.116" r="21.763" fill="url(#paint0_linear)"/><path fill="#fff" d="M29.598 17.763h.87v-.87h-.87v.87zm0 33.08v.87h.87v-.87h-.87zm0-32.21v-1.74 1.74zm-15.67 15.67c0-8.654 7.015-15.67 15.67-15.67v-1.74c-9.616 0-17.41 7.794-17.41 17.41h1.74zm15.67 15.67c-8.654 0-15.67-7.016-15.67-15.67h-1.74c0 9.615 7.794 17.41 17.41 17.41v-1.74zm0 0v1.74-1.74zm.87.87v-33.08h-1.74v33.08h1.74z"/><path stroke="#fff" d="M13.058 34.303H.87M40.914 28.209H30.468M40.914 40.396H30.468"/><path fill="#fff" d="M53.972 50.843h-.87v.87h.87v-.87zm0-33.08v-.87h-.87v.87h.87zm15.67 16.54c0 8.654-7.016 15.669-15.67 15.67v1.74c9.615 0 17.41-7.795 17.41-17.41h-1.74zm-15.67-15.67c8.654 0 15.67 7.016 15.67 15.67h1.74c0-9.616-7.795-17.41-17.41-17.41v1.74zm-.87-.87v33.08h1.74v-33.08h-1.74z"/><path stroke="#fff" d="M70.512 34.303h12.187"/><defs><linearGradient id="paint0_linear" x1="20.022" x2="49.442" y1="47.103" y2=".353" gradientUnits="userSpaceOnUse"><stop stop-color="#9121C2"/><stop offset="1" stop-color="#FF5E5E"/></linearGradient></defs></svg>