<svg xmlns="http://www.w3.org/2000/svg" width="122" height="30" fill="none" viewBox="0 0 122 30"><g clipPath="url(#clip0)"><path fill="#0095FF" d="M35.971 21.064c1.38 0 2.424-.296 3.131-.89.71-.592 1.063-1.426 1.063-2.5 0-.493-.094-.938-.283-1.332a2.782 2.782 0 0 0-.818-1.004c-.356-.277-.794-.488-1.313-.635a6.465 6.465 0 0 0-1.769-.222h-3.96v6.583h3.949zm-3.95-13.828v6.417h3.405c.727 0 1.348-.092 1.863-.276.516-.184.939-.427 1.27-.73.329-.3.572-.643.728-1.026.155-.383.233-.777.233-1.181 0-1.054-.336-1.85-1.007-2.391-.67-.541-1.707-.813-3.109-.813h-3.383zm3.383-.894c.897 0 1.676.088 2.336.265.66.177 1.205.436 1.636.779.43.342.749.76.956 1.253.208.493.312 1.053.312 1.679 0 .412-.072.81-.217 1.193a3.667 3.667 0 0 1-.623 1.06c-.27.323-.604.606-1.001.845-.424.25-.883.434-1.363.547 1.239.176 2.19.583 2.854 1.22.664.637.995 1.474.995 2.512 0 .663-.118 1.26-.356 1.79a3.624 3.624 0 0 1-1.034 1.347c-.453.369-1.009.65-1.67.845-.66.195-1.409.293-2.247.293h-5.107V6.341h4.53zM45.35 5.9v16.07h-1.068V5.9h1.068zm4.928 5.08v10.99h-1.055V10.98h1.057-.002zm.457-3.787a.839.839 0 0 1-.083.37 1.112 1.112 0 0 1-.218.303c-.09.09-.195.16-.311.21a.94.94 0 0 1-.378.077.941.941 0 0 1-.378-.077c-.234-.1-.42-.283-.523-.513a.959.959 0 0 1 0-.751.984.984 0 0 1 .9-.603c.134 0 .261.026.379.077a.995.995 0 0 1 .312.21c.089.09.16.194.217.315a.91.91 0 0 1 .083.382zm9.401 5.146a.28.28 0 0 1-.256.155c-.082 0-.186-.046-.312-.139a4.135 4.135 0 0 0-1.29-.618c-.311-.092-.69-.137-1.135-.137-.4 0-.765.056-1.096.17-.33.115-.611.267-.845.459-.226.181-.41.41-.54.668-.125.248-.19.523-.19.8 0 .347.09.633.268.862.178.229.41.423.696.586.284.161.613.302.984.42.37.117.747.235 1.13.352.382.118.758.25 1.129.392.37.144.699.323.984.536.286.214.518.475.696.784.177.31.267.685.267 1.127 0 .479-.086.924-.257 1.336-.17.412-.42.77-.75 1.071-.355.317-.769.561-1.219.718-.482.177-1.034.265-1.657.265-.78 0-1.45-.123-2.014-.37a5.658 5.658 0 0 1-1.513-.966l.244-.376a.404.404 0 0 1 .129-.132.371.371 0 0 1 .195-.044c.096 0 .212.059.35.176.137.118.32.246.55.381.23.137.514.264.852.381.337.118.755.177 1.252.177.466 0 .878-.064 1.234-.193a2.55 2.55 0 0 0 .89-.525c.237-.22.417-.48.54-.778.122-.3.183-.613.183-.945 0-.368-.089-.673-.267-.916a2.285 2.285 0 0 0-.7-.619 4.926 4.926 0 0 0-.985-.43 83.611 83.611 0 0 0-1.13-.354 17.72 17.72 0 0 1-1.129-.386 4.114 4.114 0 0 1-.984-.53 2.564 2.564 0 0 1-.7-.78c-.18-.305-.269-.686-.269-1.142 0-.39.086-.766.257-1.127.17-.36.413-.677.728-.95.316-.272.7-.49 1.152-.651.452-.162.96-.243 1.524-.243.675 0 1.274.095 1.797.287a4.243 4.243 0 0 1 1.43.883l-.223.364zm9.457 0a.277.277 0 0 1-.256.155c-.081 0-.185-.046-.311-.139a4.129 4.129 0 0 0-1.291-.618c-.312-.092-.69-.137-1.135-.137-.4 0-.766.056-1.096.17-.33.115-.612.267-.846.459-.226.181-.41.41-.54.668-.124.248-.188.523-.188.8 0 .347.089.633.267.862.178.229.41.423.695.586.285.161.614.302.984.42.371.117.749.235 1.13.352.382.118.758.25 1.13.392.37.144.699.323.983.536.287.214.518.475.696.784.179.31.267.685.267 1.127 0 .479-.085.924-.256 1.336a2.98 2.98 0 0 1-.75 1.071c-.355.317-.77.561-1.22.718-.481.177-1.034.265-1.657.265-.778 0-1.45-.123-2.013-.37a5.655 5.655 0 0 1-1.513-.966l.244-.376a.399.399 0 0 1 .128-.132.37.37 0 0 1 .195-.044c.096 0 .214.059.35.176.138.118.321.246.552.381.229.137.513.264.85.381.338.118.755.177 1.252.177.467 0 .879-.064 1.235-.193a2.56 2.56 0 0 0 .89-.525c.235-.218.419-.483.54-.778.122-.3.183-.613.183-.945 0-.368-.09-.673-.267-.916a2.286 2.286 0 0 0-.7-.619 4.925 4.925 0 0 0-.985-.43 83.43 83.43 0 0 0-1.13-.354c-.38-.116-.757-.245-1.129-.386a4.115 4.115 0 0 1-.984-.53 2.564 2.564 0 0 1-.701-.78c-.18-.305-.268-.686-.268-1.142 0-.39.086-.766.256-1.127.171-.36.413-.677.73-.95.315-.272.699-.49 1.15-.651.453-.162.96-.243 1.525-.243.675 0 1.274.095 1.797.287a4.24 4.24 0 0 1 1.43.883l-.223.364zm4.027 9.63v-9.84l-1.557-.099c-.208-.023-.312-.115-.312-.276v-.43h1.87V9.931c0-.626.08-1.177.243-1.652.164-.474.394-.87.69-1.187a2.82 2.82 0 0 1 1.069-.713 3.846 3.846 0 0 1 1.38-.237c.23 0 .461.02.695.061.234.04.443.097.628.171l-.032.508c-.017.067-.047.109-.096.127a.539.539 0 0 1-.205.022A4.127 4.127 0 0 1 77.648 7a3.83 3.83 0 0 0-.49-.029c-.363 0-.7.054-1.007.16-.303.104-.576.28-.795.514-.223.236-.395.543-.517.922-.122.38-.184.845-.184 1.398v1.358h3.593v.784h-3.56v9.863H73.62zM89.13 10.982V21.97h-.59c-.184 0-.293-.096-.322-.287l-.1-1.635a6.263 6.263 0 0 1-1.775 1.524c-.67.383-1.418.574-2.241.574-.616 0-1.154-.096-1.614-.287a2.96 2.96 0 0 1-1.146-.828 3.66 3.66 0 0 1-.69-1.304 5.884 5.884 0 0 1-.233-1.723v-7.023h1.068v7.024c0 1.03.237 1.839.712 2.424s1.198.878 2.17.878c.719 0 1.392-.182 2.02-.547.625-.364 1.183-.87 1.673-1.518V10.98h1.068zm4.807-5.08V21.97h-1.068V5.9h1.068zm4.916 0V21.97h-1.067V5.9h1.067zm12.696 5.08l-6.365 14.522a.755.755 0 0 1-.172.255c-.07.066-.173.099-.306.099h-.756l1.947-4.296-4.685-10.581h.879a.406.406 0 0 1 .401.266l3.727 8.548c.045.11.084.223.117.336.033.115.065.23.094.349a9.75 9.75 0 0 1 .245-.685l3.683-8.548a.48.48 0 0 1 .155-.194.374.374 0 0 1 .223-.071h.813z"/><g style="mix-blend-mode:multiply"><path fill="#66BFFF" d="M18.393 26.215a5.734 5.734 0 0 1-1.483 1.678 5.779 5.779 0 0 1-4.26 1.134 5.79 5.79 0 0 1-2.128-.718 5.73 5.73 0 0 1-2.685-3.475 5.69 5.69 0 0 1 .575-4.343 5.734 5.734 0 0 1 1.482-1.68 5.777 5.777 0 0 1 4.26-1.133 5.79 5.79 0 0 1 2.13.718 5.73 5.73 0 0 1 2.684 3.475 5.69 5.69 0 0 1-.575 4.343z"/></g><g style="mix-blend-mode:multiply"><path fill="#FF66E5" d="M10.753 21.82a5.733 5.733 0 0 1-1.482 1.68 5.777 5.777 0 0 1-4.26 1.133 5.79 5.79 0 0 1-2.129-.717A5.73 5.73 0 0 1 .197 20.44a5.69 5.69 0 0 1 .576-4.343 5.735 5.735 0 0 1 1.482-1.679 5.778 5.778 0 0 1 4.26-1.134A5.79 5.79 0 0 1 8.644 14a5.73 5.73 0 0 1 2.684 3.476 5.69 5.69 0 0 1-.575 4.343z"/></g><g style="mix-blend-mode:multiply"><path fill="#F66" d="M8.644 5.162a5.73 5.73 0 0 1 2.685 3.475 5.69 5.69 0 0 1-.575 4.343 5.735 5.735 0 0 1-1.482 1.68 5.778 5.778 0 0 1-4.26 1.134 5.79 5.79 0 0 1-2.13-.718A5.73 5.73 0 0 1 .197 11.6a5.69 5.69 0 0 1 .576-4.342 5.734 5.734 0 0 1 1.482-1.68 5.778 5.778 0 0 1 4.26-1.134c.75.098 1.474.342 2.129.718z"/></g><g style="mix-blend-mode:multiply"><path fill="#FFA667" d="M18.393 8.587a5.733 5.733 0 0 1-1.483 1.679 5.776 5.776 0 0 1-4.26 1.133 5.791 5.791 0 0 1-2.128-.717 5.73 5.73 0 0 1-2.685-3.476 5.69 5.69 0 0 1 .575-4.343 5.734 5.734 0 0 1 1.482-1.679A5.778 5.778 0 0 1 14.154.05a5.79 5.79 0 0 1 2.13.717 5.73 5.73 0 0 1 2.684 3.476 5.69 5.69 0 0 1-.575 4.343z"/></g><g style="mix-blend-mode:multiply"><path fill="#FFE666" d="M18.162 15.076a5.73 5.73 0 0 1-2.685-3.476 5.69 5.69 0 0 1 .575-4.342 5.735 5.735 0 0 1 1.482-1.68 5.778 5.778 0 0 1 4.26-1.134c.75.098 1.474.342 2.13.718a5.73 5.73 0 0 1 2.684 3.475 5.69 5.69 0 0 1-.576 4.343 5.735 5.735 0 0 1-1.482 1.68 5.778 5.778 0 0 1-4.26 1.134 5.79 5.79 0 0 1-2.13-.718h.002z"/></g><g style="mix-blend-mode:multiply"><path fill="#9F6" d="M18.162 23.916a5.73 5.73 0 0 1-2.685-3.475 5.69 5.69 0 0 1 .575-4.343 5.732 5.732 0 0 1 1.482-1.68 5.777 5.777 0 0 1 4.26-1.134c.75.098 1.474.342 2.13.718a5.73 5.73 0 0 1 2.684 3.476 5.69 5.69 0 0 1-.576 4.343A5.735 5.735 0 0 1 24.55 23.5a5.778 5.778 0 0 1-4.26 1.134 5.79 5.79 0 0 1-2.13-.718h.002z"/></g><path fill="#fff" d="M20.634 10.458v8.272l-7.197 4.137-7.198-4.137v-8.272l7.198-4.137 7.198 4.137zm-6.718-5.816a1.03 1.03 0 0 0-1.026 0L5.049 9.148a1.02 1.02 0 0 0-.512.884v9.013c0 .365.195.702.512.884l7.84 4.507c.318.182.709.182 1.026 0l7.84-4.507c.318-.182.514-.52.514-.884v-9.013a1.02 1.02 0 0 0-.512-.884l-7.841-4.507z"/></g><defs><clipPath id="clip0"><path fill="#fff" d="M0 0h122v29.077H0z"/></clipPath></defs></svg>