<svg xmlns="http://www.w3.org/2000/svg" width="147" height="26" fill="none" viewBox="0 0 147 26"><path fill="#3246F0" d="M17.336 8.839A4.78 4.78 0 1022.386.72a4.78 4.78 0 00-5.05 8.118zM9.557 10.255a4.78 4.78 0 10-9.555-.314 4.78 4.78 0 009.555.314zM14.674 16.284a4.78 4.78 0 104.504 8.431 4.78 4.78 0 00-4.504-8.431zM80.883 8.362c4.217 0 6.766 3.046 6.766 7.181v.773H77.237c.262 2.34 1.871 3.794 4.256 3.794 1.943 0 3.296-.704 4.256-1.704l1.769 1.931c-1.376 1.32-3.166 2.41-6.025 2.41-4.408 0-7.399-3.09-7.399-7.204 0-4.135 2.908-7.18 6.788-7.18zm16.27 0c.986 0 2.584.213 3.242.683v2.867s-1.304-.846-3.243-.846c-2.656 0-4.584 1.927-4.584 4.489 0 2.585 1.928 4.489 4.584 4.489 2.025 0 3.243-.846 3.243-.846v2.867c-.65.445-2.256.682-3.243.682-4.536 0-7.754-3.126-7.754-7.192 0-4.043 3.218-7.193 7.754-7.193zm21.545 0c4.217 0 6.765 3.046 6.765 7.181v.773h-10.41c.262 2.34 1.871 3.794 4.255 3.794 1.944 0 3.296-.704 4.257-1.704l1.768 1.931c-1.376 1.32-3.165 2.41-6.025 2.41-4.407 0-7.398-3.09-7.398-7.204 0-4.135 2.908-7.18 6.788-7.18zm-79.43-4.395v6.381c1.147-1.164 2.748-1.973 4.928-1.973 4.114 0 7.035 2.938 7.035 7.18 0 4.241-2.875 7.18-7.035 7.18-2.175 0-3.812-.82-4.928-2.025v1.59h-3.173V3.967h3.172zM62.33 8.81v7.897c0 2.35 1.233 3.173 3.045 3.173 1.78 0 3.341-2.043 3.341-3.577V8.81h3.173V22.3H68.86v-2.142c-1.013 1.606-2.52 2.518-4.403 2.518-3.253 0-5.299-1.904-5.299-5.006V8.81h3.174zm-5.723-4.843V22.3h-3.173V3.967h3.173zM105.82 8.81v2.867c.356-1.114 1.778-2.867 3.891-2.867.866 0 1.192.146 1.192.146v3.353c-.471-.134-1.151-.197-1.614-.197-2.138 0-3.329 1.673-3.329 3.106V22.3h-3.172V8.81h3.032zm23.507 0l2.773 9.166 2.796-9.166h3.362l2.75 9.212 2.796-9.212H147l-4.466 13.49h-3.149l-2.891-8.86-2.844 8.86h-3.172l-4.584-13.49h3.432zm-85.71 2.303a4.442 4.442 0 100 8.884 4.442 4.442 0 000-8.884zm37.267-.137c-1.834 0-3.202 1.375-3.514 2.977h7.007c-.352-1.676-1.66-2.977-3.493-2.977zm37.815 0c-1.834 0-3.202 1.375-3.514 2.977h7.006c-.351-1.676-1.659-2.977-3.492-2.977z"/></svg>