<svg xmlns="http://www.w3.org/2000/svg" width="34" height="17" fill="none" viewBox="0 0 34 17"><g filter="url(#filter0_f)"><path fill="#2C1338" fill-opacity=".16" d="M22.249 11a16.303 16.303 0 0 1-1.818-2.262l-.935-1.402c-1.187-1.781-3.805-1.781-4.992 0l-.935 1.402A16.303 16.303 0 0 1 11.751 11H22.25z"/></g><path fill="#fff" d="M34 16a16.308 16.308 0 0 1-13.57-7.262l-.934-1.402c-1.187-1.781-3.805-1.781-4.992 0l-.935 1.402A16.308 16.308 0 0 1 0 16h34z"/><defs><filter id="filter0_f" width="22.498" height="17" x="5.751" y="0" color-interpolation-filters="sRGB" filterUnits="userSpaceOnUse"><feFlood flood-opacity="0" result="BackgroundImageFix"/><feBlend in="SourceGraphic" in2="BackgroundImageFix" result="shape"/><feGaussianBlur result="effect1_foregroundBlur" stdDeviation="3"/></filter></defs></svg>