<svg xmlns="http://www.w3.org/2000/svg" width="103" height="24" fill="none" viewBox="0 0 103 24"><path fill="#fff" d="M21.803 10.526a.311.311 0 0 0 .07-.258A11.02 11.02 0 0 0 0 12.265c.042 5.941 5.048 10.924 10.989 10.94a11.025 11.025 0 0 0 10.625-7.98.319.319 0 0 0-.2-.387l-.453-.169a6.022 6.022 0 0 0-5.301.623c-.712.463-1.242.858-1.242.858a5.601 5.601 0 0 1-3.146.96c-3.108 0-5.288-2.537-5.627-5.626l-.243-1.69a1.441 1.441 0 0 0-.91-1.138l-.63-.243a.179.179 0 0 1-.08-.275c2.663-3.556 5.915-2.783 5.915-2.783.525.05 1.028.236 1.46.539a3.762 3.762 0 0 1 1.306 1.619 6.497 6.497 0 0 0 5.956 3.9s2.534.099 3.384-.887z"/><path fill="#fff" d="M6.762 7.874a.642.642 0 100-1.284.642.642 0 000 1.284zM6.897 11.237c.162 1 .95 4.174 4.473 4.758a.047.047 0 00.048-.063.046.046 0 00-.02-.024c-.817-.376-2.954-1.61-4.414-4.697a.046.046 0 00-.087.026zM38.915 15.139c0 4.484-3.409 7.83-7.862 7.83s-7.83-3.346-7.83-7.83c0-4.545 3.379-7.923 7.83-7.923 4.451 0 7.862 3.378 7.862 7.923zm-10.871 0c0 1.78 1.292 3.101 3.009 3.101 1.751 0 3.04-1.32 3.04-3.101 0-1.843-1.292-3.194-3.04-3.194-1.72 0-3.01 1.351-3.01 3.194zM55.128 15.631c0 4.3-3.01 7.34-7.247 7.34-4.273 0-7.308-3.04-7.308-7.34V7.523h4.912v8.108c0 1.596.921 2.61 2.396 2.61 1.413 0 2.364-1.014 2.364-2.61V7.523h4.883v8.108zM67.257 7.401v4.483c-.552-.092-1.075-.184-1.566-.184-2.057 0-3.716 1.075-3.716 3.962v6.997h-4.913V7.523h4.913V9.12c.895-1.192 2.18-1.873 3.839-1.873.485.009.968.06 1.444.154zM74.536 2.917c0 1.597-1.321 2.947-2.918 2.947a2.99 2.99 0 01-2.945-2.947C68.673 1.352 70.02 0 71.618 0c1.597 0 2.918 1.352 2.918 2.917zm-.497 4.606V22.66H69.13V7.523h4.91zM91.008 16.367H80.2c.369 1.566 1.658 2.549 3.347 2.549 1.474 0 2.303-.614 2.518-1.443h4.821c-.46 3.347-3.316 5.497-7.186 5.497-4.483 0-7.983-3.47-7.983-7.923 0-4.422 3.438-7.831 7.892-7.831 4.114 0 7.523 3.256 7.523 7.4 0 .4-.064 1.198-.125 1.75zm-5.036-3.102c-.123-1.227-1.292-2.057-2.61-2.057-1.351 0-2.427.614-2.948 2.057h5.558zM103 7.401v4.483c-.552-.092-1.074-.184-1.566-.184-2.057 0-3.716 1.075-3.716 3.962v6.997h-4.912V7.523h4.912V9.12c.894-1.192 2.18-1.873 3.839-1.873.485.009.968.06 1.443.154z"/></svg>