<svg xmlns="http://www.w3.org/2000/svg" width="18" height="14" fill="none" viewBox="0 0 18 14"><path fill="#fff" d="M5.282.911a4.37 4.37 0 0 0-4.37 4.37v3.442a4.37 4.37 0 0 0 4.37 4.37h7.44a4.37 4.37 0 0 0 4.37-4.37V5.28a4.37 4.37 0 0 0-4.37-4.37h-7.44zm-1.508 1.81c.442-.26.958-.41 1.508-.41h7.44c.55 0 1.066.15 1.507.41l-3.22 2.956a2.97 2.97 0 0 1-4.016 0L3.774 2.722zM2.768 3.7c-.289.458-.456 1-.456 1.582v3.442a2.97 2.97 0 0 0 2.97 2.97h7.44a2.97 2.97 0 0 0 2.97-2.97V5.28c0-.582-.167-1.125-.456-1.583l-3.28 3.01a4.37 4.37 0 0 1-5.91 0l-3.278-3.01z"/></svg>