<svg xmlns="http://www.w3.org/2000/svg" width="118" height="91" fill="none" viewBox="0 0 118 91"><path fill="url(#paint0_linear)" d="M.025 65.4c0 14.4 11.1 25.2 25.2 25.2s25.2-10.8 25.2-25.2c0-9.9-5.4-18.3-13.5-22.2L53.725 0h-23.7l-22.2 43.2c-5.1 9.9-7.8 16.2-7.8 22.2zm64.2 0c0 14.4 11.1 25.2 25.2 25.2 14.4 0 25.2-10.8 25.2-25.2 0-9.9-5.4-18.3-13.5-22.2l16.8-43.2h-23.7l-22.2 43.2c-5.1 9.9-7.8 16.2-7.8 22.2z"/><defs><linearGradient id="paint0_linear" x1="117.925" x2=".025" y1="45.3" y2="45.3" gradientUnits="userSpaceOnUse"><stop stop-color="#9121C2"/><stop offset="1" stop-color="#FF5E5E"/></linearGradient></defs></svg>