<svg xmlns="http://www.w3.org/2000/svg" width="126" height="23" fill="none" viewBox="0 0 126 23"><path fill="#1AAD94" d="M9.76 16.628L4.153 11.04a2.446 2.446 0 0 0-3.444 0 2.446 2.446 0 0 0 0 3.444l7.33 7.309c.944.945 2.498.945 3.443 0l6.889-6.889-3.466-3.444-5.145 5.167z"/><path fill="#F2AE20" d="M30.824 5.875L20.072 16.628 9.319 5.875a2.446 2.446 0 0 0-3.444 0 2.446 2.446 0 0 0 0 3.444L18.35 21.794c.945.945 2.499.945 3.444 0L34.269 9.319c.945-.945.945-2.499 0-3.444a2.446 2.446 0 0 0-3.445 0z"/><path fill="#E76450" d="M39.434 14.485l-7.308 7.309c-.945.945-2.499.945-3.444 0L11.042 4.153a2.446 2.446 0 0 1 0-3.444 2.446 2.446 0 0 1 3.443 0l15.92 15.918 5.585-5.586a2.446 2.446 0 0 1 3.444 0c.946.945.946 2.5 0 3.444z"/><path fill="#1AAD94" d="M29.102.709a2.446 2.446 0 0 0-3.444 0L14.905 11.46l3.444 3.444L29.102 4.153c.945-.945.945-2.5 0-3.444z"/><path fill="#2A2C2D" d="M52.728 2.39h-2.982v17.598h10.962v-2.646h-7.98V2.389zM67.176 7.68c1.827 0 3.046.735 3.718 1.66l.146-1.408h2.584v12.055H71.04l-.147-1.407c-.671.903-1.89 1.659-3.717 1.659-3.276 0-5.502-2.646-5.502-6.28 0-3.654 2.226-6.279 5.502-6.279zm.63 2.542c-1.869 0-3.213 1.47-3.213 3.738s1.344 3.738 3.213 3.738c1.428 0 2.29-.756 2.94-1.785v-3.885c-.65-1.05-1.512-1.806-2.94-1.806zM80.848 3.88H77.97v4.053h-2.268v2.437h2.268v5.355c0 2.919 1.743 4.494 4.494 4.494 1.197 0 2.08-.336 2.688-.714l-.756-2.247c-.357.21-.882.378-1.659.378-1.134 0-1.89-.714-1.89-1.932v-5.335h3.633V7.934h-3.633V3.88zm9.891 0h-2.877v4.053h-2.268v2.437h2.268v5.355c0 2.919 1.743 4.494 4.494 4.494 1.198 0 2.08-.336 2.689-.714l-.757-2.247c-.356.21-.882.378-1.659.378-1.134 0-1.89-.714-1.89-1.932v-5.335h3.633V7.934H90.74V3.88zm9.115 4.032h-2.877v12.055h2.877V7.912zm-1.428-5.628c-1.008 0-1.764.735-1.764 1.764 0 1.03.756 1.764 1.764 1.764 1.029 0 1.785-.735 1.785-1.764s-.756-1.764-1.785-1.764zm10.101 5.397c-3.717 0-6.174 2.625-6.174 6.28 0 3.612 2.499 6.279 6.195 6.279 2.184 0 3.822-.987 4.914-2.646l-2.058-1.596c-.567.966-1.512 1.743-2.814 1.743-2.121 0-3.297-1.66-3.297-3.76 0-2.12 1.134-3.758 3.276-3.758 1.344 0 2.226.755 2.772 1.722l2.079-1.575c-1.092-1.702-2.688-2.689-4.893-2.689zm11.95 0c3.717 0 5.523 2.772 5.523 6.154v1.008h-8.527c.063 1.91 1.219 2.96 3.235 2.96 1.407 0 2.436-.63 2.982-1.385l1.995 1.617c-1.197 1.428-2.772 2.184-4.998 2.184-3.739 0-6.133-2.625-6.133-6.237.021-3.654 2.457-6.3 5.923-6.3zm-.042 2.29c-1.701 0-2.857 1.134-2.941 2.793h5.692c-.063-1.638-1.029-2.793-2.751-2.793z"/></svg>