<svg xmlns="http://www.w3.org/2000/svg" xmlns:xlink="http://www.w3.org/1999/xlink" width="130.283" height="114.583" viewBox="0 0 130.283 114.583"><defs><style>.a,.r{fill:#fff;}.a{stroke:#707070;}.b{fill:#eff2f6;}.c{clip-path:url(#a);}.d,.l,.m,.o{fill:#363434;}.d,.m,.o{stroke:#fff;}.e{fill:#e8dfc6;}.e,.f,.g,.h,.i,.j,.k{fill-rule:evenodd;}.f{fill:#c9e2f4;}.g,.n,.q{fill:none;}.g{stroke:#0a1658;}.g,.n{stroke-linecap:round;}.g,.m,.n{stroke-width:2px;}.h{fill:#061349;}.i{fill:#f25757;}.j{fill:#ff7976;}.k{fill:#001065;}.n{stroke:#363434;}.o{stroke-width:1.5px;}.p,.r{stroke:none;}</style><clipPath id="a"><rect class="a" width="85" height="85" rx="20" transform="translate(0.167 0.265)"/></clipPath></defs><g transform="translate(-149.514 -1327.806)"><path class="b" d="M74.114,44.859c8.163,23.8,10.827,50.7-1.031,59.806-11.772,9.108-38.152.43-54.307-13.319C2.622,77.512-3.308,58.522,1.762,39.016,6.746,19.6,22.729-.339,37.508,0,52.374.434,66.037,21.143,74.114,44.859Z" transform="translate(250.726 1327.806) rotate(69)"/><g class="c" transform="translate(165.767 1341.967)"><g transform="translate(24.78 30.975)"><g class="d" transform="translate(0.387 0.29)"><ellipse class="p" cx="4.5" cy="7" rx="4.5" ry="7"/><ellipse class="q" cx="4.5" cy="7" rx="4" ry="6.5"/></g><g class="d" transform="translate(3.387 3.29)"><ellipse class="p" cx="2.5" cy="3.5" rx="2.5" ry="3.5"/><ellipse class="q" cx="2.5" cy="3.5" rx="2" ry="3"/></g></g><g transform="translate(-18.334 6.972)"><g transform="translate(0 32.503)"><path class="e" d="M113.234,57.9c-3.4-3.727-3.649-22.812-3.649-22.812-14.006-.693-38.272-8.993-38.272-8.993s-22.046-6.421-23.377-7.063-12.231-4.892-14.7-6.374S8.974,0,8.974,0C2.267,6.817.491,18.97.491,18.97s15.683,18.674,16.67,21.145,3.97,53.355,3.97,53.355a35.436,35.436,0,0,0,23.518,18.451c4.97,1.207,10.468.491,15.788-1.142,4.035-5.276,11.78-16.152,13.884-24.425C77.207,75.025,79.573,60.328,113.234,57.9Z" transform="translate(-0.491)"/><path class="f" d="M269.5,238.593c1.775-4.892,21.9-8.9,21.9-8.9-33.661,2.431-36.027,17.128-38.913,28.466-2.1,8.272-9.851,19.148-13.884,24.425,13.274-4.082,25.425-13.9,25.425-13.9S267.727,243.483,269.5,238.593Z" transform="translate(-178.657 -171.792)"/><path class="g" d="M423.915,165.563s-4.439-12.747-2.811-21.12" transform="translate(-314.945 -108.034)"/><path class="g" d="M7.543,26.341S10.5,13.2,15.533,8.654" transform="translate(-5.768 -6.473)"/></g><g transform="translate(39.771)"><path class="h" d="M18.221,72.749s-2.341,6.67,2.861,7.955,2.169-8.8,2.169-8.8Z" transform="translate(-13.31 -53.824)"/><path class="i" d="M40.743,53c2.467-5.236,8.483-4.5,10.7-3.655s8.187,4.989,8.187,4.989A17.508,17.508,0,0,0,59.7,51.41c-1.048-3.63-3.8-6.952-10.424-8-11.243-1.774-16,7.349-17.63,13.038C34.034,56.77,38.912,56.885,40.743,53Z" transform="translate(-23.749 -32.342)"/><path class="j" d="M57.529,67.9a17.509,17.509,0,0,1-.067,2.921s-5.967-4.149-8.187-4.989-8.235-1.581-10.7,3.655c-1.832,3.888-6.707,3.779-9.1,3.454a18.4,18.4,0,0,0-.717,3.66c-.2,3.359,1.689,17.464,7.755,17.809A11.522,11.522,0,0,0,42.024,93.2s-2.643,4.065-5.085,5.249c-.09,1.447-.57,2.742-1.979,2.805a14.269,14.269,0,0,1-5.71-.9s-.937,16.7,6.806,16.944,15.142-6.668,16.571-9.881c0,0-5.031-4.89-4.439-10.275s1.826-10.028,4.439-12.3,4.735-2.52,4.882-6.078C57.592,76.854,58.749,72.165,57.529,67.9Z" transform="translate(-21.577 -48.834)"/><path class="i" d="M65.115,176.179a11.522,11.522,0,0,1-5.511,1.209,15.291,15.291,0,0,1,.419,4.05C62.472,180.244,65.115,176.179,65.115,176.179Z" transform="translate(-44.668 -131.811)"/><path class="k" d="M29.748,31.179s1.331-3.372,3.366-4.149,4.207,1.47,2.4,5.335c-1.423,3.057-4.611,1.741-7.286,7.928-.518,1.19,2.662,3.08,2.662,3.08a3.337,3.337,0,0,1,1.629-4.409c2.96-1.7,7.73-.779,7.8-5.742s6.288-7.485,4.513-11.634-4.808-3.34-4.808-3.34S43.064,9.5,37.96,5.28,26.566,4.167,22.5,1.352,11.994,1.2,10.07,4.316s-6.215,2.52-6.733.149c0,0-.7,3.63.518,5.371,0,0-3.513-1.7-3.551-4.149,0,0-.667,11.3,4.364,14.487s10.579,2.52,12.455-1.829,7.988-2.765,8.087.2,1.048,7.162,4.49,8.052Z" transform="translate(-0.275 -0.162)"/><path class="h" d="M122.388,158.964a3.617,3.617,0,0,1,1.572-3C125.551,155.09,122.338,157.536,122.388,158.964Z" transform="translate(-91.646 -116.553)"/></g></g></g><g class="l" transform="translate(222.598 709.273)"><path class="p" d="M -0.7603940367698669 665.0374145507812 C -1.647204041481018 665.0374145507812 -2.240803956985474 664.7623901367188 -2.575124025344849 664.1965942382812 C -2.754304647445679 663.8933715820312 -2.811395168304443 663.57958984375 -2.828897476196289 663.4373168945312 C -2.682533025741577 662.8637084960938 -2.112153053283691 660.4766235351562 -1.928144097328186 657.4466552734375 C -1.805804014205933 655.43212890625 -1.881754040718079 653.5520629882812 -2.153903961181641 651.858642578125 C -2.499544143676758 649.7078857421875 -3.165054082870483 647.8491821289062 -4.131964206695557 646.3340454101562 C -5.385061264038086 644.3704833984375 -7.137907028198242 642.9752197265625 -9.359941482543945 642.1676635742188 C -7.194639682769775 642.4070434570312 -4.448560237884521 643.0372314453125 -4.414594173431396 643.0451049804688 L -4.307424068450928 643.06982421875 L -4.224283218383789 643.064208984375 C -4.120752811431885 643.0657958984375 -2.954843282699585 643.1148071289062 -1.814604043960571 644.4871215820312 C -0.7071540355682373 645.8200073242188 0.009525936096906662 647.917236328125 0.31551593542099 650.7206420898438 C 0.7172490358352661 654.4011840820312 0.3883621990680695 659.2153930664062 -0.6618632674217224 665.0361938476562 C -0.6950969099998474 665.0369873046875 -0.7279609441757202 665.0374145507812 -0.7603940367698669 665.0374145507812 Z"/><path class="r" d="M -1.282181262969971 664.237060546875 C 0.9292643666267395 651.467041015625 -0.9750136733055115 646.7288818359375 -2.340304136276245 645.029052734375 C -3.220047235488892 643.9337768554688 -4.083271026611328 643.8255004882812 -4.221790790557861 643.8150634765625 L -4.374264240264893 643.8241577148438 L -4.583394050598145 643.77587890625 C -4.811792850494385 643.7230834960938 -5.127781391143799 643.653564453125 -5.500597476959229 643.5759887695312 C -4.739255428314209 644.2492065429688 -4.071589469909668 645.0344848632812 -3.499734163284302 645.9305419921875 C 0.4612142145633698 652.1372680664062 -1.612686514854431 661.6437377929688 -2.063164234161377 663.46826171875 C -2.036927700042725 663.5831909179688 -1.986402034759521 663.7354736328125 -1.896624088287354 663.8666381835938 C -1.84303867816925 663.9448852539062 -1.707083344459534 664.1434326171875 -1.282181262969971 664.237060546875 M -0.7603962421417236 665.7874145507812 C -3.553789854049683 665.7874145507812 -3.586194038391113 663.368896484375 -3.586194038391113 663.368896484375 C -3.586194038391113 663.368896484375 1.517865896224976 644.5849609375 -11.7539644241333 642.3143310546875 C -12.45805740356445 641.57373046875 -11.85844802856445 641.3267822265625 -10.74626636505127 641.3267822265625 C -8.521697998046875 641.3267822265625 -4.245853900909424 642.3143310546875 -4.245853900909424 642.3143310546875 C -4.245853900909424 642.3143310546875 -4.240332126617432 642.3141479492188 -4.229751110076904 642.3141479492188 C -3.819560766220093 642.3141479492188 4.282204627990723 642.6044311523438 -0.02796406485140324 665.7374877929688 C -0.2909260988235474 665.7716064453125 -0.5348610281944275 665.7874145507812 -0.7603962421417236 665.7874145507812 Z"/></g><g transform="translate(215.327 1372.941)"><g class="m" transform="translate(-0.393 0.29)"><ellipse class="p" cx="5" cy="7" rx="5" ry="7"/><ellipse class="q" cx="5" cy="7" rx="4" ry="6"/></g><g class="d" transform="translate(3.607 3.29)"><ellipse class="p" cx="2" cy="3.5" rx="2" ry="3.5"/><ellipse class="q" cx="2" cy="3.5" rx="1.5" ry="3"/></g></g><path class="n" d="M-.354,668.69S-8.5,681.116-19.741,679.167" transform="translate(221.211 711.849)"/><g class="o" transform="translate(196.934 1387.232)"><circle class="p" cx="3.5" cy="3.5" r="3.5"/><circle class="q" cx="3.5" cy="3.5" r="2.75"/></g></g></svg>