<svg xmlns="http://www.w3.org/2000/svg" width="106.362" height="114.9" viewBox="0 0 106.362 114.9"><defs><style>.a{fill:#eff2f6;}.b{fill:#1ec39a;}.c{fill:#009a79;}</style></defs><g transform="translate(-725.54 -1320.416)"><path class="a" d="M18.287-25.768c6.976,20.341,9.253,43.327-.881,51.111C7.346,33.126-15.2,25.71-29,13.96-42.81,2.137-47.877-14.092-43.545-30.762-39.286-47.358-25.627-64.4-13-64.1-.292-63.734,11.385-46.036,18.287-25.768Z" transform="translate(796.608 1388.069) rotate(-30)"/><g transform="translate(-5 1)"><path class="b" d="M24.236,88.236C10.854,88.236,0,84.617,0,80.157V72.079C0,67.619,10.854,64,24.236,64s24.236,3.619,24.236,8.079v8.079C48.472,84.617,37.617,88.236,24.236,88.236Zm0-20.2c-8.923,0-16.157,1.8-16.157,4.039s7.235,4.039,16.157,4.039,16.157-1.8,16.157-4.039S33.159,68.039,24.236,68.039Z" transform="translate(763.429 1278.28)"/><path class="c" d="M24.236,120.551C10.854,120.551,0,116.93,0,112.472v-8.079a3.391,3.391,0,0,1,.856-2.02c2.7,3.479,12.1,6.059,23.38,6.059s20.678-2.58,23.38-6.059a3.391,3.391,0,0,1,.856,2.02v8.079C48.472,116.93,37.617,120.551,24.236,120.551Zm0-16.157C10.854,104.394,0,100.772,0,96.315V88.236A2.741,2.741,0,0,1,.379,86.98h0a4.207,4.207,0,0,1,.477-.763c2.7,3.477,12.1,6.059,23.38,6.059s20.678-2.582,23.38-6.059a4.2,4.2,0,0,1,.477.763h0a2.741,2.741,0,0,1,.379,1.256v8.079C48.472,100.772,37.617,104.394,24.236,104.394Z" transform="translate(763.429 1279.28)"/><g transform="translate(-692 585)"><rect class="b" width="2" height="34" transform="translate(1448 770)"/><circle class="b" cx="2" cy="2" r="2" transform="translate(1447 767)"/><circle class="b" cx="2" cy="2" r="2" transform="translate(1447 784)"/><circle class="b" cx="2" cy="2" r="2" transform="translate(1447 800)"/></g></g></g></svg>