<svg xmlns="http://www.w3.org/2000/svg" width="106.362" height="114.9" viewBox="0 0 106.362 114.9"><defs><style>.a{fill:#eff2f6;}.b{fill:#9d3789;}.b,.c{fill-rule:evenodd;}.c{fill:#562b55;}</style></defs><g transform="translate(-147.54 -1504.416)"><path class="a" d="M63.338,54.314c6.976-20.341,9.253-43.327-.881-51.111C52.4-4.581,29.852,2.836,16.046,14.585,2.24,26.408-2.827,42.637,1.506,59.307,5.765,75.9,19.424,92.94,32.055,92.647,44.759,92.279,56.435,74.582,63.338,54.314Z" transform="translate(207.577 1619.316) rotate(-150)"/><g transform="translate(172 1531)"><g transform="translate(3 2)"><g transform="translate(0)"><path class="b" d="M51.988,9.2a3.791,3.791,0,0,0-1.95-3.295A53.534,53.534,0,0,0,26,0,53.523,53.523,0,0,0,1.961,5.91,3.786,3.786,0,0,0,.012,9.2c-.134,9.29.45,31.758,24.1,47.994a3.355,3.355,0,0,0,3.77,0C51.539,40.963,52.12,18.494,51.988,9.2Zm-24.8,42.732a1.992,1.992,0,0,1-2.367-.008C6.131,37.746,4.793,18.732,4.758,11.277A2.538,2.538,0,0,1,6.134,9.019c4.5-2.391,12.149-4.2,19.865-4.2s15.368,1.809,19.868,4.2a2.542,2.542,0,0,1,1.376,2.256c-.032,7.47-1.339,26.609-20.056,40.661Z"/></g></g></g><path class="c" d="M5.269,16.267a96.21,96.21,0,0,1,25.863-8.4,1.439,1.439,0,0,1,1.552,1.9A46.806,46.806,0,0,1,17.6,31.486a2.006,2.006,0,0,1-2.5,0A47.431,47.431,0,0,1,4.362,19.2a2.081,2.081,0,0,1,.906-2.933Z" transform="translate(184.652 1550.348)"/><path class="c" d="M37.606,14.867c-5.772,1.077-18.753,3.915-30.594,9.4a1.415,1.415,0,0,1-1.927-.783A48.615,48.615,0,0,1,2.13,8.613,3.047,3.047,0,0,1,3.779,5.745c4.043-2,10.58-3.493,17.176-3.493S34.082,3.74,38.125,5.743a3.025,3.025,0,0,1,1.654,2.848c-.042,1.194-.151,2.665-.37,4.336a2.253,2.253,0,0,1-1.8,1.94Z" transform="translate(180.044 1537.977)"/></g></svg>