<svg xmlns="http://www.w3.org/2000/svg" width="105.249" height="94.727" viewBox="0 0 105.249 94.727"><defs><style>.a{fill:#eff2f6;}.b{fill:#de5063;stroke:#fff;stroke-width:2px;}.c{fill:#fff;}.d{stroke:none;}.e{fill:none;}</style></defs><g transform="translate(-728.211 -1514.915)"><path class="a" d="M26.331-43.62c12.958,29.727-6.783,52.043-15.8,58.97-8.953,6.927-29.015.327-41.3-10.129C-43.057-5.3-47.566-19.743-43.711-34.577c3.79-14.769,15.945-29.93,27.186-29.669C-5.219-63.919,13.373-73.347,26.331-43.62Z" transform="matrix(0.259, 0.966, -0.966, 0.259, 757.451, 1575.362)"/><g transform="matrix(0.921, 0.391, -0.391, 0.921, 787.058, 1520.947)"><g class="b" transform="translate(0 0)"><ellipse class="d" cx="15.63" cy="15.63" rx="15.63" ry="15.63"/><ellipse class="e" cx="15.63" cy="15.63" rx="14.63" ry="14.63"/></g><path class="c" d="M5.841,12.718H3.2V4.055H0V2.286H.929a2.69,2.69,0,0,0,1.893-.625,2.264,2.264,0,0,0,.661-1.5L3.5,0h2.34Z" transform="translate(11.753 9.61)"/></g><g transform="matrix(0.921, 0.391, -0.391, 0.921, 769.196, 1516.481)"><g class="b" transform="translate(0 0)"><ellipse class="d" cx="15.63" cy="15.63" rx="15.63" ry="15.63"/><ellipse class="e" cx="15.63" cy="15.63" rx="14.63" ry="14.63"/></g><path class="c" d="M5.841,12.718H3.2V4.055H0V2.286H.929a2.69,2.69,0,0,0,1.893-.625,2.264,2.264,0,0,0,.661-1.5L3.5,0h2.34Z" transform="translate(11.753 9.61)"/></g><g transform="matrix(0.966, -0.259, 0.259, 0.966, 731.54, 1550.484)"><g class="b" transform="translate(0)"><ellipse class="d" cx="15.63" cy="15.63" rx="15.63" ry="15.63"/><ellipse class="e" cx="15.63" cy="15.63" rx="14.63" ry="14.63"/></g><path class="c" d="M5.841,12.718H3.2V4.055H0V2.286H.929a2.69,2.69,0,0,0,1.893-.625,2.264,2.264,0,0,0,.661-1.5L3.5,0h2.34Z" transform="translate(11.753 9.61)"/></g><g transform="matrix(0.966, -0.259, 0.259, 0.966, 747.17, 1534.855)"><g class="b" transform="translate(0)"><ellipse class="d" cx="15.63" cy="15.63" rx="15.63" ry="15.63"/><ellipse class="e" cx="15.63" cy="15.63" rx="14.63" ry="14.63"/></g><path class="c" d="M5.841,12.718H3.2V4.055H0V2.286H.929a2.69,2.69,0,0,0,1.893-.625,2.264,2.264,0,0,0,.661-1.5L3.5,0h2.34Z" transform="translate(11.753 9.61)"/></g><g transform="translate(750.683 1545.906)"><g class="b" transform="translate(0.317 0.094)"><circle class="d" cx="15.5" cy="15.5" r="15.5"/><circle class="e" cx="15.5" cy="15.5" r="14.5"/></g><path class="c" d="M6.369,1.326H3.725V-7.337H.528V-9.106h.929A2.69,2.69,0,0,0,3.35-9.731a2.264,2.264,0,0,0,.661-1.5l.018-.161h2.34Z" transform="translate(11.225 21.002)"/></g><g transform="matrix(0.966, -0.259, 0.259, 0.966, 762.799, 1544.902)"><g class="b" transform="translate(0)"><ellipse class="d" cx="15.63" cy="15.63" rx="15.63" ry="15.63"/><ellipse class="e" cx="15.63" cy="15.63" rx="14.63" ry="14.63"/></g><path class="c" d="M5.841,12.718H3.2V4.055H0V2.286H.929a2.69,2.69,0,0,0,1.893-.625,2.264,2.264,0,0,0,.661-1.5L3.5,0h2.34Z" transform="translate(11.753 9.61)"/></g><g transform="translate(787.194 1539.787) rotate(17)"><g class="b" transform="translate(0 0)"><ellipse class="d" cx="15.63" cy="15.63" rx="15.63" ry="15.63"/><ellipse class="e" cx="15.63" cy="15.63" rx="14.63" ry="14.63"/></g><path class="c" d="M5.841,12.718H3.2V4.055H0V2.286H.929a2.69,2.69,0,0,0,1.893-.625,2.264,2.264,0,0,0,.661-1.5L3.5,0h2.34Z" transform="translate(11.753 9.61)"/></g><g transform="matrix(0.966, -0.259, 0.259, 0.966, 795.175, 1546.019)"><g class="b" transform="translate(0)"><ellipse class="d" cx="15.63" cy="15.63" rx="15.63" ry="15.63"/><ellipse class="e" cx="15.63" cy="15.63" rx="14.63" ry="14.63"/></g><path class="c" d="M5.841,12.718H3.2V4.055H0V2.286H.929a2.69,2.69,0,0,0,1.893-.625,2.264,2.264,0,0,0,.661-1.5L3.5,0h2.34Z" transform="translate(11.753 9.61)"/></g><g transform="matrix(0.966, -0.259, 0.259, 0.966, 761.683, 1564.998)"><g class="b" transform="translate(0)"><ellipse class="d" cx="15.63" cy="15.63" rx="15.63" ry="15.63"/><ellipse class="e" cx="15.63" cy="15.63" rx="14.63" ry="14.63"/></g><path class="c" d="M5.841,12.718H3.2V4.055H0V2.286H.929a2.69,2.69,0,0,0,1.893-.625,2.264,2.264,0,0,0,.661-1.5L3.5,0h2.34Z" transform="translate(11.753 9.61)"/></g><g transform="matrix(0.966, -0.259, 0.259, 0.966, 740.471, 1566.114)"><g class="b" transform="translate(0)"><ellipse class="d" cx="15.63" cy="15.63" rx="15.63" ry="15.63"/><ellipse class="e" cx="15.63" cy="15.63" rx="14.63" ry="14.63"/></g><path class="c" d="M5.841,12.718H3.2V4.055H0V2.286H.929a2.69,2.69,0,0,0,1.893-.625,2.264,2.264,0,0,0,.661-1.5L3.5,0h2.34Z" transform="translate(11.753 9.61)"/></g><g transform="matrix(0.966, -0.259, 0.259, 0.966, 785.128, 1564.998)"><g class="b" transform="translate(0)"><ellipse class="d" cx="15.63" cy="15.63" rx="15.63" ry="15.63"/><ellipse class="e" cx="15.63" cy="15.63" rx="14.63" ry="14.63"/></g><path class="c" d="M5.841,12.718H3.2V4.055H0V2.286H.929a2.69,2.69,0,0,0,1.893-.625,2.264,2.264,0,0,0,.661-1.5L3.5,0h2.34Z" transform="translate(11.753 9.61)"/></g></g></svg>