<?xml version="1.0" encoding="utf-8"?>
<!-- Generator: Adobe Illustrator 24.1.0, SVG Export Plug-In . SVG Version: 6.00 Build 0)  -->
<svg version="1.1" id="Layer_1" xmlns="http://www.w3.org/2000/svg" xmlns:xlink="http://www.w3.org/1999/xlink" x="0px" y="0px"
	 viewBox="0 0 1243 112" style="enable-background:new 0 0 1243 112;" xml:space="preserve">
<path d="M1242.71,111.69v-1.04c-13.89,0.64-28.43,0.96-43.2,0.96c-16.81,0-34.53-0.42-52.66-1.24c-17.37-0.8-35.74-1.99-54.58-3.55
	c-35.01-2.9-72.62-7.11-114.96-12.87C898.07,83.17,813.5,68.46,723.96,52.9h-0.01h-0.01c-68.76-11.95-139.85-24.31-214.42-35.95
	c-19.51-3.04-39.32-5.72-58.87-7.96c-18.76-2.15-37.78-3.95-56.54-5.35c-35.1-2.62-70.58-3.95-105.48-3.95
	c-56.33-0.04-112.61,3.45-168.5,10.44C79.77,15.14,39.71,22.28,0.1,31.5v80.18H1242.71z"/>
</svg>
