<svg xmlns="http://www.w3.org/2000/svg" xmlns:xlink="http://www.w3.org/1999/xlink" width="1800" height="649.031" viewBox="0 0 1800 649.031"><defs><radialGradient id="a" cx="0.728" cy="0.29" r="2.854" gradientTransform="matrix(-0.078, 0.997, -0.542, -0.043, 0.942, -0.423)" gradientUnits="objectBoundingBox"><stop offset="0" stop-color="#9d3789"/><stop offset="1" stop-color="#562b55"/></radialGradient><linearGradient id="b" x1="-0.027" y1="0.314" x2="0.866" y2="0.748" gradientUnits="objectBoundingBox"><stop offset="0" stop-color="#9d3789"/><stop offset="1" stop-color="#4f1c45" stop-opacity="0"/></linearGradient></defs><g transform="translate(-9 -4077.022)"><path d="M1737.416,1006.053c-24.353,0-50.019-.46-76.285-1.367-25.174-.87-51.776-2.18-79.068-3.9-50.718-3.188-105.191-7.816-166.532-14.148-114.769-11.848-237.282-28.01-366.989-45.123-99.6-13.14-202.581-26.726-310.622-39.52-28.261-3.347-56.95-6.291-85.268-8.752-27.17-2.361-54.726-4.34-81.9-5.881-50.846-2.884-102.256-4.345-152.8-4.345-82.519,0-164.643,3.86-244.09,11.473C113.363,900.293,54.869,908.2,0,918V403c54.868-9.8,113.364-17.705,173.864-23.5,79.454-7.614,161.576-11.474,244.084-11.474,50.551,0,101.96,1.462,152.8,4.345,27.174,1.541,54.729,3.52,81.9,5.881,28.317,2.461,57.008,5.406,85.274,8.753,108.017,12.791,211,26.378,310.6,39.517l.017,0,.021,0c129.7,17.111,252.207,33.273,366.971,45.12,61.34,6.332,115.814,10.96,166.532,14.148,27.292,1.715,53.894,3.026,79.068,3.9,26.266.907,51.932,1.367,76.285,1.367,21.4,0,42.457-.354,62.583-1.053v515C1779.864,1005.7,1758.808,1006.053,1737.416,1006.053Z" transform="translate(9 3720)" fill="url(#a)"/><path d="M1737.416,866.053c-24.353,0-50.019-.46-76.285-1.367-25.174-.87-51.776-2.18-79.068-3.9-50.718-3.188-105.191-7.816-166.532-14.148-114.769-11.848-237.282-28.01-366.989-45.123-99.6-13.14-202.581-26.726-310.622-39.52-28.261-3.347-56.95-6.291-85.268-8.752-27.17-2.361-54.726-4.34-81.9-5.881-50.846-2.884-102.256-4.345-152.8-4.345-82.519,0-164.643,3.86-244.09,11.473C113.363,760.293,54.869,768.2,0,778V753c54.868-9.8,113.364-17.705,173.864-23.5,79.454-7.614,161.576-11.474,244.084-11.474,50.551,0,101.96,1.462,152.8,4.345,27.174,1.541,54.729,3.52,81.9,5.881,28.317,2.461,57.008,5.406,85.274,8.753,108.017,12.791,211,26.378,310.6,39.517l.017,0,.021,0c129.7,17.111,252.207,33.273,366.971,45.12,61.34,6.332,115.814,10.96,166.532,14.148,27.292,1.715,53.894,3.026,79.068,3.9,26.266.907,51.932,1.367,76.285,1.367,21.4,0,42.457-.354,62.583-1.053v25C1779.864,865.7,1758.808,866.053,1737.416,866.053Z" transform="translate(9 3359)" fill="url(#b)"/></g><text transform="translate(494 205.978)" fill="#fff" font-size="14" font-family="ProximaNova-Regular, Proxima Nova"><tspan x="0" y="0">Privacy Policy</tspan></text><text transform="translate(619 205.978)" fill="#fff" font-size="14" font-family="ProximaNova-Regular, Proxima Nova"><tspan x="0" y="0">Terms of Service</tspan></text><text transform="translate(761 205.978)" fill="#fff" font-size="14" font-family="ProximaNova-Regular, Proxima Nova"><tspan x="0" y="0">Responsible Disclosure Policy</tspan></text><text transform="translate(494 105.978)" fill="#fff" font-size="16" font-family="ProximaNova-Bold, Proxima Nova" font-weight="700"><tspan x="0" y="0">Pricing</tspan></text><text transform="translate(599 105.978)" fill="#fff" font-size="16" font-family="ProximaNova-Bold, Proxima Nova" font-weight="700"><tspan x="0" y="0">Company</tspan></text><text transform="translate(721 105.978)" fill="#fff" font-size="16" font-family="ProximaNova-Bold, Proxima Nova" font-weight="700"><tspan x="0" y="0">Community</tspan></text><g transform="translate(323.997 88.689)"><path d="M850,498.51V484.991h3.09V486.4a5.349,5.349,0,0,1,1.352-1.077,3.284,3.284,0,0,1,1.518-.331,4.722,4.722,0,0,1,2.441.773,1.562,1.562,0,0,1,0,1.811c-.6,1.181-1.352.916-1.352.916a2.808,2.808,0,0,0-1.642-.608q-1.931,0-2.318,2.355v8.273Z" transform="translate(-796.357 -477.215)" fill="#fff"/><path d="M850,498.51V484.991h3.09V486.4a5.349,5.349,0,0,1,1.352-1.077,3.284,3.284,0,0,1,1.518-.331,4.722,4.722,0,0,1,2.441.773,1.562,1.562,0,0,1,0,1.811c-.6,1.181-1.352.916-1.352.916a2.808,2.808,0,0,0-1.642-.608q-1.931,0-2.318,2.355v8.273Z" transform="translate(-765.666 -477.215)" fill="#fff"/><path d="M1016.925,497.99a6.287,6.287,0,0,1-1.091-.623,6.565,6.565,0,0,1-.951-.826,6.775,6.775,0,0,1-1.375-2.149,7.111,7.111,0,0,1,0-5.263,6.8,6.8,0,0,1,.592-1.148,6.7,6.7,0,0,1,.784-1,6.554,6.554,0,0,1,.95-.826,6.314,6.314,0,0,1,1.091-.623,6.15,6.15,0,0,1,5,0,6.363,6.363,0,0,1,1.091.623,6.62,6.62,0,0,1,.95.826,6.829,6.829,0,0,1,.784,1,6.923,6.923,0,0,1,.592,1.148,7.044,7.044,0,0,1,.5,2.631c0,.226-.011.453-.032.676h-10.059a3.976,3.976,0,0,0,1.055,2.138,3.754,3.754,0,0,0,1.2.838,3.655,3.655,0,0,0,2.933,0,3.754,3.754,0,0,0,1.2-.838,3.977,3.977,0,0,0,.4-.5s.148-.59,1.425-.59,1.494.59,1.494.59c-.037.106-.076.211-.118.314a6.818,6.818,0,0,1-.592,1.148,6.723,6.723,0,0,1-.784,1,6.567,6.567,0,0,1-.95.826,6.326,6.326,0,0,1-1.091.623A6.15,6.15,0,0,1,1016.925,497.99Zm5.9-7.967a3.877,3.877,0,0,0-.689-.979,3.734,3.734,0,0,0-1.2-.838,3.652,3.652,0,0,0-2.932,0,3.754,3.754,0,0,0-1.2.838,3.893,3.893,0,0,0-.687.979Z" transform="translate(-943.516 -477.226)" fill="#fff"/><path d="M716.649,498.519A5.645,5.645,0,0,1,711,492.87V485h3.09v8.063a2.559,2.559,0,0,0,5.118,0V485h3.09v7.87a5.645,5.645,0,0,1-5.649,5.649Z" transform="translate(-670.82 -477.224)" fill="#fff"/><path d="M555.913,498.709a6.749,6.749,0,1,1,2.63-.531,6.749,6.749,0,0,1-2.63.531Zm0-10.333a3.685,3.685,0,0,0-2.595,1.062,3.588,3.588,0,0,0,0,5.118,3.7,3.7,0,0,0,5.189,0,3.588,3.588,0,0,0,0-5.118A3.681,3.681,0,0,0,555.913,488.377Z" transform="translate(-524.669 -477.414)" fill="#fff"/><g transform="translate(-0.037 2.303)"><path d="M307.361,451.725a11.442,11.442,0,0,1-9.022-18.427,5.1,5.1,0,0,1,1.435.957,5.552,5.552,0,0,1,.924,1.145,6.048,6.048,0,0,1,.714,1.725,6.744,6.744,0,0,0,11.666,6.752H318.2A11.39,11.39,0,0,1,307.361,451.725Zm10.831-15.018h-5.118a6.718,6.718,0,0,0-5.311-3.163,8.732,8.732,0,0,0-1.73-1.464,7.226,7.226,0,0,0-1.537-.758,5.714,5.714,0,0,0-1.877-.331,5.451,5.451,0,0,0-1.392.183,6.351,6.351,0,0,0-1.485.612,11.377,11.377,0,0,1,18.251,4.348c.073.188.142.377.2.569Z" transform="translate(-295.963 -428.844)" fill="#fff"/><path d="M475.342,501.974a5.173,5.173,0,0,1,2.691.743c.49,1.9-3.705,2.659-5.113,0A4.928,4.928,0,0,1,475.342,501.974Z" transform="translate(-455.832 -494.883)" fill="#fff"/><path d="M475.532,568.465a5.23,5.23,0,0,0,2.716-.742c.489-1.9-3.716-2.66-5.118,0A4.871,4.871,0,0,0,475.532,568.465Z" transform="translate(-456.022 -552.706)" fill="#fff"/><ellipse cx="0.579" cy="0.579" rx="0.579" ry="0.579" transform="translate(6.667 3.395)" fill="#fff"/><path d="M372.065,527.718a6.934,6.934,0,0,1-6.8-5.588,11.781,11.781,0,0,0,8.262,5.436A7.035,7.035,0,0,1,372.065,527.718Z" transform="translate(-358.568 -513.082)" fill="#fff"/></g><rect width="3.09" height="13.519" transform="translate(64.191 7.776)" fill="#fff"/><ellipse cx="2.124" cy="2.124" rx="2.124" ry="2.124" transform="translate(63.612)" fill="#fff"/></g><path d="M12,2.163c3.2,0,3.584.012,4.85.07,3.252.148,4.771,1.691,4.919,4.919.058,1.265.069,1.645.069,4.849s-.012,3.584-.069,4.849c-.149,3.225-1.664,4.771-4.919,4.919-1.266.058-1.644.07-4.85.07s-3.584-.012-4.849-.07c-3.26-.149-4.771-1.7-4.919-4.92-.058-1.265-.07-1.644-.07-4.849s.013-3.583.07-4.849C2.381,3.924,3.9,2.38,7.151,2.232,8.417,2.175,8.8,2.163,12,2.163ZM12,0C8.741,0,8.333.014,7.053.072,2.7.272.273,2.69.073,7.052.014,8.333,0,8.741,0,12s.014,3.668.072,4.948c.2,4.358,2.618,6.78,6.98,6.98C8.333,23.986,8.741,24,12,24s3.668-.014,4.948-.072c4.354-.2,6.782-2.618,6.979-6.98C23.986,15.668,24,15.259,24,12s-.014-3.667-.072-4.947c-.2-4.354-2.617-6.78-6.979-6.98C15.668.014,15.259,0,12,0Zm0,5.838A6.163,6.163,0,1,0,18.162,12,6.162,6.162,0,0,0,12,5.838ZM12,16a4,4,0,1,1,4-4A4,4,0,0,1,12,16ZM18.406,4.155a1.44,1.44,0,1,0,1.439,1.44A1.441,1.441,0,0,0,18.406,4.155Z" transform="translate(637 140.978)" fill="#fff"/><path d="M24,4.557a9.831,9.831,0,0,1-2.828.775,4.932,4.932,0,0,0,2.165-2.724A9.864,9.864,0,0,1,20.21,3.8a4.927,4.927,0,0,0-8.391,4.49A13.978,13.978,0,0,1,1.671,3.149,4.93,4.93,0,0,0,3.194,9.723,4.9,4.9,0,0,1,.965,9.107,4.927,4.927,0,0,0,4.914,14a4.935,4.935,0,0,1-2.224.084A4.928,4.928,0,0,0,7.29,17.5,9.9,9.9,0,0,1,0,19.54a13.939,13.939,0,0,0,7.548,2.212A13.925,13.925,0,0,0,21.543,7.106,10.025,10.025,0,0,0,24,4.557Z" transform="translate(494 140.73)" fill="#fff"/><path d="M2.782-87.069H-7.68A1.322,1.322,0,0,1-9-88.391v-21.289A1.322,1.322,0,0,1-7.68-111H13.609a1.322,1.322,0,0,1,1.321,1.32v21.289a1.323,1.323,0,0,1-1.321,1.321h-7.1v-9.267h3.11l.465-3.612H6.511v-2.306c0-1.055.3-1.758,1.789-1.758h1.912v-3.23a25.5,25.5,0,0,0-2.786-.142,4.646,4.646,0,0,0-3.357,1.228,4.845,4.845,0,0,0-1.288,3.546v2.663H-.337v3.612H2.782v9.267Z" transform="translate(600 251.978)" fill="#fff"/><path d="M19,0H5A5,5,0,0,0,0,5V19a5,5,0,0,0,5,5H19a5,5,0,0,0,5-5V5A5,5,0,0,0,19,0ZM8,19H5V8H8ZM6.5,6.732A1.764,1.764,0,1,1,8.25,4.968,1.758,1.758,0,0,1,6.5,6.732ZM20,19H17V13.4c0-3.368-4-3.113-4,0V19H10V8h3V9.765c1.4-2.586,7-2.777,7,2.476Z" transform="translate(540 140.978)" fill="#fff"/></svg>