<svg xmlns="http://www.w3.org/2000/svg" xmlns:xlink="http://www.w3.org/1999/xlink" width="683" height="347" viewBox="0 0 683 347"><defs><filter id="a" x="0" y="0" width="683" height="347" filterUnits="userSpaceOnUse"><feOffset dx="10" dy="23" input="SourceAlpha"/><feGaussianBlur stdDeviation="18" result="b"/><feFlood flood-color="#24324b"/><feComposite operator="in" in2="b"/><feComposite in="SourceGraphic"/></filter></defs><g transform="translate(-33 -2391)"><g transform="translate(-319 -91)"><g transform="translate(64 44.182)"><g transform="matrix(1, 0, 0, 1, 288, 2437.82)" filter="url(#a)"><rect width="575" height="239" rx="20" transform="translate(44 31)" fill="#fff"/></g><rect width="600" height="216" rx="20" transform="translate(319 2484.818)" fill="#fff" opacity="0.167"/></g><path d="M20,0h7a0,0,0,0,1,0,0V239a0,0,0,0,1,0,0H20A20,20,0,0,1,0,219V20A20,20,0,0,1,20,0Z" transform="translate(396 2513)" fill="#5fd6bd" opacity="0.199"/><text transform="translate(415 2541)" fill="#344563" font-size="9" font-family="RobotoMono-Regular, Roboto Mono"><tspan x="-5.401" y="0">1</tspan><tspan x="-5.401" y="21">2</tspan><tspan x="-5.401" y="42">3</tspan><tspan x="-5.401" y="63">4</tspan><tspan x="-5.401" y="84">5</tspan><tspan x="-5.401" y="105">6</tspan><tspan x="-5.401" y="126">7</tspan><tspan x="-5.401" y="147">8</tspan><tspan x="-5.401" y="168">9</tspan><tspan x="-10.802" y="189">10</tspan></text></g><text transform="translate(116 2452.692)" fill="#344563" font-size="14" font-family="RobotoMono-Regular, Roboto Mono" letter-spacing="0.04em"><tspan x="0" y="0">{</tspan><tspan x="0" y="21">	</tspan><tspan y="21" fill="#009a79">“event”</tspan><tspan y="21">: </tspan><tspan y="21" fill="#26699e">“how-is-work-going”</tspan><tspan y="21">,</tspan><tspan x="0" y="42">	</tspan><tspan y="42" fill="#009a79">“recipient”</tspan><tspan y="42">: </tspan><tspan y="42" fill="#26699e">“@morgan”</tspan><tspan y="42">,</tspan><tspan x="0" y="63" xml:space="preserve">   </tspan><tspan fill="#009a79"><tspan x="0" y="84" xml:space="preserve">	“data”</tspan><tspan y="84" fill="#344563">: {</tspan></tspan><tspan x="0" y="105" xml:space="preserve">		</tspan><tspan y="105" fill="#009a79">“employee_name”</tspan><tspan y="105">: </tspan><tspan y="105" fill="#26699e">“Morgan”</tspan><tspan y="105">,</tspan><tspan x="0" y="126" xml:space="preserve">		</tspan><tspan y="126" fill="#009a79">“manager_name”</tspan><tspan y="126">: </tspan><tspan y="126" fill="#26699e">“Blake”</tspan><tspan y="126">,</tspan><tspan x="0" y="147" xml:space="preserve">		</tspan><tspan y="147" fill="#009a79">“week_id”</tspan><tspan y="147">: </tspan><tspan y="147" fill="#9d3789">42</tspan><tspan x="0" y="168" xml:space="preserve">	}</tspan><tspan x="0" y="189">}</tspan></text></g></svg>