<?xml version="1.0" encoding="utf-8"?>
<!-- Generator: Adobe Illustrator 24.1.0, SVG Export Plug-In . SVG Version: 6.00 Build 0)  -->
<svg version="1.1" id="Layer_1" xmlns="http://www.w3.org/2000/svg" xmlns:xlink="http://www.w3.org/1999/xlink" x="0px" y="0px"
	 viewBox="0 0 1243 116" style="enable-background:new 0 0 1243 116;" xml:space="preserve">
<path fill="#F00" d="M0.2,0.4v35.1c39.61-9.22,79.67-16.36,120.02-21.38c55.9-6.99,112.17-10.48,168.5-10.44c34.89,0,70.38,1.33,105.48,3.95
	c18.76,1.4,37.78,3.2,56.54,5.35c19.55,2.24,39.35,4.92,58.86,7.96c74.58,11.64,145.68,24,214.44,35.95
	c89.54,15.57,174.11,30.27,253.34,41.05c42.35,5.76,79.95,9.97,114.96,12.87c18.84,1.56,37.21,2.76,54.58,3.55
	c18.13,0.82,35.85,1.24,52.66,1.24c14.77,0,29.3-0.32,43.2-0.96V0.4H0.2z"/>
</svg>
