<svg xmlns="http://www.w3.org/2000/svg" width="1366" height="1249.031" viewBox="0 0 1366 1249.031">
  <path id="Path_4391" data-name="Path 4391" d="M1318.506,2007.053c-18.481,0-37.959-.46-57.892-1.367-19.1-.869-39.292-2.18-60-3.9-38.489-3.188-79.828-7.816-126.38-14.148-87.1-11.848-180.071-28.01-278.5-45.123C720.145,1929.381,641.991,1915.794,560,1903c-21.447-3.347-43.218-6.291-64.709-8.752-20.619-2.361-41.531-4.34-62.156-5.881-38.586-2.884-77.6-4.345-115.959-4.345A1484.216,1484.216,0,0,0,131.939,1895.5,1277.276,1277.276,0,0,0,0,1919V793a1277.444,1277.444,0,0,1,131.944-23.5,1484.235,1484.235,0,0,1,185.233-11.474c38.363,0,77.376,1.462,115.957,4.345,20.622,1.541,41.533,3.52,62.153,5.881,21.49,2.461,43.263,5.406,64.714,8.753,81.973,12.791,160.129,26.378,235.712,39.517l.013,0,.016,0c98.428,17.111,191.4,33.273,278.49,45.12,46.551,6.332,87.89,10.96,126.38,14.148,20.712,1.715,40.9,3.026,60,3.9,19.933.907,39.411,1.367,57.892,1.367,16.241,0,32.22-.354,47.494-1.053V2006C1350.719,2006.7,1334.74,2007.053,1318.506,2007.053Z" transform="translate(0 -758.022)" fill="#f7f6f9"/>
</svg>
