<svg xmlns="http://www.w3.org/2000/svg" width="66.636" height="19.039" viewBox="0 0 66.636 19.039"><path d="M21,49.076a2.345,2.345,0,0,0,.549,1.232c.443.587,1.205.91,1.761.392.375-.349,4.432-6.768,6.388-9.2a.618.618,0,0,1,.955,0c1.955,2.432,6.012,8.851,6.388,9.2.556.518,1.318.2,1.761-.392a2.213,2.213,0,0,0,.557-1.417c0-.295-6.319-10.937-6.955-11.823-.612-.852-.8-1.037-1.834-1.067h-.79c-1.035.03-1.222.215-1.834,1.067-.623.867-6.695,11.09-6.947,11.792Z" transform="translate(-21 -36)" fill="#fff" fill-rule="evenodd"/><path d="M52,50.408V36h8.9v2.573H54.712V41.8h5.626v2.47H54.712v3.561H60.9v2.573Zm10.958,0,3.7-5.64L63.179,39.5h2.712l2.391,3.664h.04L70.714,39.5h2.712L69.95,44.768l3.7,5.64H70.854L68.323,46.5h-.04l-2.532,3.911Zm12.7,4.631V39.5h2.492v1.05h.04l.1-.154a2.149,2.149,0,0,1,.311-.319,3.769,3.769,0,0,1,.553-.412,3.268,3.268,0,0,1,.814-.329,4.028,4.028,0,0,1,1.1-.144,4.347,4.347,0,0,1,3.305,1.554,6.009,6.009,0,0,1,1.416,4.209,6.142,6.142,0,0,1-1.366,4.219A4.269,4.269,0,0,1,81.1,50.717a3.814,3.814,0,0,1-1.075-.144,3.035,3.035,0,0,1-.794-.34,4.386,4.386,0,0,1-.523-.391,2.069,2.069,0,0,1-.321-.34l-.08-.144h-.04v5.681Zm2.612-11.217v2.243a2.177,2.177,0,0,0,2.291,2.244,2.353,2.353,0,0,0,1.879-.865,3.748,3.748,0,0,0,.733-2.49,3.784,3.784,0,0,0-.723-2.49,2.345,2.345,0,0,0-1.889-.865,2.176,2.176,0,0,0-2.291,2.223Zm14.306,6.9A4.655,4.655,0,0,1,89,49.193a6.014,6.014,0,0,1-1.406-4.24,5.926,5.926,0,0,1,1.446-4.219,4.822,4.822,0,0,1,7.072,0,5.923,5.923,0,0,1,1.447,4.219,6.014,6.014,0,0,1-1.406,4.24A4.656,4.656,0,0,1,92.574,50.717Zm0-2.408a2.074,2.074,0,0,0,1.768-.875,4.132,4.132,0,0,0,.643-2.48,4.079,4.079,0,0,0-.653-2.48,2.212,2.212,0,0,0-3.516-.01,4.076,4.076,0,0,0-.653,2.49,4.124,4.124,0,0,0,.643,2.49A2.084,2.084,0,0,0,92.574,48.308Z" transform="translate(-30.921 -36)" fill="#fff"/></svg>