<svg xmlns="http://www.w3.org/2000/svg" width="93.64" height="27.01" viewBox="0 0 93.64 27.01"><path d="M52.855,19.009a12.555,12.555,0,0,0-8.991,3.562A12.8,12.8,0,0,0,40,31.51a12.408,12.408,0,0,0,1.274,5.43,12.284,12.284,0,0,0,3.517,4.3V46.01l4.377-2.523a13.194,13.194,0,0,0,3.687.523,12.32,12.32,0,0,0,9.069-3.484,12.588,12.588,0,0,0,0-18.032,12.32,12.32,0,0,0-9.069-3.484Zm1.277,16.834L50.86,32.177l-6.388,3.667L51.5,28.009l3.354,3.667,6.311-3.667Z" transform="translate(-40 -19)" fill="#fff"/><g transform="translate(34.081 0)"><g transform="translate(0 0)"><g transform="translate(0)"><path d="M68.05,9.305a2.794,2.794,0,0,0-1.237.334v3.813a8.068,8.068,0,0,0,.891.034c1.211,0,1.377-.554,1.377-1.329V10.336c0-.572-.19-1.031-1.031-1.031ZM60.01,9.1c-.84,0-1.032.461-1.032,1.032v.321H61.04v-.321C61.04,9.558,60.849,9.1,60.01,9.1ZM44.434,13.066a.6.6,0,0,0,.684.686,2.507,2.507,0,0,0,1.172-.334v-.9h-1.1C44.664,12.514,44.434,12.611,44.434,13.066ZM75.871,9.305c-.841,0-1.133.459-1.133,1.031v2.086c0,.573.292,1.034,1.133,1.034S77,13,77,12.422V10.336C77,9.764,76.71,9.305,75.871,9.305Zm-35.56,6.1H37.838V9.418H36.6V7.355h1.236V6.117c0-1.683.7-2.684,2.68-2.684h1.651V5.5H41.137c-.772,0-.823.288-.823.826l0,1.033H42.18l-.219,2.063h-1.65Zm8.453.015H46.7l-.089-.521a4.725,4.725,0,0,1-2.335.606A2.193,2.193,0,0,1,41.961,13.1c0-1.648.939-2.236,2.619-2.236h1.71v-.356c0-.841-.1-1.088-1.39-1.088H42.785l.207-2.063H45.3c2.838,0,3.46.9,3.46,3.167Zm7.01-5.851A11.8,11.8,0,0,0,53.505,9.3c-1.109,0-1.444.245-1.444,1.186v1.781c0,.942.335,1.187,1.444,1.187a11.771,11.771,0,0,0,2.268-.27V15.2a10.936,10.936,0,0,1-2.474.318c-2.655,0-3.711-1.4-3.711-3.414V10.657c0-2.019,1.056-3.418,3.711-3.418a10.884,10.884,0,0,1,2.474.32Zm7.74,2.533H58.978v.166c0,.942.335,1.187,1.444,1.187a14.419,14.419,0,0,0,2.885-.27V15.2a13,13,0,0,1-3.09.318c-2.656,0-3.712-1.4-3.712-3.414V10.45c0-1.765.784-3.211,3.5-3.211s3.5,1.429,3.5,3.211Zm8.04.038c0,1.95-.557,3.372-3.933,3.372a18.652,18.652,0,0,1-3.28-.314V4.053l2.472-.413v3.9a5.613,5.613,0,0,1,1.855-.3c2.473,0,2.885,1.109,2.885,2.89V12.14Zm7.926.042c0,1.682-.694,3.313-3.6,3.313s-3.614-1.631-3.614-3.313V10.559c0-1.683.707-3.314,3.614-3.314s3.6,1.631,3.6,3.314Zm7.921,0c0,1.682-.7,3.313-3.6,3.313s-3.614-1.631-3.614-3.313V10.559c0-1.683.707-3.314,3.614-3.314s3.6,1.631,3.6,3.314Zm8.128,3.222h-2.68l-2.266-3.784v3.784H88.108V4.053l2.473-.413v7.308l2.266-3.593h2.68l-2.475,3.921Zm-11.737-6.1c-.84,0-1.131.459-1.131,1.031v2.086c0,.573.292,1.034,1.131,1.034s1.136-.461,1.136-1.034V10.336C84.927,9.764,84.63,9.305,83.791,9.305Z" transform="translate(-36.601 -3.433)" fill="#fff"/></g><g transform="translate(0.863 14.948)"><path d="M37.568,20.175h.742l3.553,8.385h.025L45.4,20.175h.862v9.006h-.621V20.8h-.024l-3.463,8.385h-.56l-3.5-8.385h.1v8.385h-.621Z" transform="translate(-37.568 -20.175)" fill="#fff"/><path d="M49,26.353v-.025a3.881,3.881,0,0,0,.194,1.1,2.832,2.832,0,0,0,.474.916,2.185,2.185,0,0,0,.763.624,2.33,2.33,0,0,0,1.058.229,2.244,2.244,0,0,0,1.56-.5,2.6,2.6,0,0,0,.794-1.412h.484a3.348,3.348,0,0,1-.936,1.737,2.836,2.836,0,0,1-1.9.6,2.888,2.888,0,0,1-1.267-.266,2.58,2.58,0,0,1-.9-.716,3.028,3.028,0,0,1-.541-1.071,4.777,4.777,0,0,1-.178-1.331,4.656,4.656,0,0,1,.185-1.318,3.307,3.307,0,0,1,.554-1.108,2.742,2.742,0,0,1,.923-.764,2.8,2.8,0,0,1,1.305-.287,2.77,2.77,0,0,1,1.216.255,2.555,2.555,0,0,1,.885.694,3.093,3.093,0,0,1,.541,1.019,4.069,4.069,0,0,1,.184,1.241c0,.043,0,.142-.007.2s-.007.185-.007.185Zm4.894-.621a3.9,3.9,0,0,0-.179-.963,2.389,2.389,0,0,0-.453-.816,2.22,2.22,0,0,0-.728-.567,2.131,2.131,0,0,0-.977-.21,2.286,2.286,0,0,0-1.034.226,2.338,2.338,0,0,0-.753.587,2.374,2.374,0,0,0-.472.8,3.874,3.874,0,0,0-.2.944h4.8Z" transform="translate(-38.75 -20.453)" fill="#fff"/><path d="M56.538,27.285a1.979,1.979,0,0,0,.2.807,1.925,1.925,0,0,0,1.133.973,2.6,2.6,0,0,0,.828.127,4.377,4.377,0,0,0,.681-.057,2.363,2.363,0,0,0,.675-.21,1.4,1.4,0,0,0,.516-.427,1.131,1.131,0,0,0,.2-.694,1.023,1.023,0,0,0-.331-.828,2.323,2.323,0,0,0-.834-.433,8.468,8.468,0,0,0-1.082-.248,5.608,5.608,0,0,1-1.082-.287,2.2,2.2,0,0,1-.834-.541,1.692,1.692,0,0,1-.115-1.834,1.612,1.612,0,0,1,.554-.516,2.525,2.525,0,0,1,.757-.274,4.355,4.355,0,0,1,.84-.083,3.825,3.825,0,0,1,.955.115,2.063,2.063,0,0,1,.77.369,1.672,1.672,0,0,1,.509.624,2.331,2.331,0,0,1,.184.93h-.484a1.66,1.66,0,0,0-.146-.739,1.291,1.291,0,0,0-.407-.5,1.769,1.769,0,0,0-.618-.286,2.944,2.944,0,0,0-.764-.092,3.59,3.59,0,0,0-.668.065,1.929,1.929,0,0,0-.6.217,1.355,1.355,0,0,0-.439.4.986.986,0,0,0-.172.586,1,1,0,0,0,.191.637,1.36,1.36,0,0,0,.5.388,3.488,3.488,0,0,0,.7.236l.783.178q.484.089.91.21a2.577,2.577,0,0,1,.739.331,1.505,1.505,0,0,1,.49.541,1.764,1.764,0,0,1,.178.84,1.492,1.492,0,0,1-.242.879,1.867,1.867,0,0,1-.611.554,2.588,2.588,0,0,1-.821.293,4.9,4.9,0,0,1-.885.083,3.526,3.526,0,0,1-1.038-.147,2.35,2.35,0,0,1-.834-.446,2.116,2.116,0,0,1-.56-.731,2.744,2.744,0,0,1-.216-1h.486Z" transform="translate(-39.549 -20.453)" fill="#fff"/><path d="M63.4,27.285a1.979,1.979,0,0,0,.2.807,1.925,1.925,0,0,0,1.133.973,2.6,2.6,0,0,0,.828.127,4.377,4.377,0,0,0,.681-.057,2.363,2.363,0,0,0,.675-.21,1.4,1.4,0,0,0,.516-.427,1.131,1.131,0,0,0,.2-.694,1.024,1.024,0,0,0-.331-.828,2.323,2.323,0,0,0-.834-.433A8.468,8.468,0,0,0,65.39,26.3a5.608,5.608,0,0,1-1.082-.287,2.2,2.2,0,0,1-.834-.541,1.692,1.692,0,0,1-.115-1.834,1.612,1.612,0,0,1,.554-.516,2.525,2.525,0,0,1,.757-.274,4.355,4.355,0,0,1,.84-.083,3.825,3.825,0,0,1,.955.115,2.063,2.063,0,0,1,.77.369,1.673,1.673,0,0,1,.509.624,2.316,2.316,0,0,1,.186.93h-.484a1.66,1.66,0,0,0-.146-.739,1.291,1.291,0,0,0-.407-.5,1.769,1.769,0,0,0-.618-.286,2.944,2.944,0,0,0-.764-.092,3.59,3.59,0,0,0-.668.065,1.929,1.929,0,0,0-.6.217,1.355,1.355,0,0,0-.439.4.986.986,0,0,0-.172.586,1,1,0,0,0,.191.637,1.36,1.36,0,0,0,.5.388,3.488,3.488,0,0,0,.7.236l.783.178q.484.089.91.21a2.577,2.577,0,0,1,.739.331,1.505,1.505,0,0,1,.49.541,1.764,1.764,0,0,1,.178.84,1.492,1.492,0,0,1-.242.879,1.867,1.867,0,0,1-.611.554,2.588,2.588,0,0,1-.821.293,4.9,4.9,0,0,1-.885.083,3.526,3.526,0,0,1-1.038-.147,2.349,2.349,0,0,1-.834-.446,2.116,2.116,0,0,1-.56-.731,2.745,2.745,0,0,1-.216-1H63.4Z" transform="translate(-40.285 -20.453)" fill="#fff"/><path d="M70.207,26.353v-.025a3.869,3.869,0,0,0,.15,1.1,2.791,2.791,0,0,0,.452.916,2.148,2.148,0,0,0,.752.624,2.306,2.306,0,0,0,1.053.229,2.237,2.237,0,0,0,1.557-.5,2.6,2.6,0,0,0,.791-1.412h.484a3.348,3.348,0,0,1-.936,1.737,2.836,2.836,0,0,1-1.9.6,2.888,2.888,0,0,1-1.267-.266,2.58,2.58,0,0,1-.9-.716A3.028,3.028,0,0,1,69.9,27.57a4.777,4.777,0,0,1-.178-1.331,4.656,4.656,0,0,1,.185-1.318,3.308,3.308,0,0,1,.554-1.108,2.742,2.742,0,0,1,.923-.764,2.8,2.8,0,0,1,1.305-.287,2.771,2.771,0,0,1,1.216.255,2.555,2.555,0,0,1,.885.694,3.093,3.093,0,0,1,.541,1.019,4.069,4.069,0,0,1,.184,1.241c0,.043,0,.142-.007.2s-.007.185-.007.185Zm4.807-.621a3.9,3.9,0,0,0-.179-.963,2.389,2.389,0,0,0-.453-.816,2.22,2.22,0,0,0-.728-.567,2.131,2.131,0,0,0-.977-.21,2.286,2.286,0,0,0-1.034.226,2.338,2.338,0,0,0-.753.587,2.374,2.374,0,0,0-.472.8,3.874,3.874,0,0,0-.2.944h4.8Z" transform="translate(-41.014 -20.453)" fill="#fff"/><path d="M77.571,22.936h.311v1.242h.1c.085,0,.206-.4.363-.588a2.269,2.269,0,0,1,.548-.456,2.372,2.372,0,0,1,.681-.289,2.812,2.812,0,0,1,.751-.093,2.972,2.972,0,0,1,.974.144,1.917,1.917,0,0,1,.656.371,1.792,1.792,0,0,1,.4.517,2.385,2.385,0,0,1,.21.58,3.217,3.217,0,0,1,.019.567c.008.183-.045.342-.045.478v4.048h-.311V25.321c0-.161-.042-.365-.067-.611A1.884,1.884,0,0,0,81.925,24a1.64,1.64,0,0,0-.567-.579,1.92,1.92,0,0,0-1.041-.242,2.316,2.316,0,0,0-1,.2,2.155,2.155,0,0,0-.739.566,2.564,2.564,0,0,0-.5.866,3.624,3.624,0,0,0-.2,1.1v3.539h-.311Z" transform="translate(-41.856 -20.452)" fill="#fff"/><path d="M90.118,22.937v6.179a4.417,4.417,0,0,1-.073,1.063,2.318,2.318,0,0,1-.411.911,2.1,2.1,0,0,1-.844.63,3.478,3.478,0,0,1-1.378.236,4.216,4.216,0,0,1-.975-.108,2.356,2.356,0,0,1-.8-.344,2.006,2.006,0,0,1-.552-.7,1.825,1.825,0,0,1-.234-1.036h.484a2.015,2.015,0,0,0,.216.813,1.686,1.686,0,0,0,.465.54,2.01,2.01,0,0,0,.643.305,3.155,3.155,0,0,0,.764.1,2.754,2.754,0,0,0,1.127-.2,1.981,1.981,0,0,0,1.121-1.264,3.317,3.317,0,0,0,.134-.833V27.6h-.089a2.15,2.15,0,0,1-.934,1.174,2.594,2.594,0,0,1-1.43.415,2.922,2.922,0,0,1-1.251-.231,2.4,2.4,0,0,1-.877-.68,2.939,2.939,0,0,1-.521-1.021,4.5,4.5,0,0,1-.172-1.271,4.071,4.071,0,0,1,.185-1.234,3.073,3.073,0,0,1,.541-1.025,2.615,2.615,0,0,1,.885-.7,3.058,3.058,0,0,1,2.648.085,3.1,3.1,0,0,1,.936,1.071h.078V22.937h.311Zm-2.757.246a2.121,2.121,0,0,0-1.038.242,2.195,2.195,0,0,0-.726.637,2.888,2.888,0,0,0-.433.9,3.653,3.653,0,0,0-.147,1.025,3.962,3.962,0,0,0,.147,1.089,2.574,2.574,0,0,0,.446.9,2.173,2.173,0,0,0,.739.6,2.205,2.205,0,0,0,1.012.223,2.255,2.255,0,0,0,1.044-.229,2.162,2.162,0,0,0,.745-.624,2.742,2.742,0,0,0,.446-.9,3.906,3.906,0,0,0,0-2.12,2.668,2.668,0,0,0-.446-.9,2.192,2.192,0,0,0-.745-.617A2.251,2.251,0,0,0,87.362,23.183Z" transform="translate(-42.602 -20.453)" fill="#fff"/><path d="M92.8,26.353v-.025a3.857,3.857,0,0,0,.084,1.1,2.742,2.742,0,0,0,.419.916,2.1,2.1,0,0,0,.736.624,2.272,2.272,0,0,0,1.045.229,2.227,2.227,0,0,0,1.553-.5,2.6,2.6,0,0,0,.787-1.412h.484a3.348,3.348,0,0,1-.936,1.737,2.836,2.836,0,0,1-1.9.6,2.887,2.887,0,0,1-1.267-.266,2.576,2.576,0,0,1-.9-.716,3.034,3.034,0,0,1-.541-1.071,4.777,4.777,0,0,1-.178-1.331,4.656,4.656,0,0,1,.185-1.318,3.3,3.3,0,0,1,.554-1.108,2.741,2.741,0,0,1,.923-.764,2.805,2.805,0,0,1,1.305-.287,2.771,2.771,0,0,1,1.216.255,2.555,2.555,0,0,1,.885.694,3.087,3.087,0,0,1,.541,1.019,4.069,4.069,0,0,1,.185,1.241c0,.043,0,.142-.007.2s-.007.185-.007.185Zm4.675-.621a3.925,3.925,0,0,0-.179-.963,2.384,2.384,0,0,0-.453-.816,2.221,2.221,0,0,0-.728-.567,2.132,2.132,0,0,0-.977-.21,2.285,2.285,0,0,0-1.034.226,2.336,2.336,0,0,0-.753.587,2.374,2.374,0,0,0-.472.8,3.875,3.875,0,0,0-.2.944h4.8Z" transform="translate(-43.422 -20.453)" fill="#fff"/><path d="M100.454,24.5h-.019a1.288,1.288,0,0,1,.325-.66,2.394,2.394,0,0,1,.573-.515,2.833,2.833,0,0,1,.748-.327,2.97,2.97,0,0,1,.857-.111v.484a2.2,2.2,0,0,0-.87.076,2.111,2.111,0,0,0-.934.56,4.512,4.512,0,0,0-.311.369,1.813,1.813,0,0,0-.223.395,2.509,2.509,0,0,0-.111.484,3.6,3.6,0,0,0-.035.637v3.577h-.621V22.951h.621Z" transform="translate(-44.242 -20.466)" fill="#fff"/></g></g></g></svg>