<svg xmlns="http://www.w3.org/2000/svg" width="81.979" height="24.055" viewBox="0 0 81.979 24.055"><g transform="translate(21.882 6.424)"><path d="M45.367,54.823H43.754V42.3h7.312v1.545h-5.7v4.114H50.52v1.5H45.381v5.358Z" transform="translate(-43.754 -42.167)" fill="#fff"/><path d="M57.725,44.042a1.155,1.155,0,1,1,.328-.806A1.126,1.126,0,0,1,57.725,44.042Zm0,10.716H56.112v-8.57h1.613Z" transform="translate(-47.638 -42.101)" fill="#fff"/><path d="M62.847,56.609H61.234v-8.57h1.544v1.394h.068a2.145,2.145,0,0,1,1.011-1.148,2.885,2.885,0,0,1,1.476-.451,3.114,3.114,0,0,1,1.2.205l-.615,1.5a2.4,2.4,0,0,0-.861-.123,2.083,2.083,0,0,0-1.544.7,2.477,2.477,0,0,0-.67,1.8Z" transform="translate(-49.398 -43.952)" fill="#fff"/><path d="M72.712,56.856a4.132,4.132,0,0,1-3.157-1.3,4.6,4.6,0,0,1-1.216-3.267,4.786,4.786,0,0,1,1.175-3.226,3.832,3.832,0,0,1,3.021-1.353,3.928,3.928,0,0,1,3.048,1.244,4.719,4.719,0,0,1,1.148,3.321l-.014.3H69.952a2.951,2.951,0,0,0,.861,2.05,2.6,2.6,0,0,0,1.859.752A2.324,2.324,0,0,0,75.022,53.9l1.435.6a3.764,3.764,0,0,1-1.38,1.667A4.025,4.025,0,0,1,72.712,56.856Zm2.31-5.6a2.3,2.3,0,0,0-.67-1.394,2.417,2.417,0,0,0-1.845-.67,2.309,2.309,0,0,0-1.545.56,2.85,2.85,0,0,0-.9,1.5Z" transform="translate(-51.691 -43.913)" fill="#fff"/><path d="M86.925,55.11a3.58,3.58,0,0,1-1.763-.424A2.914,2.914,0,0,1,84,53.634h-.068v1.189H82.387V42.3H84v3.95l-.068,1.189H84a3.016,3.016,0,0,1,1.162-1.052,3.734,3.734,0,0,1,1.763-.424,3.778,3.778,0,0,1,2.87,1.312,5,5,0,0,1,0,6.506A3.746,3.746,0,0,1,86.925,55.11Zm-.273-1.476a2.571,2.571,0,0,0,1.927-.847,3.518,3.518,0,0,0,0-4.483,2.571,2.571,0,0,0-1.927-.847,2.536,2.536,0,0,0-1.927.834,3.193,3.193,0,0,0-.793,2.255,3.133,3.133,0,0,0,.793,2.255A2.557,2.557,0,0,0,86.652,53.634Z" transform="translate(-56.227 -42.167)" fill="#fff"/><path d="M99.492,56.856a3.341,3.341,0,0,1-2.282-.793,2.8,2.8,0,0,1,.164-4.278,4.384,4.384,0,0,1,2.679-.793,4.676,4.676,0,0,1,2.323.519v-.246a1.953,1.953,0,0,0-.642-1.517,2.31,2.31,0,0,0-1.586-.574,2.517,2.517,0,0,0-1.271.328,1.649,1.649,0,0,0-.779.916l-1.476-.629A3.315,3.315,0,0,1,97.8,48.369a3.764,3.764,0,0,1,2.31-.656,3.972,3.972,0,0,1,2.734.957,3.425,3.425,0,0,1,1.079,2.706V56.57h-1.545V55.38h-.068A3.157,3.157,0,0,1,99.492,56.856Zm.26-1.476a2.591,2.591,0,0,0,1.8-.738,2.292,2.292,0,0,0,.82-1.763,3.19,3.19,0,0,0-2.05-.56,2.635,2.635,0,0,0-1.763.506,1.541,1.541,0,0,0-.6,1.189,1.131,1.131,0,0,0,.547,1A2.181,2.181,0,0,0,99.752,55.38Z" transform="translate(-60.717 -43.913)" fill="#fff"/><path d="M112.379,56.863a3.823,3.823,0,0,1-2.365-.7,4.061,4.061,0,0,1-1.367-1.749l1.436-.6a2.361,2.361,0,0,0,2.323,1.613,2.112,2.112,0,0,0,1.23-.328,1.034,1.034,0,0,0,.478-.875c0-.56-.4-.943-1.176-1.134l-1.736-.424a4.209,4.209,0,0,1-1.558-.793,1.92,1.92,0,0,1-.738-1.585,2.186,2.186,0,0,1,1.011-1.845,4.3,4.3,0,0,1,4.415-.191,2.8,2.8,0,0,1,1.271,1.476l-1.394.574a1.9,1.9,0,0,0-1.954-1.134,2.212,2.212,0,0,0-1.2.3.911.911,0,0,0-.492.806c0,.492.383.82,1.134,1l1.695.4a3.307,3.307,0,0,1,1.79.957,2.326,2.326,0,0,1,.574,1.545,2.4,2.4,0,0,1-.943,1.927A3.678,3.678,0,0,1,112.379,56.863Z" transform="translate(-64.705 -43.92)" fill="#fff"/><path d="M124.486,56.856a4.132,4.132,0,0,1-3.158-1.3,4.6,4.6,0,0,1-1.216-3.267,4.785,4.785,0,0,1,1.176-3.226,3.832,3.832,0,0,1,3.021-1.353,3.928,3.928,0,0,1,3.048,1.244,4.72,4.72,0,0,1,1.148,3.321l-.014.3h-6.765a2.949,2.949,0,0,0,.861,2.05,2.6,2.6,0,0,0,1.859.752A2.323,2.323,0,0,0,126.8,53.9l1.436.6a3.765,3.765,0,0,1-1.381,1.667A4.025,4.025,0,0,1,124.486,56.856Zm2.31-5.6a2.3,2.3,0,0,0-.67-1.394,2.417,2.417,0,0,0-1.845-.67,2.309,2.309,0,0,0-1.545.56,2.849,2.849,0,0,0-.9,1.5Z" transform="translate(-68.407 -43.913)" fill="#fff"/></g><path d="M11.461,52.026l2.966-18.944a.536.536,0,0,1,.629-.451.568.568,0,0,1,.4.287l3.062,5.713,1.216-2.324a.543.543,0,0,1,.738-.232.632.632,0,0,1,.232.232l8.255,15.718Z" transform="translate(-11.446 -32.617)" fill="#fff"/><path d="M21.7,47.5l-3.185-6.028L11.459,54.884Z" transform="translate(-11.445 -35.476)" fill="#fff"/><path d="M28.954,54.366,26.685,40.33a.553.553,0,0,0-.629-.451.527.527,0,0,0-.3.15l-14.3,14.338,7.914,4.442a1.662,1.662,0,0,0,1.6,0Z" transform="translate(-11.445 -34.958)" fill="#fff"/><path d="M26.692,38a.553.553,0,0,0-.629-.451.527.527,0,0,0-.3.15L22.92,40.542l-2.228-4.251a.543.543,0,0,0-.738-.232.632.632,0,0,0-.232.232l-1.216,2.324L15.444,32.9a.542.542,0,0,0-.738-.219.568.568,0,0,0-.287.4L11.452,52.023h-.014l.014.014.082.041,11.385-11.4,2.843-2.843a.545.545,0,0,1,.779,0,.489.489,0,0,1,.15.3l2.241,13.9.027-.014ZM11.48,52l2.939-18.78a.536.536,0,0,1,.629-.451.568.568,0,0,1,.4.287l3.062,5.713,1.216-2.323a.543.543,0,0,1,.738-.232.631.631,0,0,1,.232.232L22.879,40.6Z" transform="translate(-11.439 -32.615)" fill="#fff"/></svg>