<svg xmlns="http://www.w3.org/2000/svg" width="81.361" height="22.46" viewBox="0 0 81.361 22.46"><path d="M98.907,43.945H96.73v1.089a3.908,3.908,0,0,0-2.979-1.318c-2.578,0-4.469,2.12-4.469,5.1,0,2.865,1.891,4.927,4.412,4.927a3.681,3.681,0,0,0,2.979-1.375v1.318c0,2.005-.8,2.979-2.406,2.979a2.458,2.458,0,0,1-2.12-1.089A3.244,3.244,0,0,1,91.8,54.03h-2.12a4.288,4.288,0,0,0,4.584,4.641,4.478,4.478,0,0,0,3.839-1.834c.63-.917.8-1.719.8-3.61V43.945Zm-4.756,1.662c1.6,0,2.636,1.261,2.636,3.037,0,1.833-1.089,3.094-2.636,3.094-1.6,0-2.636-1.2-2.636-3.037S92.548,45.607,94.152,45.607Z" transform="translate(-36.569 -36.21)" fill="#fff" fill-rule="evenodd"/><path d="M38.3,43.913v9.511H40.48v-4.87c0-2.005.516-2.865,1.776-2.865.974,0,1.432.8,1.432,2.521v5.271h2.177v-4.87c0-2.005.516-2.865,1.776-2.865,1.031,0,1.432.688,1.432,2.521v5.271h2.177V47.523c0-2.578-1.089-3.9-3.209-3.9A3.529,3.529,0,0,0,45.236,45a2.876,2.876,0,0,0-2.521-1.375,2.566,2.566,0,0,0-2.235,1.146v-.859Z" transform="translate(-18.249 -36.178)" fill="#fff" fill-rule="evenodd"/><path d="M67.127,43.913V45a3.838,3.838,0,0,0-2.979-1.375c-2.578,0-4.469,2.12-4.469,4.927,0,2.979,1.891,5.1,4.526,5.1a3.959,3.959,0,0,0,2.922-1.261v.974H69.3V43.913Zm-2.578,1.662a2.751,2.751,0,0,1,2.693,3.037c0,1.834-1.089,3.094-2.693,3.094-1.547,0-2.636-1.261-2.636-3.094A2.81,2.81,0,0,1,64.548,45.575Z" transform="translate(-25.931 -36.178)" fill="#fff" fill-rule="evenodd"/><path d="M79.46,41.085H77.283V50.6H79.46Zm-1.089-5.329A1.432,1.432,0,1,0,79.8,37.189,1.418,1.418,0,0,0,78.372,35.756Z" transform="translate(-32.134 -33.35)" fill="#fff" fill-rule="evenodd"/><path d="M86.182,32H84V49.189h2.177Z" transform="translate(-34.673 -32)" fill="#fff"/><path d="M108.542,44.074h-2.178v5.5a4.186,4.186,0,0,0,.974,3.094,4.055,4.055,0,0,0,3.037,1.2,4.188,4.188,0,0,0,3.094-1.2,3.961,3.961,0,0,0,.974-3.094v-5.5h-2.178v5.443c0,1.6-.573,2.349-1.891,2.349-1.261,0-1.833-.745-1.833-2.349V44.074Z" transform="translate(-42.708 -36.339)" fill="#fff" fill-rule="evenodd"/><path d="M121.3,43.913v9.511h2.178V48.841c0-2.349.516-3.209,2.005-3.209,1.375,0,1.776.63,1.776,2.464v5.329h2.178V47.58c0-2.636-1.088-3.953-3.438-3.953a3.257,3.257,0,0,0-2.579,1.146v-.859Z" transform="translate(-48.075 -36.178)" fill="#fff" fill-rule="evenodd"/><path d="M15.881,42.119A3.387,3.387,0,0,0,12.5,45.5a3.35,3.35,0,0,0,3.381,3.38,3.38,3.38,0,0,0,0-6.761ZM10.61,45.442a5.214,5.214,0,0,1,10.428,0,1.948,1.948,0,0,1-.057.573.827.827,0,0,0,.859.917c.859,0,.974-1.089.974-1.49a6.99,6.99,0,1,0-6.99,6.99,6.8,6.8,0,0,0,5.157-2.292l1.432,1.2a8.587,8.587,0,0,1-6.532,2.979A8.881,8.881,0,1,1,24.7,45.442c0,1.948-.917,3.552-2.808,3.552a1.908,1.908,0,0,1-1.6-.8,5.239,5.239,0,0,1-9.683-2.75ZM15.881,43.9a1.547,1.547,0,1,1-1.547,1.547A1.541,1.541,0,0,1,15.881,43.9Z" transform="translate(-7 -33.639)" fill="#fff"/></svg>