<svg xmlns="http://www.w3.org/2000/svg" width="98.993" height="18.817" viewBox="0 0 98.993 18.817"><path d="M44.219,50.513V44.186h-.027l-1.9,6.327H40.327l-1.9-6.327H38.4v6.327H36.407V42.277h3.318L41.3,47.895h.027L42.9,42.263h3.318V50.5H44.219Zm9.2-3.232c0,.2-.013.586-.013.586H49.129c.04.641.548,1.077,1.364,1.077a2.727,2.727,0,0,0,1.779-.641h.094l.615,1.623a4.089,4.089,0,0,1-2.448.723,3.117,3.117,0,0,1-3.264-3.4,3.175,3.175,0,0,1,3.144-3.477c1.806,0,3.01,1.418,3.01,3.5ZM49.2,46.463h2.475A1.183,1.183,0,0,0,50.44,45.44,1.2,1.2,0,0,0,49.2,46.463ZM59.483,44.8,58.8,46.34h-.094a2.708,2.708,0,0,0-1.9-.927c-.495,0-.682.218-.682.436,0,.286.107.327,1.485.668,1.284.314,2.127.818,2.127,2.086,0,1.323-.91,2.045-2.488,2.045a4.449,4.449,0,0,1-3.13-1.077l.722-1.65h.094a3.368,3.368,0,0,0,2.247.941c.589,0,.7-.164.7-.382s-.12-.341-1.512-.7c-1.5-.382-2.074-1-2.074-1.991,0-1.241.977-2.032,2.435-2.032A4.025,4.025,0,0,1,59.483,44.8Zm6.194,0-.682,1.541H64.9a2.708,2.708,0,0,0-1.9-.927c-.495,0-.682.218-.682.436,0,.286.107.327,1.485.668,1.284.314,2.127.818,2.127,2.086,0,1.323-.91,2.045-2.488,2.045a4.449,4.449,0,0,1-3.13-1.077l.722-1.65h.094a3.368,3.368,0,0,0,2.247.941c.589,0,.7-.164.7-.382s-.12-.341-1.512-.7c-1.5-.382-2.074-1-2.074-1.991,0-1.241.977-2.032,2.435-2.032A3.965,3.965,0,0,1,65.677,44.8Zm6.234,1.514v4.2H70.4l-.161-.873H70.2a2.048,2.048,0,0,1-1.86,1.009,1.759,1.759,0,0,1-1.886-1.9c0-1.077.482-1.759,1.993-2.059s1.619-.409,1.619-.736-.294-.491-.9-.491a2.357,2.357,0,0,0-1.793,1.091h-.094l-.762-1.6a3.816,3.816,0,0,1,2.769-1.186,2.473,2.473,0,0,1,2.622,2.536Zm-1.846,1.282c-.107.177-.308.3-.99.464-.655.164-.749.354-.749.614s.214.382.548.382c.535,0,1.217-.354,1.217-.886v-.573ZM77.3,44.786h.04l.107-.873h1.5v5.754a2.849,2.849,0,0,1-3.17,3.15,4.38,4.38,0,0,1-2.609-.8l.575-1.677h.094a2.848,2.848,0,0,0,1.873.723c.977,0,1.324-.4,1.324-1.282v-.6h-.04a1.906,1.906,0,0,1-1.659.777,2.687,2.687,0,0,1-2.609-2.972A2.958,2.958,0,0,1,75.5,43.763,2.134,2.134,0,0,1,77.3,44.786Zm-2.609,2.141a1.2,1.2,0,0,0,1.244,1.309,1.174,1.174,0,0,0,1.217-1.323c0-.818-.428-1.4-1.217-1.4A1.251,1.251,0,0,0,74.693,46.927Zm11.344.355c0,.2-.013.586-.013.586H81.743c.04.641.548,1.077,1.364,1.077a2.727,2.727,0,0,0,1.779-.641h.093l.6,1.636a4.088,4.088,0,0,1-2.448.723,3.117,3.117,0,0,1-3.264-3.4,3.175,3.175,0,0,1,3.144-3.477c1.819-.014,3.023,1.4,3.023,3.491Zm-4.227-.818h2.475a1.182,1.182,0,0,0-1.231-1.023A1.205,1.205,0,0,0,81.81,46.463ZM91.4,42.277c1.592,0,2.448.791,2.448,2.113a1.894,1.894,0,0,1-1.271,1.9v.027a1.973,1.973,0,0,1,1.271,2c0,1.064-.588,2.2-2.742,2.2h-4.04V42.277Zm-2.287,3.354H91.04a.675.675,0,0,0,.749-.709c0-.409-.214-.736-.816-.736h-1.86Zm0,2.972H91.04a.678.678,0,0,0,.749-.723c0-.436-.214-.764-.816-.764h-1.86V48.6Zm7.892-6.695a1.2,1.2,0,1,1-2.408,0,1.2,1.2,0,0,1,2.408,0Zm-2.167,8.6v-6.6h1.9V50.5h-1.9Zm7.519-6.19-.281,1.773h-.093a1.158,1.158,0,0,0-.883-.4c-.762,0-1.2.709-1.2,1.9v2.918H98v-6.6h1.565l.107.873h.04a1.6,1.6,0,0,1,1.472-1.009,1.4,1.4,0,0,1,1.177.545Zm5.123,6.19-.16-.873h-.04a2.093,2.093,0,0,1-1.967,1.009c-1.739,0-2.836-1.418-2.836-3.341,0-1.977,1.15-3.532,2.89-3.532a2.065,2.065,0,0,1,1.752.818h.027V41.772h1.846v8.74Zm-3.1-3.286a1.429,1.429,0,0,0,1.4,1.623c.843,0,1.418-.559,1.418-1.636,0-1-.562-1.7-1.392-1.7A1.541,1.541,0,0,0,104.378,47.227ZM29.745,40.354a2.645,2.645,0,0,0-2.154,1.132l-3.251,4.636a.65.65,0,0,1-.535.286.673.673,0,0,1-.548-1.036L26,41.186a2.7,2.7,0,0,0,.441-1.5A2.658,2.658,0,0,0,23.805,37H10v2.686H21.826a1.34,1.34,0,0,1-1.324,1.35H10a6.875,6.875,0,0,0,.548,2.686h8.628a1.34,1.34,0,0,1-1.324,1.35H11.324a6.534,6.534,0,0,0,5.284,2.686h3.251a.668.668,0,0,1,0,1.336H16.6l-4.414,6.722h7.986a8.279,8.279,0,0,0,7.839-5.781l1.485-4.6a8.479,8.479,0,0,1,2.515-3.791,2.614,2.614,0,0,0-2.261-1.3Zm0,1.841a.5.5,0,1,1,.495-.5A.5.5,0,0,1,29.745,42.2Z" transform="translate(-10 -37)" fill="#fff"/></svg>