<svg xmlns="http://www.w3.org/2000/svg" width="115.424" height="25.557" viewBox="0 0 115.424 25.557"><path d="M26.4,13.432a2.312,2.312,0,0,1-1.524-.671,2.359,2.359,0,0,1-.5-.737A2.312,2.312,0,1,1,26.4,13.432ZM24.2,21.877v-6.97h4.645v4.566a1.919,1.919,0,0,1-.331,1.156,2.51,2.51,0,0,1-.839.741,3.705,3.705,0,0,1-1.126.393,6.605,6.605,0,0,1-1.188.114ZM21.335,11.8a2.247,2.247,0,0,1-.9.182,2.215,2.215,0,0,1-.894-.182,1.17,1.17,0,0,1-.249-.151,1.886,1.886,0,0,0-.319-.2V7.885a1.862,1.862,0,0,0,.321-.2,1.156,1.156,0,0,1,.247-.15,2.217,2.217,0,0,1,.893-.182,2.249,2.249,0,0,1,.9.182,2.316,2.316,0,0,1,0,4.268ZM19.262,23.793c-.077-.021-.166-.045-.288-.072V13.45h4.358v8.065a2.114,2.114,0,0,1-.294,1.16,2.278,2.278,0,0,1-.741.735,3.091,3.091,0,0,1-.993.387,5.152,5.152,0,0,1-1.047.114,4.955,4.955,0,0,1-.681-.05A2.108,2.108,0,0,1,19.262,23.793Zm-1.154,4.765L3,25.945V5.613L18.107,3ZM7.066,11.266l6.97-.428,0,1.748-2.613.114v7.624l-1.742-.1V12.768l-2.613.106Z" transform="translate(-3 -3)" fill="#fff" fill-rule="evenodd"/><text transform="translate(35.424 17.42)" fill="#fff" font-size="11" font-family="Helvetica"><tspan x="0" y="0">Microsoft Teams</tspan></text></svg>