<svg xmlns="http://www.w3.org/2000/svg" width="89.341" height="16.104" viewBox="0 0 89.341 16.104"><path d="M14,40.3h2.91v2.357h.068a5.385,5.385,0,0,1,5.041-2.741c2.977,0,5.56,1.782,5.56,5.853v9.857h-2.91V46.569c0-2.876-1.647-3.947-3.485-3.947-2.425,0-4.263,1.556-4.263,5.109v7.883H14Z" transform="translate(-14 -39.904)" fill="#fff"/><path d="M35.856,49.025c0,2.684,2.492,4.455,5.165,4.455a5.3,5.3,0,0,0,4.207-2.289l2.2,1.68a8.025,8.025,0,0,1-6.789,3.135c-4.849,0-7.883-3.485-7.883-8.052A7.765,7.765,0,0,1,40.672,39.9c5.39.011,7.466,4.15,7.466,8.086v1.038H35.856ZM45.025,46.7c-.068-2.549-1.489-4.455-4.432-4.455A4.724,4.724,0,0,0,35.845,46.7Z" transform="translate(-17.801 -39.901)" fill="#fff"/><path d="M57.46,47.546,52.036,40.4H55.78L59.5,45.821,63.155,40.4h3.519l-5.233,7.139,6.2,8.176H63.9l-4.522-6.428-4.522,6.428H51.269Z" transform="translate(-21.552 -40.002)" fill="#fff"/><path d="M72.767,40.3h2.718V42.69h.068a5.469,5.469,0,0,1,4.917-2.774,4.964,4.964,0,0,1,4.782,2.842,5.518,5.518,0,0,1,4.838-2.842c4.714,0,5.819,3.361,5.819,6.789v8.921H93V47.088c0-2.323-.485-4.455-3.293-4.455s-3.913,1.906-3.913,4.612v8.368h-2.91V47.607c0-2.91-.417-4.973-3.237-4.973-2.1,0-3.97,1.579-3.97,5.041v7.951H72.768V40.3Z" transform="translate(-25.909 -39.904)" fill="#fff"/><path d="M114.086,51.184a1.872,1.872,0,1,0-1.872-1.872A1.872,1.872,0,0,0,114.086,51.184Z" transform="translate(-33.902 -41.429)" fill="#fff"/><path d="M120.568,47.018a8.036,8.036,0,0,0-15.383-2.143l2.5.981a5.347,5.347,0,0,1,10.161,1.161h-1.026l2.493,2.447,2.5-2.458h-1.252Z" transform="translate(-32.478 -39.913)" fill="#fff"/><path d="M117.062,51.838a5.341,5.341,0,0,1-10.116-1.049h1.127l-2.493-2.458-2.5,2.458h1.139a8.032,8.032,0,0,0,15.349,2.03Z" transform="translate(-32.051 -41.61)" fill="#fff"/></svg>