<svg xmlns="http://www.w3.org/2000/svg" width="95.059" height="22.214" viewBox="0 0 95.059 22.214"><path d="M85.815,54.594c2.547,0,3.671-1.366,3.671-2.946,0-3.529-5.521-2.433-5.521-4.212,0-.7.626-1.181,1.594-1.181a3.868,3.868,0,0,1,2.761,1.1l.939-1.238a4.912,4.912,0,0,0-3.543-1.338c-2.092,0-3.458,1.21-3.458,2.789,0,3.486,5.521,2.248,5.521,4.241,0,.64-.526,1.309-1.893,1.309a4.077,4.077,0,0,1-3-1.323l-.94,1.295A5.188,5.188,0,0,0,85.815,54.594Zm5.906-7.883a.925.925,0,1,0-.925-.925A.923.923,0,0,0,91.721,46.711Zm.74,7.713V47.55H90.967v6.873ZM97.2,57.213a3.932,3.932,0,0,1-2.888-1.025l.7-1.082a2.712,2.712,0,0,0,2.191.882,1.821,1.821,0,0,0,2.036-1.921v-.783a2.764,2.764,0,0,1-2.206,1.153c-1.75,0-3.045-1.266-3.045-3.529,0-2.234,1.267-3.529,3.045-3.529A2.7,2.7,0,0,1,99.235,48.5V47.55h1.494v6.517C100.729,56.544,98.879,57.213,97.2,57.213Zm.27-4.113a2.281,2.281,0,0,0,1.765-.911V49.614a2.281,2.281,0,0,0-1.765-.911,2.215,2.215,0,0,0,0,4.4Zm11.342,1.323V49.585a1.981,1.981,0,0,0-2.219-2.206,3.277,3.277,0,0,0-2.433,1.1V47.55h-1.495v6.873h1.495v-4.81a2.34,2.34,0,0,1,1.764-.911c.839,0,1.394.342,1.394,1.423v4.3Zm7.642,0h-1.494v-.754a2.894,2.894,0,0,1-2.234.925,2.288,2.288,0,0,1-2.376-2.277,2.2,2.2,0,0,1,2.376-2.248,2.872,2.872,0,0,1,2.234.882V49.927c0-.8-.669-1.281-1.608-1.281a2.751,2.751,0,0,0-2.035.882l-.626-1.039a4.028,4.028,0,0,1,2.889-1.11c1.536,0,2.874.64,2.874,2.476Zm-3.13-.854a2.05,2.05,0,0,0,1.636-.712V51.805a2.049,2.049,0,0,0-1.636-.712,1.258,1.258,0,1,0,0,2.476Zm6.56.854V44.932h-1.494v9.492Z" transform="translate(-24.824 -38.307)" fill="#fff" fill-rule="evenodd"/><path d="M54.23,54.594a4.636,4.636,0,0,1-4.71-4.909,4.721,4.721,0,1,1,9.435,0A4.647,4.647,0,0,1,54.23,54.594Zm0-1.053c2.12,0,3.5-1.651,3.5-3.856s-1.38-3.856-3.5-3.856-3.486,1.636-3.486,3.856S52.1,53.541,54.23,53.541Zm11.9.882V49.6a1.949,1.949,0,0,0-2.177-2.22,3.364,3.364,0,0,0-2.462,1.167v-1H60.424v6.873h1.067V49.4a2.677,2.677,0,0,1,2.035-1.067c.925,0,1.551.37,1.551,1.594v4.5Zm4.942.171a3.611,3.611,0,0,1-.128-7.215c2.078,0,3.3,1.622,3.3,3.686v.27H68.7a2.409,2.409,0,0,0,2.462,2.376,2.991,2.991,0,0,0,2.134-.882l.512.7A3.79,3.79,0,0,1,71.072,54.594Zm2.12-4.056a2.225,2.225,0,0,0-2.263-2.277,2.29,2.29,0,0,0-2.248,2.277Z" transform="translate(-19.372 -38.307)" fill="#fff" fill-rule="evenodd"/><path d="M27.808,55.543a6.934,6.934,0,1,0-3.963.2v.673a7.586,7.586,0,1,1,3.963-.174ZM25.5,45.493a3.579,3.579,0,0,0-1.651,6.781V53a4.293,4.293,0,1,1,3.962-.345v-.813a3.559,3.559,0,0,0,1.321-2.756A3.617,3.617,0,0,0,25.5,45.493ZM13.279,49.087a12.037,12.037,0,0,0,5.56,10.127c.2-.131.409-.253.619-.372.15-.084.3-.165.455-.243q.275-.14.559-.267c.188-.084.378-.163.572-.238.157-.061.316-.118.476-.173q.336-.115.682-.21c.173-.048.347-.093.524-.133s.357-.08.539-.113.386-.069.582-.1c.219-.022.438-.048.66-.066V50.067h-.66V48.76h3.3v8.608a12.331,12.331,0,0,1,5.005,1.844A12.13,12.13,0,1,0,13.279,49.087Z" transform="translate(-13.279 -37)" fill="#fff" fill-rule="evenodd"/></svg>