<svg xmlns="http://www.w3.org/2000/svg" width="102.814" height="14.808" viewBox="0 0 102.814 14.808"><g transform="translate(0)"><path d="M-722-2669.7v-.841a16.625,16.625,0,0,1,7.771-1.743,15.08,15.08,0,0,1,4.729.771v.84a15.081,15.081,0,0,0-4.729-.771,16.621,16.621,0,0,0-7.77,1.742Zm0-3.571v-.84a16.625,16.625,0,0,1,7.771-1.743,15.1,15.1,0,0,1,4.729.771v.84a15.084,15.084,0,0,0-4.729-.771,16.627,16.627,0,0,0-7.77,1.743Zm0-3.57v-.841a16.626,16.626,0,0,1,7.771-1.743,15.081,15.081,0,0,1,4.729.771v.841a15.084,15.084,0,0,0-4.729-.771,16.627,16.627,0,0,0-7.77,1.743Zm0-3.57v-.841a16.626,16.626,0,0,1,7.771-1.743,15.08,15.08,0,0,1,4.729.771v.84a15.075,15.075,0,0,0-4.729-.771,16.615,16.615,0,0,0-7.77,1.743Z" transform="translate(722 2683)" fill="#fff" opacity="0.995"/><path d="M31.065,43.066H29.28V41.28H35.6c3.949,0,4.768,2.6,4.768,4.411a4.518,4.518,0,0,1-1.2,3.172c-.987.987-2.331,1.218-4.369,1.218h-1.6v3.676h1.869v1.785h-5.8V53.757h1.785Zm3.928,5.293c2.625,0,3.193-1.218,3.193-2.688a2.334,2.334,0,0,0-2.52-2.6H33.207v5.293Zm11.3-3.024a5.251,5.251,0,1,1-5.23,5.251,5.1,5.1,0,0,1,5.23-5.251Zm-.021,8.611a3.371,3.371,0,1,0-3.109-3.361A3.169,3.169,0,0,0,46.272,53.946Zm6.889-1.806H54.9v.336c.168.987,1.071,1.6,2.373,1.6,1.239,0,2.037-.483,2.037-1.239,0-1.848-3.487-.672-5.377-2.562a2.719,2.719,0,0,1-.777-1.89c0-1.7,1.47-2.92,3.487-2.92a5.128,5.128,0,0,1,2.415.567v-.4h1.722V48.9H59.063V48.3a2.574,2.574,0,0,0-2.31-1.218c-1.05,0-1.743.483-1.743,1.218,0,1.659,3.823.693,5.461,2.331a2.925,2.925,0,0,1,.84,2.058c0,1.806-1.533,3.024-3.8,3.024A4.429,4.429,0,0,1,54.9,55v.546H53.161Zm9.389-6.511h1.281V44.095l1.974-1.785v3.319h1.827V47.35H65.805v5.734c0,.966.861.924,1.827.588v1.764a5.044,5.044,0,0,1-1.449.273,2.088,2.088,0,0,1-2.352-2.352V47.35H62.55Zm8.107,1.722H69V45.628h3.634v1.239a5.461,5.461,0,0,1,3.361-1.407,2.45,2.45,0,0,1,2.394,1.554,5.666,5.666,0,0,1,3.571-1.554A2.474,2.474,0,0,1,84.6,48.191V53.82h1.7v1.722H82.629v-6.91c0-.966-.441-1.449-1.2-1.449a4.881,4.881,0,0,0-2.815,1.3V53.82h1.7v1.722H76.643V48.674c0-1.05-.588-1.407-1.218-1.407a5.285,5.285,0,0,0-2.794,1.218V53.82h1.7v1.722H68.851V53.82h1.806V47.35Zm26.7,8.192H93.908V54.324a4.766,4.766,0,0,1-3.192,1.386,3.224,3.224,0,0,1-3.361-3.151,3.384,3.384,0,0,1,3.613-3.214,5.193,5.193,0,0,1,2.709.84v-1.3c0-1.407-1.029-1.911-2.205-1.911a2.3,2.3,0,0,0-2.121,1.176l-1.869-.5a4.49,4.49,0,0,1,4.285-2.31c2.9,0,3.886,1.449,3.886,3.046v5.44h1.7Zm-3.676-3.7a4.235,4.235,0,0,0-2.562-.987,1.745,1.745,0,0,0-1.89,1.7A1.642,1.642,0,0,0,91.01,54.2a4.13,4.13,0,0,0,2.667-1.176V51.845Zm6.364-4.495h-2V45.628h3.55v2.226h.042a3.358,3.358,0,0,1,3.13-2.394h1.281v1.974H105c-2.29,0-2.983,1.281-2.983,3.55V53.82h2.143v1.722h-6.07V53.82h1.953ZM108.212,43h-1.786V41.28h3.76v8.906l3.718-2.919v-.042h-1.66v-1.6h5.5v1.6h-1.534L112.5,50.312,116,53.82h1.7v1.722h-2.52l-5-5V53.82h1.47v1.722h-5.251V53.82h1.806V43Z" transform="translate(-14.934 -41.028)" fill="#fff" fill-rule="evenodd"/></g></svg>