<svg xmlns="http://www.w3.org/2000/svg" width="86.092" height="18.849" viewBox="0 0 86.092 18.849"><path d="M38.377,56.623l2.177-1.706a3.106,3.106,0,0,0,2.706,1.671,1.683,1.683,0,0,0,1.859-1.647c0-1.024-1.247-1.353-2.577-1.765C40.872,52.658,39,52.011,39,49.623c0-2,1.741-3.588,4.153-3.588a5.35,5.35,0,0,1,4.212,1.812L45.4,49.329a2.535,2.535,0,0,0-2.224-1.176c-1.106,0-1.706.6-1.706,1.388,0,.953,1.2,1.282,2.53,1.729,1.694.553,3.612,1.294,3.612,3.694a4.008,4.008,0,0,1-4.33,3.894A6.153,6.153,0,0,1,38.377,56.623Zm19.13-6.482h2.33v.953A2.946,2.946,0,0,1,62.2,49.964c2.012,0,3.235,1.294,3.235,3.506v5.212H63.049V53.776c0-1.141-.529-1.812-1.577-1.812-.894,0-1.624.612-1.624,2.047v4.671H57.507V50.14Zm8.471,4.282a4.175,4.175,0,0,1,4.153-4.447,3.444,3.444,0,0,1,2.553,1.012V46.211h2.341V58.694H72.684v-.953a3.318,3.318,0,0,1-2.577,1.129A4.232,4.232,0,0,1,65.978,54.423Zm6.765-.024a2.2,2.2,0,0,0-2.188-2.294,2.3,2.3,0,0,0,0,4.6A2.212,2.212,0,0,0,72.743,54.4Zm2.824-1.941a6.279,6.279,0,0,1,6.377-6.412,6.515,6.515,0,0,1,4.53,1.729,6.3,6.3,0,0,1,1.153,1.471l-2.082,1.271a3.806,3.806,0,0,0-3.577-2.153,4.106,4.106,0,0,0,.082,8.212,3.481,3.481,0,0,0,3.541-2.612H81.673V51.693h6.483v.953a6.012,6.012,0,0,1-6.106,6.235A6.32,6.32,0,0,1,75.567,52.458ZM88.744,50.14h2.33v1.4a2.4,2.4,0,0,1,2.365-1.4h.941l-.847,2.271H92.9c-1.247,0-1.8.647-1.8,2.235v4.035H88.755V50.14Zm6.235,0H97.32v8.553H94.979V52.423h-.847Zm1.177-1.294a1.4,1.4,0,1,0-1.4-1.4A1.4,1.4,0,0,0,96.156,48.846Zm1.717,5.577a4.175,4.175,0,0,1,4.153-4.447,3.442,3.442,0,0,1,2.553,1.012V46.211h2.342V58.694h-2.342v-.953A3.317,3.317,0,0,1,102,58.87,4.233,4.233,0,0,1,97.873,54.423Zm6.777-.024a2.2,2.2,0,0,0-2.189-2.294,2.3,2.3,0,0,0,0,4.6A2.219,2.219,0,0,0,104.65,54.4Zm-47.7,0a4.3,4.3,0,0,0-4.412-4.424A4.444,4.444,0,0,0,48.1,54.423a4.558,4.558,0,0,0,8.436,2.282L54.672,55.6a2.262,2.262,0,0,1-2.047,1.224,2.149,2.149,0,0,1-2.271-1.553h6.6ZM50.46,53.376a2.244,2.244,0,0,1,2.106-1.353A1.984,1.984,0,0,1,54.6,53.376Z" transform="translate(-20.828 -40.185)" fill="#fff"/><path d="M26.855,49.282h-10.4v10.4h10.4Z" transform="translate(-16.455 -40.832)" fill="#fff" opacity="0.25"/><path d="M21.655,55.778h-5.2v5.2h5.2Z" transform="translate(-16.455 -42.128)" fill="#fff"/><path d="M33.35,42.787h-10.4v10.4h10.4Z" transform="translate(-17.751 -39.537)" fill="#fff" opacity="0.25"/><path d="M22.951,49.282v5.2h5.2v-5.2Z" transform="translate(-17.751 -40.832)" fill="#fff"/><path d="M34.646,42.787h-5.2v5.2h5.2Z" transform="translate(-19.047 -39.537)" fill="#fff"/><path d="M40.9,39.389V42.3h-.671V39.389H39.189V38.8h2.753v.576H40.9Z" transform="translate(-20.99 -38.742)" fill="#fff"/><path d="M47.8,42.292H47.16l-.777-2.541-.777,2.541h-.635L44,38.786l.706.012.647,2.471.729-2.471h.671l.729,2.471.635-2.471h.671Z" transform="translate(-21.949 -38.739)" fill="#fff"/><path d="M51.652,42.295V38.8h.671v3.494Z" transform="translate(-23.476 -38.742)" fill="#fff"/><path d="M54.445,42.295V38.8h.671v2.906H56.28l.012.588Z" transform="translate(-24.033 -38.742)" fill="#fff"/><path d="M58.486,42.295V38.8h.671v3.494Z" transform="translate(-24.839 -38.742)" fill="#fff"/><path d="M62.752,42.351A1.821,1.821,0,1,1,64.4,40.539,1.633,1.633,0,0,1,62.752,42.351Zm0-3.071c-.6,0-.953.494-.953,1.259s.365,1.259.953,1.259.965-.494.965-1.259S63.352,39.28,62.752,39.28Z" transform="translate(-25.364 -38.727)" fill="#fff"/></svg>