<svg xmlns="http://www.w3.org/2000/svg" width="80.813" height="20.448" viewBox="0 0 80.813 20.448"><path d="M48.708,51.255l1.009-2.344a6.728,6.728,0,0,0,3.972,1.237c1.058,0,1.726-.407,1.726-1.026-.016-1.726-6.333-.374-6.382-4.7-.016-2.2,1.937-3.891,4.7-3.891A7.241,7.241,0,0,1,58.2,41.861l-.944,2.393a7.126,7.126,0,0,0-3.679-1.172c-.863,0-1.433.407-1.433.928.016,1.693,6.382.765,6.447,4.9,0,2.247-1.9,3.826-4.64,3.826A8.912,8.912,0,0,1,48.708,51.255Zm38.73-3.191a2.914,2.914,0,1,1,0-2.865l2.784-1.547a6.1,6.1,0,1,0,0,5.958l-2.784-1.547ZM59.99,35.463h3.484V52.508H59.99Zm31.6,0V52.508h3.484V47.4l4.135,5.112h4.461l-5.258-6.072,4.867-5.665H99.013l-3.94,4.7V35.463ZM73.828,48.1a3.213,3.213,0,0,1-2.719,1.449,2.914,2.914,0,1,1,0-5.828,3.214,3.214,0,0,1,2.719,1.5Zm0-7.326v1.384a4.1,4.1,0,0,0-3.468-1.628c-3.061,0-5.47,2.7-5.47,6.089s2.409,6.121,5.47,6.121a4.1,4.1,0,0,0,3.468-1.628v1.384h3.484V40.77Z" transform="translate(-22.856 -35.154)" fill="#fff"/><path d="M14.322,53.286a2.149,2.149,0,1,1-2.149-2.149h2.149Zm1.074,0a2.149,2.149,0,1,1,4.3,0v5.372a2.149,2.149,0,0,1-4.3,0Z" transform="translate(-10.008 -40.359)" fill="#fff"/><path d="M17.538,39.3a2.149,2.149,0,1,1,2.149-2.149V39.3Zm0,1.091a2.149,2.149,0,0,1,0,4.3H12.149a2.149,2.149,0,1,1,0-4.3Z" transform="translate(-10 -35)" fill="#fff"/><path d="M31.509,42.538a2.149,2.149,0,1,1,2.149,2.149H31.509Zm-1.074,0a2.149,2.149,0,0,1-4.3,0V37.149a2.149,2.149,0,1,1,4.3,0v5.389Z" transform="translate(-15.359 -35)" fill="#fff"/><path d="M28.286,56.509a2.149,2.149,0,1,1-2.149,2.149V56.509Zm0-1.074a2.149,2.149,0,1,1,0-4.3h5.389a2.149,2.149,0,0,1,0,4.3Z" transform="translate(-15.359 -40.359)" fill="#fff"/></svg>