<svg xmlns="http://www.w3.org/2000/svg" width="63.292" height="19.051" viewBox="0 0 63.292 19.051"><path d="M55.234,35.734H51.879a.159.159,0,0,0-.148.148v1.952a.159.159,0,0,0,.148.148h3.354a.159.159,0,0,0,.148-.148V35.892C55.424,35.808,55.35,35.734,55.234,35.734Zm-.032,2.9H48.725a.333.333,0,0,0-.232.148l-.833,3.165-.042.148-.992-3.386a.266.266,0,0,0-.232-.148H43.883a.333.333,0,0,0-.232.148L42.7,41.874l-.042.148-.042-.074-.38-1.561-.422-1.561a.266.266,0,0,0-.232-.148H36.52V35.935a.187.187,0,0,0-.232-.148l-3.2.992c-.116.042-.148.074-.148.148v1.709h-.833a.159.159,0,0,0-.148.148V41.22a.159.159,0,0,0,.148.148h.833v2.975c0,2.1,1.139,3.08,3.238,3.08a5.1,5.1,0,0,0,2.289-.5V44.416c0-.116-.116-.148-.19-.148a2.139,2.139,0,0,1-.918.19c-.57,0-.876-.232-.876-.876V41.409h1.825a.159.159,0,0,0,.148-.148V39.2l2.395,7.964a.266.266,0,0,0,.232.148h2.669a.333.333,0,0,0,.232-.148l1.139-3.544.57,1.825.538,1.677a.266.266,0,0,0,.232.148h2.669a.333.333,0,0,0,.232-.148l2.437-8v8a.159.159,0,0,0,.148.148h3.238a.159.159,0,0,0,.148-.148v-8.3A.158.158,0,0,0,55.2,38.635Zm4.262-2.9H56.226a.159.159,0,0,0-.148.148V47.116a.159.159,0,0,0,.148.148h3.238a.159.159,0,0,0,.148-.148V35.892A.153.153,0,0,0,59.464,35.734Zm4.3,0H60.413a.159.159,0,0,0-.148.148v1.952a.159.159,0,0,0,.148.148h3.354a.159.159,0,0,0,.148-.148V35.892C63.958,35.808,63.884,35.734,63.768,35.734Zm-.042,2.9H60.487a.159.159,0,0,0-.148.148v8.344a.159.159,0,0,0,.148.148h3.239a.159.159,0,0,0,.148-.148v-8.3A.159.159,0,0,0,63.726,38.635Zm5.38-.19a4.653,4.653,0,0,0-4.874,4.536v.042a4.865,4.865,0,0,0,9.7-.042v-.042A4.608,4.608,0,0,0,69.106,38.445Zm1.361,4.525a1.4,1.4,0,0,1-1.372,1.487,1.459,1.459,0,0,1-1.413-1.519V42.9a1.4,1.4,0,0,1,1.371-1.487A1.465,1.465,0,0,1,70.466,42.971ZM20.17,32A9.525,9.525,0,1,0,29.7,41.525,9.528,9.528,0,0,0,20.17,32Zm0,16.53a7,7,0,1,1,7-7A6.987,6.987,0,0,1,20.17,48.53Z" transform="translate(-10.645 -32)" fill="#fff"/><path d="M31.118,45.645a1.983,1.983,0,1,0-1.983-1.983A1.983,1.983,0,0,0,31.118,45.645Z" transform="translate(-19.24 -36.499)" fill="#fff"/><path d="M31.118,54.476a1.983,1.983,0,1,0-1.983-1.983A1.983,1.983,0,0,0,31.118,54.476Z" transform="translate(-19.24 -40.604)" fill="#fff"/><path d="M22.306,54.476a1.983,1.983,0,1,0-1.983-1.983A1.983,1.983,0,0,0,22.306,54.476Z" transform="translate(-15.144 -40.604)" fill="#fff"/><path d="M22.306,45.645a1.983,1.983,0,1,0-1.983-1.983A1.983,1.983,0,0,0,22.306,45.645Z" transform="translate(-15.144 -36.499)" fill="#fff"/></svg>