<svg xmlns="http://www.w3.org/2000/svg" width="96" height="74" fill="none" viewBox="0 0 96 74"><g filter="url(#filter0_f)" opacity=".3"><path fill="#FD897A" d="M38.826 49.066c.414.03.81.19 1.13.46.319.271.545.636.646 1.044a2.233 2.233 0 0 1-.2 1.827 2.44 2.44 0 0 1-1.486 1.107 3.064 3.064 0 0 1-1.321.106l-20.723-2.65a3.865 3.865 0 0 1-2.025-.87 3.693 3.693 0 0 1-1.183-1.865 3.722 3.722 0 0 1 .02-2.182 3.495 3.495 0 0 1 1.266-1.777l16.147-13.282c.349-.274.746-.48 1.17-.61a2.44 2.44 0 0 1 1.846.15 2.21 2.21 0 0 1 1.14 1.443c.13.399.133.828.005 1.227a1.963 1.963 0 0 1-.713.99L19.136 46.667l19.69 2.399zm10.88 6.234a2.692 2.692 0 0 1-.538 1.68 2.557 2.557 0 0 1-1.322.869 2.7 2.7 0 0 1-1.96-.171 2.309 2.309 0 0 1-1.27-1.513 2.991 2.991 0 0 1-.111-.947l2.17-36.733a2.691 2.691 0 0 1 .538-1.68c.339-.422.801-.726 1.322-.868a2.701 2.701 0 0 1 1.96.17 2.31 2.31 0 0 1 1.27 1.513c.087.308.125.628.111.947L49.706 55.3zm30.42-29.743a3.495 3.495 0 0 1 2.016.835 3.72 3.72 0 0 1 1.175 1.839 3.694 3.694 0 0 1-.013 2.209 3.866 3.866 0 0 1-1.257 1.803l-16.15 13.239c-.342.285-.741.493-1.17.609a2.44 2.44 0 0 1-1.847-.15 2.212 2.212 0 0 1-1.14-1.442c-.13-.399-.132-.829-.005-1.227.127-.399.377-.746.713-.99L77.864 29.8l-19.69-2.399c-.414-.03-.81-.19-1.13-.46a1.998 1.998 0 0 1-.646-1.044 2.231 2.231 0 0 1 .2-1.827 2.44 2.44 0 0 1 1.486-1.107 3.56 3.56 0 0 1 1.315-.104l20.728 2.698z"/></g><defs><filter id="filter0_f" width="94.892" height="72.713" x=".668" y=".559" color-interpolation-filters="sRGB" filterUnits="userSpaceOnUse"><feFlood flood-opacity="0" result="BackgroundImageFix"/><feBlend in="SourceGraphic" in2="BackgroundImageFix" result="shape"/><feGaussianBlur result="effect1_foregroundBlur" stdDeviation="3.543"/></filter></defs></svg>