<svg xmlns="http://www.w3.org/2000/svg" width="67" height="58" fill="none" viewBox="0 0 67 58"><g fill="#FD897A" filter="url(#filter0_f)" opacity=".3"><path d="M17.042 46.274c-2.903-.322-5.475-1.892-7.151-4.364-1.676-2.472-2.319-5.644-1.786-8.818a35.17 35.17 0 017.846-15.879c3.907-4.495 8.835-7.79 14.204-9.494-5.886 6.86-11.926 14.3-9.098 14.613 2.904.322 5.477 1.892 7.154 4.365 1.677 2.472 2.32 5.645 1.787 8.82-.532 3.175-2.196 6.092-4.626 8.11-2.43 2.017-5.426 2.969-8.33 2.647zM46.553 50.294c-2.902-.322-5.475-1.892-7.15-4.364-1.677-2.472-2.32-5.644-1.787-8.818a35.168 35.168 0 017.846-15.879c3.907-4.495 8.836-7.79 14.205-9.494-5.886 6.86-11.927 14.3-9.099 14.613 2.904.322 5.477 1.892 7.154 4.365 1.677 2.472 2.32 5.645 1.788 8.82-.533 3.175-2.197 6.092-4.627 8.11-2.43 2.017-5.426 2.969-8.33 2.647z"/></g><defs><filter id="filter0_f" width="66.248" height="57.114" x=".683" y=".481" color-interpolation-filters="sRGB" filterUnits="userSpaceOnUse"><feFlood flood-opacity="0" result="BackgroundImageFix"/><feBlend in="SourceGraphic" in2="BackgroundImageFix" result="shape"/><feGaussianBlur result="effect1_foregroundBlur" stdDeviation="3.619"/></filter></defs></svg>