<svg xmlns="http://www.w3.org/2000/svg" width="57" height="57" fill="none" viewBox="0 0 57 57"><g filter="url(#filter0_f)" opacity=".3"><path fill="#FD897A" d="M12.513 41.118a4.888 4.888 0 0 1-2.897-2.41 4.998 4.998 0 0 1-.348-3.781l6.793-22.175a4.998 4.998 0 0 1 2.405-2.939 4.888 4.888 0 0 1 3.75-.374l21.93 6.718a4.888 4.888 0 0 1 2.897 2.41 4.997 4.997 0 0 1 .348 3.781l-6.792 22.175a4.998 4.998 0 0 1-2.406 2.938 4.888 4.888 0 0 1-3.75.374l-21.93-6.717zm6.195-25.823l-5.4 17.63 6.821-5.407a1.07 1.07 0 0 1 .96-.192 1.062 1.062 0 0 1 .688.697l1.797 5.16a.712.712 0 0 0 .459.464.706.706 0 0 0 .64-.128l8.148-6.462a1.088 1.088 0 0 1 .988-.204 1.075 1.075 0 0 1 .704.723l3.883 12.944 5.375-17.548a3.332 3.332 0 0 0-.232-2.521 3.258 3.258 0 0 0-1.93-1.607L22.81 13.087a3.259 3.259 0 0 0-2.499.25 3.331 3.331 0 0 0-1.603 1.958zm3.73 4.608a3.332 3.332 0 0 1 1.603-1.96 3.258 3.258 0 0 1 2.5-.249 3.258 3.258 0 0 1 1.931 1.607c.406.774.489 1.68.232 2.52a3.333 3.333 0 0 1-1.604 1.96 3.258 3.258 0 0 1-2.5.249 3.258 3.258 0 0 1-1.93-1.606 3.332 3.332 0 0 1-.232-2.521z"/></g><defs><filter id="filter0_f" width="55.511" height="55.752" x=".574" y=".761" color-interpolation-filters="sRGB" filterUnits="userSpaceOnUse"><feFlood flood-opacity="0" result="BackgroundImageFix"/><feBlend in="SourceGraphic" in2="BackgroundImageFix" result="shape"/><feGaussianBlur result="effect1_foregroundBlur" stdDeviation="3.619"/></filter></defs></svg>