<svg xmlns="http://www.w3.org/2000/svg" width="70" height="74" fill="none" viewBox="0 0 70 74"><g filter="url(#filter0_f)" opacity=".4"><path fill="#FD897A" d="M20.188 9.333l40.111 9.32-2.386 11.995-1.704-.396a14.577 14.577 0 0 0-1.455-8.04 13.522 13.522 0 0 0-7.703-3.562l-3.965-.921-8.33 35.848c-.631 2.714-.594 4.495.111 5.343a12.24 12.24 0 0 0 5.32 2.589l-.295 1.267-20.687-4.808.294-1.266c1.957.538 4.03.479 5.946-.17a9.39 9.39 0 0 0 2.425-5.412l8.14-35.035-3.95-.918a14.065 14.065 0 0 0-8.417-.184 12.637 12.637 0 0 0-4.908 6.576l-1.732-.402 3.185-11.824z"/></g><defs><filter id="filter0_f" width="69.395" height="73.582" x=".142" y=".378" color-interpolation-filters="sRGB" filterUnits="userSpaceOnUse"><feFlood flood-opacity="0" result="BackgroundImageFix"/><feBlend in="SourceGraphic" in2="BackgroundImageFix" result="shape"/><feGaussianBlur result="effect1_foregroundBlur" stdDeviation="4.429"/></filter></defs></svg>