<svg xmlns="http://www.w3.org/2000/svg" width="83" height="57" fill="none" viewBox="0 0 83 57"><path fill="#FD897A" d="M27.192 34.916c.36.229.639.567.795.967.157.399.183.839.077 1.256a2.29 2.29 0 0 1-1.072 1.551 2.502 2.502 0 0 1-1.88.276 3.14 3.14 0 0 1-1.243-.548L6.456 25.938a3.964 3.964 0 0 1-1.404-1.771 3.788 3.788 0 0 1-.16-2.26 3.816 3.816 0 0 1 1.081-1.959 3.583 3.583 0 0 1 2.007-.988l21.04-4.126a3.652 3.652 0 0 1 1.353.02 2.502 2.502 0 0 1 1.593 1.034 2.266 2.266 0 0 1 .327 1.857 2.05 2.05 0 0 1-.593 1.11c-.309.298-.703.489-1.125.546L10.59 23.165l16.602 11.751zm6.785 10.925a2.76 2.76 0 0 1-1.304 1.254 2.622 2.622 0 0 1-1.616.14 2.77 2.77 0 0 1-1.685-1.108 2.367 2.367 0 0 1-.41-1.984c.07-.32.192-.627.36-.909l19.843-32.096a2.76 2.76 0 0 1 1.304-1.254 2.622 2.622 0 0 1 1.616-.14 2.77 2.77 0 0 1 1.685 1.108 2.367 2.367 0 0 1 .41 1.984c-.07.32-.193.627-.36.908L33.977 45.841zm41.936-12.033a3.584 3.584 0 0 1 1.413 1.735c.276.709.334 1.487.165 2.231a3.788 3.788 0 0 1-1.087 1.987c-.56.528-1.26.88-2.013 1.016L53.37 44.862a3.142 3.142 0 0 1-1.352-.02 2.502 2.502 0 0 1-1.594-1.034 2.266 2.266 0 0 1-.327-1.857 2.05 2.05 0 0 1 .594-1.11c.309-.297.703-.489 1.125-.546l19.99-3.76-16.602-11.751a2.013 2.013 0 0 1-.795-.966c-.157-.4-.183-.84-.076-1.256a2.288 2.288 0 0 1 1.07-1.552 2.503 2.503 0 0 1 1.88-.275c.443.103.863.288 1.238.546l17.393 12.527z" opacity=".3"/></svg>