<svg xmlns="http://www.w3.org/2000/svg" width="73" height="59" fill="none" viewBox="0 0 73 59"><g filter="url(#filter0_f)" opacity=".4"><path fill="#FD897A" d="M54.194 10.128l-41.117 8.189a3.517 3.517 0 0 0-2.244 1.515 3.597 3.597 0 0 0-.523 2.677l4.651 23.356a3.596 3.596 0 0 0 1.51 2.273c.78.527 1.733.721 2.652.54l41.117-8.19a3.518 3.518 0 0 0 2.243-1.513 3.597 3.597 0 0 0 .524-2.677l-4.651-23.357a3.596 3.596 0 0 0-1.51-2.273 3.518 3.518 0 0 0-2.652-.54zM41.476 37.914L35.47 39.11l-1.814-9.108-3.34 6.736-5.669-4.942 1.814 9.108-6.005 1.196-3.628-18.217 6.005-1.196 5.715 5.175 3.294-6.969 6.006-1.196 3.628 18.217zm9.27-.267l-9.58-9.134 4.506-.898-1.816-9.115 6.006-1.196 1.814 9.109 4.504-.897-5.433 12.131z"/></g><defs><filter id="filter0_f" width="72.189" height="58.026" x=".564" y=".39" color-interpolation-filters="sRGB" filterUnits="userSpaceOnUse"><feFlood flood-opacity="0" result="BackgroundImageFix"/><feBlend in="SourceGraphic" in2="BackgroundImageFix" result="shape"/><feGaussianBlur result="effect1_foregroundBlur" stdDeviation="4.524"/></filter></defs></svg>