<svg xmlns="http://www.w3.org/2000/svg" width="70" height="70" fill="none" viewBox="0 0 70 70"><path fill="#FD897A" d="M9.052 58.647a8.546 8.546 0 0 1-5.386-3.794 8.738 8.738 0 0 1-1.134-6.542l8.736-39.597a8.738 8.738 0 0 1 3.781-5.458 8.546 8.546 0 0 1 6.482-1.176l39.162 8.64a8.546 8.546 0 0 1 5.386 3.794 8.738 8.738 0 0 1 1.134 6.543l-8.736 39.596a8.738 8.738 0 0 1-3.781 5.458 8.547 8.547 0 0 1-6.483 1.176l-39.161-8.64zm7.186-45.87L9.293 44.256l11.13-10.375a1.848 1.848 0 0 1 1.647-.47c.29.069.557.206.783.4.225.195.401.441.513.719l3.854 8.74a1.246 1.246 0 0 0 .865.745 1.234 1.234 0 0 0 1.098-.312L42.48 31.302a1.9 1.9 0 0 1 .787-.458c.295-.087.606-.1.906-.038a1.88 1.88 0 0 1 1.327 1.162l8.578 22.017 6.913-31.335c.331-1.5.06-3.07-.756-4.361a5.697 5.697 0 0 0-3.59-2.53L23.078 8.354a5.697 5.697 0 0 0-4.32.785 5.826 5.826 0 0 0-2.52 3.638zm7.144 7.508a5.826 5.826 0 0 1 2.521-3.639 5.697 5.697 0 0 1 4.321-.784 5.697 5.697 0 0 1 3.59 2.53 5.826 5.826 0 0 1 .757 4.361 5.825 5.825 0 0 1-2.521 3.639 5.697 5.697 0 0 1-4.321.784 5.697 5.697 0 0 1-3.59-2.53 5.825 5.825 0 0 1-.757-4.361z" opacity=".3"/></svg>