<svg xmlns="http://www.w3.org/2000/svg" width="87" height="70" fill="none" viewBox="0 0 87 70"><g fill="#FD897A" opacity=".3"><path d="M31.019 66.062c-3.792.779-7.884-.157-11.375-2.602-3.49-2.444-6.095-6.197-7.24-10.432-1.831-7.935-1.583-16.022.715-23.31s6.55-13.473 12.255-17.825c-3.414 11.09-6.687 22.977-2.993 22.218 3.793-.779 7.886.157 11.378 2.602 3.493 2.445 6.098 6.199 7.244 10.436 1.145 4.236.737 8.61-1.136 12.157-1.872 3.547-5.055 5.977-8.848 6.756zM70.12 56.879c-3.793.778-7.885-.158-11.376-2.602-3.49-2.445-6.095-6.198-7.24-10.433-1.83-7.934-1.583-16.022.715-23.31S58.77 7.062 64.474 2.71C61.06 13.8 57.787 25.687 61.48 24.928c3.793-.78 7.886.156 11.379 2.601 3.492 2.445 6.098 6.2 7.243 10.436 1.146 4.237.737 8.61-1.135 12.157-1.873 3.547-5.056 5.977-8.849 6.757z"/></g></svg>