<svg xmlns="http://www.w3.org/2000/svg" width="68" height="73" fill="none" viewBox="0 0 68 73"><path fill="#FD897A" d="M1.297 12.717L53.347.825l4.025 15.337-2.212.505a18.9 18.9 0 0 0-6.257-8.547 17.532 17.532 0 0 0-11.002.218l-5.145 1.175 10.628 46.518c.805 3.523 1.859 5.578 3.161 6.166 2.514.627 5.15.627 7.671 0l.376 1.644-26.846 6.134-.375-1.644a13.167 13.167 0 0 0 6.835-3.571c.751-2.527.666-5.22-.244-7.686L23.575 11.61l-5.126 1.171a18.235 18.235 0 0 0-9.917 4.562 16.384 16.384 0 0 0-1.99 10.45l-2.249.514-2.996-15.591z" opacity=".3"/></svg>