<svg xmlns="http://www.w3.org/2000/svg" width="738" height="703" fill="none" viewBox="0 0 738 703"><g filter="url(#filter0_d)"><rect width="626" height="591" x="56" y="42" fill="#fff" rx="16"/></g><path stroke="#000" stroke-opacity=".08" d="M85 166v18M85 205v18"/><path fill="#2C1338" d="M107.336 182.24c4.104 0 7.392-2.616 8.04-6.36h-3.984c-.432 1.68-2.088 2.904-4.056 2.904-2.76 0-4.872-2.232-4.872-5.184s2.112-5.184 4.872-5.184c1.944 0 3.576 1.128 4.032 2.688h3.96c-.48-3.528-4.032-6.144-7.992-6.144-4.872 0-8.52 3.72-8.52 8.64s3.648 8.64 8.52 8.64zm15.527-12.264c-3.48 0-6.12 2.64-6.12 6.144s2.64 6.12 6.12 6.12c3.456 0 6.12-2.616 6.12-6.12s-2.664-6.144-6.12-6.144zm0 3.24c1.584 0 2.808 1.224 2.808 2.904 0 1.632-1.224 2.88-2.808 2.88-1.608 0-2.808-1.248-2.808-2.88 0-1.68 1.2-2.904 2.808-2.904zm21.657-3.24c-1.488 0-2.856.72-3.552 1.728-.72-1.224-1.8-1.728-3.336-1.728-1.08 0-2.472.36-3.36 1.656v-1.416h-3.384V182h3.384v-6.528c0-1.536.984-2.256 2.088-2.256 1.248 0 2.04.864 2.04 2.256V182h3.384v-6.528c0-1.512 1.008-2.256 2.136-2.256 1.224 0 2.016.864 2.016 2.256V182h3.408v-7.32c0-2.856-2.016-4.704-4.824-4.704zm14.307 0c-1.632 0-2.904.672-3.72 1.896v-1.656h-3.384v15.672h3.384v-5.544c.816 1.224 2.088 1.896 3.72 1.896 3.048 0 5.472-2.76 5.472-6.144 0-3.384-2.424-6.12-5.472-6.12zm-.768 9.024c-1.656 0-2.952-1.248-2.952-2.904 0-1.632 1.296-2.904 2.952-2.904a2.904 2.904 0 012.928 2.904c0 1.632-1.296 2.904-2.928 2.904zm11.322-13.8h-3.384V182h3.384v-16.8zm13.712 10.512c0-3.24-2.616-5.736-5.808-5.736-3.432 0-6.12 2.64-6.12 6.072 0 3.48 2.712 6.192 6.192 6.192 2.952 0 5.184-1.656 5.568-4.2h-3.312c-.192.816-1.032 1.392-2.352 1.392-1.584 0-2.76-.984-3-2.52h8.76c.048-.384.072-.936.072-1.2zm-8.664-.96c.408-1.392 1.416-2.04 2.712-2.04 1.248 0 2.328.84 2.424 2.04h-5.136zm17.806-1.32v-3.216h-2.904v-3.096h-3.384v3.096h-2.184v3.216h2.184v3.768c0 3.168 1.872 4.992 4.656 4.992.48 0 1.176-.072 1.632-.192v-3.12a3.408 3.408 0 01-.864.096c-1.176 0-2.04-.552-2.04-1.824v-3.72h2.904zm12.772 2.28c0-3.24-2.616-5.736-5.808-5.736-3.432 0-6.12 2.64-6.12 6.072 0 3.48 2.712 6.192 6.192 6.192 2.952 0 5.184-1.656 5.568-4.2h-3.312c-.192.816-1.032 1.392-2.352 1.392-1.584 0-2.76-.984-3-2.52h8.76c.048-.384.072-.936.072-1.2zm-8.664-.96c.408-1.392 1.416-2.04 2.712-2.04 1.248 0 2.328.84 2.424 2.04h-5.136zm23.323-4.536l-2.616 6.888-2.616-6.888h-3.648l4.536 10.824-2.184 4.872h3.624l6.552-15.696h-3.648zm9.955-.24c-3.48 0-6.12 2.64-6.12 6.144s2.64 6.12 6.12 6.12c3.456 0 6.12-2.616 6.12-6.12s-2.664-6.144-6.12-6.144zm0 3.24c1.584 0 2.808 1.224 2.808 2.904 0 1.632-1.224 2.88-2.808 2.88-1.608 0-2.808-1.248-2.808-2.88 0-1.68 1.2-2.904 2.808-2.904zm16.064-3v6.216c0 1.56-.936 2.568-2.328 2.568-1.416 0-2.328-1.008-2.328-2.568v-6.216h-3.384v6.648c0 3.336 1.824 5.376 4.848 5.376 1.368 0 2.472-.648 3.192-1.8V182h3.384v-11.784h-3.384zm12.197-.24c-1.32 0-2.352.576-3.048 1.584v-1.344h-3.384V182h3.384v-5.808c0-2.184 1.32-3.168 2.952-3.168.408 0 .816.072 1.224.168v-3.072c-.384-.072-.768-.144-1.128-.144zm14.086 0c-1.32 0-2.352.576-3.048 1.584v-1.344h-3.384V182h3.384v-5.808c0-2.184 1.32-3.168 2.952-3.168.408 0 .816.072 1.224.168v-3.072c-.384-.072-.768-.144-1.128-.144zm13.312 5.736c0-3.24-2.616-5.736-5.808-5.736-3.432 0-6.12 2.64-6.12 6.072 0 3.48 2.712 6.192 6.192 6.192 2.952 0 5.184-1.656 5.568-4.2H281.8c-.192.816-1.032 1.392-2.352 1.392-1.584 0-2.76-.984-3-2.52h8.76c.048-.384.072-.936.072-1.2zm-8.664-.96c.408-1.392 1.416-2.04 2.712-2.04 1.248 0 2.328.84 2.424 2.04h-5.136zm19.124-4.56v1.632c-.816-1.2-2.088-1.848-3.744-1.848-3.048 0-5.472 2.64-5.472 5.904 0 3.24 2.424 5.904 5.472 5.904 1.656 0 2.928-.648 3.744-1.848v1.704c0 1.44-1.368 2.4-2.832 2.4-1.344 0-2.544-.528-2.64-1.584h-3.384c.216 3.6 3.96 4.392 6.144 4.392 3.408 0 6.096-2.016 6.096-5.352v-11.304h-3.384zm-2.952 8.472c-1.632 0-2.952-1.224-2.952-2.784 0-1.56 1.32-2.808 2.952-2.808 1.656 0 2.952 1.224 2.952 2.808 0 1.584-1.296 2.784-2.952 2.784zm10.381-14.16c-1.128 0-2.064.936-2.064 2.04a2.08 2.08 0 002.064 2.064 2.08 2.08 0 002.064-2.064c0-1.104-.936-2.04-2.064-2.04zm-1.68 5.712V182h3.384v-11.784h-3.384zm10.565 12.024c2.664 0 4.704-1.656 4.704-3.816 0-4.92-6.648-3-6.648-4.824 0-.552.576-.816 1.344-.816 1.08 0 1.728.528 1.776 1.128h3.408c-.288-2.616-2.568-3.936-5.112-3.936-2.904 0-4.68 1.68-4.68 3.864 0 4.392 6.624 2.664 6.624 4.608 0 .552-.576.888-1.584.888-1.128 0-1.968-.528-2.04-1.32h-3.24c.24 2.664 2.376 4.224 5.448 4.224zm13.752-8.808v-3.216h-2.904v-3.096h-3.384v3.096h-2.184v3.216h2.184v3.768c0 3.168 1.872 4.992 4.656 4.992.48 0 1.176-.072 1.632-.192v-3.12a3.408 3.408 0 01-.864.096c-1.176 0-2.04-.552-2.04-1.824v-3.72h2.904zm8.295-3.456c-1.32 0-2.352.576-3.048 1.584v-1.344h-3.384V182h3.384v-5.808c0-2.184 1.32-3.168 2.952-3.168.408 0 .816.072 1.224.168v-3.072c-.384-.072-.768-.144-1.128-.144zm10.6.24v1.68c-.816-1.224-2.088-1.92-3.744-1.92-3.048 0-5.472 2.736-5.472 6.12s2.424 6.144 5.472 6.144c1.656 0 2.928-.696 3.744-1.92V182h3.384v-11.784h-3.384zM341.749 179c-1.632 0-2.952-1.272-2.952-2.904 0-1.608 1.32-2.904 2.952-2.904 1.656 0 2.952 1.272 2.952 2.904 0 1.656-1.296 2.904-2.952 2.904zm16.213-5.568v-3.216h-2.904v-3.096h-3.384v3.096h-2.184v3.216h2.184v3.768c0 3.168 1.872 4.992 4.656 4.992.48 0 1.176-.072 1.632-.192v-3.12a3.408 3.408 0 01-.864.096c-1.176 0-2.04-.552-2.04-1.824v-3.72h2.904zm3.543-8.928c-1.128 0-2.064.936-2.064 2.04a2.08 2.08 0 002.064 2.064 2.08 2.08 0 002.064-2.064c0-1.104-.936-2.04-2.064-2.04zm-1.68 5.712V182h3.384v-11.784h-3.384zm11.405-.24c-3.48 0-6.12 2.64-6.12 6.144s2.64 6.12 6.12 6.12c3.456 0 6.12-2.616 6.12-6.12s-2.664-6.144-6.12-6.144zm0 3.24c1.584 0 2.808 1.224 2.808 2.904 0 1.632-1.224 2.88-2.808 2.88-1.608 0-2.808-1.248-2.808-2.88 0-1.68 1.2-2.904 2.808-2.904zm14.601-3.24c-1.344 0-2.448.648-3.192 1.776v-1.536h-3.384V182h3.384v-6.24c0-1.536.912-2.544 2.328-2.544 1.392 0 2.328 1.008 2.328 2.544V182h3.384v-6.672c0-3.336-1.824-5.352-4.848-5.352zM112.295 207.545L109.265 218h-1.53l-2.43-8.415-2.52 8.415-1.515.015-2.925-10.47H99.8l2.28 8.865 2.52-8.865h1.53l2.4 8.835 2.295-8.835h1.47zm8.994 6.03c0 .26-.015.535-.045.825h-6.57c.05.81.325 1.445.825 1.905.51.45 1.125.675 1.845.675.59 0 1.08-.135 1.47-.405.4-.28.68-.65.84-1.11h1.47a3.57 3.57 0 01-1.32 1.935c-.66.49-1.48.735-2.46.735-.78 0-1.48-.175-2.1-.525a3.743 3.743 0 01-1.44-1.485c-.35-.65-.525-1.4-.525-2.25 0-.85.17-1.595.51-2.235.34-.64.815-1.13 1.425-1.47.62-.35 1.33-.525 2.13-.525.78 0 1.47.17 2.07.51.6.34 1.06.81 1.38 1.41.33.59.495 1.26.495 2.01zm-1.41-.285c0-.52-.115-.965-.345-1.335a2.171 2.171 0 00-.945-.855c-.39-.2-.825-.3-1.305-.3-.69 0-1.28.22-1.77.66-.48.44-.755 1.05-.825 1.83h5.19zm4.577-6.39V218h-1.365v-11.1h1.365zm1.816 6.975c0-.85.17-1.59.51-2.22.34-.64.81-1.135 1.41-1.485.61-.35 1.305-.525 2.085-.525 1.01 0 1.84.245 2.49.735.66.49 1.095 1.17 1.305 2.04h-1.47c-.14-.5-.415-.895-.825-1.185-.4-.29-.9-.435-1.5-.435-.78 0-1.41.27-1.89.81-.48.53-.72 1.285-.72 2.265 0 .99.24 1.755.72 2.295s1.11.81 1.89.81c.6 0 1.1-.14 1.5-.42.4-.28.675-.68.825-1.2h1.47c-.22.84-.66 1.515-1.32 2.025-.66.5-1.485.75-2.475.75-.78 0-1.475-.175-2.085-.525-.6-.35-1.07-.845-1.41-1.485-.34-.64-.51-1.39-.51-2.25zm13.206 4.26a4.25 4.25 0 01-2.1-.525 3.816 3.816 0 01-1.47-1.485c-.35-.65-.525-1.4-.525-2.25 0-.84.18-1.58.54-2.22.37-.65.87-1.145 1.5-1.485.63-.35 1.335-.525 2.115-.525.78 0 1.485.175 2.115.525.63.34 1.125.83 1.485 1.47.37.64.555 1.385.555 2.235 0 .85-.19 1.6-.57 2.25a3.862 3.862 0 01-1.515 1.485c-.64.35-1.35.525-2.13.525zm0-1.2c.49 0 .95-.115 1.38-.345.43-.23.775-.575 1.035-1.035.27-.46.405-1.02.405-1.68 0-.66-.13-1.22-.39-1.68-.26-.46-.6-.8-1.02-1.02a2.796 2.796 0 00-1.365-.345c-.5 0-.96.115-1.38.345-.41.22-.74.56-.99 1.02-.25.46-.375 1.02-.375 1.68 0 .67.12 1.235.36 1.695.25.46.58.805.99 1.035.41.22.86.33 1.35.33zm15.895-7.305c.64 0 1.21.135 1.71.405.5.26.895.655 1.185 1.185.29.53.435 1.175.435 1.935V218h-1.35v-4.65c0-.82-.205-1.445-.615-1.875-.4-.44-.945-.66-1.635-.66-.71 0-1.275.23-1.695.69-.42.45-.63 1.105-.63 1.965V218h-1.35v-4.65c0-.82-.205-1.445-.615-1.875-.4-.44-.945-.66-1.635-.66-.71 0-1.275.23-1.695.69-.42.45-.63 1.105-.63 1.965V218h-1.365v-8.22h1.365v1.185c.27-.43.63-.76 1.08-.99a3.34 3.34 0 011.515-.345c.69 0 1.3.155 1.83.465.53.31.925.765 1.185 1.365.23-.58.61-1.03 1.14-1.35.53-.32 1.12-.48 1.77-.48zm13.069 3.945c0 .26-.015.535-.045.825h-6.57c.05.81.325 1.445.825 1.905.51.45 1.125.675 1.845.675.59 0 1.08-.135 1.47-.405.4-.28.68-.65.84-1.11h1.47a3.57 3.57 0 01-1.32 1.935c-.66.49-1.48.735-2.46.735-.78 0-1.48-.175-2.1-.525a3.743 3.743 0 01-1.44-1.485c-.35-.65-.525-1.4-.525-2.25 0-.85.17-1.595.51-2.235.34-.64.815-1.13 1.425-1.47.62-.35 1.33-.525 2.13-.525.78 0 1.47.17 2.07.51.6.34 1.06.81 1.38 1.41.33.59.495 1.26.495 2.01zm-1.41-.285c0-.52-.115-.965-.345-1.335a2.171 2.171 0 00-.945-.855c-.39-.2-.825-.3-1.305-.3-.69 0-1.28.22-1.77.66-.48.44-.755 1.05-.825 1.83h5.19zm4.622 2.82l-1.68 4.035h-.915l1.095-4.035h1.5zm104.203-8.565l-.165 7.5h-1.14l-.165-7.5h1.47zm-.675 10.545c-.26 0-.48-.09-.66-.27a.898.898 0 01-.27-.66c0-.26.09-.48.27-.66.18-.18.4-.27.66-.27.25 0 .46.09.63.27.18.18.27.4.27.66s-.09.48-.27.66c-.17.18-.38.27-.63.27z"/><path fill="#FF5E5E" d="M177.637 211.865c1.02-.19 1.53-.715 1.53-1.575 0-.38-.05-1.03-.15-1.95-.1-.98-.15-1.69-.15-2.13 0-.72.2-1.27.6-1.65.41-.38.955-.57 1.635-.57h.87v1.185h-.615c-.39 0-.68.09-.87.27-.19.17-.285.455-.285.855 0 .29.02.65.06 1.08.04.42.065.705.075.855.1.96.15 1.66.15 2.1 0 .53-.135.975-.405 1.335-.26.35-.665.585-1.215.705v.03c.55.12.955.36 1.215.72.27.36.405.805.405 1.335 0 .44-.05 1.14-.15 2.1-.01.15-.035.44-.075.87-.04.42-.06.775-.06 1.065 0 .4.095.685.285.855.19.18.48.27.87.27h.615v1.185h-.87c-.68 0-1.225-.19-1.635-.57-.4-.38-.6-.93-.6-1.65 0-.44.05-1.15.15-2.13.1-.92.15-1.57.15-1.95 0-.86-.51-1.385-1.53-1.575v-1.065zm9.853-.96h-1.725V218H184.4v-7.095h-1.065v-1.125h1.065v-.585c0-.92.235-1.59.705-2.01.48-.43 1.245-.645 2.295-.645v1.14c-.6 0-1.025.12-1.275.36-.24.23-.36.615-.36 1.155v.585h1.725v1.125zm2.297-2.46c-.26 0-.48-.09-.66-.27a.898.898 0 0 1-.27-.66c0-.26.09-.48.27-.66.18-.18.4-.27.66-.27.25 0 .46.09.63.27.18.18.27.4.27.66s-.09.48-.27.66c-.17.18-.38.27-.63.27zm.66 1.335V218h-1.365v-8.22h1.365zm3.691 1.335c.24-.47.58-.835 1.02-1.095.45-.26.995-.39 1.635-.39v1.41h-.36c-1.53 0-2.295.83-2.295 2.49V218h-1.365v-8.22h1.365v1.335zm7.141 7.02c-.63 0-1.195-.105-1.695-.315-.5-.22-.895-.52-1.185-.9-.29-.39-.45-.835-.48-1.335h1.41c.04.41.23.745.57 1.005.35.26.805.39 1.365.39.52 0 .93-.115 1.23-.345.3-.23.45-.52.45-.87 0-.36-.16-.625-.48-.795-.32-.18-.815-.355-1.485-.525-.61-.16-1.11-.32-1.5-.48-.38-.17-.71-.415-.99-.735-.27-.33-.405-.76-.405-1.29 0-.42.125-.805.375-1.155s.605-.625 1.065-.825c.46-.21.985-.315 1.575-.315.91 0 1.645.23 2.205.69.56.46.86 1.09.9 1.89h-1.365a1.4 1.4 0 0 0-.525-1.035c-.31-.26-.73-.39-1.26-.39-.49 0-.88.105-1.17.315-.29.21-.435.485-.435.825 0 .27.085.495.255.675.18.17.4.31.66.42.27.1.64.215 1.11.345.59.16 1.07.32 1.44.48.37.15.685.38.945.69.27.31.41.715.42 1.215 0 .45-.125.855-.375 1.215-.25.36-.605.645-1.065.855-.45.2-.97.3-1.56.3zm6.592-7.23v4.845c0 .4.085.685.255.855.17.16.465.24.885.24h1.005V218h-1.23c-.76 0-1.33-.175-1.71-.525-.38-.35-.57-.925-.57-1.725v-4.845h-1.065v-1.125h1.065v-2.07h1.365v2.07h2.145v1.125h-2.145zm12.199 7.665v1.26h-7.98v-1.26h7.98zm6.606-8.94c1 0 1.81.305 2.43.915.62.6.93 1.47.93 2.61V218h-1.35v-4.65c0-.82-.205-1.445-.615-1.875-.41-.44-.97-.66-1.68-.66-.72 0-1.295.225-1.725.675-.42.45-.63 1.105-.63 1.965V218h-1.365v-8.22h1.365v1.17c.27-.42.635-.745 1.095-.975.47-.23.985-.345 1.545-.345zm5.079 4.23c0-.84.17-1.575.51-2.205.34-.64.805-1.135 1.395-1.485.6-.35 1.265-.525 1.995-.525.72 0 1.345.155 1.875.465.53.31.925.7 1.185 1.17v-1.5h1.38V218h-1.38v-1.53c-.27.48-.675.88-1.215 1.2-.53.31-1.15.465-1.86.465-.73 0-1.39-.18-1.98-.54a3.787 3.787 0 0 1-1.395-1.515c-.34-.65-.51-1.39-.51-2.22zm6.96.015c0-.62-.125-1.16-.375-1.62-.25-.46-.59-.81-1.02-1.05a2.676 2.676 0 0 0-1.395-.375c-.51 0-.975.12-1.395.36-.42.24-.755.59-1.005 1.05-.25.46-.375 1-.375 1.62 0 .63.125 1.18.375 1.65.25.46.585.815 1.005 1.065.42.24.885.36 1.395.36s.975-.12 1.395-.36c.43-.25.77-.605 1.02-1.065.25-.47.375-1.015.375-1.635zm13.572-4.245c.64 0 1.21.135 1.71.405.5.26.895.655 1.185 1.185.29.53.435 1.175.435 1.935V218h-1.35v-4.65c0-.82-.205-1.445-.615-1.875-.4-.44-.945-.66-1.635-.66-.71 0-1.275.23-1.695.69-.42.45-.63 1.105-.63 1.965V218h-1.35v-4.65c0-.82-.205-1.445-.615-1.875-.4-.44-.945-.66-1.635-.66-.71 0-1.275.23-1.695.69-.42.45-.63 1.105-.63 1.965V218h-1.365v-8.22h1.365v1.185c.27-.43.63-.76 1.08-.99a3.34 3.34 0 0 1 1.515-.345c.69 0 1.3.155 1.83.465.53.31.925.765 1.185 1.365.23-.58.61-1.03 1.14-1.35.53-.32 1.12-.48 1.77-.48zm13.069 3.945c0 .26-.015.535-.045.825h-6.57c.05.81.325 1.445.825 1.905.51.45 1.125.675 1.845.675.59 0 1.08-.135 1.47-.405.4-.28.68-.65.84-1.11h1.47a3.57 3.57 0 0 1-1.32 1.935c-.66.49-1.48.735-2.46.735-.78 0-1.48-.175-2.1-.525a3.743 3.743 0 0 1-1.44-1.485c-.35-.65-.525-1.4-.525-2.25 0-.85.17-1.595.51-2.235.34-.64.815-1.13 1.425-1.47.62-.35 1.33-.525 2.13-.525.78 0 1.47.17 2.07.51.6.34 1.06.81 1.38 1.41.33.59.495 1.26.495 2.01zm-1.41-.285c0-.52-.115-.965-.345-1.335a2.171 2.171 0 0 0-.945-.855c-.39-.2-.825-.3-1.305-.3-.69 0-1.28.22-1.77.66-.48.44-.755 1.05-.825 1.83h5.19zm7.412-.36c-1.02.19-1.53.715-1.53 1.575 0 .38.05 1.03.15 1.95.1.98.15 1.69.15 2.13 0 .72-.205 1.27-.615 1.65-.4.38-.94.57-1.62.57h-.87v-1.185h.615c.39 0 .68-.09.87-.27.19-.17.285-.455.285-.855 0-.29-.02-.645-.06-1.065-.04-.43-.065-.72-.075-.87-.1-.96-.15-1.66-.15-2.1 0-.53.13-.975.39-1.335.27-.36.68-.6 1.23-.72v-.03c-.55-.12-.96-.355-1.23-.705-.26-.36-.39-.805-.39-1.335 0-.44.05-1.14.15-2.1.01-.15.035-.435.075-.855.04-.43.06-.79.06-1.08 0-.4-.095-.685-.285-.855-.19-.18-.48-.27-.87-.27h-.615v-1.185h.87c.68 0 1.22.19 1.62.57.41.38.615.93.615 1.65 0 .44-.05 1.15-.15 2.13-.1.92-.15 1.57-.15 1.95 0 .86.51 1.385 1.53 1.575v1.065z"/><g filter="url(#filter1_b)"><path fill="url(#paint0_linear)" d="M84 254h570v48H84z"/><path stroke="#2C1338" stroke-dasharray="6 6" stroke-opacity=".2" d="M83.5 253.5h571v49h-571z"/></g><rect width="12" height="12" stroke="url(#paint1_linear)" rx="2" transform="matrix(-1 0 0 1 90 248)"/><rect width="12" height="12" stroke="url(#paint2_linear)" rx="2" transform="matrix(-1 0 0 1 660 248)"/><rect width="12" height="12" stroke="url(#paint3_linear)" rx="2" transform="matrix(-1 0 0 1 90 296)"/><rect width="12" height="12" stroke="url(#paint4_linear)" rx="2" transform="matrix(-1 0 0 1 660 296)"/><rect width="24" height="24" x="98" y="266" fill="#FCEDE3" rx="4"/><mask id="a" width="24" height="24" x="98" y="266" maskUnits="userSpaceOnUse"><rect width="24" height="24" x="98" y="266" fill="#FCEDE3" rx="4"/></mask><g fill="#86788D" mask="url(#a)"><path fill-opacity=".5" stroke="#D4EBFF" d="M98 282.318V290h19l-13.312-10.096a2.001 2.001 0 0 0-2.396-.016L98 282.318z"/><path d="M112.391 276.094L104 290h18v-8.34l-6.544-6.007a2 2 0 0 0-3.065.441z"/></g><circle cx="105" cy="273" r="3" fill="#FD897A"/><path fill="#2C1338" d="M138.433 282.13c2.015 0 3.51-1.521 3.51-3.562V272.9h-1.261v5.668c0 1.339-.949 2.34-2.249 2.34-1.3 0-2.249-1.001-2.249-2.34V272.9h-1.261v5.668c0 2.041 1.495 3.562 3.51 3.562zm8.874-6.604c-1.105 0-1.937.52-2.405 1.404v-1.274h-1.209v8.645h1.209v-3.575c.468.884 1.3 1.404 2.405 1.404 1.729 0 3.094-1.469 3.094-3.302s-1.365-3.302-3.094-3.302zm-.247 5.46c-1.235 0-2.158-.91-2.158-2.158 0-1.248.923-2.158 2.158-2.158 1.209 0 2.158.949 2.158 2.158a2.136 2.136 0 0 1-2.158 2.158zm5.815-8.086h-1.209v9.1h1.209v-9.1zm4.458 2.626c-1.846 0-3.276 1.443-3.276 3.315 0 1.859 1.43 3.289 3.276 3.289 1.833 0 3.276-1.43 3.276-3.289 0-1.872-1.443-3.315-3.276-3.315zm0 1.144c1.183 0 2.106.936 2.106 2.171 0 1.209-.923 2.145-2.106 2.145-1.196 0-2.106-.936-2.106-2.145 0-1.235.91-2.171 2.106-2.171zm9.612-1.014v1.3c-.468-.91-1.3-1.43-2.418-1.43-1.716 0-3.081 1.469-3.081 3.302s1.365 3.302 3.081 3.302c1.118 0 1.95-.52 2.418-1.43v1.3h1.196v-6.344h-1.196zm-2.171 5.33a2.136 2.136 0 0 1-2.158-2.158c0-1.209.949-2.158 2.158-2.158 1.248 0 2.171.91 2.171 2.158 0 1.248-.923 2.158-2.171 2.158zm10.195-8.086v4.056c-.468-.91-1.3-1.43-2.418-1.43-1.716 0-3.081 1.469-3.081 3.302s1.365 3.302 3.081 3.302c1.118 0 1.95-.52 2.418-1.43v1.3h1.196v-9.1h-1.196zm-2.171 8.086a2.136 2.136 0 0 1-2.158-2.158c0-1.209.949-2.158 2.158-2.158 1.248 0 2.171.91 2.171 2.158 0 1.248-.923 2.158-2.171 2.158zm8.64-8.177a.819.819 0 0 0-.806.806.81.81 0 0 0 .806.806.819.819 0 0 0 .806-.806.828.828 0 0 0-.806-.806zm-.611 2.847V282h1.209v-6.344h-1.209zm10.24-.13c-.897 0-1.729.468-2.093 1.248-.377-.845-1.079-1.248-2.08-1.248-.715 0-1.534.286-1.989 1.118v-.988h-1.209V282h1.209v-3.588c0-1.261.819-1.742 1.586-1.742.988 0 1.586.663 1.586 1.742V282h1.196v-3.588c0-1.235.819-1.742 1.612-1.742.975 0 1.573.663 1.573 1.742V282h1.196v-3.835c0-1.625-1.027-2.639-2.587-2.639zm9.419.13v1.3c-.468-.91-1.3-1.43-2.418-1.43-1.716 0-3.081 1.469-3.081 3.302s1.365 3.302 3.081 3.302c1.118 0 1.95-.52 2.418-1.43v1.3h1.196v-6.344h-1.196zm-2.171 5.33a2.136 2.136 0 0 1-2.158-2.158c0-1.209.949-2.158 2.158-2.158 1.248 0 2.171.91 2.171 2.158 0 1.248-.923 2.158-2.171 2.158zm10.195-5.33v1.261c-.468-.871-1.3-1.391-2.418-1.391-1.716 0-3.081 1.43-3.081 3.224 0 1.794 1.365 3.237 3.081 3.237 1.118 0 1.95-.52 2.418-1.404v1.248c0 1.105-.884 1.833-2.028 1.833-1.014 0-1.859-.481-1.898-1.261h-1.183c.078 1.651 1.781 2.262 3.12 2.262 1.833 0 3.185-1.105 3.185-2.886v-6.123h-1.196zm-2.171 5.213c-1.209 0-2.158-.936-2.158-2.119 0-1.17.949-2.106 2.158-2.106 1.248 0 2.171.897 2.171 2.106 0 1.222-.923 2.119-2.171 2.119zm11-2.197c0-1.833-1.365-3.146-3.068-3.146-1.82 0-3.237 1.443-3.237 3.276 0 1.885 1.404 3.328 3.25 3.328 1.534 0 2.756-.858 2.99-2.184h-1.196c-.156.676-.871 1.105-1.755 1.105-1.183 0-1.963-.754-2.106-1.898h5.096c.013-.104.026-.364.026-.481zm-5.083-.533c.221-.949.975-1.521 1.963-1.521 1.001 0 1.716.637 1.82 1.521h-3.783z" opacity=".56"/><g filter="url(#filter2_b)"><rect width="570" height="84" x="84" y="353" fill="url(#paint5_linear)" rx="8"/><rect width="571" height="85" x="83.5" y="352.5" stroke="#2C1338" stroke-dasharray="6 6" stroke-opacity=".2" rx="8.5"/></g><g filter="url(#filter3_f)"><path fill="url(#paint6_linear)" fill-opacity=".16" d="M84 356.975L142.5 334l458.5 1.9L705.5 416l-55 21H84v-80.025z"/></g><g filter="url(#filter4_d)"><rect width="577" height="84" x="131" y="334" fill="#fff" rx="8"/></g><circle cx="690.516" cy="355.703" r="1.703" fill="#2C1338" opacity=".12"/><circle cx="690.516" cy="369.329" r="1.703" fill="#2C1338" opacity=".12"/><circle cx="690.516" cy="382.955" r="1.703" fill="#2C1338" opacity=".12"/><circle cx="690.516" cy="362.516" r="1.703" fill="#2C1338" opacity=".12"/><circle cx="690.516" cy="376.142" r="1.703" fill="#2C1338" opacity=".12"/><circle cx="690.516" cy="389.768" r="1.703" fill="#2C1338" opacity=".12"/><circle cx="690.516" cy="396.297" r="1.703" fill="#2C1338" opacity=".12"/><circle cx="683.703" cy="355.703" r="1.703" fill="#2C1338" opacity=".12"/><circle cx="683.703" cy="369.329" r="1.703" fill="#2C1338" opacity=".12"/><circle cx="683.703" cy="382.955" r="1.703" fill="#2C1338" opacity=".12"/><circle cx="683.703" cy="362.516" r="1.703" fill="#2C1338" opacity=".12"/><circle cx="683.703" cy="376.142" r="1.703" fill="#2C1338" opacity=".12"/><circle cx="683.703" cy="389.768" r="1.703" fill="#2C1338" opacity=".12"/><circle cx="683.703" cy="396.297" r="1.703" fill="#2C1338" opacity=".12"/><path fill="#2C1338" d="M162.59 359.545v1.11h-2.85V370h-1.365v-9.345h-2.865v-1.11h7.08zm5.76 2.085c.62 0 1.18.135 1.68.405.5.26.89.655 1.17 1.185.29.53.435 1.175.435 1.935V370h-1.35v-4.65c0-.82-.205-1.445-.615-1.875-.41-.44-.97-.66-1.68-.66-.72 0-1.295.225-1.725.675-.42.45-.63 1.105-.63 1.965V370h-1.365v-11.1h1.365v4.05a2.7 2.7 0 0 1 1.11-.975 3.667 3.667 0 0 1 1.605-.345zm5.005 4.23c0-.84.17-1.575.51-2.205.34-.64.805-1.135 1.395-1.485.6-.35 1.265-.525 1.995-.525.72 0 1.345.155 1.875.465.53.31.925.7 1.185 1.17v-1.5h1.38V370h-1.38v-1.53c-.27.48-.675.88-1.215 1.2-.53.31-1.15.465-1.86.465-.73 0-1.39-.18-1.98-.54a3.787 3.787 0 0 1-1.395-1.515c-.34-.65-.51-1.39-.51-2.22zm6.96.015c0-.62-.125-1.16-.375-1.62-.25-.46-.59-.81-1.02-1.05a2.676 2.676 0 0 0-1.395-.375c-.51 0-.975.12-1.395.36-.42.24-.755.59-1.005 1.05-.25.46-.375 1-.375 1.62 0 .63.125 1.18.375 1.65.25.46.585.815 1.005 1.065.42.24.885.36 1.395.36s.975-.12 1.395-.36c.43-.25.77-.605 1.02-1.065.25-.47.375-1.015.375-1.635zm7.692-4.245c1 0 1.81.305 2.43.915.62.6.93 1.47.93 2.61V370h-1.35v-4.65c0-.82-.205-1.445-.615-1.875-.41-.44-.97-.66-1.68-.66-.72 0-1.295.225-1.725.675-.42.45-.63 1.105-.63 1.965V370h-1.365v-8.22h1.365v1.17c.27-.42.635-.745 1.095-.975.47-.23.985-.345 1.545-.345zm10.179 8.37l-3.225-3.63V370h-1.365v-11.1h1.365v6.525l3.165-3.645h1.905l-3.87 4.095 3.885 4.125h-1.86zm6.04.135c-.63 0-1.195-.105-1.695-.315-.5-.22-.895-.52-1.185-.9-.29-.39-.45-.835-.48-1.335h1.41c.04.41.23.745.57 1.005.35.26.805.39 1.365.39.52 0 .93-.115 1.23-.345.3-.23.45-.52.45-.87 0-.36-.16-.625-.48-.795-.32-.18-.815-.355-1.485-.525-.61-.16-1.11-.32-1.5-.48-.38-.17-.71-.415-.99-.735-.27-.33-.405-.76-.405-1.29 0-.42.125-.805.375-1.155s.605-.625 1.065-.825c.46-.21.985-.315 1.575-.315.91 0 1.645.23 2.205.69.56.46.86 1.09.9 1.89h-1.365a1.4 1.4 0 0 0-.525-1.035c-.31-.26-.73-.39-1.26-.39-.49 0-.88.105-1.17.315-.29.21-.435.485-.435.825 0 .27.085.495.255.675.18.17.4.31.66.42.27.1.64.215 1.11.345.59.16 1.07.32 1.44.48.37.15.685.38.945.69.27.31.41.715.42 1.215 0 .45-.125.855-.375 1.215-.25.36-.605.645-1.065.855-.45.2-.97.3-1.56.3zm12.271-7.23h-1.725V370h-1.365v-7.095h-1.065v-1.125h1.065v-.585c0-.92.235-1.59.705-2.01.48-.43 1.245-.645 2.295-.645v1.14c-.6 0-1.025.12-1.275.36-.24.23-.36.615-.36 1.155v.585h1.725v1.125zm5.177 7.23a4.25 4.25 0 0 1-2.1-.525 3.816 3.816 0 0 1-1.47-1.485c-.35-.65-.525-1.4-.525-2.25 0-.84.18-1.58.54-2.22.37-.65.87-1.145 1.5-1.485.63-.35 1.335-.525 2.115-.525.78 0 1.485.175 2.115.525.63.34 1.125.83 1.485 1.47.37.64.555 1.385.555 2.235 0 .85-.19 1.6-.57 2.25a3.862 3.862 0 0 1-1.515 1.485c-.64.35-1.35.525-2.13.525zm0-1.2c.49 0 .95-.115 1.38-.345.43-.23.775-.575 1.035-1.035.27-.46.405-1.02.405-1.68 0-.66-.13-1.22-.39-1.68-.26-.46-.6-.8-1.02-1.02a2.796 2.796 0 0 0-1.365-.345c-.5 0-.96.115-1.38.345-.41.22-.74.56-.99 1.02-.25.46-.375 1.02-.375 1.68 0 .67.12 1.235.36 1.695.25.46.58.805.99 1.035.41.22.86.33 1.35.33zm7.374-5.82c.24-.47.58-.835 1.02-1.095.45-.26.995-.39 1.635-.39v1.41h-.36c-1.53 0-2.295.83-2.295 2.49V370h-1.365v-8.22h1.365v1.335zm11.14 7.02c-.63 0-1.195-.105-1.695-.315-.5-.22-.895-.52-1.185-.9-.29-.39-.45-.835-.48-1.335h1.41c.04.41.23.745.57 1.005.35.26.805.39 1.365.39.52 0 .93-.115 1.23-.345.3-.23.45-.52.45-.87 0-.36-.16-.625-.48-.795-.32-.18-.815-.355-1.485-.525-.61-.16-1.11-.32-1.5-.48-.38-.17-.71-.415-.99-.735-.27-.33-.405-.76-.405-1.29 0-.42.125-.805.375-1.155s.605-.625 1.065-.825c.46-.21.985-.315 1.575-.315.91 0 1.645.23 2.205.69.56.46.86 1.09.9 1.89h-1.365a1.4 1.4 0 0 0-.525-1.035c-.31-.26-.73-.39-1.26-.39-.49 0-.88.105-1.17.315-.29.21-.435.485-.435.825 0 .27.085.495.255.675.18.17.4.31.66.42.27.1.64.215 1.11.345.59.16 1.07.32 1.44.48.37.15.685.38.945.69.27.31.41.715.42 1.215 0 .45-.125.855-.375 1.215-.25.36-.605.645-1.065.855-.45.2-.97.3-1.56.3zm5.632-9.69c-.26 0-.48-.09-.66-.27a.898.898 0 0 1-.27-.66c0-.26.09-.48.27-.66.18-.18.4-.27.66-.27.25 0 .46.09.63.27.18.18.27.4.27.66s-.09.48-.27.66c-.17.18-.38.27-.63.27zm.66 1.335V370h-1.365v-8.22h1.365zm5.716-.135c.71 0 1.33.155 1.86.465.54.31.94.7 1.2 1.17v-1.5h1.38v8.4c0 .75-.16 1.415-.48 1.995-.32.59-.78 1.05-1.38 1.38-.59.33-1.28.495-2.07.495-1.08 0-1.98-.255-2.7-.765-.72-.51-1.145-1.205-1.275-2.085h1.35c.15.5.46.9.93 1.2.47.31 1.035.465 1.695.465.75 0 1.36-.235 1.83-.705.48-.47.72-1.13.72-1.98v-1.725c-.27.48-.67.88-1.2 1.2-.53.32-1.15.48-1.86.48-.73 0-1.395-.18-1.995-.54a3.787 3.787 0 0 1-1.395-1.515c-.34-.65-.51-1.39-.51-2.22 0-.84.17-1.575.51-2.205.34-.64.805-1.135 1.395-1.485.6-.35 1.265-.525 1.995-.525zm3.06 4.23c0-.62-.125-1.16-.375-1.62-.25-.46-.59-.81-1.02-1.05a2.676 2.676 0 0 0-1.395-.375c-.51 0-.975.12-1.395.36-.42.24-.755.59-1.005 1.05-.25.46-.375 1-.375 1.62 0 .63.125 1.18.375 1.65.25.46.585.815 1.005 1.065.42.24.885.36 1.395.36s.975-.12 1.395-.36c.43-.25.77-.605 1.02-1.065.25-.47.375-1.015.375-1.635zm7.692-4.245c1 0 1.81.305 2.43.915.62.6.93 1.47.93 2.61V370h-1.35v-4.65c0-.82-.205-1.445-.615-1.875-.41-.44-.97-.66-1.68-.66-.72 0-1.295.225-1.725.675-.42.45-.63 1.105-.63 1.965V370h-1.365v-8.22h1.365v1.17c.27-.42.635-.745 1.095-.975.47-.23.985-.345 1.545-.345zm6.295-1.185c-.26 0-.48-.09-.66-.27a.898.898 0 0 1-.27-.66c0-.26.09-.48.27-.66.18-.18.4-.27.66-.27.25 0 .46.09.63.27.18.18.27.4.27.66s-.09.48-.27.66c-.17.18-.38.27-.63.27zm.66 1.335V370h-1.365v-8.22h1.365zm6.331-.15c1 0 1.81.305 2.43.915.62.6.93 1.47.93 2.61V370h-1.35v-4.65c0-.82-.205-1.445-.615-1.875-.41-.44-.97-.66-1.68-.66-.72 0-1.295.225-1.725.675-.42.45-.63 1.105-.63 1.965V370h-1.365v-8.22h1.365v1.17c.27-.42.635-.745 1.095-.975.47-.23.985-.345 1.545-.345zm8.98.015c.71 0 1.33.155 1.86.465.54.31.94.7 1.2 1.17v-1.5h1.38v8.4c0 .75-.16 1.415-.48 1.995-.32.59-.78 1.05-1.38 1.38-.59.33-1.28.495-2.07.495-1.08 0-1.98-.255-2.7-.765-.72-.51-1.145-1.205-1.275-2.085h1.35c.15.5.46.9.93 1.2.47.31 1.035.465 1.695.465.75 0 1.36-.235 1.83-.705.48-.47.72-1.13.72-1.98v-1.725c-.27.48-.67.88-1.2 1.2-.53.32-1.15.48-1.86.48-.73 0-1.395-.18-1.995-.54a3.787 3.787 0 0 1-1.395-1.515c-.34-.65-.51-1.39-.51-2.22 0-.84.17-1.575.51-2.205.34-.64.805-1.135 1.395-1.485.6-.35 1.265-.525 1.995-.525zm3.06 4.23c0-.62-.125-1.16-.375-1.62-.25-.46-.59-.81-1.02-1.05a2.676 2.676 0 0 0-1.395-.375c-.51 0-.975.12-1.395.36-.42.24-.755.59-1.005 1.05-.25.46-.375 1-.375 1.62 0 .63.125 1.18.375 1.65.25.46.585.815 1.005 1.065.42.24.885.36 1.395.36s.975-.12 1.395-.36c.43-.25.77-.605 1.02-1.065.25-.47.375-1.015.375-1.635zm14.976-4.095V370h-1.365v-1.215c-.26.42-.625.75-1.095.99-.46.23-.97.345-1.53.345-.64 0-1.215-.13-1.725-.39-.51-.27-.915-.67-1.215-1.2-.29-.53-.435-1.175-.435-1.935v-4.815h1.35v4.635c0 .81.205 1.435.615 1.875.41.43.97.645 1.68.645.73 0 1.305-.225 1.725-.675.42-.45.63-1.105.63-1.965v-4.515h1.365zm3.669 1.515c.27-.47.67-.86 1.2-1.17.54-.32 1.165-.48 1.875-.48.73 0 1.39.175 1.98.525.6.35 1.07.845 1.41 1.485.34.63.51 1.365.51 2.205 0 .83-.17 1.57-.51 2.22-.34.65-.81 1.155-1.41 1.515-.59.36-1.25.54-1.98.54-.7 0-1.32-.155-1.86-.465-.53-.32-.935-.715-1.215-1.185v5.415h-1.365v-12.12h1.365v1.515zm5.58 2.565c0-.62-.125-1.16-.375-1.62-.25-.46-.59-.81-1.02-1.05-.42-.24-.885-.36-1.395-.36-.5 0-.965.125-1.395.375-.42.24-.76.595-1.02 1.065-.25.46-.375.995-.375 1.605 0 .62.125 1.165.375 1.635.26.46.6.815 1.02 1.065.43.24.895.36 1.395.36.51 0 .975-.12 1.395-.36.43-.25.77-.605 1.02-1.065.25-.47.375-1.02.375-1.65zm4.962-6.315l-.165 7.5h-1.14l-.165-7.5h1.47zm-.675 10.545c-.26 0-.48-.09-.66-.27a.898.898 0 0 1-.27-.66c0-.26.09-.48.27-.66.18-.18.4-.27.66-.27.25 0 .46.09.63.27.18.18.27.4.27.66s-.09.48-.27.66c-.17.18-.38.27-.63.27zm12.607-5.475c.38.06.725.215 1.035.465.32.25.57.56.75.93.19.37.285.765.285 1.185 0 .53-.135 1.01-.405 1.44-.27.42-.665.755-1.185 1.005-.51.24-1.115.36-1.815.36h-3.9v-10.455h3.75c.71 0 1.315.12 1.815.36.5.23.875.545 1.125.945.25.4.375.85.375 1.35 0 .62-.17 1.135-.51 1.545-.33.4-.77.69-1.32.87zm-3.87-.555h2.295c.64 0 1.135-.15 1.485-.45.35-.3.525-.715.525-1.245 0-.53-.175-.945-.525-1.245-.35-.3-.855-.45-1.515-.45h-2.265v3.39zm2.415 4.815c.68 0 1.21-.16 1.59-.48.38-.32.57-.765.57-1.335 0-.58-.2-1.035-.6-1.365-.4-.34-.935-.51-1.605-.51h-2.37v3.69h2.415zm12.919-3.3c0 .26-.015.535-.045.825h-6.57c.05.81.325 1.445.825 1.905.51.45 1.125.675 1.845.675.59 0 1.08-.135 1.47-.405.4-.28.68-.65.84-1.11h1.47a3.57 3.57 0 0 1-1.32 1.935c-.66.49-1.48.735-2.46.735-.78 0-1.48-.175-2.1-.525a3.743 3.743 0 0 1-1.44-1.485c-.35-.65-.525-1.4-.525-2.25 0-.85.17-1.595.51-2.235.34-.64.815-1.13 1.425-1.47.62-.35 1.33-.525 2.13-.525.78 0 1.47.17 2.07.51.6.34 1.06.81 1.38 1.41.33.59.495 1.26.495 2.01zm-1.41-.285c0-.52-.115-.965-.345-1.335a2.171 2.171 0 0 0-.945-.855c-.39-.2-.825-.3-1.305-.3-.69 0-1.28.22-1.77.66-.48.44-.755 1.05-.825 1.83h5.19zm6.557-2.385h-1.725V370h-1.365v-7.095h-1.065v-1.125h1.065v-.585c0-.92.235-1.59.705-2.01.48-.43 1.245-.645 2.295-.645v1.14c-.6 0-1.025.12-1.275.36-.24.23-.36.615-.36 1.155v.585h1.725v1.125zm5.176 7.23a4.25 4.25 0 0 1-2.1-.525 3.816 3.816 0 0 1-1.47-1.485c-.35-.65-.525-1.4-.525-2.25 0-.84.18-1.58.54-2.22.37-.65.87-1.145 1.5-1.485.63-.35 1.335-.525 2.115-.525.78 0 1.485.175 2.115.525.63.34 1.125.83 1.485 1.47.37.64.555 1.385.555 2.235 0 .85-.19 1.6-.57 2.25a3.862 3.862 0 0 1-1.515 1.485c-.64.35-1.35.525-2.13.525zm0-1.2c.49 0 .95-.115 1.38-.345.43-.23.775-.575 1.035-1.035.27-.46.405-1.02.405-1.68 0-.66-.13-1.22-.39-1.68-.26-.46-.6-.8-1.02-1.02a2.796 2.796 0 0 0-1.365-.345c-.5 0-.96.115-1.38.345-.41.22-.74.56-.99 1.02-.25.46-.375 1.02-.375 1.68 0 .67.12 1.235.36 1.695.25.46.58.805.99 1.035.41.22.86.33 1.35.33zm7.375-5.82c.24-.47.58-.835 1.02-1.095.45-.26.995-.39 1.635-.39v1.41h-.36c-1.53 0-2.295.83-2.295 2.49V370h-1.365v-8.22h1.365v1.335zm11.731 2.46c0 .26-.015.535-.045.825h-6.57c.05.81.325 1.445.825 1.905.51.45 1.125.675 1.845.675.59 0 1.08-.135 1.47-.405.4-.28.68-.65.84-1.11h1.47a3.57 3.57 0 0 1-1.32 1.935c-.66.49-1.48.735-2.46.735-.78 0-1.48-.175-2.1-.525a3.743 3.743 0 0 1-1.44-1.485c-.35-.65-.525-1.4-.525-2.25 0-.85.17-1.595.51-2.235.34-.64.815-1.13 1.425-1.47.62-.35 1.33-.525 2.13-.525.78 0 1.47.17 2.07.51.6.34 1.06.81 1.38 1.41.33.59.495 1.26.495 2.01zm-1.41-.285c0-.52-.115-.965-.345-1.335a2.171 2.171 0 0 0-.945-.855c-.39-.2-.825-.3-1.305-.3-.69 0-1.28.22-1.77.66-.48.44-.755 1.05-.825 1.83h5.19zm14.291-3.51l-4.95 12.09h-1.41l1.62-3.96-3.315-8.13h1.515l2.58 6.66 2.55-6.66h1.41zm4.957 8.355a4.25 4.25 0 0 1-2.1-.525 3.816 3.816 0 0 1-1.47-1.485c-.35-.65-.525-1.4-.525-2.25 0-.84.18-1.58.54-2.22.37-.65.87-1.145 1.5-1.485.63-.35 1.335-.525 2.115-.525.78 0 1.485.175 2.115.525.63.34 1.125.83 1.485 1.47.37.64.555 1.385.555 2.235 0 .85-.19 1.6-.57 2.25a3.862 3.862 0 0 1-1.515 1.485c-.64.35-1.35.525-2.13.525zm0-1.2c.49 0 .95-.115 1.38-.345.43-.23.775-.575 1.035-1.035.27-.46.405-1.02.405-1.68 0-.66-.13-1.22-.39-1.68-.26-.46-.6-.8-1.02-1.02a2.796 2.796 0 0 0-1.365-.345c-.5 0-.96.115-1.38.345-.41.22-.74.56-.99 1.02-.25.46-.375 1.02-.375 1.68 0 .67.12 1.235.36 1.695.25.46.58.805.99 1.035.41.22.86.33 1.35.33zm13.3-7.155V370h-1.365v-1.215c-.26.42-.625.75-1.095.99-.46.23-.97.345-1.53.345-.64 0-1.215-.13-1.725-.39-.51-.27-.915-.67-1.215-1.2-.29-.53-.435-1.175-.435-1.935v-4.815h1.35v4.635c0 .81.205 1.435.615 1.875.41.43.97.645 1.68.645.73 0 1.305-.225 1.725-.675.42-.45.63-1.105.63-1.965v-4.515h1.365zm9.693-.135c.71 0 1.33.155 1.86.465.54.31.94.7 1.2 1.17v-1.5h1.38v8.4c0 .75-.16 1.415-.48 1.995-.32.59-.78 1.05-1.38 1.38-.59.33-1.28.495-2.07.495-1.08 0-1.98-.255-2.7-.765-.72-.51-1.145-1.205-1.275-2.085h1.35c.15.5.46.9.93 1.2.47.31 1.035.465 1.695.465.75 0 1.36-.235 1.83-.705.48-.47.72-1.13.72-1.98v-1.725c-.27.48-.67.88-1.2 1.2-.53.32-1.15.48-1.86.48-.73 0-1.395-.18-1.995-.54a3.787 3.787 0 0 1-1.395-1.515c-.34-.65-.51-1.39-.51-2.22 0-.84.17-1.575.51-2.205.34-.64.805-1.135 1.395-1.485.6-.35 1.265-.525 1.995-.525zm3.06 4.23c0-.62-.125-1.16-.375-1.62-.25-.46-.59-.81-1.02-1.05a2.676 2.676 0 0 0-1.395-.375c-.51 0-.975.12-1.395.36-.42.24-.755.59-1.005 1.05-.25.46-.375 1-.375 1.62 0 .63.125 1.18.375 1.65.25.46.585.815 1.005 1.065.42.24.885.36 1.395.36s.975-.12 1.395-.36c.43-.25.77-.605 1.02-1.065.25-.47.375-1.015.375-1.635zm11.187-.3c0 .26-.015.535-.045.825h-6.57c.05.81.325 1.445.825 1.905.51.45 1.125.675 1.845.675.59 0 1.08-.135 1.47-.405.4-.28.68-.65.84-1.11h1.47a3.57 3.57 0 0 1-1.32 1.935c-.66.49-1.48.735-2.46.735-.78 0-1.48-.175-2.1-.525a3.743 3.743 0 0 1-1.44-1.485c-.35-.65-.525-1.4-.525-2.25 0-.85.17-1.595.51-2.235.34-.64.815-1.13 1.425-1.47.62-.35 1.33-.525 2.13-.525.78 0 1.47.17 2.07.51.6.34 1.06.81 1.38 1.41.33.59.495 1.26.495 2.01zm-1.41-.285c0-.52-.115-.965-.345-1.335a2.171 2.171 0 0 0-.945-.855c-.39-.2-.825-.3-1.305-.3-.69 0-1.28.22-1.77.66-.48.44-.755 1.05-.825 1.83h5.19zm4.877-2.385v4.845c0 .4.085.685.255.855.17.16.465.24.885.24h1.005V370h-1.23c-.76 0-1.33-.175-1.71-.525-.38-.35-.57-.925-.57-1.725v-4.845h-1.065v-1.125h1.065v-2.07h1.365v2.07h2.145v1.125h-2.145zm10.708 7.23c-.63 0-1.195-.105-1.695-.315-.5-.22-.895-.52-1.185-.9-.29-.39-.45-.835-.48-1.335h1.41c.04.41.23.745.57 1.005.35.26.805.39 1.365.39.52 0 .93-.115 1.23-.345.3-.23.45-.52.45-.87 0-.36-.16-.625-.48-.795-.32-.18-.815-.355-1.485-.525-.61-.16-1.11-.32-1.5-.48-.38-.17-.71-.415-.99-.735-.27-.33-.405-.76-.405-1.29 0-.42.125-.805.375-1.155s.605-.625 1.065-.825c.46-.21.985-.315 1.575-.315.91 0 1.645.23 2.205.69.56.46.86 1.09.9 1.89h-1.365a1.4 1.4 0 0 0-.525-1.035c-.31-.26-.73-.39-1.26-.39-.49 0-.88.105-1.17.315-.29.21-.435.485-.435.825 0 .27.085.495.255.675.18.17.4.31.66.42.27.1.64.215 1.11.345.59.16 1.07.32 1.44.48.37.15.685.38.945.69.27.31.41.715.42 1.215 0 .45-.125.855-.375 1.215-.25.36-.605.645-1.065.855-.45.2-.97.3-1.56.3zm6.592-7.23v4.845c0 .4.085.685.255.855.17.16.465.24.885.24h1.005V370h-1.23c-.76 0-1.33-.175-1.71-.525-.38-.35-.57-.925-.57-1.725v-4.845h-1.065v-1.125h1.065v-2.07h1.365v2.07h2.145v1.125h-2.145zm3.288 2.955c0-.84.17-1.575.51-2.205.34-.64.805-1.135 1.395-1.485.6-.35 1.265-.525 1.995-.525.72 0 1.345.155 1.875.465.53.31.925.7 1.185 1.17v-1.5h1.38V370h-1.38v-1.53c-.27.48-.675.88-1.215 1.2-.53.31-1.15.465-1.86.465-.73 0-1.39-.18-1.98-.54a3.787 3.787 0 0 1-1.395-1.515c-.34-.65-.51-1.39-.51-2.22zm6.96.015c0-.62-.125-1.16-.375-1.62-.25-.46-.59-.81-1.02-1.05a2.676 2.676 0 0 0-1.395-.375c-.51 0-.975.12-1.395.36-.42.24-.755.59-1.005 1.05-.25.46-.375 1-.375 1.62 0 .63.125 1.18.375 1.65.25.46.585.815 1.005 1.065.42.24.885.36 1.395.36s.975-.12 1.395-.36c.43-.25.77-.605 1.02-1.065.25-.47.375-1.015.375-1.635zm5.052-2.76c.24-.47.58-.835 1.02-1.095.45-.26.995-.39 1.635-.39v1.41h-.36c-1.53 0-2.295.83-2.295 2.49V370h-1.365v-8.22h1.365v1.335zm5.896-.21v4.845c0 .4.085.685.255.855.17.16.465.24.885.24h1.005V370h-1.23c-.76 0-1.33-.175-1.71-.525-.38-.35-.57-.925-.57-1.725v-4.845h-1.065v-1.125h1.065v-2.07h1.365v2.07h2.145v1.125h-2.145zm11.299 2.67c0 .26-.015.535-.045.825h-6.57c.05.81.325 1.445.825 1.905.51.45 1.125.675 1.845.675.59 0 1.08-.135 1.47-.405.4-.28.68-.65.84-1.11h1.47a3.57 3.57 0 0 1-1.32 1.935c-.66.49-1.48.735-2.46.735-.78 0-1.48-.175-2.1-.525a3.743 3.743 0 0 1-1.44-1.485c-.35-.65-.525-1.4-.525-2.25 0-.85.17-1.595.51-2.235.34-.64.815-1.13 1.425-1.47.62-.35 1.33-.525 2.13-.525.78 0 1.47.17 2.07.51.6.34 1.06.81 1.38 1.41.33.59.495 1.26.495 2.01zm-1.41-.285c0-.52-.115-.965-.345-1.335a2.171 2.171 0 0 0-.945-.855c-.39-.2-.825-.3-1.305-.3-.69 0-1.28.22-1.77.66-.48.44-.755 1.05-.825 1.83h5.19zm2.701.57c0-.84.17-1.575.51-2.205.34-.64.805-1.135 1.395-1.485.6-.35 1.27-.525 2.01-.525.64 0 1.235.15 1.785.45.55.29.97.675 1.26 1.155v-4.35h1.38V370h-1.38v-1.545c-.27.49-.67.895-1.2 1.215-.53.31-1.15.465-1.86.465-.73 0-1.395-.18-1.995-.54a3.787 3.787 0 0 1-1.395-1.515c-.34-.65-.51-1.39-.51-2.22zm6.96.015c0-.62-.125-1.16-.375-1.62-.25-.46-.59-.81-1.02-1.05a2.676 2.676 0 0 0-1.395-.375c-.51 0-.975.12-1.395.36-.42.24-.755.59-1.005 1.05-.25.46-.375 1-.375 1.62 0 .63.125 1.18.375 1.65.25.46.585.815 1.005 1.065.42.24.885.36 1.395.36s.975-.12 1.395-.36c.43-.25.77-.605 1.02-1.065.25-.47.375-1.015.375-1.635zm5.097 2.235l-1.68 4.035h-.915l1.095-4.035h1.5zm16.513-6.33l-2.565 8.22h-1.41l-1.98-6.525-1.98 6.525h-1.41l-2.58-8.22h1.395l1.89 6.9 2.04-6.9h1.395l1.995 6.915 1.86-6.915h1.35zm8.855 3.795c0 .26-.015.535-.045.825h-6.57c.05.81.325 1.445.825 1.905.51.45 1.125.675 1.845.675.59 0 1.08-.135 1.47-.405.4-.28.68-.65.84-1.11h1.47a3.57 3.57 0 0 1-1.32 1.935c-.66.49-1.48.735-2.46.735-.78 0-1.48-.175-2.1-.525a3.743 3.743 0 0 1-1.44-1.485c-.35-.65-.525-1.4-.525-2.25 0-.85.17-1.595.51-2.235.34-.64.815-1.13 1.425-1.47.62-.35 1.33-.525 2.13-.525.78 0 1.47.17 2.07.51.6.34 1.06.81 1.38 1.41.33.59.495 1.26.495 2.01zm-1.41-.285c0-.52-.115-.965-.345-1.335a2.171 2.171 0 0 0-.945-.855c-.39-.2-.825-.3-1.305-.3-.69 0-1.28.22-1.77.66-.48.44-.755 1.05-.825 1.83h5.19zm7.945-4.845c-.26 0-.48-.09-.66-.27a.925.925 0 0 1-.255-.66c0-.26.085-.48.255-.66.18-.18.4-.27.66-.27s.475.09.645.27c.18.18.27.4.27.66s-.09.48-.27.66a.85.85 0 0 1-.645.27zm.675 11.34c0 .73-.185 1.265-.555 1.605-.37.34-.91.51-1.62.51h-.795v-1.155h.57c.38 0 .645-.075.795-.225.16-.15.24-.405.24-.765v-9.975h1.365v10.005zm9.601-10.005V370h-1.365v-1.215c-.26.42-.625.75-1.095.99-.46.23-.97.345-1.53.345-.64 0-1.215-.13-1.725-.39-.51-.27-.915-.67-1.215-1.2-.29-.53-.435-1.175-.435-1.935v-4.815h1.35v4.635c0 .81.205 1.435.615 1.875.41.43.97.645 1.68.645.73 0 1.305-.225 1.725-.675.42-.45.63-1.105.63-1.965v-4.515h1.365zm5.215 8.355c-.63 0-1.195-.105-1.695-.315-.5-.22-.895-.52-1.185-.9-.29-.39-.45-.835-.48-1.335h1.41c.04.41.23.745.57 1.005.35.26.805.39 1.365.39.52 0 .93-.115 1.23-.345.3-.23.45-.52.45-.87 0-.36-.16-.625-.48-.795-.32-.18-.815-.355-1.485-.525-.61-.16-1.11-.32-1.5-.48-.38-.17-.71-.415-.99-.735-.27-.33-.405-.76-.405-1.29 0-.42.125-.805.375-1.155s.605-.625 1.065-.825c.46-.21.985-.315 1.575-.315.91 0 1.645.23 2.205.69.56.46.86 1.09.9 1.89h-1.365a1.4 1.4 0 0 0-.525-1.035c-.31-.26-.73-.39-1.26-.39-.49 0-.88.105-1.17.315-.29.21-.435.485-.435.825 0 .27.085.495.255.675.18.17.4.31.66.42.27.1.64.215 1.11.345.59.16 1.07.32 1.44.48.37.15.685.38.945.69.27.31.41.715.42 1.215 0 .45-.125.855-.375 1.215-.25.36-.605.645-1.065.855-.45.2-.97.3-1.56.3zm6.592-7.23v4.845c0 .4.085.685.255.855.17.16.465.24.885.24h1.005V370h-1.23c-.76 0-1.33-.175-1.71-.525-.38-.35-.57-.925-.57-1.725v-4.845h-1.065v-1.125h1.065v-2.07h1.365v2.07h2.145v1.125h-2.145zm11.803-1.275c1 0 1.81.305 2.43.915.62.6.93 1.47.93 2.61V370h-1.35v-4.65c0-.82-.205-1.445-.615-1.875-.41-.44-.97-.66-1.68-.66-.72 0-1.295.225-1.725.675-.42.45-.63 1.105-.63 1.965V370h-1.365v-8.22h1.365v1.17c.27-.42.635-.745 1.095-.975.47-.23.985-.345 1.545-.345zm13.089 3.945c0 .26-.015.535-.045.825h-6.57c.05.81.325 1.445.825 1.905.51.45 1.125.675 1.845.675.59 0 1.08-.135 1.47-.405.4-.28.68-.65.84-1.11h1.47a3.57 3.57 0 0 1-1.32 1.935c-.66.49-1.48.735-2.46.735-.78 0-1.48-.175-2.1-.525a3.743 3.743 0 0 1-1.44-1.485c-.35-.65-.525-1.4-.525-2.25 0-.85.17-1.595.51-2.235.34-.64.815-1.13 1.425-1.47.62-.35 1.33-.525 2.13-.525.78 0 1.47.17 2.07.51.6.34 1.06.81 1.38 1.41.33.59.495 1.26.495 2.01zm-1.41-.285c0-.52-.115-.965-.345-1.335a2.171 2.171 0 0 0-.945-.855c-.39-.2-.825-.3-1.305-.3-.69 0-1.28.22-1.77.66-.48.44-.755 1.05-.825 1.83h5.19zm10.712.285c0 .26-.015.535-.045.825h-6.57c.05.81.325 1.445.825 1.905.51.45 1.125.675 1.845.675.59 0 1.08-.135 1.47-.405.4-.28.68-.65.84-1.11h1.47a3.57 3.57 0 0 1-1.32 1.935c-.66.49-1.48.735-2.46.735-.78 0-1.48-.175-2.1-.525a3.743 3.743 0 0 1-1.44-1.485c-.35-.65-.525-1.4-.525-2.25 0-.85.17-1.595.51-2.235.34-.64.815-1.13 1.425-1.47.62-.35 1.33-.525 2.13-.525.78 0 1.47.17 2.07.51.6.34 1.06.81 1.38 1.41.33.59.495 1.26.495 2.01zm-1.41-.285c0-.52-.115-.965-.345-1.335a2.171 2.171 0 0 0-.945-.855c-.39-.2-.825-.3-1.305-.3-.69 0-1.28.22-1.77.66-.48.44-.755 1.05-.825 1.83h5.19zm2.702.57c0-.84.17-1.575.51-2.205.34-.64.805-1.135 1.395-1.485.6-.35 1.27-.525 2.01-.525.64 0 1.235.15 1.785.45.55.29.97.675 1.26 1.155v-4.35h1.38V370h-1.38v-1.545c-.27.49-.67.895-1.2 1.215-.53.31-1.15.465-1.86.465-.73 0-1.395-.18-1.995-.54a3.787 3.787 0 0 1-1.395-1.515c-.34-.65-.51-1.39-.51-2.22zm6.96.015c0-.62-.125-1.16-.375-1.62-.25-.46-.59-.81-1.02-1.05a2.676 2.676 0 0 0-1.395-.375c-.51 0-.975.12-1.395.36-.42.24-.755.59-1.005 1.05-.25.46-.375 1-.375 1.62 0 .63.125 1.18.375 1.65.25.46.585.815 1.005 1.065.42.24.885.36 1.395.36s.975-.12 1.395-.36c.43-.25.77-.605 1.02-1.065.25-.47.375-1.015.375-1.635zm9.351-2.97v4.845c0 .4.085.685.255.855.17.16.465.24.885.24h1.005V370h-1.23c-.76 0-1.33-.175-1.71-.525-.38-.35-.57-.925-.57-1.725v-4.845h-1.065v-1.125h1.065v-2.07h1.365v2.07h2.145v1.125h-2.145zm7.383 7.23a4.25 4.25 0 0 1-2.1-.525 3.816 3.816 0 0 1-1.47-1.485c-.35-.65-.525-1.4-.525-2.25 0-.84.18-1.58.54-2.22.37-.65.87-1.145 1.5-1.485.63-.35 1.335-.525 2.115-.525.78 0 1.485.175 2.115.525.63.34 1.125.83 1.485 1.47.37.64.555 1.385.555 2.235 0 .85-.19 1.6-.57 2.25a3.862 3.862 0 0 1-1.515 1.485c-.64.35-1.35.525-2.13.525zm0-1.2c.49 0 .95-.115 1.38-.345.43-.23.775-.575 1.035-1.035.27-.46.405-1.02.405-1.68 0-.66-.13-1.22-.39-1.68-.26-.46-.6-.8-1.02-1.02a2.796 2.796 0 0 0-1.365-.345c-.5 0-.96.115-1.38.345-.41.22-.74.56-.99 1.02-.25.46-.375 1.02-.375 1.68 0 .67.12 1.235.36 1.695.25.46.58.805.99 1.035.41.22.86.33 1.35.33zm-449.495 18.94c0-.85.17-1.59.51-2.22.34-.64.81-1.135 1.41-1.485.61-.35 1.305-.525 2.085-.525 1.01 0 1.84.245 2.49.735.66.49 1.095 1.17 1.305 2.04h-1.47c-.14-.5-.415-.895-.825-1.185-.4-.29-.9-.435-1.5-.435-.78 0-1.41.27-1.89.81-.48.53-.72 1.285-.72 2.265 0 .99.24 1.755.72 2.295s1.11.81 1.89.81c.6 0 1.1-.14 1.5-.42.4-.28.675-.68.825-1.2h1.47c-.22.84-.66 1.515-1.32 2.025-.66.5-1.485.75-2.475.75-.78 0-1.475-.175-2.085-.525-.6-.35-1.07-.845-1.41-1.485-.34-.64-.51-1.39-.51-2.25zm13.206 4.26a4.25 4.25 0 0 1-2.1-.525 3.816 3.816 0 0 1-1.47-1.485c-.35-.65-.525-1.4-.525-2.25 0-.84.18-1.58.54-2.22.37-.65.87-1.145 1.5-1.485.63-.35 1.335-.525 2.115-.525.78 0 1.485.175 2.115.525.63.34 1.125.83 1.485 1.47.37.64.555 1.385.555 2.235 0 .85-.19 1.6-.57 2.25a3.862 3.862 0 0 1-1.515 1.485c-.64.35-1.35.525-2.13.525zm0-1.2c.49 0 .95-.115 1.38-.345.43-.23.775-.575 1.035-1.035.27-.46.405-1.02.405-1.68 0-.66-.13-1.22-.39-1.68-.26-.46-.6-.8-1.02-1.02a2.796 2.796 0 0 0-1.365-.345c-.5 0-.96.115-1.38.345-.41.22-.74.56-.99 1.02-.25.46-.375 1.02-.375 1.68 0 .67.12 1.235.36 1.695.25.46.58.805.99 1.035.41.22.86.33 1.35.33zm10.015-7.305c1 0 1.81.305 2.43.915.62.6.93 1.47.93 2.61V392h-1.35v-4.65c0-.82-.205-1.445-.615-1.875-.41-.44-.97-.66-1.68-.66-.72 0-1.295.225-1.725.675-.42.45-.63 1.105-.63 1.965V392h-1.365v-8.22h1.365v1.17c.27-.42.635-.745 1.095-.975.47-.23.985-.345 1.545-.345zm8.935 1.275h-1.725V392h-1.365v-7.095h-1.065v-1.125h1.065v-.585c0-.92.235-1.59.705-2.01.48-.43 1.245-.645 2.295-.645v1.14c-.6 0-1.025.12-1.275.36-.24.23-.36.615-.36 1.155v.585h1.725v1.125zm2.296-2.46c-.26 0-.48-.09-.66-.27a.898.898 0 0 1-.27-.66c0-.26.09-.48.27-.66.18-.18.4-.27.66-.27.25 0 .46.09.63.27.18.18.27.4.27.66s-.09.48-.27.66c-.17.18-.38.27-.63.27zm.66 1.335V392h-1.365v-8.22h1.365zm3.692 1.335c.24-.47.58-.835 1.02-1.095.45-.26.995-.39 1.635-.39v1.41h-.36c-1.53 0-2.295.83-2.295 2.49V392h-1.365v-8.22h1.365v1.335zm14.115-1.485c.64 0 1.21.135 1.71.405.5.26.895.655 1.185 1.185.29.53.435 1.175.435 1.935V392h-1.35v-4.65c0-.82-.205-1.445-.615-1.875-.4-.44-.945-.66-1.635-.66-.71 0-1.275.23-1.695.69-.42.45-.63 1.105-.63 1.965V392h-1.35v-4.65c0-.82-.205-1.445-.615-1.875-.4-.44-.945-.66-1.635-.66-.71 0-1.275.23-1.695.69-.42.45-.63 1.105-.63 1.965V392h-1.365v-8.22h1.365v1.185c.27-.43.63-.76 1.08-.99a3.34 3.34 0 0 1 1.515-.345c.69 0 1.3.155 1.83.465.53.31.925.765 1.185 1.365.23-.58.61-1.03 1.14-1.35.53-.32 1.12-.48 1.77-.48zm11.234 1.275v4.845c0 .4.085.685.255.855.17.16.465.24.885.24h1.005V392h-1.23c-.76 0-1.33-.175-1.71-.525-.38-.35-.57-.925-.57-1.725v-4.845h-1.065v-1.125h1.065v-2.07h1.365v2.07h2.145v1.125h-2.145zm7.878-1.275c.62 0 1.18.135 1.68.405.5.26.89.655 1.17 1.185.29.53.435 1.175.435 1.935V392h-1.35v-4.65c0-.82-.205-1.445-.615-1.875-.41-.44-.97-.66-1.68-.66-.72 0-1.295.225-1.725.675-.42.45-.63 1.105-.63 1.965V392h-1.365v-11.1h1.365v4.05a2.7 2.7 0 0 1 1.11-.975 3.667 3.667 0 0 1 1.605-.345zm5.005 4.23c0-.84.17-1.575.51-2.205.34-.64.805-1.135 1.395-1.485.6-.35 1.265-.525 1.995-.525.72 0 1.345.155 1.875.465.53.31.925.7 1.185 1.17v-1.5h1.38V392h-1.38v-1.53c-.27.48-.675.88-1.215 1.2-.53.31-1.15.465-1.86.465-.73 0-1.39-.18-1.98-.54a3.787 3.787 0 0 1-1.395-1.515c-.34-.65-.51-1.39-.51-2.22zm6.96.015c0-.62-.125-1.16-.375-1.62-.25-.46-.59-.81-1.02-1.05a2.676 2.676 0 0 0-1.395-.375c-.51 0-.975.12-1.395.36-.42.24-.755.59-1.005 1.05-.25.46-.375 1-.375 1.62 0 .63.125 1.18.375 1.65.25.46.585.815 1.005 1.065.42.24.885.36 1.395.36s.975-.12 1.395-.36c.43-.25.77-.605 1.02-1.065.25-.47.375-1.015.375-1.635zm5.352-2.97v4.845c0 .4.085.685.255.855.17.16.465.24.885.24h1.005V392h-1.23c-.76 0-1.33-.175-1.71-.525-.38-.35-.57-.925-.57-1.725v-4.845h-1.065v-1.125h1.065v-2.07h1.365v2.07h2.145v1.125h-2.145zm9.463 0v4.845c0 .4.085.685.255.855.17.16.465.24.885.24h1.005V392h-1.23c-.76 0-1.33-.175-1.71-.525-.38-.35-.57-.925-.57-1.725v-4.845h-1.065v-1.125h1.065v-2.07h1.365v2.07h2.145v1.125h-2.145zm7.879-1.275c.62 0 1.18.135 1.68.405.5.26.89.655 1.17 1.185.29.53.435 1.175.435 1.935V392h-1.35v-4.65c0-.82-.205-1.445-.615-1.875-.41-.44-.97-.66-1.68-.66-.72 0-1.295.225-1.725.675-.42.45-.63 1.105-.63 1.965V392h-1.365v-11.1h1.365v4.05a2.7 2.7 0 0 1 1.11-.975 3.667 3.667 0 0 1 1.605-.345zm6.219-1.185c-.26 0-.48-.09-.66-.27a.898.898 0 0 1-.27-.66c0-.26.09-.48.27-.66.18-.18.4-.27.66-.27.25 0 .46.09.63.27.18.18.27.4.27.66s-.09.48-.27.66c-.17.18-.38.27-.63.27zm.66 1.335V392h-1.365v-8.22h1.365zm5.237 8.355c-.63 0-1.195-.105-1.695-.315-.5-.22-.895-.52-1.185-.9-.29-.39-.45-.835-.48-1.335h1.41c.04.41.23.745.57 1.005.35.26.805.39 1.365.39.52 0 .93-.115 1.23-.345.3-.23.45-.52.45-.87 0-.36-.16-.625-.48-.795-.32-.18-.815-.355-1.485-.525-.61-.16-1.11-.32-1.5-.48-.38-.17-.71-.415-.99-.735-.27-.33-.405-.76-.405-1.29 0-.42.125-.805.375-1.155s.605-.625 1.065-.825c.46-.21.985-.315 1.575-.315.91 0 1.645.23 2.205.69.56.46.86 1.09.9 1.89h-1.365a1.4 1.4 0 0 0-.525-1.035c-.31-.26-.73-.39-1.26-.39-.49 0-.88.105-1.17.315-.29.21-.435.485-.435.825 0 .27.085.495.255.675.18.17.4.31.66.42.27.1.64.215 1.11.345.59.16 1.07.32 1.44.48.37.15.685.38.945.69.27.31.41.715.42 1.215 0 .45-.125.855-.375 1.215-.25.36-.605.645-1.065.855-.45.2-.97.3-1.56.3zm9.631-9.69c-.26 0-.48-.09-.66-.27a.898.898 0 0 1-.27-.66c0-.26.09-.48.27-.66.18-.18.4-.27.66-.27.25 0 .46.09.63.27.18.18.27.4.27.66s-.09.48-.27.66c-.17.18-.38.27-.63.27zm.66 1.335V392h-1.365v-8.22h1.365zm5.236 8.355c-.63 0-1.195-.105-1.695-.315-.5-.22-.895-.52-1.185-.9-.29-.39-.45-.835-.48-1.335h1.41c.04.41.23.745.57 1.005.35.26.805.39 1.365.39.52 0 .93-.115 1.23-.345.3-.23.45-.52.45-.87 0-.36-.16-.625-.48-.795-.32-.18-.815-.355-1.485-.525-.61-.16-1.11-.32-1.5-.48-.38-.17-.71-.415-.99-.735-.27-.33-.405-.76-.405-1.29 0-.42.125-.805.375-1.155s.605-.625 1.065-.825c.46-.21.985-.315 1.575-.315.91 0 1.645.23 2.205.69.56.46.86 1.09.9 1.89h-1.365a1.4 1.4 0 0 0-.525-1.035c-.31-.26-.73-.39-1.26-.39-.49 0-.88.105-1.17.315-.29.21-.435.485-.435.825 0 .27.085.495.255.675.18.17.4.31.66.42.27.1.64.215 1.11.345.59.16 1.07.32 1.44.48.37.15.685.38.945.69.27.31.41.715.42 1.215 0 .45-.125.855-.375 1.215-.25.36-.605.645-1.065.855-.45.2-.97.3-1.56.3zm16.006-8.355l-4.95 12.09h-1.41l1.62-3.96-3.315-8.13h1.515l2.58 6.66 2.55-6.66h1.41zm4.957 8.355a4.25 4.25 0 0 1-2.1-.525 3.816 3.816 0 0 1-1.47-1.485c-.35-.65-.525-1.4-.525-2.25 0-.84.18-1.58.54-2.22.37-.65.87-1.145 1.5-1.485.63-.35 1.335-.525 2.115-.525.78 0 1.485.175 2.115.525.63.34 1.125.83 1.485 1.47.37.64.555 1.385.555 2.235 0 .85-.19 1.6-.57 2.25a3.862 3.862 0 0 1-1.515 1.485c-.64.35-1.35.525-2.13.525zm0-1.2c.49 0 .95-.115 1.38-.345.43-.23.775-.575 1.035-1.035.27-.46.405-1.02.405-1.68 0-.66-.13-1.22-.39-1.68-.26-.46-.6-.8-1.02-1.02a2.796 2.796 0 0 0-1.365-.345c-.5 0-.96.115-1.38.345-.41.22-.74.56-.99 1.02-.25.46-.375 1.02-.375 1.68 0 .67.12 1.235.36 1.695.25.46.58.805.99 1.035.41.22.86.33 1.35.33zm13.3-7.155V392h-1.365v-1.215c-.26.42-.625.75-1.095.99-.46.23-.97.345-1.53.345-.64 0-1.215-.13-1.725-.39-.51-.27-.915-.67-1.215-1.2-.29-.53-.435-1.175-.435-1.935v-4.815h1.35v4.635c0 .81.205 1.435.615 1.875.41.43.97.645 1.68.645.73 0 1.305-.225 1.725-.675.42-.45.63-1.105.63-1.965v-4.515h1.365zm2.74 8.31c-.26 0-.48-.09-.66-.27a.898.898 0 0 1-.27-.66c0-.26.09-.48.27-.66.18-.18.4-.27.66-.27.25 0 .46.09.63.27.18.18.27.4.27.66s-.09.48-.27.66c-.17.18-.38.27-.63.27zm15.353-10.545L338.389 392h-1.575l-3.945-10.455h1.455l3.285 9.015 3.285-9.015h1.44zm8.997 6.03c0 .26-.015.535-.045.825h-6.57c.05.81.325 1.445.825 1.905.51.45 1.125.675 1.845.675.59 0 1.08-.135 1.47-.405.4-.28.68-.65.84-1.11h1.47a3.57 3.57 0 0 1-1.32 1.935c-.66.49-1.48.735-2.46.735-.78 0-1.48-.175-2.1-.525a3.743 3.743 0 0 1-1.44-1.485c-.35-.65-.525-1.4-.525-2.25 0-.85.17-1.595.51-2.235.34-.64.815-1.13 1.425-1.47.62-.35 1.33-.525 2.13-.525.78 0 1.47.17 2.07.51.6.34 1.06.81 1.38 1.41.33.59.495 1.26.495 2.01zm-1.41-.285c0-.52-.115-.965-.345-1.335a2.171 2.171 0 0 0-.945-.855c-.39-.2-.825-.3-1.305-.3-.69 0-1.28.22-1.77.66-.48.44-.755 1.05-.825 1.83h5.19zm4.577-2.175c.24-.47.58-.835 1.02-1.095.45-.26.995-.39 1.635-.39v1.41h-.36c-1.53 0-2.295.83-2.295 2.49V392h-1.365v-8.22h1.365v1.335zm4.935-2.67c-.26 0-.48-.09-.66-.27a.898.898 0 0 1-.27-.66c0-.26.09-.48.27-.66.18-.18.4-.27.66-.27.25 0 .46.09.63.27.18.18.27.4.27.66s-.09.48-.27.66c-.17.18-.38.27-.63.27zm.66 1.335V392h-1.365v-8.22h1.365zm5.672 1.125h-1.725V392h-1.365v-7.095h-1.065v-1.125h1.065v-.585c0-.92.235-1.59.705-2.01.48-.43 1.245-.645 2.295-.645v1.14c-.6 0-1.025.12-1.275.36-.24.23-.36.615-.36 1.155v.585h1.725v1.125zm8.671-1.125l-4.95 12.09h-1.41l1.62-3.96-3.315-8.13h1.515l2.58 6.66 2.55-6.66h1.41zm12.451 0l-4.95 12.09h-1.41l1.62-3.96-3.315-8.13h1.515l2.58 6.66 2.55-6.66h1.41zm4.957 8.355a4.25 4.25 0 0 1-2.1-.525 3.816 3.816 0 0 1-1.47-1.485c-.35-.65-.525-1.4-.525-2.25 0-.84.18-1.58.54-2.22.37-.65.87-1.145 1.5-1.485.63-.35 1.335-.525 2.115-.525.78 0 1.485.175 2.115.525.63.34 1.125.83 1.485 1.47.37.64.555 1.385.555 2.235 0 .85-.19 1.6-.57 2.25a3.862 3.862 0 0 1-1.515 1.485c-.64.35-1.35.525-2.13.525zm0-1.2c.49 0 .95-.115 1.38-.345.43-.23.775-.575 1.035-1.035.27-.46.405-1.02.405-1.68 0-.66-.13-1.22-.39-1.68-.26-.46-.6-.8-1.02-1.02a2.796 2.796 0 0 0-1.365-.345c-.5 0-.96.115-1.38.345-.41.22-.74.56-.99 1.02-.25.46-.375 1.02-.375 1.68 0 .67.12 1.235.36 1.695.25.46.58.805.99 1.035.41.22.86.33 1.35.33zm13.3-7.155V392h-1.365v-1.215c-.26.42-.625.75-1.095.99-.46.23-.97.345-1.53.345-.64 0-1.215-.13-1.725-.39-.51-.27-.915-.67-1.215-1.2-.29-.53-.435-1.175-.435-1.935v-4.815h1.35v4.635c0 .81.205 1.435.615 1.875.41.43.97.645 1.68.645.73 0 1.305-.225 1.725-.675.42-.45.63-1.105.63-1.965v-4.515h1.365zm3.67 1.335c.24-.47.58-.835 1.02-1.095.45-.26.995-.39 1.635-.39v1.41h-.36c-1.53 0-2.295.83-2.295 2.49V392h-1.365v-8.22h1.365v1.335zm15.73 2.46c0 .26-.015.535-.045.825h-6.57c.05.81.325 1.445.825 1.905.51.45 1.125.675 1.845.675.59 0 1.08-.135 1.47-.405.4-.28.68-.65.84-1.11h1.47a3.57 3.57 0 0 1-1.32 1.935c-.66.49-1.48.735-2.46.735-.78 0-1.48-.175-2.1-.525a3.743 3.743 0 0 1-1.44-1.485c-.35-.65-.525-1.4-.525-2.25 0-.85.17-1.595.51-2.235.34-.64.815-1.13 1.425-1.47.62-.35 1.33-.525 2.13-.525.78 0 1.47.17 2.07.51.6.34 1.06.81 1.38 1.41.33.59.495 1.26.495 2.01zm-1.41-.285c0-.52-.115-.965-.345-1.335a2.171 2.171 0 0 0-.945-.855c-.39-.2-.825-.3-1.305-.3-.69 0-1.28.22-1.77.66-.48.44-.755 1.05-.825 1.83h5.19zm13.096-3.66c.64 0 1.21.135 1.71.405.5.26.895.655 1.185 1.185.29.53.435 1.175.435 1.935V392h-1.35v-4.65c0-.82-.205-1.445-.615-1.875-.4-.44-.945-.66-1.635-.66-.71 0-1.275.23-1.695.69-.42.45-.63 1.105-.63 1.965V392h-1.35v-4.65c0-.82-.205-1.445-.615-1.875-.4-.44-.945-.66-1.635-.66-.71 0-1.275.23-1.695.69-.42.45-.63 1.105-.63 1.965V392h-1.365v-8.22h1.365v1.185c.27-.43.63-.76 1.08-.99a3.34 3.34 0 0 1 1.515-.345c.69 0 1.3.155 1.83.465.53.31.925.765 1.185 1.365.23-.58.61-1.03 1.14-1.35.53-.32 1.12-.48 1.77-.48zm5.06 4.23c0-.84.17-1.575.51-2.205.34-.64.805-1.135 1.395-1.485.6-.35 1.265-.525 1.995-.525.72 0 1.345.155 1.875.465.53.31.925.7 1.185 1.17v-1.5h1.38V392h-1.38v-1.53c-.27.48-.675.88-1.215 1.2-.53.31-1.15.465-1.86.465-.73 0-1.39-.18-1.98-.54a3.787 3.787 0 0 1-1.395-1.515c-.34-.65-.51-1.39-.51-2.22zm6.96.015c0-.62-.125-1.16-.375-1.62-.25-.46-.59-.81-1.02-1.05a2.676 2.676 0 0 0-1.395-.375c-.51 0-.975.12-1.395.36-.42.24-.755.59-1.005 1.05-.25.46-.375 1-.375 1.62 0 .63.125 1.18.375 1.65.25.46.585.815 1.005 1.065.42.24.885.36 1.395.36s.975-.12 1.395-.36c.43-.25.77-.605 1.02-1.065.25-.47.375-1.015.375-1.635zm4.391-5.43c-.26 0-.48-.09-.66-.27a.898.898 0 0 1-.27-.66c0-.26.09-.48.27-.66.18-.18.4-.27.66-.27.25 0 .46.09.63.27.18.18.27.4.27.66s-.09.48-.27.66c-.17.18-.38.27-.63.27zm.66 1.335V392h-1.365v-8.22h1.365zm3.692-2.88V392h-1.365v-11.1h1.365zm5.815 6.96c0-.84.17-1.575.51-2.205.34-.64.805-1.135 1.395-1.485.6-.35 1.265-.525 1.995-.525.72 0 1.345.155 1.875.465.53.31.925.7 1.185 1.17v-1.5h1.38V392h-1.38v-1.53c-.27.48-.675.88-1.215 1.2-.53.31-1.15.465-1.86.465-.73 0-1.39-.18-1.98-.54a3.787 3.787 0 0 1-1.395-1.515c-.34-.65-.51-1.39-.51-2.22zm6.96.015c0-.62-.125-1.16-.375-1.62-.25-.46-.59-.81-1.02-1.05a2.676 2.676 0 0 0-1.395-.375c-.51 0-.975.12-1.395.36-.42.24-.755.59-1.005 1.05-.25.46-.375 1-.375 1.62 0 .63.125 1.18.375 1.65.25.46.585.815 1.005 1.065.42.24.885.36 1.395.36s.975-.12 1.395-.36c.43-.25.77-.605 1.02-1.065.25-.47.375-1.015.375-1.635zm3.177-.015c0-.84.17-1.575.51-2.205.34-.64.805-1.135 1.395-1.485.6-.35 1.27-.525 2.01-.525.64 0 1.235.15 1.785.45.55.29.97.675 1.26 1.155v-4.35h1.38V392h-1.38v-1.545c-.27.49-.67.895-1.2 1.215-.53.31-1.15.465-1.86.465-.73 0-1.395-.18-1.995-.54a3.787 3.787 0 0 1-1.395-1.515c-.34-.65-.51-1.39-.51-2.22zm6.96.015c0-.62-.125-1.16-.375-1.62-.25-.46-.59-.81-1.02-1.05a2.676 2.676 0 0 0-1.395-.375c-.51 0-.975.12-1.395.36-.42.24-.755.59-1.005 1.05-.25.46-.375 1-.375 1.62 0 .63.125 1.18.375 1.65.25.46.585.815 1.005 1.065.42.24.885.36 1.395.36s.975-.12 1.395-.36c.43-.25.77-.605 1.02-1.065.25-.47.375-1.015.375-1.635zm3.177-.015c0-.84.17-1.575.51-2.205.34-.64.805-1.135 1.395-1.485.6-.35 1.27-.525 2.01-.525.64 0 1.235.15 1.785.45.55.29.97.675 1.26 1.155v-4.35h1.38V392h-1.38v-1.545c-.27.49-.67.895-1.2 1.215-.53.31-1.15.465-1.86.465-.73 0-1.395-.18-1.995-.54a3.787 3.787 0 0 1-1.395-1.515c-.34-.65-.51-1.39-.51-2.22zm6.96.015c0-.62-.125-1.16-.375-1.62-.25-.46-.59-.81-1.02-1.05a2.676 2.676 0 0 0-1.395-.375c-.51 0-.975.12-1.395.36-.42.24-.755.59-1.005 1.05-.25.46-.375 1-.375 1.62 0 .63.125 1.18.375 1.65.25.46.585.815 1.005 1.065.42.24.885.36 1.395.36s.975-.12 1.395-.36c.43-.25.77-.605 1.02-1.065.25-.47.375-1.015.375-1.635zm5.051-2.76c.24-.47.58-.835 1.02-1.095.45-.26.995-.39 1.635-.39v1.41h-.36c-1.53 0-2.295.83-2.295 2.49V392h-1.365v-8.22h1.365v1.335zm11.731 2.46c0 .26-.015.535-.045.825h-6.57c.05.81.325 1.445.825 1.905.51.45 1.125.675 1.845.675.59 0 1.08-.135 1.47-.405.4-.28.68-.65.84-1.11h1.47a3.57 3.57 0 0 1-1.32 1.935c-.66.49-1.48.735-2.46.735-.78 0-1.48-.175-2.1-.525a3.743 3.743 0 0 1-1.44-1.485c-.35-.65-.525-1.4-.525-2.25 0-.85.17-1.595.51-2.235.34-.64.815-1.13 1.425-1.47.62-.35 1.33-.525 2.13-.525.78 0 1.47.17 2.07.51.6.34 1.06.81 1.38 1.41.33.59.495 1.26.495 2.01zm-1.41-.285c0-.52-.115-.965-.345-1.335a2.171 2.171 0 0 0-.945-.855c-.39-.2-.825-.3-1.305-.3-.69 0-1.28.22-1.77.66-.48.44-.755 1.05-.825 1.83h5.19zm6.122 4.845c-.63 0-1.195-.105-1.695-.315-.5-.22-.895-.52-1.185-.9-.29-.39-.45-.835-.48-1.335h1.41c.04.41.23.745.57 1.005.35.26.805.39 1.365.39.52 0 .93-.115 1.23-.345.3-.23.45-.52.45-.87 0-.36-.16-.625-.48-.795-.32-.18-.815-.355-1.485-.525-.61-.16-1.11-.32-1.5-.48-.38-.17-.71-.415-.99-.735-.27-.33-.405-.76-.405-1.29 0-.42.125-.805.375-1.155s.605-.625 1.065-.825c.46-.21.985-.315 1.575-.315.91 0 1.645.23 2.205.69.56.46.86 1.09.9 1.89h-1.365a1.4 1.4 0 0 0-.525-1.035c-.31-.26-.73-.39-1.26-.39-.49 0-.88.105-1.17.315-.29.21-.435.485-.435.825 0 .27.085.495.255.675.18.17.4.31.66.42.27.1.64.215 1.11.345.59.16 1.07.32 1.44.48.37.15.685.38.945.69.27.31.41.715.42 1.215 0 .45-.125.855-.375 1.215-.25.36-.605.645-1.065.855-.45.2-.97.3-1.56.3zm7.837 0c-.63 0-1.195-.105-1.695-.315-.5-.22-.895-.52-1.185-.9-.29-.39-.45-.835-.48-1.335h1.41c.04.41.23.745.57 1.005.35.26.805.39 1.365.39.52 0 .93-.115 1.23-.345.3-.23.45-.52.45-.87 0-.36-.16-.625-.48-.795-.32-.18-.815-.355-1.485-.525-.61-.16-1.11-.32-1.5-.48-.38-.17-.71-.415-.99-.735-.27-.33-.405-.76-.405-1.29 0-.42.125-.805.375-1.155s.605-.625 1.065-.825c.46-.21.985-.315 1.575-.315.91 0 1.645.23 2.205.69.56.46.86 1.09.9 1.89h-1.365a1.4 1.4 0 0 0-.525-1.035c-.31-.26-.73-.39-1.26-.39-.49 0-.88.105-1.17.315-.29.21-.435.485-.435.825 0 .27.085.495.255.675.18.17.4.31.66.42.27.1.64.215 1.11.345.59.16 1.07.32 1.44.48.37.15.685.38.945.69.27.31.41.715.42 1.215 0 .45-.125.855-.375 1.215-.25.36-.605.645-1.065.855-.45.2-.97.3-1.56.3zm10.291-6.825c.28-.49.69-.89 1.23-1.2.54-.31 1.155-.465 1.845-.465.74 0 1.405.175 1.995.525.59.35 1.055.845 1.395 1.485.34.63.51 1.365.51 2.205 0 .83-.17 1.57-.51 2.22-.34.65-.81 1.155-1.41 1.515-.59.36-1.25.54-1.98.54-.71 0-1.335-.155-1.875-.465-.53-.31-.93-.705-1.2-1.185V392h-1.365v-11.1h1.365v4.41zm5.58 2.55c0-.62-.125-1.16-.375-1.62-.25-.46-.59-.81-1.02-1.05-.42-.24-.885-.36-1.395-.36-.5 0-.965.125-1.395.375-.42.24-.76.595-1.02 1.065-.25.46-.375.995-.375 1.605 0 .62.125 1.165.375 1.635.26.46.6.815 1.02 1.065.43.24.895.36 1.395.36.51 0 .975-.12 1.395-.36.43-.25.77-.605 1.02-1.065.25-.47.375-1.02.375-1.65zm10.691-.285c0 .26-.015.535-.045.825h-6.57c.05.81.325 1.445.825 1.905.51.45 1.125.675 1.845.675.59 0 1.08-.135 1.47-.405.4-.28.68-.65.84-1.11h1.47a3.57 3.57 0 0 1-1.32 1.935c-.66.49-1.48.735-2.46.735-.78 0-1.48-.175-2.1-.525a3.743 3.743 0 0 1-1.44-1.485c-.35-.65-.525-1.4-.525-2.25 0-.85.17-1.595.51-2.235.34-.64.815-1.13 1.425-1.47.62-.35 1.33-.525 2.13-.525.78 0 1.47.17 2.07.51.6.34 1.06.81 1.38 1.41.33.59.495 1.26.495 2.01zm-1.41-.285c0-.52-.115-.965-.345-1.335a2.171 2.171 0 0 0-.945-.855c-.39-.2-.825-.3-1.305-.3-.69 0-1.28.22-1.77.66-.48.44-.755 1.05-.825 1.83h5.19zm4.577-6.39V392h-1.365v-11.1h1.365zm5.911 11.235a4.25 4.25 0 0 1-2.1-.525 3.816 3.816 0 0 1-1.47-1.485c-.35-.65-.525-1.4-.525-2.25 0-.84.18-1.58.54-2.22.37-.65.87-1.145 1.5-1.485.63-.35 1.335-.525 2.115-.525.78 0 1.485.175 2.115.525.63.34 1.125.83 1.485 1.47.37.64.555 1.385.555 2.235 0 .85-.19 1.6-.57 2.25a3.862 3.862 0 0 1-1.515 1.485c-.64.35-1.35.525-2.13.525zm0-1.2c.49 0 .95-.115 1.38-.345.43-.23.775-.575 1.035-1.035.27-.46.405-1.02.405-1.68 0-.66-.13-1.22-.39-1.68-.26-.46-.6-.8-1.02-1.02a2.796 2.796 0 0 0-1.365-.345c-.5 0-.96.115-1.38.345-.41.22-.74.56-.99 1.02-.25.46-.375 1.02-.375 1.68 0 .67.12 1.235.36 1.695.25.46.58.805.99 1.035.41.22.86.33 1.35.33zm16.96-7.155l-2.565 8.22h-1.41l-1.98-6.525-1.98 6.525h-1.41l-2.58-8.22h1.395l1.89 6.9 2.04-6.9h1.395l1.995 6.915 1.86-6.915h1.35zm1.79 8.31c-.26 0-.48-.09-.66-.27a.898.898 0 0 1-.27-.66c0-.26.09-.48.27-.66.18-.18.4-.27.66-.27.25 0 .46.09.63.27.18.18.27.4.27.66s-.09.48-.27.66c-.17.18-.38.27-.63.27zm0-6.42c-.26 0-.48-.09-.66-.27a.898.898 0 0 1-.27-.66c0-.26.09-.48.27-.66.18-.18.4-.27.66-.27.25 0 .46.09.63.27.18.18.27.4.27.66s-.09.48-.27.66c-.17.18-.38.27-.63.27z"/><path stroke="url(#paint7_linear)" d="M648.507 374.193l3.121 3.121m0 0l-3.121 3.121m3.121-3.121H629"/><path stroke="url(#paint8_linear)" d="M632.121 380.434L629 377.313l3.121-3.121"/><path stroke="url(#paint9_linear)" d="M637.193 369.121l3.121-3.121m0 0l3.121 3.121M640.314 366v22.628"/><path stroke="url(#paint10_linear)" d="M643.435 385.507l-3.121 3.121-3.121-3.121"/><path fill="#2C1338" d="M599.6 91h45.867A8.533 8.533 0 0 1 654 99.533v14.934a8.533 8.533 0 0 1-8.533 8.533H599.6V91z" opacity=".06"/><path fill="#2C1338" d="M634.042 109.647a.46.46 0 0 1 .225.186.5.5 0 0 1 .079.29.554.554 0 0 1-.572.578.7.7 0 0 1-.305-.064l-4.519-2.031a.92.92 0 0 1-.55-.857.946.946 0 0 1 .147-.514.82.82 0 0 1 .402-.334l4.518-2.043a.806.806 0 0 1 .305-.065.562.562 0 0 1 .533.351c.029.072.042.15.039.228a.509.509 0 0 1-.078.29.47.47 0 0 1-.226.185l-4.298 1.902 4.3 1.898zm2.058 2.211a.663.663 0 0 1-.231.36.62.62 0 0 1-.788-.058.56.56 0 0 1-.189-.444.756.756 0 0 1 .039-.231l2.826-9.343a.663.663 0 0 1 .231-.36.62.62 0 0 1 .788.058.57.57 0 0 1 .189.444.767.767 0 0 1-.037.233l-2.828 9.341zm8.819-4.957c.164.063.305.18.402.334a.954.954 0 0 1 .146.514.944.944 0 0 1-.146.521.92.92 0 0 1-.402.34l-4.519 2.027a.7.7 0 0 1-.305.064.551.551 0 0 1-.572-.578.5.5 0 0 1 .079-.29.46.46 0 0 1 .225-.186l4.3-1.898-4.3-1.906a.457.457 0 0 1-.225-.185.5.5 0 0 1-.079-.29.57.57 0 0 1 .164-.418.562.562 0 0 1 .408-.16.801.801 0 0 1 .305.064l4.519 2.047z" opacity=".32"/><g filter="url(#filter5_d)"><path fill="#fff" d="M588 99.533A8.534 8.534 0 0 1 596.533 91h16.934A8.534 8.534 0 0 1 622 99.533v14.934a8.534 8.534 0 0 1-8.533 8.533h-16.934a8.534 8.534 0 0 1-8.533-8.533V99.533z"/></g><path fill="url(#paint11_linear)" d="M606.656 113.125a12.173 12.173 0 0 1-2.049-.247 7.139 7.139 0 0 1-5.597-4.418c-.778-2.127-.473-4.796 1.12-6.07 1.592-1.273 4.43-1.416 6.717 0 .275.17.531.346.769.522l-.865.772c-.204-.15-.425-.3-.661-.449a4.68 4.68 0 0 0-5.243.022c-1.243 1.008-1.373 3.167-.765 4.853.607 1.685 2.145 2.88 4.369 3.497a7.335 7.335 0 0 0 1.832.285c.424.015.847-.052 1.246-.198.574-.215.332-.964.17-1.399-.498-1.372-.718-2.364.244-2.868.484-.255.8-.357 1.005-.729.206-.372-.057-.796-.131-1.019 0 0-.085-.129-.269-.34.34-.364.616-.664.779-.841.333.372.626.776.876 1.208a1.666 1.666 0 0 1 0 1.314c-.266.469-.502.575-1.12.893-1.231.637-.638 1.581 0 3.314a1.224 1.224 0 0 1-.56 1.656 4.852 4.852 0 0 1-1.669.25l-.198-.008zm-.741-8.033c.607-.476 2.852-2.34 2.852-2.34l2.549-2.152a.599.599 0 0 1 .353.129c.088.114.14.251.15.394l-2.187 2.256s-2.251 2.244-2.68 2.825a4.654 4.654 0 0 1-2.479 1.245 5.981 5.981 0 0 1 1.442-2.357z"/><path fill="url(#paint12_linear)" d="M601.831 105.492a.881.881 0 1 0 0-1.762.881.881 0 0 0 0 1.762z"/><path fill="url(#paint13_linear)" d="M601.243 107.842a.881.881 0 1 0 .001-1.763.881.881 0 0 0-.001 1.763z"/><path fill="url(#paint14_linear)" d="M605.647 111.364a1.174 1.174 0 1 0 0-2.348 1.174 1.174 0 0 0 0 2.348z"/><path fill="url(#paint15_linear)" d="M604.18 104.905a.88.88 0 1 0 .001-1.76.88.88 0 0 0-.001 1.76z"/><path fill="#2C1338" d="M131 112h2.884l-3.892-9.8h-2.1l-3.864 9.8h2.814l.448-1.204h3.262L131 112zm-2.856-3.472l.798-2.114.784 2.114h-1.582zm11.584 3.612c2.492 0 4.48-1.596 4.816-3.864h-2.982c-.196.728-.952 1.274-1.834 1.274-1.33 0-2.31-1.036-2.31-2.436 0-1.414.98-2.464 2.31-2.464.896 0 1.638.49 1.834 1.148h2.954c-.21-2.128-2.394-3.738-4.788-3.738-2.898 0-5.04 2.156-5.04 5.054 0 2.884 2.142 5.026 5.04 5.026zm6.697-.14h2.66v-4.662l1.862 4.662h1.904l1.946-4.662V112h2.66v-9.8h-2.716l-2.632 5.894-2.436-5.894h-3.248v9.8zm13.099-9.8v9.8h6.3v-2.548h-3.64v-1.12h3.248v-2.548h-3.248v-1.036h3.64V102.2h-6.3z"/><circle cx="105" cy="107" r="6" fill="#2C1338"/><circle cx="111" cy="107" r="6" fill="#2C1338"/><path fill="#fff" d="M108 112c-1.841-1.228-3-3.013-3-5s1.159-3.772 3-5c1.841 1.228 3 3.013 3 5s-1.159 3.772-3 5z"/><path stroke="#000" stroke-opacity=".08" d="M85 97v19"/><path fill="#2C1338" d="M56 58c0-8.837 7.163-16 16-16h594c8.837 0 16 7.163 16 16v14H56V58z"/><path stroke="#FCEDE3" d="M561 57c2.214-4 4.429-4 6.643 0 2.214 4 4.428 4 6.643 0 2.214-4 4.428-4 6.643 0 2.214 4 4.428 4 6.642 0 2.215-4 4.429-4 6.643 0 2.215 4 4.429 4 6.643 0 2.214-4 4.429-4 6.643 0 2.214 4 4.429 4 6.643 0 2.214-4 4.428-4 6.643 0 2.214 4 4.428 4 6.643 0 2.214-4 4.428-4 6.642 0 2.215 4 4.429 4 6.643 0 2.215-4 4.429-4 6.643 0 2.214 4 4.429 4 6.643 0" opacity=".24"/><rect width="360" height="52" x="84" y="553" fill="#2C1338" rx="7.347"/><rect width="36.735" height="37.143" x="91.347" y="560.429" fill="#fff" opacity=".06" rx="7.347"/><path fill="#fff" d="M103.42 571.571h12.97l.123 3.945h-.551a4.76 4.76 0 0 0-1.02-2.421 4.173 4.173 0 0 0-2.617-.557h-1.282v11.876c0 .9.138 1.457.415 1.672a3.782 3.782 0 0 0 1.817.425v.42h-6.69v-.42a3.145 3.145 0 0 0 1.812-.487c.315-.572.44-1.23.358-1.879v-11.607h-1.277a4.343 4.343 0 0 0-2.595.557 4.128 4.128 0 0 0-1.037 2.426h-.56l.134-3.95z"/><rect width="36.735" height="37.143" x="267.673" y="560.429" fill="#fff" opacity=".06" rx="7.347"/><path fill="#fff" d="M296.356 571.687h-20.631c-.46.001-.902.186-1.228.516a1.77 1.77 0 0 0-.51 1.242v11.719c.001.465.184.912.51 1.241.326.33.768.515 1.228.516h20.631a1.731 1.731 0 0 0 1.228-.515c.326-.329.51-.776.51-1.242v-11.719c0-.466-.184-.913-.509-1.242a1.732 1.732 0 0 0-1.229-.516zm-8.808 12.188h-3.014v-4.57l-2.259 2.929-2.261-2.929v4.57h-3.013v-9.141h3.013l2.261 3.047 2.259-3.047h3.014v9.141zm4.5.762l-3.746-5.329h2.261v-4.574h3.013v4.571h2.26l-3.788 5.332z"/><rect width="36.735" height="37.143" x="179.51" y="560.429" fill="#fff" opacity=".06" rx="7.347"/><path stroke="#fff" d="M207.062 575.286h-18.368a1.847 1.847 0 0 0-1.837 1.857v3.714c0 1.026.823 1.857 1.837 1.857h18.368a1.846 1.846 0 0 0 1.836-1.857v-3.714a1.846 1.846 0 0 0-1.836-1.857z"/><rect width="36.735" height="37.143" x="355.837" y="560.429" fill="#fff" opacity=".06" rx="7.347"/><path fill="#fff" d="M370.712 581.368a.605.605 0 0 1 .393.589.684.684 0 0 1-.212.517.741.741 0 0 1-.527.198.924.924 0 0 1-.395-.079l-5.835-2.514a1.178 1.178 0 0 1-.518-.424 1.119 1.119 0 0 1-.19-.645 1.14 1.14 0 0 1 .19-.636c.125-.19.306-.335.518-.413l5.835-2.527c.125-.051.258-.078.393-.08a.745.745 0 0 1 .527.199.683.683 0 0 1 .212.517.606.606 0 0 1-.393.589l-5.551 2.355 5.553 2.354zm2.657 2.735a.814.814 0 0 1-.299.446.823.823 0 0 1-1.201-.318.713.713 0 0 1-.061-.302.957.957 0 0 1 .047-.286l3.718-10.554a.818.818 0 0 1 .298-.446.823.823 0 0 1 1.202.318.697.697 0 0 1 .06.302.898.898 0 0 1-.047.286l-3.717 10.554zm11.388-6.139c.212.078.393.223.518.413.126.188.191.409.19.636.004.229-.062.454-.19.644a1.172 1.172 0 0 1-.518.422l-5.832 2.514a.934.934 0 0 1-.393.079.74.74 0 0 1-.527-.198.67.67 0 0 1-.212-.517.6.6 0 0 1 .393-.589l5.553-2.354-5.553-2.354a.596.596 0 0 1-.393-.589.665.665 0 0 1 .212-.517.745.745 0 0 1 .527-.199c.135.002.268.029.393.08l5.832 2.529z"/><rect width="36.735" height="37.143" x="135.428" y="560.429" fill="#fff" opacity=".06" rx="7.347"/><path fill="#fff" d="M147.137 588.286c-.73 0-1.431-.294-1.948-.816a2.806 2.806 0 0 1-.807-1.97v-13c0-.739.291-1.447.807-1.97a2.743 2.743 0 0 1 1.948-.816h12.858c.73 0 1.431.294 1.948.816.516.523.807 1.231.807 1.97v13c0 .739-.291 1.447-.807 1.97a2.743 2.743 0 0 1-1.948.816h-12.858zm-.918-14.857v10.335l2.768-4.017a.589.589 0 0 1 .483-.261.593.593 0 0 1 .483.261l1.81 2.47a.406.406 0 0 0 .323.173.4.4 0 0 0 .322-.173l3.306-4.801a.6.6 0 0 1 .496-.272.601.601 0 0 1 .496.272l4.206 6.3v-10.287c0-.493-.193-.965-.538-1.314a1.828 1.828 0 0 0-1.299-.544h-11.02a1.826 1.826 0 0 0-1.298.545c-.345.348-.538.82-.538 1.313zm2.755 1.857c0-.493.194-.965.538-1.314a1.829 1.829 0 0 1 2.598 0 1.872 1.872 0 0 1 0 2.627 1.83 1.83 0 0 1-1.299.544 1.83 1.83 0 0 1-1.299-.544 1.87 1.87 0 0 1-.538-1.313z"/><rect width="36.735" height="37.143" x="311.755" y="560.429" fill="#fff" opacity=".06" rx="7.347"/><path fill="#fff" d="M324.612 585.622a4.321 4.321 0 01-3.067-1.285 4.413 4.413 0 01-1.27-3.101c.091-2.162.79-4.252 2.017-6.026a11.243 11.243 0 014.906-3.981c-1.842 2.702-3.707 5.619-2.586 5.619a4.32 4.32 0 013.068 1.285 4.415 4.415 0 011.27 3.102 4.415 4.415 0 01-1.27 3.102 4.32 4.32 0 01-3.068 1.285zM335.632 585.622a4.317 4.317 0 01-3.066-1.285 4.413 4.413 0 01-1.27-3.101c.09-2.162.79-4.252 2.016-6.026a11.249 11.249 0 014.906-3.981c-1.842 2.702-3.706 5.619-2.586 5.619 1.151 0 2.254.463 3.068 1.285a4.412 4.412 0 011.271 3.102 4.412 4.412 0 01-1.271 3.102 4.318 4.318 0 01-3.068 1.285z"/><rect width="36.735" height="37.143" x="223.592" y="560.429" fill="#fff" opacity=".06" rx="7.347"/><path fill="#fff" d="M249.306 587.357v-.929h.919v.929h-.919zm-15.612 0v-.929h.918v.929h-.918zm15.612-1.857v-.929h.919v.929h-.919zm-15.612 0v-1.857h.918v1.857h-.918zm15.612-.929v-.928h-1.836v-.929h2.755v1.857h-.919zm-3.673-.928v-.929h.918v.929h-.918zm-1.837 0v-.929h.918v.929h-.918zm-2.755 0v-.929h1.837v.929h-1.837zm-1.837 0v-.929h.919v.929h-.919zm-1.836 0v-.929h.918v.929h-.918zm-1.837 0v-.929h.918v.929h-.918zm-1.837 0v-.929h1.837v.929h-1.837zm-1.837-3.715a.91.91 0 0 1-.649-.272.934.934 0 0 1 0-1.313.914.914 0 0 1 .649-.272h20.204c.244 0 .478.098.65.272a.936.936 0 0 1 0 1.313.91.91 0 0 1-.65.272h-20.204zm16.531-4.642h-.918v-.929h1.836V572.5h.919v2.786h-1.837zm-2.755 0v-.929h.918v.929h-.918zm-1.837 0v-.929h.918v.929h-.918zm-2.755 0v-.929h1.837v.929h-1.837zm-1.837 0v-.929h.919v.929h-.919zm-1.836 0v-.929h.918v.929h-.918zm-2.756 0h-.918V572.5h.918v1.857h1.837v.929h-1.837zm14.694-3.715v-.928h.919v.928h-.919zm-15.612 0v-.928h.918v.928h-.918z"/><rect width="36.735" height="37.143" x="399.918" y="560.429" fill="#fff" opacity=".06" rx="7.347"/><path fill="#fff" d="M427.089 586.229a.51.51 0 01-.362.152h-.259a.522.522 0 01-.362-.152l-3.504-3.549a.337.337 0 01-.074-.112.34.34 0 010-.266.337.337 0 01.074-.112l.485-.491a.338.338 0 01.369-.075.342.342 0 01.109.075l3.034 3.074 3.032-3.072a.328.328 0 01.242-.102.344.344 0 01.243.102l.478.49c.032.032.057.07.074.112a.34.34 0 010 .266.337.337 0 01-.074.112l-3.505 3.548zM410.209 584.31a1.35 1.35 0 01-.759-.233 1.388 1.388 0 01.492-2.503 1.363 1.363 0 011.402.587 1.397 1.397 0 01-.17 1.744 1.357 1.357 0 01-.965.405zm10.584-.691h-7.511a.339.339 0 01-.242-.101.348.348 0 01-.1-.244v-.691a.343.343 0 01.342-.345h7.511a.343.343 0 01.342.345v.691a.348.348 0 01-.1.244.339.339 0 01-.242.101zm-10.584-3.452a1.371 1.371 0 01-1.262-.853 1.388 1.388 0 01.995-1.883 1.358 1.358 0 011.402.588 1.392 1.392 0 01-.17 1.743 1.357 1.357 0 01-.965.405zm10.584-.691h-7.511a.339.339 0 01-.242-.101.347.347 0 01-.1-.244v-.69a.343.343 0 01.342-.346h7.511a.343.343 0 01.342.346v.69a.347.347 0 01-.1.244.339.339 0 01-.242.101zm-10.584-3.452a1.371 1.371 0 01-1.262-.853 1.385 1.385 0 01.995-1.883 1.358 1.358 0 011.402.588 1.392 1.392 0 01-.17 1.743 1.357 1.357 0 01-.965.405zm10.584-.691h-7.511a.345.345 0 01-.342-.345v-.69a.345.345 0 01.342-.346h7.511a.345.345 0 01.342.346v.69a.345.345 0 01-.342.345z"/><path stroke="#000" stroke-opacity=".08" d="M85 478v42"/><rect width="190" height="44" x="98" y="477" fill="#FF5E5E" rx="8"/><path fill="#fff" d="M120.49 499.603c0-.961.215-1.82.644-2.576a4.657 4.657 0 0 1 1.778-1.778c.756-.429 1.601-.644 2.534-.644 1.092 0 2.049.28 2.87.84.822.56 1.396 1.335 1.722 2.324h-2.254c-.224-.467-.541-.817-.952-1.05-.401-.233-.868-.35-1.4-.35a2.89 2.89 0 0 0-1.526.406 2.741 2.741 0 0 0-1.036 1.12c-.242.485-.364 1.055-.364 1.708 0 .644.122 1.213.364 1.708.252.485.598.863 1.036 1.134.448.261.957.392 1.526.392.532 0 .999-.117 1.4-.35.411-.243.728-.597.952-1.064h2.254c-.326.999-.9 1.778-1.722 2.338-.812.551-1.768.826-2.87.826-.933 0-1.778-.21-2.534-.63a4.785 4.785 0 0 1-1.778-1.778c-.429-.756-.644-1.615-.644-2.576zm14.667 5.026c-.747 0-1.419-.163-2.016-.49a3.667 3.667 0 0 1-1.414-1.414c-.336-.607-.504-1.307-.504-2.1 0-.793.172-1.493.518-2.1a3.64 3.64 0 0 1 1.442-1.4 4.116 4.116 0 0 1 2.03-.504c.746 0 1.423.168 2.03.504a3.562 3.562 0 0 1 1.428 1.4c.354.607.532 1.307.532 2.1 0 .793-.182 1.493-.546 2.1a3.72 3.72 0 0 1-1.456 1.414c-.607.327-1.288.49-2.044.49zm0-1.708c.354 0 .686-.084.994-.252a1.92 1.92 0 0 0 .756-.784c.186-.345.28-.765.28-1.26 0-.737-.196-1.302-.588-1.694a1.878 1.878 0 0 0-1.414-.602c-.56 0-1.032.201-1.414.602-.374.392-.56.957-.56 1.694s.182 1.307.546 1.708c.373.392.84.588 1.4.588zm9.781-6.286c.924 0 1.671.294 2.24.882.57.579.854 1.391.854 2.436v4.55h-1.96v-4.284c0-.616-.154-1.087-.462-1.414-.308-.336-.728-.504-1.26-.504-.541 0-.97.168-1.288.504-.308.327-.462.798-.462 1.414v4.284h-1.96v-7.756h1.96v.966c.262-.336.593-.597.994-.784a3.082 3.082 0 0 1 1.344-.294zm8.514 1.722h-1.358v6.146h-1.988v-6.146h-.882v-1.61h.882v-.392c0-.952.271-1.652.812-2.1.542-.448 1.358-.658 2.45-.63v1.652c-.476-.009-.807.07-.994.238-.186.168-.28.471-.28.91v.322h1.358v1.61zm2.264-2.534c-.345 0-.634-.107-.868-.322a1.122 1.122 0 0 1-.336-.826c0-.327.112-.597.336-.812.234-.224.523-.336.868-.336.346 0 .63.112.854.336.234.215.35.485.35.812 0 .327-.116.602-.35.826-.224.215-.508.322-.854.322zm.966.924v7.756h-1.96v-7.756h1.96zm3.897 1.204c.252-.411.578-.733.98-.966.41-.233.877-.35 1.4-.35v2.058h-.518c-.616 0-1.083.145-1.4.434-.308.289-.462.793-.462 1.512v3.864h-1.96v-7.756h1.96v1.204zm13.332-1.316c.952 0 1.717.294 2.296.882.588.579.882 1.391.882 2.436v4.55h-1.96v-4.284c0-.607-.154-1.069-.462-1.386-.308-.327-.728-.49-1.26-.49s-.957.163-1.274.49c-.308.317-.462.779-.462 1.386v4.284h-1.96v-4.284c0-.607-.154-1.069-.462-1.386-.308-.327-.728-.49-1.26-.49-.541 0-.971.163-1.288.49-.308.317-.462.779-.462 1.386v4.284h-1.96v-7.756h1.96v.938c.252-.327.574-.583.966-.77.401-.187.84-.28 1.316-.28.607 0 1.148.131 1.624.392.476.252.845.616 1.106 1.092a2.822 2.822 0 0 1 1.092-1.078 3.163 3.163 0 0 1 1.568-.406zm18.006 0c.952 0 1.717.294 2.296.882.588.579.882 1.391.882 2.436v4.55h-1.96v-4.284c0-.607-.154-1.069-.462-1.386-.308-.327-.728-.49-1.26-.49s-.957.163-1.274.49c-.308.317-.462.779-.462 1.386v4.284h-1.96v-4.284c0-.607-.154-1.069-.462-1.386-.308-.327-.728-.49-1.26-.49-.541 0-.971.163-1.288.49-.308.317-.462.779-.462 1.386v4.284h-1.96v-7.756h1.96v.938c.252-.327.574-.583.966-.77.401-.187.84-.28 1.316-.28.607 0 1.148.131 1.624.392.476.252.845.616 1.106 1.092a2.822 2.822 0 0 1 1.092-1.078 3.163 3.163 0 0 1 1.568-.406zm12.458.112l-4.802 11.424h-2.086l1.68-3.864-3.108-7.56h2.198l2.002 5.418 2.03-5.418h2.086zm3.888 3.85c0-.784.154-1.479.462-2.086.318-.607.742-1.073 1.274-1.4a3.428 3.428 0 0 1 1.806-.49c.579 0 1.083.117 1.512.35a3.05 3.05 0 0 1 1.05.882v-1.106h1.974v7.756h-1.974v-1.134c-.252.364-.602.667-1.05.91-.438.233-.947.35-1.526.35-.653 0-1.25-.168-1.792-.504-.532-.336-.956-.807-1.274-1.414-.308-.616-.462-1.321-.462-2.114zm6.104.028c0-.476-.093-.882-.28-1.218a1.907 1.907 0 0 0-.756-.784 1.978 1.978 0 0 0-1.022-.28c-.364 0-.7.089-1.008.266a2.04 2.04 0 0 0-.756.784c-.186.336-.28.737-.28 1.204 0 .467.094.877.28 1.232.196.345.448.611.756.798.318.187.654.28 1.008.28.364 0 .705-.089 1.022-.266a2.03 2.03 0 0 0 .756-.784c.187-.345.28-.756.28-1.232zm3.385 0c0-.803.163-1.503.49-2.1a3.438 3.438 0 0 1 1.358-1.4c.578-.336 1.241-.504 1.988-.504.961 0 1.754.243 2.38.728.634.476 1.059 1.148 1.274 2.016h-2.114a1.5 1.5 0 0 0-.574-.784c-.262-.196-.588-.294-.98-.294-.56 0-1.004.205-1.33.616-.327.401-.49.975-.49 1.722 0 .737.163 1.311.49 1.722.326.401.77.602 1.33.602.793 0 1.311-.355 1.554-1.064h2.114c-.215.84-.64 1.507-1.274 2.002-.635.495-1.428.742-2.38.742-.747 0-1.41-.163-1.988-.49a3.558 3.558 0 0 1-1.358-1.4c-.327-.607-.49-1.311-.49-2.114zm8.421 0c0-.803.164-1.503.49-2.1a3.45 3.45 0 0 1 1.358-1.4c.579-.336 1.242-.504 1.988-.504.962 0 1.755.243 2.38.728.635.476 1.06 1.148 1.274 2.016h-2.114a1.495 1.495 0 0 0-.574-.784c-.261-.196-.588-.294-.98-.294-.56 0-1.003.205-1.33.616-.326.401-.49.975-.49 1.722 0 .737.164 1.311.49 1.722.327.401.77.602 1.33.602.794 0 1.312-.355 1.554-1.064h2.114c-.214.84-.639 1.507-1.274 2.002-.634.495-1.428.742-2.38.742-.746 0-1.409-.163-1.988-.49a3.572 3.572 0 0 1-1.358-1.4c-.326-.607-.49-1.311-.49-2.114zm12.37 4.004c-.746 0-1.418-.163-2.016-.49a3.68 3.68 0 0 1-1.414-1.414c-.336-.607-.504-1.307-.504-2.1 0-.793.173-1.493.518-2.1a3.654 3.654 0 0 1 1.442-1.4 4.121 4.121 0 0 1 2.03-.504c.747 0 1.424.168 2.03.504a3.55 3.55 0 0 1 1.428 1.4c.355.607.532 1.307.532 2.1 0 .793-.182 1.493-.546 2.1a3.713 3.713 0 0 1-1.456 1.414c-.606.327-1.288.49-2.044.49zm0-1.708c.355 0 .686-.084.994-.252.318-.177.57-.439.756-.784.187-.345.28-.765.28-1.26 0-.737-.196-1.302-.588-1.694a1.877 1.877 0 0 0-1.414-.602c-.56 0-1.031.201-1.414.602-.373.392-.56.957-.56 1.694s.182 1.307.546 1.708c.374.392.84.588 1.4.588zm12.806-6.174v7.756h-1.974v-.98a2.633 2.633 0 0 1-.994.798c-.401.187-.84.28-1.316.28-.607 0-1.143-.126-1.61-.378a2.81 2.81 0 0 1-1.106-1.134c-.261-.504-.392-1.101-.392-1.792v-4.55h1.96v4.27c0 .616.154 1.092.462 1.428.308.327.728.49 1.26.49.541 0 .966-.163 1.274-.49.308-.336.462-.812.462-1.428v-4.27h1.974zm6.232-.112c.924 0 1.671.294 2.24.882.569.579.854 1.391.854 2.436v4.55h-1.96v-4.284c0-.616-.154-1.087-.462-1.414-.308-.336-.728-.504-1.26-.504-.541 0-.971.168-1.288.504-.308.327-.462.798-.462 1.414v4.284h-1.96v-7.756h1.96v.966a2.66 2.66 0 0 1 .994-.784 3.082 3.082 0 0 1 1.344-.294zm7.24 1.722v3.752c0 .261.06.453.182.574.13.112.345.168.644.168h.91v1.652h-1.232c-1.652 0-2.478-.803-2.478-2.408v-3.738h-.924v-1.61h.924v-1.918h1.974v1.918h1.736v1.61h-1.736z"/><defs><filter id="filter0_d" width="738" height="703" x="0" y="0" color-interpolation-filters="sRGB" filterUnits="userSpaceOnUse"><feFlood flood-opacity="0" result="BackgroundImageFix"/><feColorMatrix in="SourceAlpha" values="0 0 0 0 0 0 0 0 0 0 0 0 0 0 0 0 0 0 127 0"/><feOffset dy="14"/><feGaussianBlur stdDeviation="28"/><feColorMatrix values="0 0 0 0 0.172549 0 0 0 0 0.0745098 0 0 0 0 0.219608 0 0 0 0.08 0"/><feBlend in2="BackgroundImageFix" result="effect1_dropShadow"/><feBlend in="SourceGraphic" in2="effect1_dropShadow" result="shape"/></filter><filter id="filter1_b" width="635.139" height="113.139" x="51.431" y="221.43" color-interpolation-filters="sRGB" filterUnits="userSpaceOnUse"><feFlood flood-opacity="0" result="BackgroundImageFix"/><feGaussianBlur in="BackgroundImage" stdDeviation="15.785"/><feComposite in2="SourceAlpha" operator="in" result="effect1_backgroundBlur"/><feBlend in="SourceGraphic" in2="effect1_backgroundBlur" result="shape"/></filter><filter id="filter2_b" width="635.139" height="149.139" x="51.431" y="320.43" color-interpolation-filters="sRGB" filterUnits="userSpaceOnUse"><feFlood flood-opacity="0" result="BackgroundImageFix"/><feGaussianBlur in="BackgroundImage" stdDeviation="15.785"/><feComposite in2="SourceAlpha" operator="in" result="effect1_backgroundBlur"/><feBlend in="SourceGraphic" in2="effect1_backgroundBlur" result="shape"/></filter><filter id="filter3_f" width="629.5" height="111" x="80" y="330" color-interpolation-filters="sRGB" filterUnits="userSpaceOnUse"><feFlood flood-opacity="0" result="BackgroundImageFix"/><feBlend in="SourceGraphic" in2="BackgroundImageFix" result="shape"/><feGaussianBlur result="effect1_foregroundBlur" stdDeviation="2"/></filter><filter id="filter4_d" width="601" height="108" x="115" y="326" color-interpolation-filters="sRGB" filterUnits="userSpaceOnUse"><feFlood flood-opacity="0" result="BackgroundImageFix"/><feColorMatrix in="SourceAlpha" values="0 0 0 0 0 0 0 0 0 0 0 0 0 0 0 0 0 0 127 0"/><feOffset dx="-4" dy="4"/><feGaussianBlur stdDeviation="6"/><feColorMatrix values="0 0 0 0 0 0 0 0 0 0 0 0 0 0 0 0 0 0 0.08 0"/><feBlend in2="BackgroundImageFix" result="effect1_dropShadow"/><feBlend in="SourceGraphic" in2="effect1_dropShadow" result="shape"/></filter><filter id="filter5_d" width="51.067" height="49.067" x="579.467" y="86.733" color-interpolation-filters="sRGB" filterUnits="userSpaceOnUse"><feFlood flood-opacity="0" result="BackgroundImageFix"/><feColorMatrix in="SourceAlpha" values="0 0 0 0 0 0 0 0 0 0 0 0 0 0 0 0 0 0 127 0"/><feOffset dy="4.267"/><feGaussianBlur stdDeviation="4.267"/><feColorMatrix values="0 0 0 0 0 0 0 0 0 0 0 0 0 0 0 0 0 0 0.06 0"/><feBlend in2="BackgroundImageFix" result="effect1_dropShadow"/><feBlend in="SourceGraphic" in2="effect1_dropShadow" result="shape"/></filter><linearGradient id="paint0_linear" x1="158.468" x2="171.125" y1="242.575" y2="358.647" gradientUnits="userSpaceOnUse"><stop stop-color="#F1F1F1" stop-opacity=".5"/><stop offset="1" stop-color="#EBEBEB" stop-opacity="0"/></linearGradient><linearGradient id="paint1_linear" x1="12" x2="0" y1="6" y2="6" gradientUnits="userSpaceOnUse"><stop stop-color="#9121C2"/><stop offset="1" stop-color="#FF5E5E"/></linearGradient><linearGradient id="paint2_linear" x1="0" x2="13" y1="6" y2="6" gradientUnits="userSpaceOnUse"><stop stop-color="#9121C2"/><stop offset="1" stop-color="#FF5E5E"/></linearGradient><linearGradient id="paint3_linear" x1="12" x2="0" y1="6" y2="6" gradientUnits="userSpaceOnUse"><stop stop-color="#9121C2"/><stop offset="1" stop-color="#FF5E5E"/></linearGradient><linearGradient id="paint4_linear" x1="0" x2="13" y1="6" y2="6" gradientUnits="userSpaceOnUse"><stop stop-color="#9121C2"/><stop offset="1" stop-color="#FF5E5E"/></linearGradient><linearGradient id="paint5_linear" x1="158.468" x2="196.314" y1="333.007" y2="531.325" gradientUnits="userSpaceOnUse"><stop stop-color="#F1F1F1" stop-opacity=".5"/><stop offset="1" stop-color="#EBEBEB" stop-opacity="0"/></linearGradient><linearGradient id="paint6_linear" x1="184" x2="120.861" y1="325.425" y2="489.653" gradientUnits="userSpaceOnUse"><stop stop-color="#2C1338" stop-opacity=".39"/><stop offset="1" stop-color="#2C1338" stop-opacity="0"/></linearGradient><linearGradient id="paint7_linear" x1="645.971" x2="634.657" y1="382.971" y2="371.657" gradientUnits="userSpaceOnUse"><stop stop-color="#9121C2"/><stop offset="1" stop-color="#FF5E5E"/></linearGradient><linearGradient id="paint8_linear" x1="630.561" x2="633.682" y1="375.753" y2="378.874" gradientUnits="userSpaceOnUse"><stop stop-color="#9121C2"/><stop offset="1" stop-color="#FF5E5E"/></linearGradient><linearGradient id="paint9_linear" x1="645.97" x2="634.657" y1="371.657" y2="382.971" gradientUnits="userSpaceOnUse"><stop stop-color="#9121C2"/><stop offset="1" stop-color="#FF5E5E"/></linearGradient><linearGradient id="paint10_linear" x1="638.753" x2="641.874" y1="387.067" y2="383.946" gradientUnits="userSpaceOnUse"><stop stop-color="#9121C2"/><stop offset="1" stop-color="#FF5E5E"/></linearGradient><linearGradient id="paint11_linear" x1="611.819" x2="598.6" y1="106.867" y2="106.867" gradientUnits="userSpaceOnUse"><stop stop-color="#9121C2"/><stop offset="1" stop-color="#FF5E5E"/></linearGradient><linearGradient id="paint12_linear" x1="602.712" x2="600.95" y1="104.611" y2="104.611" gradientUnits="userSpaceOnUse"><stop stop-color="#9121C2"/><stop offset="1" stop-color="#FF5E5E"/></linearGradient><linearGradient id="paint13_linear" x1="602.125" x2="600.362" y1="106.961" y2="106.961" gradientUnits="userSpaceOnUse"><stop stop-color="#9121C2"/><stop offset="1" stop-color="#FF5E5E"/></linearGradient><linearGradient id="paint14_linear" x1="606.821" x2="604.473" y1="110.19" y2="110.19" gradientUnits="userSpaceOnUse"><stop stop-color="#9121C2"/><stop offset="1" stop-color="#FF5E5E"/></linearGradient><linearGradient id="paint15_linear" x1="605.061" x2="603.299" y1="104.024" y2="104.024" gradientUnits="userSpaceOnUse"><stop stop-color="#9121C2"/><stop offset="1" stop-color="#FF5E5E"/></linearGradient></defs></svg>