<svg xmlns="http://www.w3.org/2000/svg" xmlns:xlink="http://www.w3.org/1999/xlink" width="500.293" height="423.621" viewBox="0 0 500.293 423.621"><defs><linearGradient id="a" x1="-0.878" y1="6.103" x2="-0.878" y2="6.818" gradientUnits="objectBoundingBox"><stop offset="0" stop-color="#f06b59"/><stop offset="1" stop-color="#df2227"/></linearGradient><linearGradient id="b" x1="-1.592" y1="5.279" x2="-1.285" y2="4.842" gradientUnits="objectBoundingBox"><stop offset="0" stop-color="#388b41"/><stop offset="1" stop-color="#4cb749"/></linearGradient><linearGradient id="c" x1="-1.558" y1="5.663" x2="-1.965" y2="4.932" gradientUnits="objectBoundingBox"><stop offset="0" stop-color="#e4b022"/><stop offset="0.3" stop-color="#fcd209"/></linearGradient></defs><g transform="translate(-803.87 -231.349)"><g transform="matrix(0.574, 0.819, -0.819, 0.574, 838.895, 234.694)" opacity="0.602"><g transform="translate(16.678 45.808) rotate(-45)"><path d="M24.048,40.7h0L0,36.535V4.162L24.048,0V40.7ZM10.637,15.555v11.87l2.774.162V15.446l4.162-.185V12.487l-11.1.676v2.56l4.162-.168ZM27.479,33.3a7.909,7.909,0,0,1-1.086-.08,3.564,3.564,0,0,1-.489-.107c-.127-.034-.27-.073-.469-.116V16.649h6.936V29.491a3.355,3.355,0,0,1-.465,1.839,3.63,3.63,0,0,1-1.179,1.17,4.91,4.91,0,0,1-1.582.617A8.214,8.214,0,0,1,27.479,33.3ZM35.61,30.06h-1.85v-11.1h7.4v7.273a3.057,3.057,0,0,1-.527,1.841,4.027,4.027,0,0,1-.6.665,3.974,3.974,0,0,1-.735.514,5.89,5.89,0,0,1-1.792.626A10.557,10.557,0,0,1,35.61,30.06Zm1.835-13.438a3.664,3.664,0,0,1-2.606-1.079,3.739,3.739,0,0,1-.792-1.174,3.694,3.694,0,1,1,3.4,2.253Zm-9.7-2.313a3.511,3.511,0,0,1-1.4-.289,1.834,1.834,0,0,1-.393-.239,3.014,3.014,0,0,0-.509-.316V7.778a2.984,2.984,0,0,0,.508-.315,1.835,1.835,0,0,1,.394-.24,3.513,3.513,0,0,1,1.4-.289h.05a3.562,3.562,0,0,1,1.408.289,3.69,3.69,0,0,1,0,6.8,3.56,3.56,0,0,1-1.407.289h-.049Z" transform="translate(0 0)" fill="#fff"/></g></g><g transform="matrix(0.574, 0.819, -0.819, 0.574, 1179.691, 189.326)"><g transform="translate(18.068 18.081)"><g transform="translate(0 28.596) rotate(-45)"><circle cx="19.91" cy="19.91" r="19.91" transform="translate(0.358 0.394)" fill="#fff"/><path d="M34.933,11.254A20.272,20.272,0,0,0,0,8.9L8.145,23.019a9.05,9.05,0,0,1,8.507-11.765" transform="translate(3.436 0)" fill="url(#a)"/><path d="M3.436,0a20.273,20.273,0,0,0,15.2,31.495l8.507-14.48a9.051,9.051,0,0,1-15.566-2.9" transform="translate(0 8.901)" fill="url(#b)"/><path d="M0,29.141A20.272,20.272,0,0,0,19.729,0H1.448A9.05,9.05,0,0,1,8.507,14.661" transform="translate(18.64 11.254)" fill="url(#c)"/></g><g transform="translate(18.704 28.598) rotate(-45)" fill="#4a8cc4" stroke="#707070" stroke-width="1"><circle cx="6.983" cy="6.983" r="6.983" stroke="none"/><circle cx="6.983" cy="6.983" r="6.483" fill="none"/></g></g></g><g transform="matrix(0.574, 0.819, -0.819, 0.574, 849.167, 391.979)"><path d="M21.85,0A21.85,21.85,0,1,0,43.7,21.85,21.821,21.821,0,0,0,21.85,0Zm0,37.873A16.023,16.023,0,1,1,37.873,21.85,15.977,15.977,0,0,1,21.85,37.873ZM31.755,16.46a4.516,4.516,0,1,1-4.516-4.516,4.538,4.538,0,0,1,4.516,4.516Zm0,10.779a4.516,4.516,0,1,1-4.516-4.516A4.538,4.538,0,0,1,31.755,27.24Zm-10.779,0a4.516,4.516,0,1,1-4.516-4.516A4.538,4.538,0,0,1,20.976,27.24Zm0-10.779a4.516,4.516,0,1,1-4.516-4.516A4.538,4.538,0,0,1,20.976,16.46Z" transform="translate(21.1 20.609)" fill="#f54666"/></g><g transform="matrix(0.819, -0.574, 0.574, 0.819, 1185.358, 609.955)"><g transform="matrix(0.259, -0.966, 0.966, 0.259, 31.268, 82.756)"><g transform="translate(0 28.351)"><path d="M11.305,5.653A5.653,5.653,0,1,1,5.653,0h5.653Z" fill="#e01e5a"/><path d="M0,5.653a5.653,5.653,0,0,1,11.305,0V19.806A5.653,5.653,0,0,1,0,19.806V5.653Z" transform="translate(14.154 0)" fill="#e01e5a"/></g><g transform="translate(0 0)"><path d="M5.653,11.305a5.653,5.653,0,1,1,5.653-5.653v5.653Z" transform="translate(14.154 0)" fill="#36c5f0"/><path d="M19.806,0a5.653,5.653,0,1,1,0,11.305H5.653A5.653,5.653,0,0,1,5.653,0H19.806Z" transform="translate(0 14.154)" fill="#36c5f0"/></g><g transform="translate(28.351 0)"><path d="M0,5.653a5.653,5.653,0,1,1,5.653,5.653H0Z" transform="translate(14.154 14.154)" fill="#2eb67d"/><path d="M11.305,19.806A5.653,5.653,0,1,1,0,19.806V5.653a5.653,5.653,0,1,1,11.305,0Z" fill="#2eb67d"/></g><g transform="translate(28.351 28.351)"><path d="M5.653,0A5.653,5.653,0,1,1,0,5.653V0Z" transform="translate(0 14.154)" fill="#ecb22e"/><path d="M5.653,11.305A5.653,5.653,0,0,1,5.653,0H19.806a5.653,5.653,0,0,1,0,11.305Z" fill="#ecb22e"/></g></g></g></g></svg>