<svg xmlns="http://www.w3.org/2000/svg" width="22" height="16.844" viewBox="0 0 22 16.844"><path d="M19.622,16.844H2.378a2.365,2.365,0,0,1-1.682-.7,2.421,2.421,0,0,1-.7-1.7V2.406A2.424,2.424,0,0,1,.7.706,2.367,2.367,0,0,1,2.378,0H19.622A2.365,2.365,0,0,1,21.3.7a2.421,2.421,0,0,1,.7,1.7V14.438a2.42,2.42,0,0,1-.7,1.7A2.365,2.365,0,0,1,19.622,16.844ZM3.355,1.8a1.152,1.152,0,0,0-.69.215,1.174,1.174,0,0,0-.431.586,1.189,1.189,0,0,0-.03.73,1.177,1.177,0,0,0,.4.607l7.645,6.271a1.179,1.179,0,0,0,1.5,0l7.645-6.271a1.184,1.184,0,0,0,.372-1.337,1.174,1.174,0,0,0-.431-.586,1.152,1.152,0,0,0-.69-.215Z" fill="#fff"/></svg>