<svg xmlns="http://www.w3.org/2000/svg" width="36" height="36" viewBox="0 0 36 36"><g transform="translate(-312 -455)"><rect width="36" height="36" rx="18" transform="translate(312 455)" fill="#fff"/><g transform="translate(319.798 462.366)"><path d="M300.659,58.431a10.439,10.439,0,0,0-3.3,20.342c.522.1.713-.227.713-.5,0-.249-.01-1.071-.014-1.943-2.9.632-3.517-1.232-3.517-1.232a2.765,2.765,0,0,0-1.159-1.527c-.947-.648.071-.635.071-.635a2.194,2.194,0,0,1,1.6,1.076,2.222,2.222,0,0,0,3.037.868,2.223,2.223,0,0,1,.663-1.4c-2.318-.264-4.755-1.159-4.755-5.158a4.039,4.039,0,0,1,1.075-2.8,3.751,3.751,0,0,1,.1-2.762s.876-.28,2.871,1.07a9.9,9.9,0,0,1,5.227,0c1.992-1.35,2.868-1.07,2.868-1.07a3.746,3.746,0,0,1,.1,2.762,4.031,4.031,0,0,1,1.074,2.8c0,4.009-2.442,4.892-4.766,5.15a2.5,2.5,0,0,1,.708,1.933c0,1.4-.012,2.521-.012,2.864,0,.278.188.6.717.5a10.439,10.439,0,0,0-3.306-20.341Z" transform="translate(-290.221 -58.431)" fill="#973fa3" fill-rule="evenodd"/><path d="M311.755,144.288c-.023.052-.1.068-.179.032s-.118-.1-.094-.157.1-.068.18-.033.119.106.093.157Zm-.128-.1" transform="translate(-308.802 -129.301)" fill="#973fa3"/><path d="M314.226,146.478c-.05.046-.147.025-.213-.048a.16.16,0,0,1-.031-.217c.051-.046.146-.025.214.048s.082.17.03.217Zm-.1-.107" transform="translate(-310.85 -131.02)" fill="#973fa3"/><path d="M316.575,149.632c-.064.045-.169,0-.233-.09s-.064-.2,0-.249.168,0,.233.088.064.206,0,.251Zm0,0" transform="translate(-312.788 -133.573)" fill="#973fa3"/><path d="M319.468,153.052c-.057.063-.179.046-.268-.04a.2.2,0,0,1-.059-.267c.058-.063.18-.045.27.04s.118.2.057.267Zm0,0" transform="translate(-315.117 -136.412)" fill="#973fa3"/><path d="M323.593,155.561c-.025.082-.143.119-.261.084s-.2-.132-.171-.214.142-.121.262-.084.2.131.171.214Zm0,0" transform="translate(-318.463 -138.584)" fill="#973fa3"/><path d="M328.478,156.284c0,.086-.1.157-.221.159s-.226-.067-.227-.152.1-.157.223-.16.226.067.226.152Zm0,0" transform="translate(-322.494 -139.245)" fill="#973fa3"/><path d="M333.093,155.66c.015.084-.071.17-.195.193s-.233-.03-.249-.113.073-.172.194-.195.234.029.25.114Zm0,0" transform="translate(-326.315 -138.756)" fill="#973fa3"/></g></g></svg>