<svg xmlns="http://www.w3.org/2000/svg" width="37" height="36" viewBox="0 0 37 36"><g transform="translate(-111 -455)"><rect width="37" height="36" rx="18" transform="translate(111 455)" fill="#fff"/><g transform="translate(119.269 463.125)"><path d="M18.54,9.4a11.418,11.418,0,0,0-.181-2.033H9v3.844h5.348a4.572,4.572,0,0,1-1.983,3V16.7h3.212A9.692,9.692,0,0,0,18.54,9.4Z" transform="translate(0.937 0.767)" fill="#4285f4" fill-rule="evenodd"/><path d="M9.838,18.759a9.487,9.487,0,0,0,6.577-2.408L13.2,13.858A6,6,0,0,1,4.277,10.71H.957v2.575a9.934,9.934,0,0,0,8.881,5.475Z" transform="translate(0.1 1.116)" fill="#4285f4" fill-rule="evenodd"/><path d="M4.377,11.309a5.875,5.875,0,0,1,0-3.776V4.958H1.057a9.95,9.95,0,0,0,0,8.926l3.32-2.575Z" transform="translate(0 0.516)" fill="#4285f4" fill-rule="evenodd"/><path d="M9.838,3.952a5.368,5.368,0,0,1,3.8,1.486l2.85-2.85A9.55,9.55,0,0,0,9.838,0,9.934,9.934,0,0,0,.957,5.475l3.32,2.575a5.922,5.922,0,0,1,5.56-4.1Z" transform="translate(0.1 0)" fill="#4285f4" fill-rule="evenodd"/><path d="M0,0H19.875V19.875H0Z" fill="none" fill-rule="evenodd"/></g></g></svg>