<svg xmlns="http://www.w3.org/2000/svg" width="37" height="36" viewBox="0 0 37 36">

  <g transform="translate(-111 -455)">
    <rect width="37" height="36" rx="18" transform="translate(111 455)" fill="#fff" />
  </g>
  <g id="Artboard_1" data-name="Artboard – 1" clip-path="url(#clip-Artboard_1)">
    <g id="Google__G__Logo" transform="translate(9 9)">
      <path id="Path_4625" data-name="Path 4625"
        d="M281.068,225a10.972,10.972,0,0,0-.161-1.9H272.1v3.6h5.043a4.321,4.321,0,0,1-1.866,2.837v2.333h3.009A9.118,9.118,0,0,0,281.068,225Z"
        transform="translate(-262.814 -215.464)" fill="#4285f4" />
      <path id="Path_4626" data-name="Path 4626"
        d="M37.243,331.847a8.937,8.937,0,0,0,6.189-2.254l-3.009-2.333A5.663,5.663,0,0,1,32,324.3H28.9v2.4A9.338,9.338,0,0,0,37.243,331.847Z"
        transform="translate(-27.957 -313.192)" fill="#34a853" />
      <path id="Path_4627" data-name="Path 4627"
        d="M4.044,155.979a5.592,5.592,0,0,1,0-3.575V150H.943a9.344,9.344,0,0,0,0,8.384Z"
        transform="translate(0 -144.872)" fill="#fbbc04" />
      <path id="Path_4628" data-name="Path 4628"
        d="M37.243,3.677a5.074,5.074,0,0,1,3.582,1.4L43.49,2.411A8.973,8.973,0,0,0,37.243-.018,9.335,9.335,0,0,0,28.9,5.128l3.1,2.4a5.584,5.584,0,0,1,5.242-3.856Z"
        transform="translate(-27.957 0)" fill="#ea4335" />
    </g>
  </g>
</svg>
