<svg xmlns="http://www.w3.org/2000/svg" width="31.767" height="25.825" viewBox="0 0 31.767 25.825"><path d="M-26.7-72.439c-5.256,3.771-9.256,10.17-9.256,17.14,0,5.6,3.314,8.684,7.085,8.684a6.023,6.023,0,0,0,6.056-6.056c0-3.428-2.285-5.828-5.485-5.828-.571,0-1.371.114-1.486.114.343-3.657,3.657-8.227,7.313-10.627Zm18.283,0c-5.256,3.771-9.256,10.17-9.256,17.14,0,5.6,3.314,8.684,7.085,8.684A6.121,6.121,0,0,0-4.414-52.67a5.526,5.526,0,0,0-5.6-5.828c-.571,0-1.371.114-1.486.114.457-3.657,3.657-8.227,7.313-10.627Z" transform="translate(35.952 72.439)" fill="#73819b" opacity="0.15"/></svg>