<svg xmlns="http://www.w3.org/2000/svg" width="23.93" height="23.931" viewBox="0 0 23.93 23.931"><path d="M2.782-87.069H-7.68A1.322,1.322,0,0,1-9-88.391v-21.289A1.322,1.322,0,0,1-7.68-111H13.609a1.322,1.322,0,0,1,1.321,1.32v21.289a1.323,1.323,0,0,1-1.321,1.321h-7.1v-9.267h3.11l.465-3.612H6.511v-2.306c0-1.055.3-1.758,1.789-1.758h1.912v-3.23a25.5,25.5,0,0,0-2.786-.142,4.646,4.646,0,0,0-3.357,1.228,4.845,4.845,0,0,0-1.288,3.546v2.663H-.337v3.612H2.782v9.267Z" transform="translate(9 111)" fill="#fff"/></svg>