<svg width="136" height="35" viewBox="0 0 136 35" fill="none" xmlns="http://www.w3.org/2000/svg">
<path fill-rule="evenodd" clip-rule="evenodd" d="M0.0719918 0.679615C0.0322605 0.719346 0 4.9475 0 10.0756V19.3995L1.91356 19.3302C9.47812 19.0559 12.6349 16.4373 12.6573 10.4179C12.6655 8.27203 12.4553 7.24037 11.6348 5.40492C10.7869 3.50767 8.86416 1.76153 6.66535 0.892194C5.95664 0.611698 0.321246 0.430021 0.0719918 0.679615ZM13.6428 0.694556C13.6988 0.742098 14.1053 1.06946 14.5461 1.42228C16.9109 3.31512 18.2214 6.19344 18.2177 9.48672C18.2119 14.2494 15.539 17.5389 10.2683 19.2705C8.91374 19.7157 8.9117 19.6888 10.3227 19.9914C18.3107 21.7032 22.764 26.3019 22.7918 32.8681L22.8007 34.8896H28.5413H34.2817V17.7488V0.607623H23.9111C18.2071 0.607623 13.5864 0.646675 13.6428 0.694556ZM44.8196 7.47367C43.3547 7.51 43.2297 7.52868 43.2297 7.71375C43.2297 7.85604 43.3346 7.93414 43.5897 7.98203C44.5748 8.16676 44.6746 8.75628 44.604 13.9757C44.5415 18.6181 44.5286 18.6901 43.7418 18.9265C43.4127 19.0253 43.2297 19.1411 43.2297 19.2501C43.2297 19.5187 48.6162 19.4885 49.5327 19.2148C53.007 18.1774 52.9503 14.2569 49.4441 13.0758L48.7252 12.8337L49.0906 12.7016C51.359 11.8815 51.484 8.81061 49.2913 7.76537C48.6033 7.43733 47.9686 7.3959 44.8196 7.47367ZM57.6304 7.50525C53.5374 7.56264 53.0067 7.62886 54.0312 7.9535C54.8082 8.20004 54.8136 8.22788 54.8543 12.3936C54.9093 18.0225 54.7864 18.8596 53.8841 19.0039C53.5955 19.0501 53.4709 19.1245 53.4709 19.2508C53.4709 19.4172 53.8369 19.4318 58.0519 19.4345L62.6325 19.4369L62.841 18.8793C63.0098 18.429 63.3891 16.8655 63.3891 16.6214C63.3891 16.4373 62.9619 16.5986 62.9015 16.8054C62.4678 18.2898 61.0514 18.9085 58.3337 18.8001C56.1821 18.7142 56.2738 18.8653 56.2738 15.4152V13.6521L58.1334 13.6527C60.7132 13.6534 61.0945 13.7933 61.2059 14.7798C61.2494 15.1663 61.3034 15.2692 61.4626 15.2692C61.6514 15.2692 61.664 15.1561 61.664 13.4904C61.664 11.5154 61.5669 11.2777 61.1563 12.2496C60.8507 12.9725 60.7278 13.0051 58.315 13.0051H56.2738L56.2806 11.4152C56.2874 9.78522 56.3916 8.32399 56.5091 8.20615C56.5455 8.16982 57.3686 8.11243 58.3381 8.07881C61.1933 7.97931 61.9734 8.26354 61.844 9.35598C61.7839 9.864 61.7934 9.89117 62.0189 9.85891C62.2922 9.82019 62.4454 9.33697 62.567 8.12703L62.6403 7.3993L62.1252 7.42443C61.842 7.43801 59.8194 7.47435 57.6304 7.50525ZM68.1616 7.51306C66.4386 7.85298 65.3988 9.0473 65.3971 10.6875C65.3957 12.1942 66.1825 13.0269 68.4557 13.9234C71.0229 14.936 71.5822 15.4685 71.5822 16.9005C71.5822 18.7258 69.8636 19.4026 67.3762 18.5567C66.0165 18.0942 65.6079 17.7114 65.2317 16.5473C65.1356 16.2495 65.0575 16.1667 64.9104 16.205C64.7237 16.2539 64.7237 16.2872 64.9152 17.0832C65.0245 17.5383 65.1451 18.2378 65.1835 18.6382C65.2215 19.0382 65.2901 19.3659 65.3363 19.3659C65.3821 19.3659 65.4962 19.3951 65.5903 19.4311C65.702 19.4742 65.7607 19.4372 65.7607 19.3234C65.7607 19.1085 65.8351 19.1085 66.8386 19.3231C70.5356 20.1133 73.324 18.5624 72.93 15.9347C72.7042 14.4283 71.8804 13.701 69.1644 12.6095C66.9687 11.727 66.3296 10.8865 66.7374 9.41779C67.3806 7.10182 72.0943 7.66214 72.1188 10.0576C72.1205 10.2253 72.1735 10.2763 72.31 10.2406C72.4767 10.1971 72.4984 10.0368 72.4984 8.84932C72.4984 7.43462 72.4899 7.41322 71.9914 7.60271C71.8315 7.6635 71.4658 7.6455 70.9873 7.55279C70.156 7.39217 68.8662 7.37417 68.1616 7.51306ZM77.5654 7.55143C75.828 7.98169 74.8399 9.24018 74.9529 10.8783C75.0518 12.31 75.8797 13.1013 78.2391 14.0191C80.8291 15.0267 81.6336 16.0899 81.0203 17.6958C80.2359 19.7496 75.7211 19.1003 74.902 16.816C74.6446 16.0988 74.6307 16.0818 74.4086 16.2227C74.2969 16.2933 74.3009 16.4278 74.4296 16.9216C74.5173 17.2581 74.6466 17.9332 74.7176 18.4225C74.8348 19.2314 74.9356 19.4671 75.1665 19.4718C75.211 19.4729 75.2474 19.4009 75.2474 19.3119C75.2474 19.1258 75.4477 19.1126 76.0559 19.2589C79.7628 20.15 82.4605 18.919 82.4679 16.3327C82.4727 14.6545 81.6743 13.8215 79.0151 12.7297C76.7381 11.7949 76.2176 11.3066 76.2176 10.1034C76.2176 7.33682 80.7092 7.0441 81.5925 9.75262C81.8727 10.6124 82.0102 10.3374 82.0543 8.82793C82.0958 7.41356 82.0564 7.32289 81.5198 7.60169C81.4105 7.65874 81.0183 7.63905 80.5299 7.55211C79.5329 7.37451 78.2802 7.37417 77.5654 7.55143ZM88.0493 7.48012C83.9427 7.51102 83.3858 7.58234 84.4684 7.93958C85.1537 8.16574 85.1928 8.31753 85.297 11.1558C85.3975 13.8881 85.2631 17.8677 85.0498 18.4792C84.9506 18.7642 84.8389 18.8524 84.4273 18.9723C84.1516 19.0528 83.9115 19.19 83.8945 19.2773C83.8674 19.4148 84.4701 19.4348 88.4728 19.4277L93.0823 19.4195L93.2803 18.8864C93.4749 18.3628 93.7897 17.0214 93.7897 16.7175C93.7897 16.3158 93.3941 16.6122 93.0891 17.2421C92.5291 18.3994 91.5263 18.8209 89.3248 18.8249C87.8194 18.8277 86.9297 18.6602 86.8455 18.3594C86.7362 17.9671 86.638 14.7044 86.7192 14.1618L86.7956 13.6521H88.6793C91.1423 13.6521 91.6336 13.8534 91.6336 14.862C91.6336 15.1972 91.6717 15.2692 91.8493 15.2692C92.0561 15.2692 92.0649 15.1972 92.0649 13.4904C92.0649 11.623 91.9328 11.1867 91.6516 12.1253C91.4122 12.9243 91.3396 12.9471 88.935 12.9844L86.7976 13.0177L86.7219 12.5121C86.637 11.9477 86.7531 8.98108 86.8784 8.51042C86.9752 8.14706 87.38 8.07405 89.3914 8.05707C91.6482 8.03772 92.2806 8.30871 92.2806 9.29384C92.2806 10.4111 92.7162 10.0219 92.9156 8.72639C93.1203 7.39896 93.119 7.39523 92.523 7.42511C92.2415 7.43903 90.2281 7.46382 88.0493 7.48012ZM116.564 7.48012C113.18 7.50525 112.548 7.53411 112.548 7.66316C112.548 7.74737 112.657 7.84687 112.79 7.88423C113.716 8.14333 113.737 8.23026 113.809 11.9273C113.914 17.3844 113.721 18.845 112.875 18.9876C112.564 19.0402 112.44 19.1143 112.44 19.2464C112.44 19.4185 112.764 19.4321 117.013 19.4355L121.586 19.4396L121.862 18.6042C122.411 16.943 122.294 15.7551 121.711 17.0751C121.063 18.5421 118.885 19.188 116.146 18.7258L115.378 18.5964L115.31 18.1037C115.273 17.8327 115.243 16.7202 115.243 15.6315V13.6521L117.102 13.6527C119.689 13.6534 119.99 13.7679 120.156 14.8111C120.212 15.1608 120.277 15.2692 120.431 15.2692C120.621 15.2692 120.633 15.1568 120.633 13.4826C120.633 11.5575 120.482 11.1731 120.128 12.1966C119.865 12.9583 119.901 12.9474 117.436 12.9865L115.216 13.0215L115.261 10.6963C115.293 9.02862 115.344 8.33282 115.442 8.23603C115.687 7.99052 119.731 8.0496 120.202 8.30531C120.759 8.60822 120.851 8.77937 120.777 9.36685C120.719 9.83446 120.733 9.87894 120.938 9.87894C121.217 9.87894 121.364 9.41507 121.46 8.23502L121.528 7.3993L121.053 7.42511C120.793 7.43903 118.772 7.46382 116.564 7.48012ZM125.409 7.53683C123.612 7.65738 123.212 7.82446 124.153 8.06149C124.959 8.26456 124.978 8.36202 125.028 12.4122C125.095 17.7624 124.963 18.6674 124.072 19.0178C123.235 19.3465 123.538 19.442 125.457 19.4532C126.45 19.4589 127.383 19.478 127.529 19.4956C128.079 19.5615 127.898 19.2029 127.284 19.0093C126.451 18.7465 126.426 18.6626 126.37 15.9701L126.323 13.7061L127.298 13.76L128.273 13.8137L129.155 15.0535C131.672 18.5913 133.105 19.7744 135.007 19.8848C135.989 19.9415 136.188 19.6725 135.348 19.4226C133.993 19.0188 133.01 18.0262 130.827 14.8589C130.366 14.1889 130.005 13.6245 130.027 13.6052C130.048 13.5862 130.309 13.448 130.605 13.2985C133.195 11.9928 133.045 8.76409 130.344 7.70425C129.619 7.41934 127.982 7.36398 125.409 7.53683ZM95.2991 7.69644C95.2991 7.88015 95.3894 7.93075 95.8228 7.99018C97.4538 8.21464 97.5696 8.6853 97.25 13.7831C96.961 18.3937 96.8317 18.8076 95.6197 19.0015C95.3093 19.0511 95.1911 19.1221 95.1911 19.2589C95.1911 19.4328 95.3596 19.4467 97.3471 19.4338C99.293 19.4209 99.5028 19.4019 99.5032 19.2375C99.5035 19.1041 99.3724 19.0358 99.0108 18.9815C98.7225 18.9384 98.3801 18.7917 98.1859 18.6283L97.8541 18.3492L97.921 15.7582C97.9845 13.3135 98.1445 10.7924 98.2732 10.2104C98.3649 9.7971 101.604 16.0628 102.421 18.2337C102.915 19.5455 103.077 19.6145 103.435 18.665C103.858 17.5454 104.636 15.9578 106.272 12.8751L107.858 9.88845L107.941 10.6114C107.987 11.0091 108.036 12.7895 108.049 14.5686C108.079 18.5064 108.074 18.5234 106.592 18.9777C106.29 19.0701 106.342 19.515 106.646 19.4338C106.779 19.3978 107.822 19.3679 108.963 19.3673C110.925 19.3659 111.038 19.3547 111.038 19.1621C111.038 19.0124 110.932 18.9387 110.636 18.883C109.642 18.6966 109.56 18.4786 109.424 15.6777C109.305 13.2374 109.296 9.21064 109.408 8.81061C109.508 8.45235 109.949 8.14944 110.473 8.07949C110.776 8.03874 110.928 7.95927 110.964 7.82412C111.043 7.52087 110.983 7.50729 109.567 7.50729H108.24L108.011 7.96539C106.154 11.6906 103.43 16.5562 103.301 16.3806C102.743 15.6206 99.3388 8.93931 98.931 7.80374C98.8783 7.65636 98.7384 7.61494 98.2939 7.6146C97.9808 7.61426 97.179 7.58267 96.5118 7.5443C95.3368 7.47639 95.2991 7.48114 95.2991 7.69644ZM129.337 8.1688C130.262 8.61229 130.987 9.79405 130.981 10.8491C130.971 12.471 129.414 13.413 127.144 13.1698L126.434 13.0938L126.471 10.7354C126.513 8.08085 126.503 8.11243 127.323 7.94331C127.965 7.81054 128.78 7.90154 129.337 8.1688ZM47.9234 8.19359C48.9062 8.65135 49.4842 9.74209 49.3208 10.8311C49.13 12.1042 48.4005 12.6078 46.5984 12.7111L45.9246 12.7494L45.9311 11.9341C45.9457 10.0222 46.1039 8.13518 46.2578 8.03806C46.542 7.85808 47.3685 7.93516 47.9234 8.19359ZM48.7473 13.5858C51.052 14.68 51.1026 17.8575 48.8281 18.6697C47.7618 19.0501 46.2788 18.9723 46.0764 18.5251C45.9742 18.2999 45.8778 13.6062 45.9701 13.3654C46.0849 13.0663 47.9676 13.2157 48.7473 13.5858ZM0.835376 20.9477L0 20.9918V27.9407V34.8896H8.56838H17.1368L17.2081 34.6054C17.5011 33.4382 16.9765 30.0675 16.2314 28.3285C13.9226 22.9397 8.88012 20.5222 0.835376 20.9477ZM62.2491 22.6537C62.1449 22.9814 61.9887 23.6423 61.988 23.7588C61.987 23.9988 62.3133 23.9014 62.4162 23.6307C62.5602 23.2521 62.8478 23.139 63.6655 23.139H64.3871L64.3335 25.2142C64.2724 27.5706 64.2574 27.6354 63.7558 27.7295C62.8366 27.902 63.3629 28.098 64.7454 28.098C66.1081 28.098 66.4803 27.9642 65.7 27.7557C65.1434 27.6066 65.1138 27.4796 65.1138 25.2203V23.139H65.8059C66.7 23.139 66.8386 23.1984 66.8386 23.5815C66.8386 24.3187 67.2987 23.8314 67.441 22.9438L67.5045 22.5461H64.8941C63.2485 22.5461 62.2708 22.5858 62.2491 22.6537ZM75.9751 22.5661C75.1913 22.613 75.0558 22.7274 75.571 22.9071L75.8943 23.0198L75.8926 25.2084C75.8909 27.5543 75.8837 27.594 75.4273 27.7675C74.881 27.9754 75.2365 28.098 76.3857 28.098C77.3144 28.098 77.5114 28.0698 77.5114 27.9363C77.5114 27.8392 77.4119 27.7743 77.2635 27.7743C76.8441 27.7743 76.7568 27.576 76.7568 26.6211V25.7263L77.1609 25.7273C77.5423 25.7283 77.5864 25.7657 77.9426 26.3868C78.6612 27.6409 79.4035 28.1587 80.3683 28.0796C80.8726 28.0378 80.8556 27.8816 80.3269 27.7C79.8518 27.5366 79.3502 27.0296 78.8717 26.2296L78.4958 25.601L78.974 25.1432C79.4175 24.7181 79.4518 24.6454 79.4518 24.1326C79.4518 22.7206 78.74 22.3997 75.9751 22.5661ZM90.367 22.5716C89.7452 22.615 89.6158 22.7838 90.1259 22.8857C90.5643 22.9736 90.5877 23.1152 90.5364 25.3772C90.4913 27.3767 90.4145 27.7309 90.0125 27.794C89.8916 27.8127 89.7941 27.8769 89.7965 27.9363C89.8033 28.1323 92.1729 28.1356 92.1729 27.9397C92.1729 27.8276 92.0676 27.7743 91.8466 27.7743C91.4401 27.7743 91.3104 27.4857 91.3104 26.5817V25.9419L91.8764 25.9413C93.4942 25.9396 94.4994 24.9239 94.1238 23.6705C93.8253 22.6748 92.8731 22.3963 90.367 22.5716ZM97.2178 22.5655C97.1166 22.5919 97.0008 22.7196 96.96 22.8493C96.6934 23.6952 94.9317 27.4354 94.7055 27.6344C94.263 28.0253 94.3646 28.098 95.3531 28.098C96.0958 28.098 96.2693 28.0674 96.2693 27.9363C96.2693 27.8473 96.1783 27.7743 96.0669 27.7743C95.6577 27.7743 95.585 27.5095 95.8098 26.8347L96.0173 26.2112L97.0497 26.1807L98.082 26.1498L98.3194 26.8639C98.5605 27.5876 98.5377 27.7234 98.1649 27.791C97.4898 27.9132 97.9333 28.098 98.9014 28.098C99.9986 28.098 100.088 28.0453 99.6831 27.6405C99.4366 27.394 98.6396 25.475 97.9587 23.4895C97.7706 22.941 97.5682 22.4979 97.5091 22.5047C97.4497 22.5115 97.3186 22.539 97.2178 22.5655ZM101.633 22.5658C100.823 22.6147 100.757 22.6765 101.229 22.9451L101.552 23.1288V25.2122C101.552 27.4344 101.48 27.7743 101.006 27.7743C100.891 27.7743 100.797 27.8473 100.797 27.9363C100.797 28.0701 101.001 28.098 101.983 28.098C102.965 28.098 103.169 28.0701 103.169 27.9363C103.169 27.8409 103.069 27.7737 102.926 27.773C102.457 27.7696 102.379 27.6246 102.328 26.6513L102.279 25.7263H102.716C103.135 25.7263 103.17 25.7531 103.548 26.3766C104.345 27.6884 104.895 28.098 105.859 28.098C106.496 28.098 106.629 27.8409 106.049 27.7322C105.592 27.6463 105.118 27.2065 104.574 26.3661C104.053 25.5602 104.048 25.509 104.468 25.2706C105.074 24.9252 105.291 23.9231 104.898 23.2789C104.49 22.6096 103.715 22.4405 101.633 22.5658ZM106.631 23.0663C106.472 23.7537 106.479 23.8936 106.672 23.8936C106.761 23.8936 106.834 23.843 106.834 23.7808C106.834 23.4158 107.367 23.139 108.069 23.139H108.774V25.2889C108.774 27.6137 108.731 27.7743 108.104 27.7743C107.999 27.7743 107.912 27.8487 107.912 27.9394C107.912 28.0803 108.106 28.1 109.233 28.0742C110.528 28.0446 110.929 27.9139 110.189 27.7628C109.655 27.6534 109.64 27.5896 109.639 25.2682L109.637 23.139H110.37C111.157 23.139 111.362 23.2436 111.362 23.6457C111.362 24.1146 111.67 23.9153 111.843 23.335C111.934 23.0276 112.009 22.7244 112.009 22.6612C112.009 22.5824 111.173 22.5461 109.38 22.5461H106.751L106.631 23.0663ZM126.643 22.5661C125.86 22.613 125.724 22.7274 126.239 22.9071L126.562 23.0198L126.561 25.2084C126.559 27.5543 126.552 27.594 126.096 27.7675C125.549 27.9754 125.904 28.098 127.054 28.098C128.237 28.098 128.569 27.9339 127.829 27.7159L127.479 27.6127L127.448 26.6693L127.416 25.7263H127.825C128.205 25.7263 128.255 25.7654 128.549 26.2887C128.96 27.0208 129.653 27.7686 130.089 27.9523C130.58 28.1584 131.521 28.1479 131.521 27.9363C131.521 27.845 131.425 27.7743 131.3 27.7743C130.756 27.7743 130.155 27.2442 129.547 26.2268L129.17 25.5956L129.645 25.1402C130.085 24.7181 130.12 24.6451 130.12 24.1326C130.12 22.7206 129.408 22.3997 126.643 22.5661ZM132.817 22.6782C131.445 23.3777 131.688 24.7717 133.311 25.5219C134.643 26.1372 134.993 26.5892 134.645 27.2415C134.204 28.0657 132.497 27.8079 132.156 26.8656C131.86 26.0479 131.624 26.595 131.804 27.6816L131.869 28.0742L132.874 28.1496C134.667 28.2837 135.505 27.8609 135.592 26.778C135.659 25.9402 135.391 25.618 134.055 24.932C132.81 24.2922 132.582 24.025 132.811 23.4721C133.176 22.5913 134.676 22.6989 134.907 23.6222C135.05 24.1938 135.295 23.9347 135.295 23.211V22.5288L134.243 22.5077C133.419 22.4914 133.111 22.5281 132.817 22.6782ZM43.0141 22.6748C43.0141 22.7159 43.1339 22.8752 43.2806 23.0283C43.5404 23.2993 44.6335 25.9066 45.1001 27.3678C45.4502 28.464 45.7504 28.4223 46.2442 27.2086C46.829 25.7704 48.1353 23.0972 48.3313 22.937C48.663 22.6653 48.5187 22.5998 47.5866 22.5998C46.6778 22.5998 46.2934 22.8157 47.0443 22.904C47.2062 22.9234 47.3635 23.0028 47.3937 23.0813C47.4416 23.2062 46.6592 25.2485 46.0615 26.559L45.854 27.0143L45.1874 25.2651C44.4036 23.2079 44.3666 23.0181 44.7307 22.9281C45.4051 22.7614 45.0686 22.5998 44.0471 22.5998C43.479 22.5998 43.0141 22.6337 43.0141 22.6748ZM49.5086 22.7346C49.5331 22.8086 49.6529 22.8843 49.7748 22.9023C50.3759 22.9913 50.2744 27.6847 49.6696 27.7546C49.5011 27.7743 49.3745 27.8552 49.3745 27.9434C49.3745 28.0721 49.7236 28.098 51.4792 28.098H53.584L53.6801 27.8456C54.0461 26.8826 53.8363 26.1321 53.4359 26.9719C53.2023 27.4619 52.7224 27.6667 51.8073 27.6667C50.9372 27.6667 50.8836 27.5889 50.8836 26.3263V25.4027H51.6921C52.5323 25.4027 52.932 25.5939 52.932 25.9956C52.932 26.0846 52.9985 26.1576 53.0797 26.1576C53.1924 26.1576 53.2287 25.9416 53.2338 25.241C53.2393 24.5147 53.2087 24.3248 53.0865 24.3248C53.0016 24.3248 52.932 24.3941 52.932 24.4787C52.932 24.8396 52.6124 24.9714 51.7383 24.9714H50.8836V24.0012V23.031L51.8809 23.0327C53.0223 23.0348 53.1411 23.0826 53.2437 23.5832C53.3751 24.2267 53.6281 24.0409 53.6648 23.2735L53.697 22.5998H51.5804C49.9358 22.5998 49.474 22.63 49.5086 22.7346ZM54.9318 22.6989C54.8981 22.7536 55.0357 22.8527 55.2377 22.9193C55.8106 23.1084 55.8823 23.4131 55.8154 25.3809C55.7495 27.3237 55.6727 27.6157 55.2024 27.7193C54.3748 27.901 54.8482 28.098 56.1122 28.098C57.1425 28.098 57.352 28.0704 57.352 27.9363C57.352 27.8399 57.2528 27.7743 57.1065 27.7743C56.4416 27.7743 56.3814 27.6008 56.3855 25.693L56.3896 23.9476L57.4657 25.0794C58.0576 25.7018 58.9134 26.6479 59.3677 27.1814C60.522 28.537 60.4778 28.5914 60.5074 25.7643C60.5339 23.2042 60.5967 22.9234 61.1417 22.9234C61.2511 22.9234 61.3407 22.8504 61.3407 22.7617C61.3407 22.6276 61.137 22.5998 60.1549 22.5998C58.9816 22.5998 58.5901 22.7346 59.3494 22.8772C59.8982 22.9801 59.9488 23.1624 59.9152 24.9174L59.8853 26.4832L58.1106 24.5415L56.3356 22.5998H55.6642C55.2951 22.5998 54.9654 22.6446 54.9318 22.6989ZM68.2401 22.7003C68.2401 22.7556 68.3328 22.8303 68.4462 22.8663C68.8985 23.01 68.941 23.1988 68.941 25.0692C68.941 27.5736 69.2333 28.0474 70.8586 28.1767C72.7799 28.3292 73.4201 27.6018 73.4893 25.187C73.545 23.2456 73.582 23.0443 73.9057 22.921C74.4449 22.7159 74.1702 22.5998 73.1453 22.5998C72.1021 22.5998 71.8638 22.7047 72.4451 22.9074C72.9056 23.068 72.9837 23.3808 72.9837 25.0706C72.9837 27.1172 72.6431 27.6107 71.2393 27.5988C69.995 27.5879 69.7495 27.1566 69.7495 24.9819C69.7495 23.2375 69.8147 22.9804 70.2799 22.8874C71.009 22.7414 70.5883 22.5998 69.4259 22.5998C68.7644 22.5998 68.2401 22.6442 68.2401 22.7003ZM81.5001 22.7105C81.5001 22.7712 81.6142 22.8643 81.7535 22.9173C82.3637 23.1492 82.2126 27.7743 81.5949 27.7743C81.4835 27.7743 81.3925 27.8484 81.3925 27.9384C81.3925 28.0806 81.6747 28.0986 83.5206 28.0732L85.6492 28.044L85.7745 27.505C86.0047 26.5118 85.82 26.2041 85.4539 26.9719C85.2172 27.4684 84.7387 27.6667 83.7791 27.6667C82.8873 27.6667 82.9016 27.6877 82.9016 26.3644V25.4027H83.5954C84.4491 25.4027 84.8145 25.531 84.8606 25.8469C84.9455 26.4238 85.1656 26.1695 85.167 25.4927C85.1676 25.1171 85.1975 24.7008 85.2335 24.5673C85.2804 24.3921 85.2518 24.3248 85.1313 24.3248C85.0396 24.3248 84.9303 24.4338 84.8888 24.5673C84.7768 24.9256 84.6549 24.968 83.737 24.97L82.9016 24.9714V24.0012V23.031H83.8477C84.9513 23.031 85.2732 23.1787 85.2732 23.684C85.2732 23.8942 85.3279 24.0012 85.4349 24.0012C85.5239 24.0012 85.5965 23.9112 85.5965 23.8009C85.5965 23.6905 85.6274 23.375 85.6651 23.1L85.7337 22.5998H83.6171C82.2435 22.5998 81.5001 22.6388 81.5001 22.7105ZM112.656 22.6992C112.656 22.7539 112.823 22.8538 113.027 22.9213C113.582 23.1044 113.669 23.4912 113.598 25.4512C113.531 27.2582 113.43 27.6215 112.964 27.7237C112.156 27.9013 112.645 28.098 113.895 28.098C114.925 28.098 115.135 28.0704 115.135 27.9363C115.135 27.8375 115.035 27.7743 114.877 27.7743C114.266 27.7743 114.19 27.557 114.133 25.6102L114.08 23.8233L114.635 24.4233C114.94 24.7531 115.62 25.4845 116.148 26.0486C116.675 26.6123 117.301 27.3305 117.539 27.6446C118.232 28.5591 118.258 28.4919 118.289 25.7643C118.317 23.2046 118.38 22.9234 118.925 22.9234C119.034 22.9234 119.124 22.8504 119.124 22.7617C119.124 22.6276 118.92 22.5998 117.938 22.5998C117.286 22.5998 116.752 22.6432 116.752 22.6962C116.752 22.8123 117.018 22.9234 117.296 22.9234C117.658 22.9234 117.73 23.2799 117.698 24.9239L117.669 26.4965L115.894 24.5483L114.119 22.5998H113.387C112.985 22.5998 112.656 22.6446 112.656 22.6992ZM120.31 22.7105C120.31 22.7712 120.427 22.8653 120.57 22.9196C121.231 23.1709 121.074 27.7743 120.404 27.7743C120.293 27.7743 120.202 27.8484 120.202 27.9384C120.202 28.0806 120.484 28.0986 122.324 28.0732L124.446 28.044L124.586 27.505C124.836 26.5382 124.632 26.2 124.264 26.9719C124.031 27.4595 123.55 27.6667 122.653 27.6667C121.752 27.6667 121.711 27.612 121.711 26.4055V25.4027H122.405C123.28 25.4027 123.605 25.5246 123.696 25.8876C123.834 26.4387 123.997 26.0985 124.019 25.2105C124.036 24.5415 124.007 24.3248 123.9 24.3248C123.823 24.3248 123.759 24.3941 123.759 24.4787C123.759 24.8396 123.44 24.9714 122.566 24.9714H121.711V23.9914V23.011L122.793 23.048C123.963 23.0881 124.078 23.1465 124.081 23.7048C124.084 24.1571 124.366 24.0735 124.445 23.5971C124.482 23.3747 124.512 23.0595 124.513 22.8962L124.514 22.5998H122.412C121.048 22.5998 120.31 22.6388 120.31 22.7105ZM77.9861 23.046C79.2066 23.6019 78.4371 25.5782 77.0753 25.3864C76.8152 25.3494 76.6071 23.5764 76.803 23.0657C76.8709 22.8887 77.6143 22.8765 77.9861 23.046ZM92.8843 23.2898C93.7835 24.1893 93.0888 25.6183 91.7522 25.6183H91.3104V24.2708V22.9234H91.9141C92.4568 22.9234 92.5546 22.9604 92.8843 23.2898ZM103.764 23.1675C104.563 23.8552 104.19 25.1745 103.147 25.3521C102.298 25.4964 102.144 25.1103 102.375 23.4236L102.444 22.9234H102.962C103.345 22.9234 103.554 22.9869 103.764 23.1675ZM128.863 23.2049C129.786 24.1279 128.875 25.7406 127.65 25.3517C127.423 25.2801 127.289 23.2032 127.497 22.995C127.699 22.793 128.587 22.9291 128.863 23.2049ZM97.556 24.6997C97.7377 25.1724 97.8864 25.5969 97.8864 25.6428C97.8864 25.6886 97.5173 25.7263 97.0663 25.7263C96.3304 25.7263 96.2533 25.7069 96.3168 25.5375C96.7012 24.5075 97.0813 23.6925 97.1461 23.7584C97.1899 23.8032 97.3743 24.2267 97.556 24.6997Z" fill="#2C1338"/>
</svg>
