<svg width="105" height="43" viewBox="0 0 105 43" fill="none" xmlns="http://www.w3.org/2000/svg">
<path d="M13.1639 37.6907H13.4765C14.4838 37.6907 15.5779 37.4996 15.5779 36.2492C15.5779 35.0162 14.397 34.8599 13.4244 34.8599H13.1639V37.6907ZM13.1639 41.8934H12.174V33.9742H13.3029C15.7342 33.9742 16.4983 34.8078 16.4983 36.2666C16.4983 37.9338 15.2306 38.5764 13.7197 38.5764H13.1639V41.8934ZM13.1639 41.9281V41.8239V41.9281ZM24.3133 35.8151L22.9066 39.0105H25.72L24.3133 35.8151ZM22.4898 39.9136L21.5868 41.8934H20.5274L24.3133 33.6442L28.0993 41.8934H27.0399L26.1368 39.9136H22.4898ZM33.9518 37.7254H34.2644C35.2717 37.7254 36.3658 37.5344 36.3658 36.284C36.3658 35.0509 35.1849 34.8599 34.2123 34.8599H33.9518V37.7254ZM37.8941 41.8934H36.6958L34.3513 38.5416H33.9345V41.8934H32.9619V33.9742H34.1602C34.8723 33.9742 35.619 33.9916 36.2442 34.3389C36.9042 34.721 37.2862 35.4677 37.2862 36.2319C37.2862 37.3607 36.5221 38.3159 35.3933 38.4548L37.8941 41.8934ZM44.997 41.8934H44.0071V34.8773H42.1315V33.9742H46.8726V34.8773H44.997V41.8934ZM44.997 41.9281V41.8239V41.9281ZM51.77 33.6095L57.7094 39.8441V33.9742H58.6993V42.2234L52.7599 35.9887V41.8934H51.77V33.6095ZM64.5172 33.9742H68.772V34.8773H65.5071V37.1002H68.6852V38.0033H65.5071V40.9903H68.772V41.8934H64.5172V33.9742ZM75.1803 37.7254H75.4929C76.5002 37.7254 77.5943 37.5344 77.5943 36.284C77.5943 35.0509 76.4133 34.8599 75.4408 34.8599H75.1803V37.7254ZM79.1225 41.8934H77.9242L75.5971 38.5416H75.1803V41.8934H74.1904V33.9742H75.3887C76.1007 33.9742 76.8475 33.9916 77.4727 34.3389C78.1326 34.721 78.5147 35.4677 78.5147 36.2319C78.5147 37.3607 77.7506 38.3159 76.6217 38.4548L79.1225 41.8934ZM87.6148 35.4851C87.3196 34.9988 86.9375 34.7383 86.3471 34.7383C85.7219 34.7383 85.0272 35.1725 85.0272 35.8672C85.0272 36.4924 85.635 36.805 86.1387 36.996L86.7118 37.2218C87.8406 37.6559 88.6742 38.2811 88.6742 39.601C88.6742 41.0424 87.5627 42.0671 86.1387 42.0671C84.8535 42.0671 83.8636 41.1293 83.69 39.8441L84.6799 39.6357C84.6625 40.5041 85.3572 41.1293 86.2081 41.1293C87.0591 41.1293 87.6669 40.4172 87.6669 39.5836C87.6669 38.7327 86.9896 38.368 86.295 38.0901L85.7566 37.8643C84.8535 37.4823 84.0373 36.9613 84.0373 35.8498C84.0373 34.5647 85.1661 33.8005 86.3644 33.8005C87.2501 33.8005 87.9795 34.2347 88.3963 34.9988L87.6148 35.4851ZM87.6148 35.5025L87.7017 35.4504L87.6148 35.5025ZM22.8719 27.3922L22.9935 27.0623C23.3408 26.1245 23.5492 25.6208 23.5492 19.8725V13.9678C23.5492 12.6827 23.5318 11.5712 23.2019 10.8244C22.8545 10.095 22.2467 9.64348 20.8053 9.64348C18.3045 9.64348 16.9499 10.9634 16.2899 11.6233V19.8898C16.2899 22.4948 16.2899 23.7973 16.4289 25.204C16.5157 26.1939 16.672 26.5413 16.863 27.0796L16.9672 27.4096H11.3925L11.5488 27.0623C11.7399 26.6455 11.8788 26.3502 11.983 25.3951C12.0872 24.4399 12.1393 22.8248 12.1393 19.9072V13.5684C12.1393 12.7348 12.1393 11.7449 11.7746 10.9981C11.4099 10.2687 10.7673 9.73032 9.25643 9.71295C7.2419 9.71295 6.00887 10.7029 4.88003 11.658V19.9072C4.88003 22.5122 4.88003 23.8147 5.01897 25.2214C5.1058 26.2113 5.2621 26.5586 5.45313 27.097L5.55733 27.427H0.0694666L0.191033 27.097C0.538366 26.1592 0.746767 25.6556 0.746767 19.9072V16.1213C0.746767 15.8608 0.746767 12.0748 0.607833 10.2339C0.521 9.10512 0.3126 8.58412 0.0868333 7.95892L0 7.73315L4.4806 6.13542L4.689 8.02839C5.5747 7.26425 7.3461 6.03122 10.2637 6.04858C11.132 6.04858 12.7124 6.18752 14.1365 7.05585C14.7096 7.38582 15.0395 7.78525 15.3348 8.18468C16.2552 7.43792 18.2871 6.04858 21.4999 6.04858C23.3582 6.04858 25.9805 6.65642 27.0399 8.54939C27.5956 9.62612 27.6825 10.5986 27.6825 12.7521V19.8898C27.6825 22.929 27.7346 24.1099 27.8214 25.204C27.9082 26.1592 28.0645 26.5413 28.2556 27.097L28.3598 27.427H22.8719V27.3922ZM50.8843 25.7077C50.2765 24.5267 50.2765 23.1027 50.2765 21.9565V10.0082H48.1578V6.46539V6.18752L48.4356 6.22225C49.2345 6.30908 49.5818 6.34382 50.3286 6.37855V1.67218L54.4792 0.17865V6.39592H57.9699C58.6125 6.39592 59.203 6.30908 59.8455 6.13542L60.1929 6.04858L60.1581 6.41329C60.0192 7.61159 59.9324 8.37572 59.7761 8.93145C59.6198 9.46982 59.3419 9.81715 58.8904 9.93872C58.6125 10.0256 58.2825 10.0256 57.8831 10.0256H54.4792V21.1402C54.4792 22.0954 54.5487 22.8943 54.7918 23.4153C55.035 23.9189 55.3997 24.1794 56.2159 24.1968C57.6921 24.1968 59.0119 23.2069 60.0887 22.0259L60.5402 21.5397L60.5228 22.1996C60.4534 24.0752 60.3665 25.0651 60.2102 25.6556C60.0713 26.246 59.7587 26.5065 59.4808 26.6628C58.7688 27.1317 57.2405 27.7569 55.1565 27.7569H55.1218C52.7599 27.7396 51.4922 26.8886 50.8843 25.7077ZM62.7631 27.3922L62.8847 27.0623C63.232 26.1245 63.4404 25.6208 63.4404 19.8725V16.1386C63.4404 14.3325 63.4404 11.9533 63.3015 10.1992C63.2494 9.08775 63.0584 8.56675 62.8326 7.94155L62.7458 7.71579L67.0527 6.11805L67.2958 7.99365C68.1294 7.17742 69.5361 6.03122 71.8285 6.03122C71.9501 6.03122 72.3322 6.03122 72.7316 6.15279C73.1137 6.25699 73.5652 6.55222 73.5652 7.12532C73.5652 7.43792 73.461 7.71579 73.3394 8.20205L72.6448 10.4771L72.4016 10.3903C72.0022 10.2513 71.707 10.1298 71.0644 10.1298C69.1193 10.1298 67.9731 11.2412 67.5216 11.7101V19.8898C67.5216 22.929 67.5563 24.1099 67.6432 25.204C67.73 26.1592 67.8863 26.5413 68.0773 27.0796L68.1815 27.4096H62.7631V27.3922ZM75.736 27.3922L75.8576 27.0623C76.1876 26.1766 76.4133 25.6208 76.4133 19.8898V16.0518C76.4133 14.3325 76.4133 11.8664 76.2744 10.2166C76.1876 9.13985 75.9792 8.51465 75.7708 7.94155L75.6839 7.69842L80.564 6.10069V19.8725C80.564 22.9116 80.6161 24.0926 80.7029 25.1867C80.7897 26.1418 80.946 26.5239 81.1371 27.0623L81.2413 27.3922H75.736ZM89.7336 6.37855H89.942L89.9767 6.58695C90.1851 7.99365 90.8277 9.22668 91.6613 10.4076L94.1273 13.9331C97.8959 9.57402 98.3127 8.27152 98.6253 6.58695L98.66 6.37855H103.297L103.175 6.70852C101.769 10.616 99.2158 13.8983 96.2982 16.8333L100.796 23.2763C102.116 25.1519 102.845 25.9334 103.818 26.9928L104.2 27.4096H97.9133V27.1665C97.8959 26.2287 97.9133 26.0897 96.3676 23.7452L93.3979 19.3862C92.0954 20.7582 89.2994 23.9189 88.6916 27.1838L88.6568 27.3922H83.7421L83.8636 27.0623C85.4093 22.9811 88.1879 19.5946 91.175 16.5033L87.2849 10.8071C86.3123 9.40035 85.3051 8.04575 84.211 6.77798L83.8636 6.37855H89.7336ZM41.1243 21.4702C41.0374 22.217 40.9159 23.0679 39.7349 23.7973C39.1271 24.162 38.4324 24.3357 37.8072 24.3357C35.6017 24.3357 35.3064 22.6511 35.3064 21.8349C35.3064 18.8826 38.4151 18.1184 41.1243 17.9795V21.4702ZM46.89 25.6903C45.8306 24.7699 45.3617 24.2315 45.3444 21.557V11.7796C45.3444 10.8071 45.3617 9.38298 44.5281 8.16732C43.6945 6.95165 42.0447 6.03122 38.9013 6.03122C37.1126 6.03122 35.3238 6.39592 33.9866 6.93429C32.6667 7.49002 31.6942 8.14995 31.6594 9.03565C31.6594 9.34825 31.7463 9.67822 31.7463 9.74769V9.78242V9.81715L32.4236 12.3527L32.7188 12.0401C35.0633 9.55665 37.9288 9.55665 38.363 9.55665C39.7349 9.55665 40.3601 9.92135 40.7075 10.4597C41.0548 10.9981 41.1069 11.7796 41.1069 12.6653V14.4193C38.9361 14.5756 36.5395 14.9924 34.6291 16.0692C32.6493 17.1633 31.1905 19.0215 31.2079 21.8696C31.2079 23.12 31.5031 24.5788 32.3715 25.7598C33.2398 26.9407 34.6986 27.7917 36.9215 27.7917H36.9389C39.7349 27.7917 41.2979 26.6281 42.0447 25.9508C42.5831 27.3401 43.2256 27.7743 43.6945 27.7917C44.0245 27.7743 44.3371 27.5833 44.5108 27.4964L47.1505 25.8987L46.89 25.6903Z" fill="#2C1338"/>
</svg>
