<svg xmlns="http://www.w3.org/2000/svg" width="150" height="23" fill="none" viewBox="0 0 150 23"><path fill="#2C1338" d="M28.334 17.736l1.097-2.57c1.203.887 2.766 1.353 4.329 1.353 1.142 0 1.879-.451 1.879-1.127-.03-1.88-6.914-.421-6.975-5.156-.03-2.405 2.12-4.269 5.141-4.269 1.804 0 3.607.451 4.885 1.458l-1.022 2.615c-1.172-.751-2.63-1.277-4.013-1.277-.947 0-1.563.45-1.563 1.022.03 1.864 6.974.842 7.049 5.366 0 2.465-2.09 4.178-5.065 4.178-2.195.03-4.21-.495-5.742-1.593zm43.664-3.487a3.178 3.178 0 01-2.765 1.623 3.188 3.188 0 01-3.187-3.186 3.188 3.188 0 013.187-3.187 3.16 3.16 0 012.765 1.624l3.051-1.699a6.665 6.665 0 00-5.816-3.427c-3.683 0-6.674 2.991-6.674 6.689s2.991 6.689 6.674 6.689a6.665 6.665 0 005.816-3.427L72 14.249zm-30.873 4.84h3.818V.421h-3.818v18.668zM76.973.421v18.668h3.818v-5.591l4.525 5.591h4.87l-5.742-6.644 5.32-6.207h-4.659l-4.314 5.155V.406h-3.818V.42zM56.682 6.253V7.77c-.631-1.052-2.165-1.774-3.788-1.774-3.337 0-5.982 2.961-5.982 6.674 0 3.713 2.63 6.704 5.982 6.704 1.623 0 3.157-.737 3.788-1.774v1.518H60.5V6.268h-3.818v-.015zm0 8.011c-.541.917-1.699 1.593-2.976 1.593a3.188 3.188 0 01-3.187-3.186 3.188 3.188 0 013.187-3.187c1.277 0 2.435.707 2.976 1.654v3.126zM8.192.016a2.245 2.245 0 00-2.24 2.24 2.245 2.245 0 002.24 2.24h2.24v-2.24c0-1.233-.993-2.24-2.24-2.24zm0 5.967H2.24A2.245 2.245 0 000 8.223a2.245 2.245 0 002.24 2.24h5.967a2.245 2.245 0 002.24-2.24 2.258 2.258 0 00-2.255-2.24zM22.366 8.222a2.245 2.245 0 00-2.24-2.24 2.245 2.245 0 00-2.24 2.24v2.24h2.24c1.233.014 2.24-.993 2.24-2.24zm-5.968 0V2.24A2.245 2.245 0 0014.16 0a2.245 2.245 0 00-2.24 2.24v5.982a2.245 2.245 0 002.24 2.24c1.247.014 2.24-.993 2.24-2.24zM14.159 22.426a2.245 2.245 0 002.24-2.24 2.245 2.245 0 00-2.24-2.24h-2.24v2.24a2.245 2.245 0 002.24 2.24zm0-5.982h5.967a2.245 2.245 0 002.24-2.24 2.245 2.245 0 00-2.24-2.24H14.16a2.245 2.245 0 00-2.24 2.24 2.245 2.245 0 002.24 2.24zM0 14.204a2.245 2.245 0 002.24 2.24 2.245 2.245 0 002.24-2.24v-2.24H2.24A2.235 2.235 0 000 14.204zm5.968 0v5.982a2.245 2.245 0 002.24 2.24 2.245 2.245 0 002.24-2.24v-5.982a2.245 2.245 0 00-2.24-2.24 2.235 2.235 0 00-2.24 2.24zM103.106 7.588h-2.82v11.597h-2.23V7.588h-1.741V5.75h1.74v-.957c0-1.503.385-2.598 1.153-3.285.784-.702 2.035-1.054 3.751-1.054v1.863c-.981 0-1.676.196-2.084.589-.392.376-.589 1.005-.589 1.887v.957h2.82v1.838zM117.622 5.75v13.434h-2.231V17.2c-.425.686-1.022 1.225-1.79 1.618-.752.376-1.585.564-2.5.564-1.046 0-1.986-.213-2.82-.638-.833-.441-1.495-1.095-1.986-1.961-.474-.866-.711-1.92-.711-3.163V5.75h2.207v7.576c0 1.324.335 2.346 1.005 3.065.67.703 1.585 1.054 2.746 1.054 1.193 0 2.133-.368 2.819-1.103.687-.736 1.03-1.806 1.03-3.212v-7.38h2.231zM127.935 5.504c1.634 0 2.958.499 3.971 1.496 1.014.98 1.52 2.403 1.52 4.266v7.918h-2.206v-7.6c0-1.34-.335-2.361-1.005-3.064-.67-.72-1.586-1.079-2.746-1.079-1.177 0-2.117.368-2.819 1.103-.687.736-1.03 1.806-1.03 3.212v7.428h-2.231V5.75h2.231v1.912a4.446 4.446 0 011.79-1.594 5.663 5.663 0 012.525-.564zM136.237 12.418c0-1.373.278-2.574.834-3.604.555-1.046 1.315-1.855 2.28-2.427.98-.572 2.075-.858 3.285-.858 1.046 0 2.018.245 2.917.735.899.474 1.586 1.104 2.06 1.888v-7.11h2.255v18.142h-2.255V16.66c-.442.801-1.095 1.463-1.962 1.986-.866.507-1.879.76-3.04.76-1.193 0-2.28-.294-3.26-.882-.965-.589-1.725-1.414-2.28-2.476-.556-1.063-.834-2.272-.834-3.629zm11.376.025c0-1.014-.205-1.896-.613-2.648-.409-.752-.965-1.324-1.667-1.716a4.377 4.377 0 00-2.28-.613c-.834 0-1.594.196-2.28.588-.687.392-1.234.964-1.643 1.716-.409.752-.613 1.635-.613 2.648 0 1.03.204 1.929.613 2.697.409.752.956 1.332 1.643 1.74a4.511 4.511 0 002.28.589c.833 0 1.593-.196 2.28-.588A4.395 4.395 0 00147 15.114c.408-.768.613-1.66.613-2.672z"/></svg>