<svg xmlns="http://www.w3.org/2000/svg" width="88" height="27" fill="none" viewBox="0 0 88 27"><path fill="#2C1338" d="M12.608 9.894a2.728 2.728 0 0 1-2.714 2.714A2.728 2.728 0 0 1 7.18 9.894 2.728 2.728 0 0 1 9.894 7.18a2.728 2.728 0 0 1 2.714 2.714zM9.894 13.66a2.728 2.728 0 0 0-2.714 2.714 2.728 2.728 0 0 0 2.714 2.715 2.728 2.728 0 0 0 2.714-2.715 2.728 2.728 0 0 0-2.714-2.714zm16.373-.525a13.116 13.116 0 0 1-13.133 13.133A13.116 13.116 0 0 1 0 13.134 13.116 13.116 0 0 1 13.134 0a13.116 13.116 0 0 1 13.133 13.134zm-3.502 0a9.604 9.604 0 0 0-9.631-9.632 9.604 9.604 0 0 0-9.632 9.632 9.604 9.604 0 0 0 9.632 9.631 9.604 9.604 0 0 0 9.631-9.631zm-6.392.525a2.728 2.728 0 0 0-2.714 2.714 2.728 2.728 0 0 0 2.714 2.715 2.728 2.728 0 0 0 2.715-2.715 2.728 2.728 0 0 0-2.715-2.714zm0-6.48a2.728 2.728 0 0 0-2.714 2.715 2.728 2.728 0 0 0 2.714 2.714 2.728 2.728 0 0 0 2.715-2.714 2.728 2.728 0 0 0-2.715-2.714zm45.18-2.013c.088 0 .175.087.263.175v2.802c0 .175-.175.263-.263.263h-4.64c-.175 0-.263-.176-.263-.263V5.429c0-.176.175-.263.263-.263h4.64zm-.087 3.94h-8.931c-.088 0-.263.088-.263.263l-1.138 4.378-.088.262-1.4-4.64c0-.088-.176-.263-.263-.263H45.88c-.087 0-.262.088-.262.263l-1.314 4.378-.087.262-.088-.262-.525-2.19-.525-2.188c0-.088-.175-.263-.263-.263H35.81V5.341c0-.088-.175-.263-.35-.175l-4.378 1.4c-.175 0-.262.088-.262.264v2.364h-1.139c-.087 0-.262.087-.262.262v3.328c0 .087.087.262.262.262h1.139v4.115c0 2.89 1.576 4.203 4.465 4.203 1.226 0 2.364-.262 3.152-.7V17.16c0-.175-.175-.262-.263-.175-.437.175-.875.263-1.225.263-.789 0-1.226-.35-1.226-1.226v-2.977h2.539c.087 0 .263-.087.263-.262V9.982l3.327 11.032c0 .088.175.263.262.263h3.678c.087 0 .263-.088.263-.263l1.576-4.903.788 2.539.7 2.364c0 .088.175.263.263.263h3.677c.088 0 .263-.088.263-.263L56.65 9.982v11.032c0 .088.088.263.263.263h4.465c.088 0 .263-.088.263-.263V9.369c0-.088-.088-.263-.175-.263zm5.866-3.94h-4.465c-.088 0-.263.087-.263.263v15.497c0 .088.088.263.263.263h4.465c.088 0 .263-.087.263-.263V5.341c0-.088-.088-.175-.263-.175zm5.954 0h-4.64c-.088 0-.263.087-.263.263v2.714c0 .087.088.263.263.263h4.64c.088 0 .263-.088.263-.263V5.34c0-.088-.088-.175-.263-.175zm-.087 3.94h-4.466c-.087 0-.263.088-.263.263v11.47c0 .087.088.263.263.263H73.2c.087 0 .262-.088.262-.263V9.369c0-.088-.087-.263-.262-.263zm14.097 5.954c0 3.327-2.802 6.217-6.743 6.217-3.852 0-6.654-2.89-6.654-6.217 0-3.327 2.802-6.217 6.742-6.217 3.853 0 6.654 2.89 6.654 6.217zm-4.729.088c0-1.226-.875-2.19-1.926-2.102-1.138 0-1.926.963-1.926 2.102 0 1.138.875 2.101 1.926 2.101 1.138 0 1.926-.963 1.926-2.101z"/></svg>