<svg xmlns="http://www.w3.org/2000/svg" width="140" height="29" fill="none" viewBox="0 0 140 29"><path fill="#2C1338" d="M28.894 0H0v28.894h28.894V0z"/><path fill="#fff" d="M13.484 16.374L8.475 7.03h2.312l2.89 5.875c0 .097.096.193.192.29.096.096.096.192.193.385l.096.096v.096c.096.193.096.29.193.482.096.096.096.289.192.385.096-.289.29-.482.385-.867.097-.289.29-.578.482-.867l2.89-5.875h2.118L15.41 16.47v5.972h-1.926v-6.068z"/><path fill="#2C1338" d="M42.089 7.338c1.445 0 2.697.385 3.66 1.156l-.963 1.155c-.867-.577-1.734-.963-2.793-.963-1.638 0-2.89.867-3.564 2.504-.385.964-.578 2.216-.578 3.853 0 1.252.193 2.312.482 3.082.77 1.83 2.022 2.697 3.949 2.697 1.06 0 2.022-.29 2.89-.963l.962 1.252a7.581 7.581 0 01-4.045 1.156c-1.734 0-3.178-.675-4.334-2.12-1.156-1.348-1.637-3.178-1.637-5.393s.577-3.949 1.733-5.394c1.06-1.252 2.504-2.022 4.238-2.022zM47.58 16.873c0-1.733.385-3.082 1.252-4.045.867-.963 1.926-1.54 3.275-1.54 1.54 0 2.793.577 3.66 1.83.674.962.963 2.31.963 3.948 0 1.926-.578 3.467-1.638 4.43-.77.675-1.733 1.06-2.89 1.06-1.444 0-2.503-.482-3.37-1.541-.867-.963-1.252-2.408-1.252-4.142zm6.742-2.793c-.482-.867-1.156-1.348-2.215-1.348-1.06 0-1.734.385-2.216 1.156-.385.578-.481 1.54-.481 2.793 0 1.637.192 2.793.674 3.467.482.674 1.156 1.06 2.119 1.06 1.156 0 1.926-.578 2.311-1.638.193-.578.29-1.348.29-2.311.096-1.445-.097-2.505-.482-3.179zM59.81 14.273c0-1.06-.096-1.926-.385-2.6l1.638-.386c.289.482.385 1.06.385 1.541v.096c.385-.385.77-.77 1.348-1.059.675-.385 1.253-.578 1.83-.578.867 0 1.638.385 2.12 1.06.096.192.288.481.385.674 1.155-1.156 2.215-1.734 3.37-1.734.771 0 1.445.29 1.927.77.481.579.77 1.253.77 2.023v7.994h-1.733v-7.898c0-1.059-.482-1.54-1.349-1.54-.481 0-1.06.192-1.54.577-.193.193-.579.482-1.06.867l-.193.193v7.801h-1.83v-7.512c0-.674-.096-1.156-.289-1.349-.289-.289-.578-.385-1.06-.385-.77 0-1.637.482-2.696 1.445v7.898h-1.637v-7.898zM76.184 6.953l1.734-.386c.192.77.288 1.638.288 2.697v3.564c.964-.963 2.023-1.445 3.082-1.445 1.253 0 2.312.482 2.986 1.445.77.963 1.156 2.311 1.156 3.949 0 1.733-.385 3.082-1.156 4.141-.77 1.06-1.83 1.541-3.082 1.541-.578 0-1.06-.096-1.637-.385-.578-.289-.963-.578-1.252-.963a9.999 9.999 0 01-.29 1.156h-1.637c.193-.482.29-1.349.29-2.697V9.457c-.097-1.156-.193-2.023-.482-2.504zm2.793 6.549a2.932 2.932 0 00-.77.77v5.49c.674.867 1.54 1.253 2.6 1.253.867 0 1.541-.29 1.926-.964.482-.77.77-1.83.77-3.37 0-1.349-.192-2.312-.673-2.89-.386-.578-1.06-.867-2.023-.867-.578-.096-1.252.096-1.83.578zM87.934 8.3c0-.385.096-.674.385-.963.29-.289.578-.385.963-.385.386 0 .675.096.964.385.288.29.385.578.385.964 0 .385-.097.674-.385.963-.29.289-.578.385-.964.385-.385 0-.674-.096-.963-.385-.289-.29-.385-.578-.385-.963zm.385 13.87V11.575l1.734-.289V22.17h-1.734zM93.81 14.273c0-.77 0-1.252-.096-1.445 0-.289-.192-.578-.385-1.06l1.637-.48c.29.577.386 1.059.386 1.636 1.06-1.059 2.215-1.637 3.37-1.637.579 0 1.06.096 1.542.385.481.29.866.675 1.059 1.156.193.385.289.77.289 1.252v8.09h-1.637v-7.223c0-.867-.097-1.445-.386-1.734a1.595 1.595 0 00-1.155-.481c-.386 0-.963.192-1.541.481a5.612 5.612 0 00-1.445 1.06v7.898H93.81v-7.898zM105.463 13.888l-.867-1.156c1.445-.963 2.889-1.445 4.43-1.445s2.504.578 2.986 1.637c.193.386.193.964.193 1.83v.578l-.097 3.468v.481c0 .578 0 .963.097 1.252.096.386.385.674.77.867l-.867 1.156c-.77-.29-1.252-.77-1.444-1.541-.963.963-2.023 1.444-3.082 1.444-1.06 0-1.927-.288-2.601-.866-.578-.482-.867-1.252-.867-2.215 0-1.253.482-2.12 1.445-2.794.963-.674 2.408-.963 4.142-.963h.77v-.77c0-.867-.096-1.445-.385-1.638-.385-.385-.771-.577-1.445-.577-.578 0-1.252.192-2.023.481-.288.193-.674.482-1.155.77zm5.104 5.682l.097-2.793h-.867c-1.541 0-2.504.289-3.082.867-.385.385-.578.963-.578 1.734 0 1.252.578 1.926 1.83 1.926 1.156-.097 2.022-.674 2.6-1.734zM117.696 11.575h2.697l-.482 1.349h-2.215v6.838c0 .578.096.963.289 1.252.193.193.578.385 1.06.385.385 0 .77-.096 1.059-.192l.193 1.06c-.578.288-1.156.384-1.83.384-1.638 0-2.408-.77-2.408-2.407v-7.32h-1.445v-1.349h1.348v-.192c0-.193.097-.964.193-2.216v-.289l1.734-.385c-.193 1.156-.193 2.215-.193 3.082zM122.125 16.873c0-1.733.386-3.082 1.252-4.045.771-.963 1.927-1.54 3.275-1.54 1.541 0 2.793.577 3.66 1.83.674.962.963 2.31.963 3.948 0 1.926-.578 3.467-1.637 4.43-.771.675-1.734 1.06-2.89 1.06-1.444 0-2.504-.482-3.371-1.541-.77-.963-1.252-2.408-1.252-4.142zm6.839-2.793c-.482-.867-1.156-1.348-2.216-1.348-1.059 0-1.733.385-2.215 1.156-.385.578-.481 1.54-.481 2.793 0 1.637.192 2.793.674 3.467.481.674 1.156 1.06 2.119 1.06 1.155 0 1.926-.578 2.311-1.638.193-.578.289-1.348.289-2.311 0-1.445-.192-2.505-.481-3.179zM134.454 14.08c0-.963-.096-1.733-.385-2.311l1.637-.482c.289.578.385 1.06.385 1.637v.193c.867-1.156 1.83-1.734 2.986-1.734.193 0 .385 0 .578.097l-.674 1.83c-.193-.097-.386-.097-.482-.097-.385 0-.867.097-1.252.386-.385.289-.77.578-.963.963a3.6 3.6 0 00-.193 1.156v6.645h-1.637V14.08z"/></svg>