<svg width="72" height="32" viewBox="0 0 72 32" fill="none" xmlns="http://www.w3.org/2000/svg">
<path d="M21.0935 14.9571L18.1964 11.5878L9.14002 11.5771C4.72988 11.9848 2.31557 15.1717 2.31557 15.1717C-1.24687 19.2707 0.362668 24.11 0.362668 24.11C1.0494 27.6188 3.76416 29.6254 3.76416 29.6254C6.14628 31.5783 9.14002 31.7714 9.14002 31.7714H11.5221C11.6306 31.7562 11.7381 31.7347 11.844 31.707C11.8205 31.6531 11.8131 31.5935 11.8226 31.5354C11.8217 31.3592 11.7775 31.186 11.6938 31.031C11.5114 30.6018 11.1251 30.2477 11.1251 29.7327C11.1358 29.4 10.9856 29.0996 10.7925 28.8206C10.4276 28.3056 10.5564 27.812 10.8247 27.3184C10.8783 27.2218 10.9642 27.1467 10.9534 27.0287C10.8676 26.4921 10.8032 26.0415 10.4169 25.5264C9.89114 24.9363 8.73227 24.2388 8.30306 23.9383C7.97042 23.7023 7.07981 23.6701 7.05835 23.6701C6.99293 23.6793 6.92835 23.6936 6.8652 23.713C6.61841 23.7989 6.41453 23.7345 6.19993 23.5735C5.77072 23.2516 5.38443 22.9082 5.1269 22.4146C4.97668 22.1249 4.60112 21.9532 4.67623 21.5348C4.68696 21.5133 4.65477 20.6656 4.65477 20.6656C4.65477 20.6656 4.80499 20.054 4.93376 19.8608C5.27712 19.3565 5.52392 18.7449 6.17847 18.4981C6.28415 18.4679 6.37842 18.4069 6.44915 18.3227C6.51989 18.2386 6.56389 18.1353 6.57549 18.026C6.5862 17.9375 6.6145 17.852 6.65872 17.7746C6.70295 17.6972 6.76221 17.6295 6.83301 17.5753C7.04762 17.4143 7.59486 17.0173 7.6807 17.0495C7.85239 17.1139 8.06699 17.2212 8.24941 17.1354C8.83957 16.8349 9.47266 16.8671 10.1057 16.8456C10.535 16.8349 10.6315 16.9208 10.5242 17.3178C10.4384 17.5968 10.5779 17.6719 10.7925 17.7255C10.9856 17.7684 11.2002 17.7792 11.329 17.9401C11.4792 18.1225 11.6938 18.1547 11.8977 18.2298C12.0265 18.2835 12.0908 18.2298 12.1338 18.1011C12.2411 17.7577 12.4127 17.6933 12.7454 17.8328C12.9707 17.9294 13.2175 17.9723 13.4536 18.0474C13.8613 18.1762 14.2369 17.8972 14.6446 18.026C14.9558 18.1225 15.7177 19.5282 15.7177 19.5282L16.3186 19.496V18.3157H19.2908C22.3811 17.2427 21.0828 14.9571 21.0935 14.9571Z" fill="black"/>
<path d="M10.5156 25.0971C10.5217 25.1026 10.5256 25.1103 10.5264 25.1185V25.1089H10.5156V25.0971ZM30.343 6.55518H30.8151C30.8151 6.55518 30.7293 7.42433 31.8023 7.72477L34.4419 7.74623C34.4419 7.74623 37.2425 7.92865 37.6825 10.6112C37.6825 10.6112 38.219 12.8968 35.8369 14.238C35.2207 14.4729 34.5737 14.6175 33.9161 14.6672H30.343V6.55518ZM30.343 23.6699H30.8151C30.8151 23.6699 30.7293 24.5713 31.8023 24.8395L34.4419 24.861C34.4419 24.861 37.2533 25.0434 37.6825 27.726C37.6825 27.726 38.219 30.0115 35.8369 31.3528C35.2212 31.5912 34.5742 31.7394 33.9161 31.7927H30.343V23.6699ZM18.3895 11.5887H12.6166C15.4494 12.0609 15.6425 14.5074 15.6425 14.5074L15.664 19.3896C15.9644 19.8618 16.2005 20.3768 16.4902 20.8704C16.6738 21.1716 16.9143 21.434 17.1984 21.643C17.3486 21.7503 17.5311 21.8576 17.5311 22.1151C17.5418 22.2868 17.7349 22.4048 17.9603 22.319C18.25 22.2117 18.5504 22.1473 18.8402 22.0615C19.0762 21.9971 19.1835 22.0722 19.1299 22.319C19.0118 22.8877 18.8187 23.4349 18.4217 23.8641C18.0139 24.3148 17.5525 24.7226 17.134 25.1732C16.9194 25.42 16.6834 25.6883 16.7263 26.0531C16.7907 26.5574 16.9731 27.0403 16.9409 27.5768C16.9087 28.0168 16.7478 28.2743 16.34 28.4245C15.9752 28.564 15.7928 28.7464 15.7391 29.0361C16.2864 31.5041 18.6577 31.6972 18.6577 31.6972C22.2631 31.9548 22.4133 28.167 22.4133 28.167V15.912C22.1343 12.2637 18.3895 11.5877 18.3895 11.5877" fill="black"/>
<path d="M24.377 2.8854C24.377 2.8854 24.8277 -0.194181 28.0575 0.00969372C28.0575 0.00969372 30.9332 0.26722 31.1371 3.22877V11.6842C31.1371 11.6842 31.2337 14.3882 34.045 14.6779L31.1264 14.6672V29.035C31.1264 29.035 31.4161 31.2669 34.0343 31.7712L27.5532 31.8034C27.5532 31.8034 24.7419 31.4279 24.3234 28.3805C23.862 25.8267 24.377 2.8854 24.377 2.8854ZM47.8999 22.7353H46.6198V27.2044H47.8902C49.2959 27.2044 50.1103 26.1969 50.1103 24.965C50.1103 23.7332 49.3356 22.7353 47.8999 22.7353ZM54.617 24.2375C53.7586 24.2375 53.3466 24.9071 53.3079 25.4694H55.9454C55.9197 24.9168 55.5409 24.2375 54.617 24.2375Z" fill="black"/>
<path d="M65.5917 18.8371H39.8091V25.2431C39.8085 26.0845 39.9738 26.9177 40.2956 27.6952C40.6173 28.4726 41.0891 29.1791 41.6841 29.774C42.279 30.369 42.9855 30.8408 43.7629 31.1625C44.5404 31.4843 45.3736 31.6496 46.215 31.649H65.5939C66.4351 31.649 67.2681 31.4833 68.0453 31.1614C68.8225 30.8395 69.5287 30.3676 70.1236 29.7728C70.7184 29.1779 71.1903 28.4717 71.5122 27.6945C71.8341 26.9173 71.9998 26.0843 71.9998 25.2431C71.9998 24.4018 71.8341 23.5688 71.5122 22.7916C71.1903 22.0144 70.7184 21.3082 70.1236 20.7134C69.5287 20.1185 68.8225 19.6467 68.0453 19.3247C67.2681 19.0028 66.4351 18.8371 65.5939 18.8371H65.5917ZM47.8997 28.2035H45.4854V21.7364H47.89C49.917 21.7364 51.2744 23.0745 51.2744 24.9651C51.2744 26.8751 49.917 28.2035 47.8997 28.2035ZM56.9271 26.197H53.3206C53.3979 26.8944 53.9215 27.4846 54.8035 27.4846C55.2996 27.4848 55.7775 27.2978 56.1416 26.961L56.6073 27.6295C56.1319 28.0758 55.4441 28.3183 54.707 28.3183C53.2916 28.3183 52.254 27.3387 52.254 25.8504C52.254 24.493 53.2434 23.3975 54.6297 23.3975C56.0354 23.3975 56.9271 24.464 56.9271 25.9384V26.197ZM60.4573 28.2035H59.3617L57.4507 23.5209H58.5462L59.9144 27.0307L61.2814 23.5209H62.3673L60.4573 28.2035ZM64.8106 28.3205C64.0058 28.3205 63.2879 28.0587 62.804 27.5833L63.2686 26.8558C63.6984 27.2584 64.2606 27.4897 64.8492 27.5061C65.4608 27.5061 65.7806 27.2539 65.7806 26.8848C65.7806 25.9641 62.9489 26.623 62.9489 24.8203C62.9489 24.0541 63.6088 23.4039 64.7913 23.4039C65.4555 23.3878 66.102 23.6196 66.6047 24.0541L66.1755 24.7709C65.9941 24.5887 65.7778 24.445 65.5396 24.3484C65.3014 24.2518 65.0461 24.2043 64.7891 24.2087C64.2526 24.2087 63.9307 24.4608 63.9307 24.7902C63.9307 25.6154 66.7613 24.9941 66.7613 26.8558C66.7592 27.6896 66.0714 28.3205 64.8106 28.3205Z" fill="black"/>
</svg>
