<svg width="59" height="70" viewBox="0 0 59 70" fill="none" xmlns="http://www.w3.org/2000/svg">
<path fillRule="evenodd" clipRule="evenodd" d="M29.1723 16.0344C28.3348 11.9569 30.7591 7.70583 32.9083 5.10417C35.6557 1.96 39.6339 0 43.3774 0C43.6167 4.07604 42.3858 8.02521 39.6384 10.9375C37.2485 14.0817 33.0339 16.4996 29.1723 16.0344ZM56.4638 23.6979C56.1453 23.8919 48.6823 28.1867 48.6823 37.31C49.0397 47.7152 58.1748 51.4062 58.3333 51.4062C58.1748 51.6002 57.0441 56.334 53.3814 61.3419C50.4725 65.6513 47.1523 70 42.2557 70C37.597 70 36.0206 67.0833 30.644 67.0833C24.871 67.0833 23.1196 70 18.7002 70C13.8036 70 10.458 65.4179 7.39199 61.1479C3.41073 55.5581 0.12491 46.7833 0.00526287 38.3585C-0.075499 33.8931 0.76652 29.5065 2.99645 25.779C6.14317 20.5756 11.8204 16.8875 17.9524 16.7708C22.6515 16.6148 26.6761 20.0521 29.5432 20.0521C32.2906 20.0521 37.564 16.7708 43.3774 16.7708C45.8855 16.7708 52.3225 17.4854 56.4638 23.6979Z" fill="#888888"/>
</svg>
