<svg width="16" height="10" viewBox="0 0 16 10" fill="none" xmlns="http://www.w3.org/2000/svg">
<path fillRule="evenodd" clipRule="evenodd" d="M10.8543 0.193291C10.5452 -0.08489 10.0691 -0.0598333 9.79094 0.249257C9.51276 0.558347 9.53782 1.03442 9.84691 1.3126L13.0944 4.23536H0.752941C0.337103 4.23536 0 4.57246 0 4.9883C0 5.40414 0.337103 5.74124 0.752941 5.74124H13.0943L9.84691 8.66388C9.53782 8.94206 9.51276 9.41814 9.79094 9.72723C10.0691 10.0363 10.5452 10.0614 10.8543 9.78319L15.5602 5.5479C15.7188 5.40511 15.8094 5.20169 15.8094 4.98824C15.8094 4.77479 15.7188 4.57137 15.5602 4.42859L10.8543 0.193291Z" fill="#FEFEFE"/>
</svg>
