<svg width="70" height="70" viewBox="0 0 70 70" fill="none" xmlns="http://www.w3.org/2000/svg">
<path d="M24.4078 5.24384C27.8902 3.49486 31.3944 1.78016 34.8581 0C34.8331 19.6493 34.8331 39.2997 34.8581 58.9511C33.8417 58.8763 32.8472 58.6394 31.8433 58.4741C31.0951 58.2777 30.3313 58.1437 29.5737 58.0003C27.859 57.6417 26.1256 57.3767 24.4171 56.9746C24.3704 41.9133 24.4171 26.8521 24.3984 11.7909C24.4047 9.60852 24.3828 7.42618 24.4078 5.24384Z" fill="#7A3E65"/>
<path d="M34.8582 0C46.5161 5.83411 58.176 11.6672 69.838 17.4992C69.838 29.0095 69.8691 40.5229 69.838 52.0363C65.5959 52.8843 61.3518 53.7333 57.1056 54.5834L56.9092 54.7236C54.5117 59.8272 51.9958 64.8809 49.6607 70L49.218 69.841C48.5727 68.3321 47.4721 67.0944 46.568 65.7413C44.6975 63.1319 42.9298 60.4414 40.9999 57.8787C38.9267 57.994 36.947 58.814 34.8801 58.9387C34.8406 39.2956 34.8333 19.6493 34.8582 0Z" fill="#C17B9E"/>
<path d="M9.28114 12.8258C11.6318 11.613 14.0075 10.4471 16.3394 9.20312C16.196 12.7977 16.2864 16.4048 16.3394 20.0026V51.1944C16.2334 52.5973 16.355 54.0003 16.3769 55.397C15.7533 55.3689 15.1298 55.2629 14.5063 55.1787C13.7269 54.867 12.8758 54.8046 12.0652 54.6082C11.1642 54.365 10.1946 54.3432 9.33726 54.0127C9.2562 41.4955 9.33726 28.9751 9.29985 16.4578C9.28426 15.2451 9.26867 14.0292 9.28114 12.8258Z" fill="#7A3E65"/>
<path d="M16.3394 9.20312C19.0414 10.0345 21.7277 10.897 24.3985 11.7908C24.3985 26.852 24.3704 41.9132 24.4172 56.9745C26.1256 57.3704 27.8466 57.6416 29.5737 58.0002C28.6634 59.7803 27.8559 61.6073 26.9612 63.3968L26.6837 63.2004C24.9908 60.354 22.9426 57.7258 21.072 55.001C19.4882 54.9262 17.9544 55.4406 16.355 55.3969C16.3332 53.9971 16.2116 52.5911 16.3176 51.1944C16.3332 40.7971 16.3176 30.3998 16.3176 20.0026C16.2864 16.4048 16.196 12.7977 16.3394 9.20312Z" fill="#C17B9E"/>
<path d="M4.03095 15.2513C5.78305 15.5631 7.53516 16.0339 9.27479 16.4579C9.30285 28.9751 9.23115 41.4955 9.3122 54.0128C10.1851 54.3432 11.1391 54.365 12.0401 54.6082C11.5569 55.8771 10.8492 57.0649 10.3223 58.3213L10.1696 58.1031C8.9225 56.3541 7.87186 54.4555 6.4627 52.8374C5.66458 52.7782 4.86959 52.8935 4.07148 52.8748C4.01848 40.3638 4.09954 27.8497 4.02783 15.3386L4.03095 15.2513Z" fill="#C17B9E"/>
<path d="M0.00311762 17.6177C1.34993 16.8663 2.68739 16.1025 4.02485 15.3387C4.09656 27.8497 4.02485 40.3639 4.0685 52.8749C3.56318 52.8318 3.06122 52.7558 2.5658 52.6473C1.71469 52.4478 0.854229 52.2919 0 52.0986C0.00207842 40.607 0.00311762 29.1134 0.00311762 17.6177Z" fill="#7A3E65"/>
<path d="M2.56885 52.6474C3.06426 52.7559 3.56623 52.8319 4.07154 52.875C4.86965 52.8937 5.66465 52.7783 6.46276 52.8376C7.87192 54.4556 8.9288 56.3543 10.1696 58.1032C8.8758 57.7915 7.59757 57.4049 6.31935 57.0401C5.04424 55.7619 3.9406 54.306 2.6842 53.0059L2.56885 52.6474Z" fill="#9D658D"/>
<path d="M16.3612 55.3972C17.945 55.4408 19.4789 54.9264 21.0782 55.0012C22.9488 57.726 24.9908 60.3542 26.6899 63.2006C24.3579 62.549 21.9979 61.9535 19.7002 61.2084C17.9762 59.1882 16.1492 57.249 14.4875 55.1789C15.1048 55.2631 15.7315 55.3691 16.3612 55.3972Z" fill="#9D658D"/>
<path d="M34.8582 58.951C36.9315 58.8295 38.9112 58.0158 40.9781 57.8911C42.908 60.4569 44.6756 63.1442 46.5462 65.7537C47.4503 67.1067 48.5508 68.3444 49.1962 69.8534C45.904 68.9181 42.5962 68.0171 39.3071 67.0693C36.813 64.198 34.241 61.4077 31.8435 58.474C32.8474 58.6299 33.8419 58.8762 34.8582 58.951Z" fill="#9D658D"/>
</svg>
