<svg width="63" height="72" viewBox="0 0 63 72" fill="none" xmlns="http://www.w3.org/2000/svg">
<path d="M15.0049 11.48L0.399902 34.73L15.0049 58.127V11.48Z" fill="#876929"/>
<path d="M31.3139 53.805L15.0039 57.984V11.48L31.3139 15.658V53.805Z" fill="#D9A741"/>
<path d="M43.1948 29.451L50.7548 40.268L62.1328 17.332L54.2708 18.632L43.1948 29.451Z" fill="#876929"/>
<path d="M41.136 29.83L50.755 29.266L36.222 0L27.249 3.929L41.136 29.83Z" fill="#876929"/>
<path d="M36.2219 0L60.2609 12.019L50.7549 29.267L36.2219 0Z" fill="#D9A741"/>
<path d="M62.1318 17.332L62.1378 56.576L31.3138 72L31.3098 4.98804L50.7548 40.268L62.1318 17.332Z" fill="#D9A741"/>
<path d="M31.3098 4.98804L31.3138 72L22.0818 67.381V8.67504L31.3058 4.98804H31.3098Z" fill="#876929"/>
</svg>
