<svg width="66" height="70" viewBox="0 0 66 70" fill="none" xmlns="http://www.w3.org/2000/svg">
<path d="M4.78817 60.1976C2.9075 60.1976 1.1225 59.0893 0.361831 57.2541C-0.643836 54.8275 0.521665 52.0496 2.96467 51.051L58.8912 28.1749C61.3342 27.1774 64.1331 28.3336 65.1387 30.7614C66.1444 33.1893 64.9801 35.9671 62.5359 36.9658L6.60934 59.8383C6.01317 60.081 5.396 60.1976 4.78817 60.1976Z" fill="black"/>
<path d="M4.78817 42.077C2.9075 42.077 1.1225 40.9698 0.361831 39.1335C-0.643836 36.7068 0.521665 33.9278 2.96467 32.9291L58.8912 10.0566C61.3342 9.05676 64.1331 10.2153 65.1387 12.6419C66.1444 15.0686 64.9801 17.8464 62.5359 18.8463L6.60934 41.7176C6.01317 41.9626 5.396 42.077 4.78817 42.077Z" fill="black"/>
<path d="M4.78812 23.3636C2.89929 23.3636 1.10962 22.2459 0.353616 20.4003C-0.641552 17.9689 0.535616 15.1969 2.98328 14.2076L37.2915 0.351083C39.7403 -0.637085 42.531 0.531916 43.5273 2.96442C44.5237 5.39459 43.3453 8.16776 40.8977 9.15709L6.58946 23.0124C5.99912 23.2504 5.38895 23.3636 4.78812 23.3636Z" fill="black"/>
<path d="M26.3223 70C24.4311 70 22.6426 68.8812 21.8878 67.0355C20.8915 64.6054 22.0698 61.8322 24.5175 60.8417L58.8245 46.9863C61.2733 45.9982 64.0652 47.1672 65.0603 49.5997C66.0567 52.0298 64.8783 54.803 62.4307 55.7923L28.1225 69.6477C27.5321 69.8857 26.922 70 26.3223 70Z" fill="black"/>
</svg>
