<svg width="62" height="70" viewBox="0 0 62 70" fill="none" xmlns="http://www.w3.org/2000/svg">
<path d="M24.2902 29.365C22.2952 29.365 20.7202 31.115 20.7202 33.25C20.7202 35.385 22.3302 37.135 24.2902 37.135C26.2852 37.135 27.8602 35.385 27.8602 33.25C27.8952 31.115 26.2852 29.365 24.2902 29.365ZM37.0652 29.365C35.0702 29.365 33.4952 31.115 33.4952 33.25C33.4952 35.385 35.1052 37.135 37.0652 37.135C39.0602 37.135 40.6352 35.385 40.6352 33.25C40.6352 31.115 39.0602 29.365 37.0652 29.365Z" fill="#7289DA"/>
<path d="M54.075 0H7.175C3.22 0 0 3.22 0 7.21V54.53C0 58.52 3.22 61.74 7.175 61.74H46.865L45.01 55.265L49.49 59.43L53.725 63.35L61.25 70V7.21C61.25 3.22 58.03 0 54.075 0ZM40.565 45.71C40.565 45.71 39.305 44.205 38.255 42.875C42.84 41.58 44.59 38.71 44.59 38.71C43.155 39.655 41.79 40.32 40.565 40.775C38.815 41.51 37.135 42 35.49 42.28C32.13 42.91 29.05 42.735 26.425 42.245C24.43 41.86 22.715 41.3 21.28 40.74C20.475 40.425 19.6 40.04 18.725 39.55C18.62 39.48 18.515 39.445 18.41 39.375C18.34 39.34 18.305 39.305 18.27 39.27C17.64 38.92 17.29 38.675 17.29 38.675C17.29 38.675 18.97 41.475 23.415 42.805C22.365 44.135 21.07 45.71 21.07 45.71C13.335 45.465 10.395 40.39 10.395 40.39C10.395 29.12 15.435 19.985 15.435 19.985C20.475 16.205 25.27 16.31 25.27 16.31L25.62 16.73C19.32 18.55 16.415 21.315 16.415 21.315C16.415 21.315 17.185 20.895 18.48 20.3C22.225 18.655 25.2 18.2 26.425 18.095C26.635 18.06 26.81 18.025 27.02 18.025C29.155 17.745 31.57 17.675 34.09 17.955C37.415 18.34 40.985 19.32 44.625 21.315C44.625 21.315 41.86 18.69 35.91 16.87L36.4 16.31C36.4 16.31 41.195 16.205 46.235 19.985C46.235 19.985 51.275 29.12 51.275 40.39C51.275 40.39 48.3 45.465 40.565 45.71Z" fill="#7289DA"/>
</svg>
