<svg width="70" height="15" viewBox="0 0 70 15" fill="none" xmlns="http://www.w3.org/2000/svg">
<path d="M23.0097 14.2732L21.1402 9.92296H19.5583V14.2732H15.3518V0H22.794C26.0657 0 27.7915 2.22907 27.7915 4.88957C27.7915 7.33436 26.3893 8.66461 25.2748 9.2039L27.7915 14.2373H23.0097V14.2732ZM23.5131 5.1772C23.5131 4.20647 22.83 3.77504 22.1469 3.77504H19.5942V6.61531H22.1469C22.8659 6.61531 23.5131 6.18387 23.5131 5.1772Z" fill="#111111"/>
<path d="M39.6199 14.2732V0H50.2259V3.77504H43.8623V5.68053H50.0821V9.45557H43.8623V14.2732H39.6199Z" fill="#111111"/>
<path d="M0 14.2732V0H6.25578C10.678 0 13.9497 2.55265 13.9497 7.11864C13.9497 11.6846 10.678 14.2732 6.29173 14.2732H0ZM9.63534 7.11864C9.63534 5.1772 8.55675 3.77504 6.29173 3.77504H4.24242V10.4982H6.25578C8.37699 10.4982 9.63534 8.91628 9.63534 7.11864Z" fill="#111111"/>
<path d="M55.4749 14.2732V3.77504H51.7358V0H63.4564V3.77504H59.6814V14.2732H55.4749Z" fill="#111111"/>
<path d="M67.4235 3.25596V0.623729L68.4623 3.25596H68.5731L69.612 0.623729V3.25596H69.9998V0.0741425H69.4042L68.5177 2.38819L67.6313 0.0741425H67.0357V3.25596H67.4235ZM65.6782 3.25596V0.450176H66.537V0.0741425H64.4316V0.450176H65.2904V3.25596H65.6782Z" fill="#111111"/>
<path d="M38.2897 0C38.3616 0 38.3976 0 38.4695 0C38.6852 0.0359527 38.7571 0.251669 38.6492 0.39548C38.6133 0.431433 38.6133 0.467386 38.5773 0.503338L34.9821 4.566C34.9821 4.566 34.9102 4.6379 34.8742 4.67386C34.7304 4.85362 34.8742 5.06934 35.1259 5.10529C35.1618 5.10529 35.2337 5.10529 35.2337 5.10529H36.4561C36.4561 5.10529 36.528 5.10529 36.564 5.10529C36.8157 5.14124 36.9235 5.35696 36.8157 5.53672C36.7797 5.57268 36.7078 5.64458 36.7078 5.64458L34.0832 8.62866C34.0473 8.66461 34.0113 8.70056 33.9754 8.73652C33.8675 8.91628 34.0113 9.132 34.2271 9.132C34.299 9.132 35.1259 9.132 35.1978 9.132C35.3416 9.132 35.4495 9.2039 35.5214 9.31176C35.5573 9.41962 35.5573 9.52748 35.4494 9.59938C35.4135 9.63534 35.3775 9.67129 35.3775 9.67129L29.2656 14.2732C29.2656 14.2732 29.1937 14.3451 29.1577 14.3811C29.0858 14.4171 29.0139 14.4171 28.978 14.3811C28.942 14.3451 28.906 14.2732 28.906 14.2373C28.906 14.2013 28.942 14.1294 28.942 14.1294L30.6318 10.678L30.6677 10.5701C30.7756 10.3544 30.6677 10.1387 30.4161 10.1027C30.3801 10.1027 30.3082 10.1027 30.3082 10.1027H29.1218C29.0858 10.1027 29.0139 10.1027 28.978 10.1027C28.7622 10.0668 28.6544 9.887 28.7263 9.74319C28.7622 9.70724 28.7982 9.63534 28.7982 9.63534L30.8835 6.14792C30.8835 6.14792 30.9194 6.11197 30.9194 6.07601C31.0273 5.8603 30.8835 5.68053 30.6318 5.68053C30.5239 5.68053 30.3082 5.68053 30.3082 5.68053C30.3082 5.68053 29.733 5.68053 29.3734 5.68053H29.2656C29.0858 5.68053 28.978 5.57268 28.942 5.42886C28.942 5.35696 28.942 5.28505 29.0139 5.21315L29.6611 4.09861L31.7823 0.39548L31.8182 0.323575C31.9261 0.143811 32.1058 0.0359528 32.3575 0.0359528L38.2897 0Z" fill="#111111"/>
</svg>
