<svg width="66" height="70" viewBox="0 0 66 70" fill="none" xmlns="http://www.w3.org/2000/svg">
<path d="M0.547852 18.1988L6.47643 21.6471L37.018 3.9965L31.0271 0.548218L0.547852 18.1988Z" fill="white"/>
<path fillRule="evenodd" clipRule="evenodd" d="M30.7527 0.0737677C30.922 -0.0243325 31.131 -0.0246058 31.3006 0.073051L37.2912 3.52133C37.4611 3.61903 37.5658 3.7999 37.5658 3.99574C37.5661 4.19158 37.4616 4.37263 37.2923 4.47063L6.75068 22.1212C6.58058 22.2195 6.37085 22.2192 6.20102 22.1204L0.272441 18.6721C0.10361 18.5739 -0.000185342 18.3933 2.48466e-07 18.198C0.000185795 18.0027 0.104324 17.8222 0.273343 17.7244L30.7527 0.0737677ZM31.0281 1.18062L1.63951 18.1995L6.47738 21.0134L35.9214 3.99716L31.0281 1.18062Z" fill="black"/>
<path d="M0.547852 18.1986V53.4999L6.53852 56.9482L6.47643 21.6469L0.547852 18.1986Z" fill="white"/>
<path fillRule="evenodd" clipRule="evenodd" d="M0.274727 17.7234C0.444686 17.6256 0.653928 17.6261 0.823413 17.7247L6.752 21.173C6.92037 21.2709 7.02408 21.4509 7.02443 21.6457L7.08654 56.9468C7.08686 57.1425 6.9827 57.3237 6.8133 57.4219C6.64388 57.5199 6.43495 57.5202 6.26526 57.4228L0.274584 53.9745C0.104705 53.8765 0 53.6955 0 53.4995V18.1984C0 18.0023 0.104767 17.8212 0.274727 17.7234ZM1.09585 19.1509V53.1827L5.989 55.9993L5.92913 21.9621L1.09585 19.1509Z" fill="black"/>
<path d="M6.47656 21.6463L37.018 3.99573V39.2969L6.53865 56.9473L6.47656 21.6463Z" fill="black"/>
<path fillRule="evenodd" clipRule="evenodd" d="M37.2917 3.52151C37.4613 3.61937 37.5658 3.80027 37.5658 3.99608V39.2972C37.5658 39.4927 37.4616 39.6733 37.2925 39.7713L6.81307 57.422C6.6437 57.52 6.43489 57.5202 6.26525 57.4228C6.09561 57.3251 5.9909 57.1444 5.99055 56.9487L5.92847 21.6476C5.92812 21.4516 6.0325 21.2703 6.20222 21.1723L36.7438 3.52167C36.9132 3.4237 37.1221 3.42364 37.2917 3.52151ZM7.02488 21.9625L7.08475 55.9983L36.47 38.9814V4.9456L7.02488 21.9625Z" fill="black"/>
<path d="M11.0422 24.24L16.9708 27.6883L47.5123 10.0377L41.5217 6.58939L11.0422 24.24Z" fill="white"/>
<path fillRule="evenodd" clipRule="evenodd" d="M41.2471 6.11567C41.4164 6.01757 41.6253 6.0173 41.7949 6.11495L47.7858 9.56323C47.9554 9.66094 48.0602 9.8418 48.0602 10.0376C48.0604 10.2335 47.956 10.4145 47.7866 10.5125L17.2451 28.163C17.0749 28.2613 16.8652 28.261 16.6954 28.1622L10.7668 24.7141C10.598 24.6158 10.4942 24.4352 10.4944 24.2399C10.4946 24.0446 10.5987 23.8641 10.7677 23.7663L41.2471 6.11567ZM41.5225 7.22253L12.1339 24.2414L16.9718 27.0554L46.4157 10.0391L41.5225 7.22253Z" fill="black"/>
<path d="M11.0422 24.2404V59.5416L17.0329 62.9899L16.9708 27.6888L11.0422 24.2404Z" fill="white"/>
<path fillRule="evenodd" clipRule="evenodd" d="M10.7691 23.7653C10.9391 23.6675 11.1483 23.668 11.3178 23.7666L17.2464 27.2148C17.4148 27.3128 17.5185 27.4929 17.5188 27.6875L17.5809 62.9886C17.5813 63.1846 17.4771 63.3655 17.3077 63.4638C17.1383 63.562 16.9293 63.5623 16.7596 63.4646L10.769 60.0163C10.5991 59.9186 10.4944 59.7374 10.4944 59.5414V24.2402C10.4944 24.0442 10.5991 23.863 10.7691 23.7653ZM11.5902 25.1928V59.2245L16.4834 62.0412L16.4235 28.0041L11.5902 25.1928Z" fill="black"/>
<path d="M16.9713 27.6889L47.5128 10.0383V45.3393L17.0334 62.9899L16.9713 27.6889Z" fill="black"/>
<path fillRule="evenodd" clipRule="evenodd" d="M47.7865 9.56341C47.9561 9.66127 48.0606 9.84217 48.0606 10.038V45.3393C48.0606 45.5347 47.9564 45.7154 47.7873 45.8134L17.3078 63.4638C17.1385 63.562 16.9296 63.5623 16.76 63.4646C16.5904 63.3671 16.4857 63.1865 16.4853 62.9907L16.4232 27.6894C16.4229 27.4934 16.5272 27.3122 16.697 27.2142L47.2384 9.56357C47.408 9.4656 47.6169 9.46554 47.7865 9.56341ZM17.5196 28.0044L17.5795 62.0401L46.9646 45.0232V10.9875L17.5196 28.0044Z" fill="black"/>
<path d="M16.9824 33.5952L28.0981 69.4517L34.4393 67.377L22.8818 31.4766L16.9824 33.5952Z" fill="black"/>
<path fillRule="evenodd" clipRule="evenodd" d="M23.1233 30.9853C23.2565 31.051 23.3574 31.1678 23.4029 31.3092L34.9606 67.2093C35.053 67.4963 34.896 67.8043 34.6093 67.898L28.2681 69.9729C28.1284 70.0184 27.9766 70.0063 27.846 69.9387C27.7157 69.8714 27.6177 69.7546 27.5743 69.6143L16.4587 33.7578C16.3718 33.4778 16.5209 33.179 16.7968 33.0799L22.6962 30.9613C22.8359 30.9113 22.9901 30.9199 23.1233 30.9853ZM17.6606 33.9342L28.4563 68.7582L33.7502 67.0259L22.5334 32.1842L17.6606 33.9342Z" fill="black"/>
<path d="M47.509 17.2818L58.6247 53.1383L64.9661 51.0633L53.4084 15.1632L47.509 17.2818Z" fill="black"/>
<path fillRule="evenodd" clipRule="evenodd" d="M53.6504 14.6713C53.7836 14.7369 53.8843 14.8537 53.9298 14.995L65.4876 50.8954C65.5799 51.1824 65.4229 51.4901 65.1365 51.584L58.7951 53.6587C58.6556 53.7045 58.5035 53.6921 58.3732 53.6248C58.2426 53.5572 58.1449 53.4404 58.1013 53.3001L46.9856 17.4438C46.8989 17.1638 47.0478 16.865 47.3237 16.7659L53.2231 14.6473C53.3628 14.5971 53.5171 14.6058 53.6504 14.6713ZM48.1877 17.6201L58.9832 52.4442L64.2774 50.712L53.0605 15.8701L48.1877 17.6201Z" fill="black"/>
<path d="M22.8811 31.4769L53.4081 15.1632L64.9656 51.0633L34.4387 67.377L22.8811 31.4769Z" fill="white"/>
<path fillRule="evenodd" clipRule="evenodd" d="M53.6135 14.655C53.7643 14.7159 53.8801 14.8404 53.9299 14.995L65.4873 50.8954C65.5686 51.1474 65.4577 51.4214 65.224 51.5464L34.6972 67.86C34.554 67.9365 34.3841 67.9456 34.2336 67.8848C34.0831 67.8239 33.9671 67.6993 33.9175 67.5448L22.3598 31.6444C22.2786 31.3924 22.3895 31.1183 22.6231 30.9934L53.1499 14.6797C53.2931 14.6032 53.463 14.5941 53.6135 14.655ZM23.5432 31.7443L34.7594 66.5841L64.3041 50.7955L53.0877 15.9555L23.5432 31.7443Z" fill="black"/>
<path d="M22.8818 31.4769L16.9824 33.5955L47.5093 17.2818L53.4086 15.1632L22.8818 31.4769Z" fill="black"/>
<path fillRule="evenodd" clipRule="evenodd" d="M53.909 14.9407C54.0256 15.2032 53.9197 15.511 53.6664 15.6463L23.1396 31.9599C23.116 31.9726 23.0916 31.9834 23.0665 31.9922L17.1672 34.1111C16.897 34.208 16.5977 34.0801 16.4812 33.8176C16.3647 33.5554 16.4705 33.2474 16.7237 33.112L47.2507 16.7984C47.2741 16.7859 47.2986 16.7751 47.3236 16.766L53.223 14.6474C53.4933 14.5503 53.7924 14.6783 53.909 14.9407Z" fill="black"/>
<path d="M40.2395 28.5544L38.1794 29.6062L36.1228 30.6584L34.457 55.578L38.5044 57.3861L41.5876 37.4489L57.7222 47.5635L59.0153 43.0268L40.2395 28.5544Z" fill="black"/>
<path fillRule="evenodd" clipRule="evenodd" d="M39.9905 28.0666C40.1793 27.9704 40.4065 27.9914 40.5742 28.1207L59.35 42.5934C59.5277 42.7301 59.6039 42.9617 59.5425 43.1773L58.2494 47.7144C58.202 47.8799 58.0795 48.0138 57.9188 48.0757C57.7578 48.1373 57.5774 48.1198 57.4312 48.0283L42.0019 38.3557L39.0461 57.4704C39.02 57.6392 38.9169 57.7862 38.7666 57.8678C38.6167 57.9494 38.4371 57.9567 38.2812 57.8869L34.2339 56.0788C34.0244 55.9851 33.8952 55.7708 33.9105 55.5419L35.5763 30.6221C35.5892 30.4299 35.702 30.2586 35.8735 30.1709L39.9905 28.0666ZM36.6491 31.0049L35.0294 55.2339L38.0728 56.5935L41.0462 37.3655C41.0745 37.1835 41.1924 37.0276 41.3598 36.9509C41.5276 36.8744 41.7225 36.887 41.8786 36.985L57.3954 46.7123L58.3867 43.2344L40.1801 29.2003L36.6491 31.0049Z" fill="black"/>
</svg>
