<svg width="70" height="70" viewBox="0 0 70 70" fill="none" xmlns="http://www.w3.org/2000/svg">
<path d="M34.999 29.0809C38.2688 29.0809 40.919 31.7305 40.919 34.9992C40.919 38.2688 38.2688 40.919 34.999 40.919C31.7303 40.919 29.0801 38.268 29.0801 34.9992C29.0801 31.7305 31.7303 29.0809 34.999 29.0809ZM14.8306 34.9992C14.8306 23.8604 23.8604 14.8309 34.999 14.8309C46.1392 14.8309 55.1681 23.8604 55.1681 34.9992C55.1681 35.7367 55.1288 36.4639 55.0516 37.1795C54.8985 39.1457 56.3413 40.6464 58.295 40.6464C61.6104 40.6464 61.9636 36.3715 61.9636 34.9992C61.9636 20.1064 49.8915 8.03457 34.999 8.03457C20.1064 8.03457 8.03457 20.1067 8.03457 34.9992C8.03457 49.891 20.1064 61.9634 34.9987 61.9634C42.9079 61.9634 50.0216 58.5603 54.9544 53.137L60.4976 57.7919C54.2362 64.7913 45.1319 69.2001 34.999 69.2001C16.1113 69.2001 0.800049 53.8872 0.800049 34.9992C0.800049 16.1113 16.1113 0.800049 34.999 0.800049C53.8878 0.800049 69.199 16.1113 69.199 34.9995C69.199 42.5915 65.584 48.7568 58.323 48.7568C55.1275 48.7568 53.1851 47.2926 52.1244 45.6585C48.5628 51.3677 42.2257 55.1692 34.999 55.1692C23.8601 55.1692 14.8306 46.1381 14.8306 34.9995V34.9992ZM34.999 22.0649C27.8561 22.0649 22.0646 27.8556 22.0646 34.9992C22.0646 42.1429 27.8561 47.9341 34.999 47.9341C42.1424 47.9341 47.9341 42.1429 47.9341 34.9992C47.9341 27.8556 42.1424 22.0649 34.999 22.0649Z" fill="#AF252A"/>
</svg>
