<svg width="69" height="61" viewBox="0 0 69 61" fill="none" xmlns="http://www.w3.org/2000/svg">
<path d="M0.800049 0.400269H68.8925V60.689H0.800049V0.400269Z" fill="#E6E6E1"/>
<path d="M68.8922 0.400292H0.800293L34.8483 50.1608L68.8922 0.400024" fill="#D8D8D3"/>
<path d="M27.6438 60.689H42.0522L34.8483 50.1611L27.6436 60.689" fill="#B4B6B4"/>
<path d="M34.8586 32.0285L20.3337 10.71V29.0101L28.6278 41.1925L34.8444 32.0467L34.8586 32.0285Z" fill="#1A1918"/>
<path d="M34.8584 32.0285L41.1138 41.212L49.3549 29.1627V10.71L34.8584 32.0288" fill="#ED9D4A"/>
<path d="M34.8444 32.0466L28.6274 41.1926L34.8647 50.35L41.1137 41.2121L34.8583 32.0287L34.8441 32.0466" fill="#BB7731"/>
<path d="M10.0181 50.3745H20.3334V29.0101L10.0181 13.8686V50.3745Z" fill="#4CB2D4"/>
<path d="M10.0181 10.71V13.8689L20.3334 29.0102V10.71H10.0181Z" fill="#1B82AD"/>
<path d="M49.355 29.1627V50.3742H59.6666V14.0886L49.355 29.1625" fill="#C02439"/>
<path d="M59.6663 10.71H49.355V29.1627L59.6666 14.0885V10.71" fill="#8F202F"/>
</svg>
