<svg width="70" height="59" viewBox="0 0 70 59" fill="none" xmlns="http://www.w3.org/2000/svg">
<path d="M62.8085 10.4255C60 10.4255 57.4894 11.8298 55.9574 13.9575L45.617 28.4681C45.234 29.0213 44.5958 29.3617 43.9149 29.3617C42.766 29.3617 41.8298 28.4255 41.8298 27.2766C41.8298 26.8511 41.9574 26.4255 42.1702 26.1277L50.8936 13.0638C51.7872 11.7447 52.2979 10.1277 52.2979 8.38298C52.2979 3.74469 48.5532 0 43.9149 0H0V8.38298H37.617C37.617 10.6809 35.7447 12.5957 33.4043 12.5957H0C0 15.5745 0.638288 18.4255 1.74467 20.9787H29.1915C29.1915 23.2766 27.3192 25.1915 24.9787 25.1915H4.17021C7.99999 30.2979 14.0851 33.5745 20.9787 33.5745H31.3191C32.4681 33.5745 33.4043 34.5106 33.4043 35.6596C33.4043 36.8085 32.4681 37.7447 31.3191 37.7447H20.9787L6.93617 58.7234H32.3404C43.9574 58.7234 53.8298 51.1489 57.2766 40.6809L62 26.3404C63.5319 21.7021 66.3404 17.617 70 14.5106C68.5532 12.0851 65.8723 10.4255 62.8085 10.4255ZM62.8085 16.2128C61.9574 16.2128 61.2341 15.4894 61.2341 14.6383C61.2341 13.7872 61.9574 13.0638 62.8085 13.0638C63.6596 13.0638 64.383 13.7872 64.383 14.6383C64.383 15.4894 63.7021 16.2128 62.8085 16.2128Z" fill="#007FD3"/>
</svg>
