<svg width="66" height="60" viewBox="0 0 66 60" fill="none" xmlns="http://www.w3.org/2000/svg">
<path fillRule="evenodd" clipRule="evenodd" d="M39.1299 49.3735C46.2597 46.8699 51.3893 40.1542 51.3893 32.2535C51.3893 22.2216 43.1404 14.0609 33.0001 14.0609C22.8598 14.0609 14.6109 22.2216 14.6109 32.2535C14.6109 40.79 20.5935 47.9475 28.6217 49.8968V51.6813C19.6076 49.7027 12.8596 41.7673 12.8596 32.2535C12.8596 21.2496 21.8773 12.3283 33.0001 12.3283C44.123 12.3283 53.1407 21.2496 53.1407 32.2535C53.1407 41.1401 47.2526 48.6544 39.1299 51.2205V49.3735ZM33.0002 22.7242C27.6883 22.7242 23.3677 26.9985 23.3677 32.2535C23.3677 35.944 25.5132 39.1269 28.6218 40.707V42.6337C24.5114 40.9374 21.6164 36.9352 21.6164 32.2535C21.6164 26.0334 26.7129 20.9916 33.0002 20.9916C39.2875 20.9916 44.384 26.0334 44.384 32.2535C44.384 36.2352 42.2824 39.7177 39.1299 41.7189V39.5635C41.2596 37.8153 42.6326 35.199 42.6326 32.2535C42.6326 26.9985 38.3121 22.7242 33.0002 22.7242ZM0.600098 32.2535C0.600098 43.5085 6.47413 53.3898 15.3447 59.1091C15.8807 58.7626 16.4306 58.4368 16.9858 58.1215C17.3833 57.8979 17.7843 57.6848 18.1924 57.477C18.6793 57.2292 19.1733 56.9935 19.6741 56.7701C20.1732 56.5466 20.6776 56.3386 21.1907 56.1394C21.6075 55.9783 22.0278 55.8276 22.4535 55.6819C23.0471 55.4793 23.6496 55.2939 24.2608 55.1241C24.7197 54.9976 25.1821 54.878 25.6497 54.7706C26.1226 54.6615 26.5971 54.5593 27.0789 54.4709C27.5902 54.3773 28.1033 54.289 28.6217 54.2179C29.2031 54.159 29.7829 54.0898 30.373 54.0429V51.9898V50.2382V43.2019V41.4139V34.8524H28.6217V31.3872H30.373H35.6271H37.3785V40.7313V42.6492V49.9037V51.6917V54.2161C42.2261 54.8867 46.7324 56.5794 50.6519 59.1074C59.5261 53.3898 65.4001 43.5085 65.4001 32.2535C65.4001 14.5513 50.8936 0.200012 33.0001 0.200012C15.1065 0.200012 0.600098 14.5513 0.600098 32.2535Z" fill="#E54B4D"/>
</svg>
