<svg width="72" height="62" viewBox="0 0 72 62" fill="none" xmlns="http://www.w3.org/2000/svg">
<path d="M7.542 61.2382H0V23.382C0 19.4951 1.59525 17.145 2.9295 15.84C5.88825 12.9375 9.9045 12.852 10.5592 12.852H22.4235C26.6591 12.852 29.0947 14.562 30.4301 16.002C33.0694 18.8741 33.0986 22.5866 33.0401 23.5732V37.8461C33.0401 41.9659 31.3571 44.4026 29.9655 45.7076C27.0934 48.4054 23.2943 48.4639 22.3943 48.4346H7.542V61.2382ZM22.6845 40.8735C23.0895 40.8735 24.2224 40.7576 24.831 40.176C25.2956 39.7406 25.5285 38.9576 25.5285 37.8135V23.166C25.5285 22.761 25.4419 21.6866 24.8614 21.0769C24.2989 20.4964 23.2369 20.3794 22.4246 20.3794H10.4996C7.54087 20.3794 7.54087 22.6125 7.54087 23.3674V40.8611L22.6845 40.8735ZM64.458 0H72V37.8866C72 41.7735 70.4047 44.1236 69.0705 45.4286C66.1117 48.3311 62.0955 48.4166 61.4408 48.4166H49.5765C45.3409 48.4166 42.9053 46.7066 41.5699 45.2666C38.9306 42.3945 38.9014 38.682 38.9599 37.6954V23.4416C38.9599 19.3219 40.6429 16.8851 42.0345 15.5801C44.9066 12.8824 48.7058 12.8239 49.6058 12.8531H64.458V0ZM49.3155 20.3816C48.9105 20.3816 47.7776 20.4975 47.169 21.0791C46.7044 21.5145 46.4715 22.2975 46.4715 23.4416V38.0891C46.4715 38.4941 46.5581 39.5685 47.1386 40.1782C47.7011 40.7588 48.7631 40.8757 49.5754 40.8757H61.4981C64.4861 40.8465 64.4861 38.6258 64.4861 37.8585V20.3816H49.3155Z" fill="#25C151"/>
</svg>
