<svg width="70" height="56" viewBox="0 0 70 56" fill="none" xmlns="http://www.w3.org/2000/svg">
<path fillRule="evenodd" clipRule="evenodd" d="M34.878 0.000187094C28.9341 0.0207269 23.4519 2.01091 19.0229 5.36452C14.596 8.71609 11.2203 13.4311 9.49352 18.8929C9.42356 19.1168 9.31564 19.3223 9.17973 19.5034C9.03983 19.6865 8.87195 19.8432 8.68208 19.9694C5.94397 21.7825 3.69153 24.2855 2.16858 27.2383C0.643639 30.1889 -0.151811 33.5894 0.0240673 37.1953C0.275893 42.4089 2.60228 47.0058 6.14783 50.2923C9.69138 53.5808 14.4561 55.5608 19.5845 55.5426H35.0658H50.5471C55.6736 55.5241 60.4243 53.4831 63.9478 50.1458C67.4714 46.8044 69.7658 42.1667 69.9817 36.9491C70.1356 33.3431 69.3141 29.9488 67.7692 27.0063C66.2263 24.0658 63.9578 21.579 61.2097 19.7883C61.0159 19.6601 60.846 19.5034 60.7081 19.3243C60.5682 19.1432 60.4622 18.9397 60.3903 18.7159C58.6255 13.2663 55.2199 8.57568 50.767 5.2526C46.318 1.93155 40.8218 -0.0220071 34.878 0.000187094ZM34.9019 6.92927C39.2889 6.91312 43.454 8.39457 46.8377 10.9464C50.2233 13.5003 52.8235 17.1245 54.0847 21.4L54.3565 22.3259L54.6303 23.2518C54.7022 23.4919 54.8162 23.7117 54.9661 23.907C55.114 24.1024 55.2998 24.2672 55.5117 24.3954L56.3291 24.8858L57.1485 25.3783C59.1092 26.5545 60.6621 28.2008 61.7034 30.134C62.7447 32.0652 63.2723 34.2812 63.1864 36.6011C63.0605 39.9689 61.5715 42.9542 59.2911 45.1011C57.0086 47.248 53.9308 48.5565 50.6231 48.5666L35.0418 48.6236L19.4606 48.6766C16.1529 48.6887 13.065 47.4026 10.7686 45.27C8.47222 43.1394 6.96726 40.1643 6.81737 36.7985C6.71344 34.4786 7.22908 32.2605 8.25637 30.3192C9.28366 28.3799 10.8266 26.7234 12.7812 25.533L13.5967 25.0364L14.4101 24.5399C14.62 24.4097 14.8038 24.2428 14.9517 24.0474C15.0996 23.8521 15.2136 23.6282 15.2815 23.3881L15.5493 22.4602L15.8171 21.5343C17.0463 17.2507 19.6245 13.6061 22.9922 11.0298C26.3578 8.45358 30.513 6.94365 34.9019 6.92927Z" fill="#43A046"/>
<path fillRule="evenodd" clipRule="evenodd" d="M29.6024 23.7503C29.6024 24.1573 29.4425 24.5277 29.1807 24.7963C28.9188 25.0649 28.5571 25.2318 28.1554 25.2338L26.6944 25.2379L25.2314 25.244C24.8317 25.244 24.4699 25.0791 24.2061 24.8126C23.9423 24.548 23.7784 24.1797 23.7764 23.7727L23.7704 22.2831L23.7644 20.7935C23.7644 20.3865 23.9263 20.0162 24.1881 19.7476C24.4499 19.4789 24.8117 19.3121 25.2134 19.31L26.6744 19.306L28.1374 19.2999C28.5371 19.2999 28.8989 19.4667 29.1627 19.7313C29.4265 19.9979 29.5904 20.3662 29.5924 20.7732L29.5984 22.2628L29.6024 23.7503ZM37.8741 23.7503C37.876 24.1573 37.7142 24.5277 37.4523 24.7963C37.1905 25.0649 36.8288 25.2318 36.427 25.2338L34.9661 25.2379L33.5031 25.244C33.1033 25.244 32.7416 25.0791 32.4778 24.8126C32.214 24.548 32.0501 24.1797 32.0481 23.7727L32.0421 22.2831L32.0381 20.7935C32.0361 20.3865 32.198 20.0162 32.4598 19.7476C32.7216 19.4789 33.0854 19.3121 33.4851 19.31L34.9461 19.306L36.4091 19.2999C36.8088 19.2999 37.1705 19.4667 37.4343 19.7313C37.6982 19.9979 37.8621 20.3662 37.864 20.7732L37.87 22.2628L37.8741 23.7503ZM46.1475 23.7523C46.1475 24.1593 45.9856 24.5297 45.7238 24.7983C45.462 25.0669 45.1002 25.2338 44.6985 25.2358L43.2375 25.2399L41.7745 25.244C41.3748 25.246 41.0111 25.0812 40.7473 24.8146C40.4834 24.5501 40.3196 24.1797 40.3196 23.7727L40.3136 22.2831L40.3095 20.7956C40.3076 20.3865 40.4694 20.0162 40.7313 19.7476C40.9931 19.4789 41.3548 19.3121 41.7566 19.31L43.2175 19.306L44.6805 19.2999C45.0823 19.2917 45.45 19.4464 45.7198 19.7089C45.9896 19.9694 46.1635 20.3336 46.1735 20.7426V20.7589V20.7732L46.1595 22.2628L46.1475 23.7523ZM29.6062 32.1704C29.6062 32.5773 29.4463 32.9477 29.1825 33.2163C28.9206 33.4849 28.5609 33.6518 28.1592 33.6538L26.6982 33.6579L25.2352 33.664C24.8355 33.664 24.4737 33.4992 24.2099 33.2326C23.9461 32.9681 23.7822 32.5997 23.7782 32.1927L23.7742 30.7011L23.7682 29.2136C23.7682 28.8066 23.9301 28.4362 24.1919 28.1676C24.4537 27.899 24.8155 27.7321 25.2152 27.7301L26.6782 27.724L28.1412 27.7199C28.5409 27.7199 28.9026 27.8868 29.1665 28.1513C29.4303 28.4179 29.5942 28.7862 29.5962 29.1932L29.6022 30.6828L29.6062 32.1704ZM37.8778 32.1704C37.8778 32.5773 37.7179 32.9477 37.4561 33.2163C37.1943 33.4849 36.8326 33.6518 36.4308 33.6538L34.9699 33.6579L33.5069 33.664C33.1071 33.664 32.7454 33.4992 32.4816 33.2326C32.2178 32.9681 32.0539 32.5997 32.0519 32.1927L32.0459 30.7011L32.0399 29.2136C32.0399 28.8066 32.2018 28.4362 32.4636 28.1676C32.7254 27.899 33.0872 27.7321 33.4889 27.7301L34.9499 27.724L36.4129 27.7199C36.8126 27.7199 37.1743 27.8868 37.4381 28.1513C37.702 28.4179 37.8658 28.7862 37.8678 29.1932L37.8738 30.6828L37.8778 32.1704ZM46.1495 32.1704C46.1495 32.5773 45.9896 32.9477 45.7278 33.2163C45.466 33.4849 45.1042 33.6518 44.7025 33.6538L43.2415 33.6579L41.7785 33.664C41.3788 33.664 41.0151 33.5012 40.7512 33.2346C40.4874 32.9701 40.3235 32.5997 40.3235 32.1927L40.3176 30.7011L40.3116 29.2136C40.3116 28.8066 40.4714 28.4362 40.7353 28.1676C40.9971 27.899 41.3588 27.7321 41.7606 27.7301L43.2215 27.724L44.6845 27.7199C45.0843 27.7199 45.446 27.8868 45.7098 28.1513C45.9736 28.4179 46.1375 28.7862 46.1395 29.1932L46.1455 30.6828L46.1495 32.1704ZM29.6102 40.5886C29.6122 40.9955 29.4503 41.3679 29.1885 41.6366C28.9266 41.9031 28.5649 42.072 28.1632 42.072L26.7022 42.0761L25.2392 42.0802C24.8375 42.0822 24.4757 41.9174 24.2119 41.6508C23.9481 41.3863 23.7842 41.0179 23.7822 40.6089L23.7782 39.1193L23.7722 37.6318C23.7722 37.2248 23.9341 36.8544 24.1959 36.5858C24.4577 36.3172 24.8195 36.1503 25.2192 36.1483L26.6802 36.1422L28.1452 36.1381C28.5449 36.1361 28.9066 36.3029 29.1705 36.5675C29.4343 36.8341 29.5982 37.2044 29.6002 37.6114L29.6042 39.101L29.6102 40.5886ZM37.8819 40.5886C37.8838 40.9955 37.7219 41.3679 37.4601 41.6366C37.1983 41.9031 36.8366 42.072 36.4348 42.072L34.9738 42.0761L33.5109 42.0802C33.1091 42.0822 32.7474 41.9174 32.4836 41.6508C32.2198 41.3863 32.0559 41.0179 32.0539 40.6089L32.0499 39.1193L32.0439 37.6318C32.0439 37.2248 32.2058 36.8544 32.4676 36.5858C32.7294 36.3172 33.0912 36.1503 33.4909 36.1483L34.9539 36.1422L36.4168 36.1381C36.8166 36.1361 37.1783 36.3029 37.4421 36.5675C37.706 36.8341 37.8698 37.2044 37.8718 37.6114L37.8778 39.101L37.8819 40.5886ZM46.1533 40.5886C46.1553 40.9955 45.9934 41.3679 45.7316 41.6366C45.4698 41.9031 45.108 42.072 44.7063 42.072L43.2453 42.0761L41.7823 42.0802C41.3806 42.0822 41.0189 41.9174 40.7551 41.6508C40.4912 41.3863 40.3273 41.0179 40.3253 40.6089L40.3213 39.1193L40.3154 37.6318C40.3154 37.2248 40.4752 36.8524 40.7371 36.5838C40.9989 36.3151 41.3626 36.1483 41.7643 36.1483L43.2253 36.1422L44.6883 36.1381C45.0881 36.1361 45.4498 36.3029 45.7136 36.5675C45.9774 36.8341 46.1413 37.2044 46.1433 37.6114L46.1493 39.101L46.1533 40.5886Z" fill="#43A046"/>
</svg>
