<svg width="66" height="66" viewBox="0 0 66 66" fill="none" xmlns="http://www.w3.org/2000/svg">
<path fillRule="evenodd" clipRule="evenodd" d="M4.9201 0.599976H14.2423V4.0104H27.8844V0.599976H38.1143V4.00982H51.7565V0.599976H61.0801C63.466 0.599976 65.4001 2.53411 65.4001 4.91998V14.242H61.9892V27.8842H65.4001V38.1157H61.9892V51.7579H65.4001V61.08C65.4001 63.4659 63.466 65.4 61.0801 65.4H51.7565V61.9887H38.1143V65.4H27.8844V61.9893H14.2423V65.4H4.9201C2.53423 65.4 0.600098 63.4659 0.600098 61.08V51.7579H4.01098V38.1157H0.600098V27.884H4.01028V14.242H0.600098V4.91998C0.600098 2.5341 2.53423 0.599976 4.9201 0.599976V0.599976ZM42.5477 33.7994C44.3893 31.9431 45.3104 29.5213 45.3104 26.534C45.3104 24.1267 44.8898 22.1979 44.0487 20.7477C43.2074 19.283 41.8153 18.1953 39.8721 17.4847C37.9433 16.7741 35.3329 16.4188 32.0411 16.4188H19.8376V20.5084H23.9272V45.1109H19.8376V49.2004H33.1504V45.1109H28.8868V36.6273H33.1939C37.5879 36.5983 40.7059 35.6557 42.5477 33.7994ZM38.4798 21.9441C39.6836 22.8866 40.2854 24.3805 40.2854 26.4252C40.2854 28.0348 40.0026 29.2967 39.4369 30.2101C38.8714 31.1093 37.9869 31.7474 36.7831 32.1245C35.5796 32.487 33.9697 32.6682 31.954 32.6682H28.8868V20.5084H32.302C35.2169 20.5084 37.2762 20.9869 38.4798 21.9441Z" fill="#FADE4B"/>
<path d="M45.3104 26.5341C45.3104 29.5214 44.3894 31.9432 42.5478 33.7995C40.7059 35.6558 37.588 36.5984 33.1939 36.6273H28.8869V45.1109H33.1505V49.2005H19.8376V45.1109H23.9273V20.5084H19.8376V16.4189H32.0411C35.3329 16.4189 37.9433 16.7742 39.8722 17.4848C41.8153 18.1954 43.2074 19.283 44.0488 20.7477C44.8899 22.1979 45.3104 24.1268 45.3104 26.5341ZM40.2854 26.4252C40.2854 24.3806 39.6836 22.8867 38.4799 21.9441C37.2763 20.987 35.217 20.5084 32.302 20.5084H28.8869V32.6683H31.9541C33.9698 32.6683 35.5796 32.487 36.7832 32.1246C37.9869 31.7475 38.8715 31.1094 39.4369 30.2102C40.0027 29.2967 40.2854 28.0348 40.2854 26.4252Z" fill="#333333"/>
</svg>
