<svg width="70" height="70" viewBox="0 0 70 70" fill="none" xmlns="http://www.w3.org/2000/svg">
<mask id="mask0" mask-type="alpha" maskUnits="userSpaceOnUse" x="0" y="0" width="70" height="70">
<path d="M70 35C70 54.3298 54.3298 70 35 70C15.6702 70 0 54.3298 0 35C0 15.6702 15.6702 0 35 0C54.3298 0 70 15.6702 70 35Z" fill="white"/>
</mask>
<g mask="url(#mask0)">
<path d="M70 35C70 54.3298 54.3298 70 35 70C15.6702 70 0 54.3298 0 35C0 15.6702 15.6702 0 35 0C54.3298 0 70 15.6702 70 35Z" fill="#67BF79"/>
<path d="M70 35C70 54.3298 54.3298 70 35 70C15.6702 70 0 54.3298 0 35C0 15.6702 15.6702 0 35 0C54.3298 0 70 15.6702 70 35Z" fill="#67BF79"/>
<path d="M17.257 51.1388L26.2987 19.6875L43.9445 36.3612L54.6875 24.6457L78.6223 48.2404L48.3134 82.3897L17.257 51.1388Z" fill="url(#paint0_linear)"/>
<path d="M21.0548 51.844C16.4794 51.844 16.4794 51.844 16.4794 47.2686V22.1486C16.4794 17.5731 16.4794 17.5731 21.0548 17.5731H21.9664C26.5419 17.5731 26.5419 17.5731 26.5419 22.1486V47.2686C26.5419 51.844 26.5419 51.844 21.9664 51.844H21.0548ZM33.0973 51.844C31.5389 51.844 30.7709 51.0759 30.7709 49.5176V19.8993C30.7709 18.3412 31.5389 17.5731 33.0973 17.5731H43.3613C52.16 17.5731 57.7518 26.3978 57.7518 34.8066C57.7518 43.2154 52.1113 51.844 43.3613 51.844H33.0973Z" fill="white"/>
</g>
<defs>
<linearGradient id="paint0_linear" x1="22.5282" y1="20.9127" x2="65.7486" y2="65.0913" gradientUnits="userSpaceOnUse">
<stop stop-color="#4CB36B"/>
<stop offset="1" stop-color="#3EA16F"/>
</linearGradient>
</defs>
</svg>
