<svg width="72" height="72" viewBox="0 0 72 72" fill="none" xmlns="http://www.w3.org/2000/svg">
<path d="M57.4901 9.81812H56.3011C55.7482 9.81812 55.1921 9.87564 54.6488 9.9907L6.31214 20.2435C2.65589 21.0186 0 24.2961 0 28.0354C0 32.4268 3.57315 35.9999 7.96449 35.9999H9.15341C9.70632 35.9999 10.2624 35.9424 10.8058 35.8273L59.1424 25.5745C62.7986 24.7995 65.4545 21.5219 65.4545 17.7826C65.4545 13.3913 61.8814 9.81812 57.4901 9.81812Z" fill="#89D3DE"/>
<path d="M64.0355 35.9998H62.8465C62.2936 35.9998 61.7375 36.0573 61.1942 36.1723L12.8576 46.4252C9.2013 47.2002 6.54541 50.4777 6.54541 54.2171C6.54541 58.6084 10.1186 62.1816 14.5099 62.1816H15.6988C16.2517 62.1816 16.8078 62.124 17.3512 62.009L65.6878 51.7561C69.3441 50.9811 72 47.7036 72 43.9642C72 39.5729 68.4268 35.9998 64.0355 35.9998Z" fill="#E01E5A"/>
<path d="M62.009 54.6488L51.7561 6.31214C50.9795 2.6543 47.7036 0 43.9642 0C39.5729 0 35.9998 3.57315 35.9998 7.96449V9.15501C35.9998 9.71591 36.0573 10.2736 36.1723 10.8058L46.4252 59.1424C47.2018 62.8002 50.4777 65.4545 54.2171 65.4545C58.6084 65.4545 62.1816 61.8814 62.1816 57.4901V56.2995C62.1816 55.7386 62.124 55.1809 62.009 54.6488Z" fill="#ECB32C"/>
<path d="M35.8273 61.1941L25.5745 12.8574C24.7979 9.19959 21.5219 6.54529 17.7826 6.54529C13.3913 6.54529 9.81812 10.1184 9.81812 14.5098V15.7003C9.81812 16.2612 9.87564 16.8189 9.9907 17.351L20.2435 65.6877C21.0202 69.3455 24.2961 71.9998 28.0354 71.9998C32.4268 71.9998 35.9999 68.4267 35.9999 64.0353V62.8448C35.9999 62.2839 35.9424 61.7262 35.8273 61.1941Z" fill="#65C2A1"/>
<path d="M31.8406 42.3991L16.0156 45.7559L19.3724 61.5809L35.1974 58.2241L31.8406 42.3991Z" fill="#331733"/>
<path d="M58.2239 36.8028L42.3989 40.1594L45.7556 55.9844L61.5806 52.6278L58.2239 36.8028Z" fill="#D62328"/>
<path d="M26.2442 16.0157L10.4192 19.3726L13.776 35.1975L29.601 31.8407L26.2442 16.0157Z" fill="#268C75"/>
<path d="M52.6275 10.4194L36.8025 13.7762L40.1593 29.6012L55.9843 26.2444L52.6275 10.4194Z" fill="#829C3C"/>
<path d="M64.0355 36H62.8466C62.2937 36 61.7376 36.0575 61.1942 36.1726L58.2237 36.8026L55.9843 26.2445L59.1424 25.5746C62.7986 24.7995 65.4545 21.522 65.4545 17.7827C65.4545 13.3913 61.8814 9.81818 57.4901 9.81818H56.3011C55.7482 9.81818 55.1921 9.87571 54.6488 9.99077L52.6277 10.4194L51.7564 6.31214C50.9798 2.6543 47.7038 0 43.9645 0C39.5732 0 36 3.57315 36 7.96449V9.15501C36 9.71591 36.0575 10.2736 36.1726 10.8058L36.8026 13.7763L26.2445 16.0157L25.5746 12.8576C24.7979 9.19975 21.522 6.54545 17.7827 6.54545C13.3913 6.54545 9.81818 10.1186 9.81818 14.5099V15.7005C9.81818 16.2614 9.87571 16.8191 9.99077 17.3512L10.4194 19.3723L6.31214 20.2436C2.65589 21.0186 0 24.2962 0 28.0355C0 32.4268 3.57315 36 7.96449 36H9.15341C9.70632 36 10.2624 35.9425 10.8058 35.8274L13.7763 35.1974L16.0157 45.7555L12.8576 46.4254C9.20135 47.2005 6.54545 50.478 6.54545 54.2173C6.54545 58.6087 10.1186 62.1818 14.5099 62.1818H15.6989C16.2518 62.1818 16.8079 62.1243 17.3512 62.0092L19.3723 61.5806L20.2436 65.6879C21.0202 69.3457 24.2962 72 28.0355 72C32.4268 72 36 68.4268 36 64.0355V62.845C36 62.2841 35.9425 61.7264 35.8274 61.1942L35.1974 58.2237L45.7555 55.9843L46.4254 59.1424C47.2021 62.8002 50.478 65.4545 54.2173 65.4545C58.6087 65.4545 62.1818 61.8814 62.1818 57.4901V56.2995C62.1818 55.7386 62.1243 55.1809 62.0092 54.6488L61.5806 52.6277L65.6879 51.7564C69.3441 50.9814 72 47.7038 72 43.9645C72 39.5732 68.4268 36 64.0355 36ZM31.8406 42.3988L29.6012 31.8406L40.1594 29.6012L42.3988 40.1594L31.8406 42.3988Z" fill="url(#paint0_linear)"/>
<defs>
<linearGradient id="paint0_linear" x1="2.70973" y1="20.4765" x2="69.2903" y2="51.5235" gradientUnits="userSpaceOnUse">
<stop stop-color="white" stop-opacity="0.2"/>
<stop offset="1" stop-color="white" stop-opacity="0"/>
</linearGradient>
</defs>
</svg>
