<svg xmlns="http://www.w3.org/2000/svg" width="40" height="67" viewBox="0 0 40 67"><title>Fill 9</title><path fill="#E15D2F" fillRule="evenodd" d="M19.986 60.1c-7.132 0-12.915-4.798-12.915-10.718s5.783-10.718 12.915-10.718c7.133 0 12.915 4.799 12.915 10.718 0 5.92-5.782 10.719-12.915 10.719zm13.102-33.688c-4.107 2.571-4.902 7.109-5.023 10.175-6.49-6.23 12.02-24.557-9.014-35.884C32.071 14.688.524 28.437.524 49.039c0 8.076 6.08 15.193 19.435 17.664 13.1-2.315 19.565-9.588 19.565-17.664 0-12.04-9.033-16.07-6.436-22.627z"/></svg>