<svg width="70" height="22" viewBox="0 0 70 22" fill="none" xmlns="http://www.w3.org/2000/svg">
<path d="M10.5316 0C16.3591 0 21.0632 4.70884 21.0632 10.5422C21.0632 16.3755 16.3591 21.0843 10.5316 21.0843C4.70411 21.0843 0 16.3755 0 10.5422C0 4.70884 4.70411 0 10.5316 0ZM10.5316 2.81125C6.24875 2.81125 2.80843 6.25502 2.80843 10.5422C2.80843 14.8293 6.24875 18.2731 10.5316 18.2731C14.8144 18.2731 18.2548 14.8293 18.2548 10.5422C18.2548 6.25502 14.8144 2.81125 10.5316 2.81125ZM28.4353 4.14658C28.5757 4.07631 28.7161 4.21687 28.7161 4.28715V7.30922H34.333C34.4032 7.30922 34.5437 7.44982 34.5437 7.52006L34.9649 9.27711L35.3862 11.0342L35.4563 11.245L35.5266 11.0342L36.5797 7.52006C36.5797 7.37952 36.7201 7.30922 36.7904 7.30922H39.5988C39.669 7.30922 39.8094 7.44982 39.8094 7.52006L40.9328 11.245L41.003 11.0342L41.9157 7.52006C41.9157 7.37952 42.0561 7.30922 42.1264 7.30922H49.2879C49.3581 7.30922 49.4283 7.44982 49.4283 7.52006V16.8675C49.4283 17.008 49.2879 17.0783 49.2176 17.0783H45.6369C45.4965 17.0783 45.4263 16.9378 45.4263 16.8675L45.4258 8.01205L42.7582 16.8675C42.7582 16.9905 42.6508 17.0597 42.5769 17.075L42.5477 17.0783H39.5988C39.5286 17.0783 39.3882 16.9378 39.3882 16.8675L38.8265 14.9699L38.1946 12.9317L36.9308 16.8675C36.9308 17.008 36.7904 17.0783 36.7202 17.0783H33.7713C33.7011 17.0783 33.5607 16.9378 33.5607 16.8675L30.8927 8.01205V10.261C30.8927 10.4016 30.7522 10.4719 30.6821 10.4719H28.6459V12.8614C28.6459 13.5643 28.997 13.8454 29.6289 13.8454C29.9097 13.8454 30.2608 13.7751 30.6118 13.6345C30.6821 13.5643 30.8225 13.6345 30.8225 13.7751V16.5863C30.1906 16.9378 29.2778 17.1486 28.2949 17.1486C25.9779 17.1486 24.7141 16.0944 24.7141 13.7751V10.4719H23.8014C23.661 10.4719 23.5908 10.3313 23.5908 10.261V7.59036C23.5908 7.44982 23.7312 7.37952 23.8014 7.37952H24.7141V5.48193C24.7141 5.34137 24.7844 5.27108 24.9248 5.27108L28.4353 4.14658ZM64.664 7.09837C67.7532 7.09837 70 9.41765 70 12.0884C70 14.759 67.7532 17.0783 64.5938 17.0783C61.5045 17.0783 59.2578 14.759 59.2578 12.0884C59.2578 9.41765 61.5045 7.09837 64.664 7.09837ZM53.992 4.14658C54.1324 4.14658 54.2026 4.21687 54.2026 4.28715V16.7972C54.2026 16.9378 54.0621 17.008 53.992 17.008H50.4112C50.2708 17.008 50.2006 16.8675 50.2006 16.7972V4.35743C50.2006 4.21687 50.341 4.14658 50.4112 4.14658H53.992ZM58.6961 7.30922C58.8365 7.30922 58.9067 7.44982 58.9067 7.52006V16.7269C58.9067 16.8675 58.7663 16.9378 58.6961 16.9378H55.1153C54.9749 16.9378 54.9047 16.7972 54.9047 16.7269V7.52006C54.9047 7.37952 55.0451 7.30922 55.1153 7.30922H58.6961ZM7.93377 10.9639C9.12741 10.9639 10.1103 11.9478 10.1103 13.1426C10.1103 14.3373 9.12741 15.3213 7.93377 15.3213C6.7402 15.3213 5.75727 14.3373 5.75727 13.1426C5.75727 11.9478 6.7402 10.9639 7.93377 10.9639ZM13.1294 10.9639C14.323 10.9639 15.3059 11.9478 15.3059 13.1426C15.3059 14.3373 14.323 15.3213 13.1294 15.3213C11.9358 15.3213 10.9529 14.3373 10.9529 13.1426C10.9529 11.9478 11.9358 10.9639 13.1294 10.9639ZM64.664 10.4719C63.7513 10.4719 63.1193 11.245 63.1193 12.1586C63.1193 13.0723 63.8214 13.8454 64.664 13.8454C65.5767 13.8454 66.2088 13.0723 66.2088 12.1586C66.2088 11.1747 65.5065 10.4016 64.664 10.4719ZM13.1294 5.76305C14.323 5.76305 15.3059 6.74699 15.3059 7.94174C15.3059 9.13657 14.323 10.1205 13.1294 10.1205C11.9358 10.1205 10.9529 9.13657 10.9529 7.94174C10.9529 6.74699 11.9358 5.76305 13.1294 5.76305ZM7.93377 5.76305C9.12741 5.76305 10.1103 6.74699 10.1103 7.94174C10.1103 9.13657 9.12741 10.1205 7.93377 10.1205C6.7402 10.1205 5.75727 9.13657 5.75727 7.94174C5.75727 6.74699 6.7402 5.76305 7.93377 5.76305ZM49.3581 4.14658C49.4283 4.14658 49.4985 4.21687 49.5687 4.28715V6.53614C49.5687 6.67668 49.4283 6.74699 49.3581 6.74699H45.6369C45.4965 6.74699 45.4263 6.60645 45.4263 6.53614V4.35743C45.4263 4.21687 45.5667 4.14658 45.6369 4.14658H49.3581ZM58.7663 4.14658C58.9067 4.14658 58.9769 4.21687 58.9769 4.28715V6.53614C58.9769 6.67668 58.8365 6.74699 58.7663 6.74699H55.0451C54.9047 6.74699 54.8345 6.60645 54.8345 6.53614V4.35743C54.8345 4.21687 54.9749 4.14658 55.0451 4.14658H58.7663Z" fill="#F22F46"/>
</svg>
