<svg width="88" height="88" viewBox="0 0 88 88" fill="none" xmlns="http://www.w3.org/2000/svg">
<circle cx="39" cy="49" r="21" fill="#FCEDE3"/>
<path d="M27.5 43L28.3487 43.1936C28.4076 42.9353 28.3457 42.6643 28.1806 42.4572C28.0154 42.2501 27.7649 42.1295 27.5 42.1295V43ZM26.3813 47.9049L25.5326 47.7114L26.3813 47.9049ZM27.814 49.0164L27.4156 48.2424H27.4156L27.814 49.0164ZM39.5 43V42.1295C39.3614 42.1295 39.2248 42.1626 39.1015 42.226L39.5 43ZM21.8705 22C21.8705 19.1671 24.1671 16.8705 27 16.8705V15.1295C23.2055 15.1295 20.1295 18.2055 20.1295 22H21.8705ZM21.8705 37V22H20.1295V37H21.8705ZM27 42.1295C24.1671 42.1295 21.8705 39.8329 21.8705 37H20.1295C20.1295 40.7945 23.2055 43.8705 27 43.8705V42.1295ZM27.5 42.1295H27V43.8705H27.5V42.1295ZM27.23 48.0985L28.3487 43.1936L26.6513 42.8064L25.5326 47.7114L27.23 48.0985ZM27.4156 48.2424C27.3821 48.2597 27.3598 48.2604 27.3441 48.2586C27.3244 48.2564 27.3002 48.2476 27.2769 48.2296C27.2537 48.2116 27.2392 48.1903 27.2321 48.1718C27.2265 48.157 27.2217 48.1352 27.23 48.0985L25.5326 47.7114C25.179 49.2618 26.7986 50.5183 28.2125 49.7904L27.4156 48.2424ZM39.1015 42.226L27.4156 48.2424L28.2125 49.7904L39.8985 43.774L39.1015 42.226ZM50 42.1295H39.5V43.8705H50V42.1295ZM55.1295 37C55.1295 39.8329 52.8329 42.1295 50 42.1295V43.8705C53.7945 43.8705 56.8705 40.7945 56.8705 37H55.1295ZM55.1295 22V37H56.8705V22H55.1295ZM50 16.8705C52.8329 16.8705 55.1295 19.1671 55.1295 22H56.8705C56.8705 18.2055 53.7945 15.1295 50 15.1295V16.8705ZM27 16.8705H50V15.1295H27V16.8705Z" fill="#2C1338"/>
<line x1="27.8705" y1="23.1295" x2="47.841" y2="23.1295" stroke="#2C1338" stroke-width="1.74104" stroke-linecap="round" stroke-linejoin="round"/>
<line x1="27.8705" y1="35.1295" x2="43.1295" y2="35.1295" stroke="#2C1338" stroke-width="1.74104" stroke-linecap="round" stroke-linejoin="round"/>
<line x1="27.8705" y1="29.1295" x2="39.1564" y2="29.1295" stroke="#2C1338" stroke-width="1.74104" stroke-linecap="round" stroke-linejoin="round"/>
<path d="M55.0001 67.9295L55.3985 67.1555C55.2753 67.0921 55.1387 67.059 55.0001 67.059V67.9295ZM62.1183 71.5942L62.5168 70.8202V70.8202L62.1183 71.5942ZM63.551 70.4828L64.3997 70.2892L63.551 70.4828ZM62.9687 67.9295V67.059C62.7038 67.059 62.4533 67.1796 62.2881 67.3867C62.1229 67.5938 62.061 67.8648 62.1199 68.123L62.9687 67.9295ZM46.8705 54C46.8705 52.2716 48.2716 50.8705 50 50.8705V49.1295C47.3101 49.1295 45.1295 51.3101 45.1295 54H46.8705ZM46.8705 63.9295V54H45.1295V63.9295H46.8705ZM50 67.059C48.2716 67.059 46.8705 65.6578 46.8705 63.9295H45.1295C45.1295 66.6194 47.3101 68.8 50 68.8V67.059ZM55.0001 67.059H50V68.8H55.0001V67.059ZM54.6016 68.7034L61.7198 72.3682L62.5168 70.8202L55.3985 67.1555L54.6016 68.7034ZM61.7198 72.3682C63.1337 73.0961 64.7533 71.8396 64.3997 70.2892L62.7023 70.6763C62.7106 70.7131 62.7058 70.7349 62.7002 70.7496C62.6931 70.7681 62.6786 70.7894 62.6554 70.8074C62.6322 70.8255 62.6079 70.8342 62.5882 70.8365C62.5726 70.8383 62.5503 70.8375 62.5168 70.8202L61.7198 72.3682ZM64.3997 70.2892L63.8174 67.7359L62.1199 68.123L62.7023 70.6763L64.3997 70.2892ZM65.2419 67.059H62.9687V68.8H65.2419V67.059ZM68.3714 63.9295C68.3714 65.6578 66.9703 67.059 65.2419 67.059V68.8C67.9318 68.8 70.1124 66.6194 70.1124 63.9295H68.3714ZM68.3714 54V63.9295H70.1124V54H68.3714ZM65.2419 50.8705C66.9703 50.8705 68.3714 52.2716 68.3714 54H70.1124C70.1124 51.3101 67.9318 49.1295 65.2419 49.1295V50.8705ZM50 50.8705H65.2419V49.1295H50V50.8705Z" fill="#2C1338"/>
<line x1="50.8705" y1="56.1295" x2="58.1295" y2="56.1295" stroke="#2C1338" stroke-width="1.74104" stroke-linecap="round" stroke-linejoin="round"/>
<line x1="50.8705" y1="61.1295" x2="63.1295" y2="61.1295" stroke="#2C1338" stroke-width="1.74104" stroke-linecap="round" stroke-linejoin="round"/>
</svg>
