<svg width="88" height="88" viewBox="0 0 88 88" fill="none" xmlns="http://www.w3.org/2000/svg">
<circle cx="48" cy="41" r="22" fill="#FCEDE3"/>
<path d="M27.7702 27.9949C27.7702 26.8903 28.6656 26 29.7702 26H56.1662C57.2708 26 58.1662 26.8879 58.1662 27.9925C58.1662 33.187 58.1662 47.3547 58.1662 56.2249C58.1662 65.9951 52.7383 65.9951 52.7383 65.9951H22.3423C22.3423 65.9951 27.7702 66.5379 27.7702 56.2249C27.7702 47.8929 27.7702 33.2953 27.7702 27.9949Z" stroke="#2C1338" stroke-width="1.74104" stroke-linecap="round" stroke-linejoin="round"/>
<line x1="32.9829" y1="45.1295" x2="52.9534" y2="45.1295" stroke="#2C1338" stroke-width="1.74104" stroke-linecap="round" stroke-linejoin="round"/>
<line x1="32.9829" y1="51.5573" x2="44.2688" y2="51.5573" stroke="#2C1338" stroke-width="1.74104" stroke-linecap="round" stroke-linejoin="round"/>
<line x1="32.9829" y1="57.9852" x2="50.7822" y2="57.9852" stroke="#2C1338" stroke-width="1.74104" stroke-linecap="round" stroke-linejoin="round"/>
<path d="M27.2274 52.9681H20.0041C18.8973 52.9681 18 53.8654 18 54.9723V61.6527C18 64.0509 19.9441 65.995 22.3423 65.995V65.995" stroke="#2C1338" stroke-width="1.74104" stroke-linecap="round" stroke-linejoin="round"/>
<circle cx="36.5" cy="35.5" r="3.5" stroke="#2C1338" stroke-width="1.74104" stroke-linecap="round" stroke-linejoin="round"/>
</svg>
