<svg width="88" height="88" viewBox="0 0 88 88" fill="none" xmlns="http://www.w3.org/2000/svg">
<circle cx="47" cy="36" r="21" fill="#FCEDE3"/>
<path d="M32.5 69.875L32.5 33.625C32.5 32.5204 33.3954 31.625 34.5 31.625L58.2702 31.625C59.1526 31.625 59.6025 32.6845 58.9898 33.3194L50.7703 41.8364C50.3876 42.2328 50.3978 42.8641 50.7931 43.2481L58.8572 51.0818C59.5013 51.7075 59.0583 52.7991 58.1604 52.7991L32.5 52.7991" stroke="#2C1338" stroke-width="1.74104" stroke-linecap="round" stroke-linejoin="round"/>
<path d="M22.8409 26.18V25.3094L22.8373 25.3094L22.8409 26.18ZM25.5427 19.6634L24.9242 20.276C25.1249 20.4786 25.4121 20.5701 25.6929 20.5208C25.9738 20.4716 26.2128 20.288 26.3326 20.0292L25.5427 19.6634ZM34.2737 21.0952L33.4081 21.188C33.4383 21.4702 33.6042 21.7199 33.8526 21.8572C34.1011 21.9944 34.4008 22.002 34.6558 21.8774L34.2737 21.0952ZM35.2493 26.1727L35.3128 25.3045C35.2687 25.3012 35.2244 25.3014 35.1804 25.3049L35.2493 26.1727ZM29.7316 26.18V25.3094L29.7275 25.3094L29.7316 26.18ZM29.6884 26.18L29.6925 25.3094H29.6884V26.18ZM22.8373 25.3094C22.8333 25.3095 22.8292 25.3095 22.825 25.3095V27.0505C22.8315 27.0505 22.838 27.0505 22.8445 27.0505L22.8373 25.3094ZM22.825 25.3095C21.1933 25.3095 19.8705 23.9867 19.8705 22.355H18.1295C18.1295 24.9482 20.2317 27.0505 22.825 27.0505V25.3095ZM19.8705 22.355C19.8705 20.7233 21.1933 19.4005 22.825 19.4005V17.6595C20.2317 17.6595 18.1295 19.7617 18.1295 22.355H19.8705ZM22.825 19.4005C23.6462 19.4005 24.3878 19.7344 24.9242 20.276L26.1612 19.0508C25.3112 18.1926 24.1296 17.6595 22.825 17.6595V19.4005ZM26.3326 20.0292C26.9237 18.7529 28.2147 17.8705 29.71 17.8705V16.1295C27.5115 16.1295 25.6182 17.4288 24.7528 19.2976L26.3326 20.0292ZM29.71 17.8705C31.6282 17.8705 33.2082 19.3233 33.4081 21.188L35.1392 21.0025C34.8456 18.2626 32.5275 16.1295 29.71 16.1295V17.8705ZM34.6558 21.8774C34.8938 21.7611 35.1618 21.6954 35.4475 21.6954V19.9544C34.8911 19.9544 34.3623 20.0831 33.8915 20.3131L34.6558 21.8774ZM35.4475 21.6954C36.4455 21.6954 37.2545 22.5044 37.2545 23.5024H38.9955C38.9955 21.5429 37.407 19.9544 35.4475 19.9544V21.6954ZM37.2545 23.5024C37.2545 24.5004 36.4455 25.3094 35.4475 25.3094V27.0504C37.407 27.0504 38.9955 25.4619 38.9955 23.5024H37.2545ZM35.4475 25.3094C35.402 25.3094 35.3571 25.3077 35.3128 25.3045L35.1857 27.0409C35.2723 27.0472 35.3596 27.0504 35.4475 27.0504V25.3094ZM35.1804 25.3049C35.1425 25.3079 35.104 25.3094 35.0651 25.3094V27.0505C35.1501 27.0505 35.2345 27.0471 35.3182 27.0404L35.1804 25.3049ZM35.0651 25.3094H29.7316V27.0505H35.0651V25.3094ZM29.7275 25.3094C29.7217 25.3095 29.7159 25.3095 29.71 25.3095V27.0505C29.7185 27.0505 29.727 27.0505 29.7356 27.0505L29.7275 25.3094ZM29.71 25.3095C29.7041 25.3095 29.6983 25.3095 29.6925 25.3094L29.6844 27.0505C29.693 27.0505 29.7015 27.0505 29.71 27.0505V25.3095ZM29.6884 25.3094H22.8409V27.0505H29.6884V25.3094Z" fill="#2C1338"/>
<path d="M55.9152 70.9999L55.9249 70.1294L55.921 70.1294L55.9152 70.9999ZM58.2689 65.4097L57.6504 66.0223C57.851 66.2249 58.1382 66.3164 58.4191 66.2672C58.7 66.218 58.939 66.0343 59.0588 65.7756L58.2689 65.4097ZM65.7586 66.6381L64.8931 66.7309C64.9233 67.0131 65.0892 67.2628 65.3376 67.4001C65.586 67.5373 65.8858 67.5449 66.1408 67.4203L65.7586 66.6381ZM66.5955 70.9938L66.6591 70.1256C66.615 70.1223 66.5707 70.1225 66.5266 70.126L66.5955 70.9938ZM55.921 70.1294C54.5973 70.1206 53.5268 69.0446 53.5268 67.7187H51.7857C51.7857 70.0023 53.6293 71.8552 55.9094 71.8704L55.921 70.1294ZM53.5268 67.7187C53.5268 66.3873 54.6061 65.308 55.9375 65.308V63.5669C53.6445 63.5669 51.7857 65.4257 51.7857 67.7187H53.5268ZM55.9375 65.308C56.6076 65.308 57.2125 65.5802 57.6504 66.0223L58.8874 64.7971C58.1359 64.0385 57.091 63.5669 55.9375 63.5669V65.308ZM59.0588 65.7756C59.5463 64.7228 60.611 63.9955 61.8437 63.9955V62.2545C59.9078 62.2545 58.2409 63.3987 57.4789 65.0439L59.0588 65.7756ZM61.8437 63.9955C63.4253 63.9955 64.7283 65.1934 64.8931 66.7309L66.6242 66.5454C66.3657 64.1328 64.3246 62.2545 61.8437 62.2545V63.9955ZM66.1408 67.4203C66.3285 67.3286 66.5397 67.2767 66.7656 67.2767V65.5357C66.2691 65.5357 65.7969 65.6506 65.3765 65.856L66.1408 67.4203ZM66.7656 67.2767C67.5534 67.2767 68.192 67.9153 68.192 68.7031H69.933C69.933 66.9538 68.5149 65.5357 66.7656 65.5357V67.2767ZM68.192 68.7031C68.192 69.4908 67.5534 70.1294 66.7656 70.1294V71.8705C68.5149 71.8705 69.933 70.4524 69.933 68.7031H68.192ZM66.7656 70.1294C66.7296 70.1294 66.6941 70.1281 66.6591 70.1256L66.532 71.8619C66.6093 71.8676 66.6872 71.8705 66.7656 71.8705V70.1294ZM66.5266 70.126C66.4974 70.1283 66.4677 70.1295 66.4375 70.1295V71.8705C66.5137 71.8705 66.5894 71.8675 66.6644 71.8615L66.5266 70.126ZM66.4375 70.1295H61.8437V71.8705H66.4375V70.1295ZM61.8437 70.1295H55.9375V71.8705H61.8437V70.1295ZM55.9375 70.1295C55.933 70.1295 55.9288 70.1295 55.9249 70.1294L55.9056 71.8703C55.9165 71.8705 55.9271 71.8705 55.9375 71.8705V70.1295Z" fill="#2C1338"/>
</svg>
