<svg width="88" height="88" viewBox="0 0 88 88" fill="none" xmlns="http://www.w3.org/2000/svg">
<circle cx="41" cy="46" r="24" fill="#FCEDE3"/>
<path d="M65.0624 22.8766C56.8272 19.2536 51.0006 28.0757 51.0006 28.0757C51.0006 28.0757 45.174 19.2536 36.9388 22.8707C30.4982 25.7055 28.1251 33.6159 31.5963 39.7208C34.2705 44.4259 39.7488 50.3543 50.0442 57.6943C50.3243 57.8931 50.6596 58 51.0035 58C51.3474 58 51.6828 57.8931 51.9628 57.6943C62.2524 50.3602 67.7307 44.4259 70.4049 39.7267C73.8761 33.6218 71.497 25.7114 65.0624 22.8766Z" stroke="#2C1338" stroke-width="1.74104" stroke-linecap="round" stroke-linejoin="round"/>
<path d="M62.3266 30C66.049 33.3846 62.7919 38.4615 60 41" stroke="#2C1338" stroke-width="1.74104" stroke-linecap="round" stroke-linejoin="round"/>
<path d="M20.1959 64.08L20.1971 63.2095L20.1967 63.2095L20.1959 64.08ZM23.1841 56.9245L22.5656 57.5371C22.7663 57.7397 23.0535 57.8312 23.3344 57.782C23.6153 57.7327 23.8542 57.5491 23.9741 57.2903L23.1841 56.9245ZM32.7711 58.4969L31.9055 58.5896C31.9357 58.8718 32.1016 59.1216 32.3501 59.2588C32.5985 59.3961 32.8982 59.4036 33.1532 59.279L32.7711 58.4969ZM33.8419 64.072L33.9055 63.2038C33.8614 63.2006 33.8172 63.2007 33.7731 63.2042L33.8419 64.072ZM20.1967 63.2095C18.3594 63.2077 16.8705 61.7177 16.8705 59.88H15.1295C15.1295 62.6787 17.397 64.9478 20.1951 64.9505L20.1967 63.2095ZM16.8705 59.88C16.8705 58.0412 18.3612 56.5505 20.2 56.5505V54.8095C17.3996 54.8095 15.1295 57.0796 15.1295 59.88H16.8705ZM20.2 56.5505C21.1254 56.5505 21.9613 56.9269 22.5656 57.5371L23.8026 56.3119C22.8847 55.3851 21.6088 54.8095 20.2 54.8095V56.5505ZM23.9741 57.2903C24.6365 55.8599 26.0836 54.8705 27.76 54.8705V53.1295C25.3804 53.1295 23.331 54.5357 22.3942 56.5587L23.9741 57.2903ZM27.76 54.8705C29.9104 54.8705 31.6815 56.4991 31.9055 58.5896L33.6366 58.4041C33.3189 55.4385 30.8096 53.1295 27.76 53.1295V54.8705ZM33.1532 59.279C33.426 59.1457 33.733 59.0705 34.06 59.0705V57.3295C33.4623 57.3295 32.8945 57.4677 32.3889 57.7147L33.1532 59.279ZM34.06 59.0705C35.2029 59.0705 36.1295 59.9971 36.1295 61.14H37.8705C37.8705 59.0355 36.1645 57.3295 34.06 57.3295V59.0705ZM36.1295 61.14C36.1295 62.2829 35.2029 63.2095 34.06 63.2095V64.9505C36.1645 64.9505 37.8705 63.2445 37.8705 61.14H36.1295ZM34.06 63.2095C34.0079 63.2095 33.9564 63.2076 33.9055 63.2038L33.7782 64.9402C33.8714 64.9471 33.9654 64.9505 34.06 64.9505V63.2095ZM33.7731 63.2042C33.7293 63.2077 33.685 63.2095 33.64 63.2095V64.9505C33.7309 64.9505 33.8212 64.9469 33.9107 64.9398L33.7731 63.2042ZM33.64 63.2095H27.76V64.9505H33.64V63.2095ZM27.76 63.2095H20.2V64.9505H27.76V63.2095ZM20.2 63.2095H20.2V64.9505H20.2V63.2095ZM20.2 63.2095C20.1985 63.2095 20.1978 63.2095 20.1971 63.2095L20.1947 64.9505C20.1968 64.9505 20.1987 64.9505 20.2 64.9505V63.2095Z" fill="#2C1338"/>
</svg>
