<svg xmlns="http://www.w3.org/2000/svg" width="26" height="24" fill="none" viewBox="0 0 26 24"><path fill="#fff" d="M12.32 8.823c.213-.321.446-.362.635-.362.188 0 .503.04.716.362 1.676 2.362 4.442 7.067 6.483 10.538 1.33 2.263 2.353 4.002 2.563 4.223.787.83 1.867.313 2.494-.63.618-.927.789-1.578.789-2.273 0-.473-8.948-17.547-9.85-18.969C15.285.345 15.003 0 13.52 0h-1.11c-1.48 0-1.693.345-2.56 1.712C8.95 3.134 0 20.208 0 20.682c0 .694.171 1.345.79 2.273.626.942 1.706 1.46 2.493.629.21-.221 1.232-1.96 2.563-4.223 2.04-3.47 4.798-8.176 6.474-10.538z"/></svg>