<svg xmlns="http://www.w3.org/2000/svg" width="28" height="28" fill="none" viewBox="0 0 28 28"><path fill="#fff" d="M9.845.525v8.953H.892v17.906h17.906V18.43h8.953V.525H9.845z"/><path fill="#AEE1F3" d="M.891 9.478v8.952-8.952zm0 0h8.953H.891z"/><path fill="#fff" d="M.891 9.478v8.952h8.953v8.953h8.953V18.43H9.844V9.478H.891z"/><path fill="#fff" d="M.891 9.478v8.952h8.953v8.953h8.953V18.43H9.844V9.478H.891z"/><path fill="#fff" d="M9.844 18.43H.891v8.953h8.953V18.43z"/><path fill="#00B3E3" d="M18.797.525H9.844h8.953zM27.75 18.43V9.478v8.952z"/><path fill="#fff" d="M27.75 18.43h-8.953V9.478H9.844V.525h8.953v8.953h8.953v8.952z"/><path fill="#fff" d="M27.75 18.43h-8.953V9.478H9.844V.525h8.953v8.953h8.953v8.952z"/><path fill="#fff" d="M18.798 9.478H9.845v8.952h8.953V9.478z"/><path fill="#DDD9DF" d="M18.798 9.478H9.845v8.952h8.953V9.478z"/><path fill="#fff" d="M27.75.525h-8.953v8.953h8.953V.525z"/></svg>