<svg xmlns="http://www.w3.org/2000/svg" width="30" height="30" fill="none" viewBox="0 0 30 30"><path fill="#fff" d="M30 15c0 8.284-6.716 15-15 15-8.284 0-15-6.716-15-15C0 6.716 6.716 0 15 0c8.284 0 15 6.716 15 15zm-3.984 0c0 6.084-4.932 11.016-11.016 11.016S3.984 21.084 3.984 15 8.916 3.984 15 3.984 26.016 8.916 26.016 15z"/><path fill="#fff" d="M11.31 14.414a3.105 3.105 0 100-6.21 3.105 3.105 0 000 6.21zM19.277 14.414a3.106 3.106 0 100-6.211 3.106 3.106 0 000 6.211zM11.309 22.383a3.106 3.106 0 100-6.211 3.106 3.106 0 000 6.21zM19.277 22.383a3.106 3.106 0 100-6.211 3.106 3.106 0 000 6.21z"/></svg>