<svg xmlns="http://www.w3.org/2000/svg" width="103.507" height="27.169" viewBox="0 0 103.507 27.169"><g transform="translate(0 0)"><g transform="translate(28.65 5.513)"><path d="M42.69,21.474a4.406,4.406,0,0,0,2.906-.831,2.886,2.886,0,0,0,.986-2.337,2.852,2.852,0,0,0-.263-1.244,2.6,2.6,0,0,0-.758-.939,3.529,3.529,0,0,0-1.218-.593,5.96,5.96,0,0,0-1.641-.207H39.025v6.151ZM39.025,8.553v6h3.159a5.126,5.126,0,0,0,1.729-.258,3.423,3.423,0,0,0,1.177-.681,2.651,2.651,0,0,0,.676-.959,2.93,2.93,0,0,0,.217-1.1,2.708,2.708,0,0,0-.934-2.234,4.535,4.535,0,0,0-2.885-.759h-3.14Zm3.139-.835a8.384,8.384,0,0,1,2.168.248,4.1,4.1,0,0,1,1.518.728,2.926,2.926,0,0,1,.888,1.171,4.021,4.021,0,0,1,.289,1.568,3.147,3.147,0,0,1-.2,1.115,3.43,3.43,0,0,1-.578.991,3.678,3.678,0,0,1-.929.789,4.49,4.49,0,0,1-1.265.511,4.657,4.657,0,0,1,2.648,1.14,3.119,3.119,0,0,1,.924,2.348A4.068,4.068,0,0,1,47.295,20a3.383,3.383,0,0,1-.96,1.26,4.384,4.384,0,0,1-1.549.789,7.329,7.329,0,0,1-2.085.273H37.962V7.718ZM51.393,7.3V22.32H50.4V7.3Zm4.573,4.747V22.32h-.98V12.052h.981Zm.423-3.54a.788.788,0,0,1-.077.346,1.038,1.038,0,0,1-.2.284.936.936,0,0,1-.289.2.895.895,0,0,1-.7,0,.936.936,0,0,1-.485-.48.828.828,0,0,1-.072-.346.9.9,0,0,1,.072-.356.916.916,0,0,1,.485-.491.886.886,0,0,1,.7,0,.924.924,0,0,1,.289.2,1,1,0,0,1,.2.294.855.855,0,0,1,.077.356Zm8.724,4.808a.26.26,0,0,1-.238.145.538.538,0,0,1-.289-.129,3.826,3.826,0,0,0-1.2-.578,3.724,3.724,0,0,0-1.053-.128,3.082,3.082,0,0,0-1.017.159,2.525,2.525,0,0,0-.785.429,1.884,1.884,0,0,0-.5.624,1.67,1.67,0,0,0-.176.749,1.275,1.275,0,0,0,.248.8,2.156,2.156,0,0,0,.645.547,4.774,4.774,0,0,0,.913.392q.516.164,1.048.33t1.048.366a3.831,3.831,0,0,1,.913.5,2.4,2.4,0,0,1,.646.733,2.1,2.1,0,0,1,.248,1.053,3.252,3.252,0,0,1-.238,1.249,2.786,2.786,0,0,1-.7,1,3.366,3.366,0,0,1-1.131.671,4.44,4.44,0,0,1-1.538.248,4.614,4.614,0,0,1-1.869-.346,5.244,5.244,0,0,1-1.4-.9l.226-.351a.375.375,0,0,1,.119-.124.343.343,0,0,1,.181-.041.55.55,0,0,1,.325.165,3.652,3.652,0,0,0,.511.356,4.4,4.4,0,0,0,.79.356,3.531,3.531,0,0,0,1.161.165,3.33,3.33,0,0,0,1.146-.181,2.363,2.363,0,0,0,.826-.491,2.042,2.042,0,0,0,.5-.727,2.325,2.325,0,0,0,.17-.883,1.417,1.417,0,0,0-.248-.856,2.125,2.125,0,0,0-.651-.578,4.547,4.547,0,0,0-.913-.4q-.512-.165-1.048-.331t-1.048-.361a3.811,3.811,0,0,1-.913-.5,2.391,2.391,0,0,1-.651-.728,2.1,2.1,0,0,1-.248-1.068,2.448,2.448,0,0,1,.238-1.053,2.674,2.674,0,0,1,.676-.887,3.315,3.315,0,0,1,1.069-.609,4.156,4.156,0,0,1,1.414-.227,4.8,4.8,0,0,1,1.667.268,3.932,3.932,0,0,1,1.327.826l-.207.34Zm8.775,0a.26.26,0,0,1-.237.145.538.538,0,0,1-.289-.129,3.82,3.82,0,0,0-1.2-.578,3.731,3.731,0,0,0-1.053-.128,3.084,3.084,0,0,0-1.017.159,2.525,2.525,0,0,0-.785.429,1.884,1.884,0,0,0-.5.624,1.67,1.67,0,0,0-.175.749,1.275,1.275,0,0,0,.248.8,2.156,2.156,0,0,0,.645.547,4.774,4.774,0,0,0,.913.392q.516.164,1.048.33t1.048.366a3.831,3.831,0,0,1,.913.5,2.4,2.4,0,0,1,.646.733,2.089,2.089,0,0,1,.248,1.053,3.252,3.252,0,0,1-.238,1.249,2.785,2.785,0,0,1-.7,1,3.366,3.366,0,0,1-1.131.671,4.44,4.44,0,0,1-1.538.248,4.617,4.617,0,0,1-1.869-.346,5.244,5.244,0,0,1-1.4-.9l.226-.351a.373.373,0,0,1,.119-.124.343.343,0,0,1,.181-.041.548.548,0,0,1,.325.165,3.62,3.62,0,0,0,.512.356,4.365,4.365,0,0,0,.789.356,3.531,3.531,0,0,0,1.161.165,3.33,3.33,0,0,0,1.146-.181,2.373,2.373,0,0,0,.826-.491,2.045,2.045,0,0,0,.5-.727,2.326,2.326,0,0,0,.171-.883,1.417,1.417,0,0,0-.248-.856,2.125,2.125,0,0,0-.65-.578,4.552,4.552,0,0,0-.914-.4q-.511-.165-1.048-.331t-1.048-.361a3.811,3.811,0,0,1-.913-.5,2.39,2.39,0,0,1-.651-.728,2.1,2.1,0,0,1-.248-1.068,2.448,2.448,0,0,1,.238-1.053,2.674,2.674,0,0,1,.676-.887,3.315,3.315,0,0,1,1.069-.609,4.156,4.156,0,0,1,1.414-.227,4.8,4.8,0,0,1,1.667.268,3.932,3.932,0,0,1,1.327.826l-.207.34Zm3.737,9V13.125l-1.445-.093q-.289-.032-.289-.258v-.4h1.734v-1.3a4.793,4.793,0,0,1,.226-1.543,3.062,3.062,0,0,1,.641-1.109,2.615,2.615,0,0,1,.991-.666,3.546,3.546,0,0,1,1.28-.222,3.755,3.755,0,0,1,.645.057,2.869,2.869,0,0,1,.583.16l-.03.475a.153.153,0,0,1-.088.118.5.5,0,0,1-.191.02q-.161-.008-.32-.03a3.528,3.528,0,0,0-.454-.026,2.817,2.817,0,0,0-.934.149,1.82,1.82,0,0,0-.738.48,2.226,2.226,0,0,0-.48.862,4.335,4.335,0,0,0-.171,1.306v1.269H81.92V13.1h-3.3V22.32ZM92.016,12.052V22.32h-.547a.277.277,0,0,1-.3-.268l-.093-1.528a5.822,5.822,0,0,1-1.647,1.424,4.1,4.1,0,0,1-2.08.536,3.852,3.852,0,0,1-1.5-.268,2.747,2.747,0,0,1-1.063-.774,3.426,3.426,0,0,1-.64-1.218,5.536,5.536,0,0,1-.217-1.61V12.052h.991v6.563a3.517,3.517,0,0,0,.661,2.266,2.43,2.43,0,0,0,2.013.82,3.65,3.65,0,0,0,1.874-.511,5.3,5.3,0,0,0,1.553-1.419V12.052ZM96.477,7.3V22.32h-.991V7.3Zm4.562,0V22.32h-.99V7.3Zm11.78,4.747-5.906,13.57a.7.7,0,0,1-.16.238.4.4,0,0,1-.284.093h-.7l1.807-4.014-4.347-9.887h.816a.375.375,0,0,1,.372.248l3.458,7.987q.062.155.109.315c.031.107.06.215.088.325q.1-.324.227-.64l3.417-7.987a.445.445,0,0,1,.144-.181.344.344,0,0,1,.207-.066h.754Z" transform="translate(-37.962 -7.305)" fill="#0095ff" fill-rule="evenodd"/></g><path d="M19.371,29.848a5.347,5.347,0,1,1-1.957-7.306,5.346,5.346,0,0,1,1.957,7.306Z" transform="translate(-2.304 -5.354)" fill="#66bfff" fill-rule="evenodd" style="mix-blend-mode:multiply;isolation:isolate"/><path d="M9.978,24.408A5.347,5.347,0,1,1,8.021,17.1a5.346,5.346,0,0,1,1.957,7.306Z" transform="translate(0 -4.019)" fill="#ff66e5" fill-rule="evenodd" style="mix-blend-mode:multiply;isolation:isolate"/><path d="M8.021,6.157a5.348,5.348,0,1,1-7.3,1.958,5.349,5.349,0,0,1,7.3-1.958Z" transform="translate(0 -1.334)" fill="#f66" fill-rule="evenodd" style="mix-blend-mode:multiply;isolation:isolate"/><path d="M19.371,8.023A5.347,5.347,0,1,1,17.414.717a5.346,5.346,0,0,1,1.957,7.306Z" transform="translate(-2.304)" fill="#ffa667" fill-rule="evenodd" style="mix-blend-mode:multiply;isolation:isolate"/><path d="M21.461,15.421a5.348,5.348,0,1,1,7.3-1.958,5.349,5.349,0,0,1-7.3,1.958Z" transform="translate(-4.608 -1.334)" fill="#ffe666" fill-rule="evenodd" style="mix-blend-mode:multiply;isolation:isolate"/><path d="M21.461,26.366a5.348,5.348,0,1,1,7.3-1.958,5.349,5.349,0,0,1-7.3,1.958Z" transform="translate(-4.608 -4.019)" fill="#9f6" fill-rule="evenodd" style="mix-blend-mode:multiply;isolation:isolate"/><path d="M20.515,11.14v7.73l-6.678,3.865L7.158,18.87V11.14l6.679-3.866,6.679,3.866ZM14.281,5.705a.95.95,0,0,0-.952,0L6.053,9.916a.954.954,0,0,0-.475.826v8.421a.954.954,0,0,0,.475.826L13.329,24.2a.953.953,0,0,0,.952,0l7.275-4.211a.955.955,0,0,0,.476-.826V10.742a.954.954,0,0,0-.475-.826L14.281,5.7Z" transform="translate(-1.368 -1.368)" fill="#fff"/></g></svg>