<svg height="24" viewBox="0 0 139 24" width="139" xmlns="http://www.w3.org/2000/svg"><path d="m218.512064 80.6308133c5.2384 0 8.404654 3.7832727 8.404654 8.9213091v.9605818h-12.933818c.326109 2.9067636 2.325236 4.7136 5.287273 4.7136 2.414254 0 4.094836-.8747637 5.288436-2.1172364l2.196655 2.3994182c-1.709382 1.6386909-3.932219 2.9937454-7.485091 2.9937454-5.475491 0-9.191855-3.8402909-9.191855-8.950109 0-5.1380364 3.613091-8.9213091 8.433746-8.9213091zm20.211723 0c1.226182 0 3.211346.2638545 4.029382.8477091v3.5618909s-1.620655-1.0507637-4.029382-1.0507637c-3.299782 0-5.694836 2.3936-5.694836 5.5770182 0 3.2113455 2.395054 5.5767273 5.694836 5.5767273 2.515782 0 4.029382-1.0507637 4.029382-1.0507637v3.5621819c-.808436.5530181-2.8032.8474181-4.029382.8474181-5.635782 0-9.633454-3.8836363-9.633454-8.9355636 0-5.0228364 3.997672-8.9358545 9.633454-8.9358545zm26.768378 0c5.2384 0 8.404655 3.7832727 8.404655 8.9213091v.9605818h-12.933818c.326109 2.9067636 2.324945 4.7136 5.287272 4.7136 2.414255 0 4.094837-.8747637 5.288437-2.1172364l2.196654 2.3994182c-1.709381 1.6386909-3.932218 2.9937454-7.485091 2.9937454-5.47549 0-9.191854-3.8402909-9.191854-8.950109 0-5.1380364 3.613091-8.9213091 8.433745-8.9213091zm-98.682792-5.4603637v7.9272728c1.426036-1.4455273 3.414109-2.451491 6.123054-2.451491 5.111564 0 8.739491 3.6509091 8.739491 8.9204364 0 5.2692364-3.570909 8.9201455-8.739491 8.9201455-2.702545 0-4.736-1.0184728-6.123054-2.5154909v1.9752727h-3.941819v-22.7761455zm28.653003 6.0161455v9.8109091c0 2.9195636 1.532218 3.9424 3.784146 3.9424 2.210036 0 4.150691-2.5378909 4.150691-4.4433455v-9.3099636h3.941818v16.7598545h-3.7664v-2.6615272c-1.258182 1.9959272-3.129891 3.1290181-5.469382 3.1290181-4.0416 0-6.583273-2.3656727-6.583273-6.2196363v-11.0077091zm-7.109323-6.0161164v22.7761455h-3.941819v-22.7761455zm61.138094 6.0159709v3.5621818c.442764-1.3838545 2.209455-3.5621818 4.834327-3.5621818 1.075491 0 1.480728.1821091 1.480728.1821091v4.1658182c-.584728-.1672727-1.429237-.2449455-2.005528-.2449455-2.656 0-4.135563 2.0788364-4.135563 3.8592v8.7979637h-3.940946v-16.7601455zm29.204422.0001746 3.445527 11.3879272 3.474037-11.3879272h4.176581l3.416146 11.4455272 3.474036-11.4455272h3.971782l-5.5488 16.7598545h-3.911564l-3.591563-11.0077091-3.533964 11.0077091h-3.941236l-5.694546-16.7598545zm-106.484305 2.8609163c-3.048146 0-5.519128 2.4709819-5.519128 5.5191273 0 3.0478546 2.470982 5.5188364 5.519128 5.5188364 3.048145 0 5.518836-2.4709818 5.518836-5.5188364 0-3.0481454-2.470691-5.5191273-5.518836-5.5191273zm46.3008-.1693091c-2.278982 0-3.978473 1.7079273-4.366255 3.6977455h8.704873c-.436655-2.0820364-2.061382-3.6977455-4.338618-3.6977455zm46.980101 0c-2.278981 0-3.978472 1.7079273-4.366254 3.6977455h8.704873c-.436655-2.0820364-2.061382-3.6977455-4.338619-3.6977455z" fill="#3246f0" fill-rule="evenodd" transform="translate(-162 -75)"/></svg>