<svg xmlns="http://www.w3.org/2000/svg" width="104.416" height="27.904" viewBox="0 0 104.416 27.904"><g transform="translate(-0.653 -0.991)"><path d="M56.064,26.463a3.479,3.479,0,0,1-3.294-3.63,3.32,3.32,0,1,1,6.6.026,3.475,3.475,0,0,1-3.307,3.6m5.583-.279s-.038-.051-.038-.318V17.883a.766.766,0,0,0-.767-.775h-.7a.766.766,0,0,0-.767.775V18.2a5,5,0,0,0-3.307-1.269,5.719,5.719,0,0,0-5.52,5.89,5.7,5.7,0,0,0,5.52,5.852,5.156,5.156,0,0,0,3.546-1.46A2.279,2.279,0,0,0,61.9,28.481h.352a.765.765,0,0,0,.767-.775V27a.766.766,0,0,0-.767-.774H61.9a.476.476,0,0,1-.251-.038M46.659,21.716H40.283a3.263,3.263,0,0,1,6.376,0Zm.541,4.049a.766.766,0,0,0-1.019-.1,4.406,4.406,0,0,1-2.565.787,3.482,3.482,0,0,1-3.294-2.526h7.594a1.1,1.1,0,0,0,1.119-1.1,5.567,5.567,0,1,0-11.115,0,5.718,5.718,0,0,0,5.7,5.852,6.844,6.844,0,0,0,3.961-1.231.778.778,0,0,0,.114-1.13l-.49-.546Zm22.318-6.892V18.2a.766.766,0,0,0-.767-.775H67.292V14.646a.766.766,0,0,0-.767-.774h-.7a.765.765,0,0,0-.767.774v2.78h-.7a.766.766,0,0,0-.767.775v.672a.767.767,0,0,0,.768.775h.7v6.245a2.487,2.487,0,0,0,2.778,2.792h.918a.765.765,0,0,0,.767-.774v-.672a.766.766,0,0,0-.767-.775h-.918c-.478,0-.541-.025-.541-.571V19.646H68.75a.782.782,0,0,0,.767-.774" transform="translate(-9.745 -3.368)" fill="#162533"/><path d="M91.264,22.941a3.611,3.611,0,1,0-7.193,0,3.613,3.613,0,1,0,7.193,0Zm-5.433,8.4a.453.453,0,0,1,.453-.456h2.012a2.727,2.727,0,0,0,2.955-2.806V26.6a4.927,4.927,0,0,1-3.6,1.764,5.224,5.224,0,0,1-5.042-5.407,5.225,5.225,0,0,1,5.042-5.381,4.642,4.642,0,0,1,3.6,1.752V18.182a.453.453,0,0,1,.452-.457h.541a.453.453,0,0,1,.452.457v9.7a4.116,4.116,0,0,1-4.475,4.443H86.259a.453.453,0,0,1-.453-.457v-.521h.025Zm17.478-9.189a3.667,3.667,0,0,0-7.305,0Zm.189,4.391a.468.468,0,0,1-.075.686,6.026,6.026,0,0,1-3.647,1.1,5.309,5.309,0,0,1-5.306-5.458,5.19,5.19,0,1,1,10.361-.026.734.734,0,0,1-.73.736H96.029a3.857,3.857,0,0,0,3.772,3.3,4.351,4.351,0,0,0,2.729-.838.462.462,0,0,1,.616.064ZM115.4,22.155a3.667,3.667,0,0,0-7.305,0Zm.2,4.391a.468.468,0,0,1-.075.686,6.026,6.026,0,0,1-3.647,1.1,5.309,5.309,0,0,1-5.306-5.458,5.19,5.19,0,1,1,10.361-.026.734.734,0,0,1-.73.736h-8.072a3.857,3.857,0,0,0,3.772,3.3,4.351,4.351,0,0,0,2.729-.838.462.462,0,0,1,.616.064Zm9.908-7.285-3.671,3.186,4.539,5.077a.464.464,0,0,1-.34.774h-.7a.447.447,0,0,1-.34-.152l-4.25-4.747-.6.533v3.91a.453.453,0,0,1-.453.456h-.553a.453.453,0,0,1-.453-.456V14.551a.453.453,0,0,1,.453-.457h.554a.453.453,0,0,1,.452.458V22l4.426-3.846a.454.454,0,0,1,.642.052l.34.393a.467.467,0,0,1-.038.66" transform="translate(-21.432 -3.426)" fill="#c33"/><path d="M24.189,31.686c-1.434.6-4.791,1.307-9.909,1.307s-8.463-.71-9.909-1.307a.327.327,0,0,1,0-.609c1.433-.6,4.791-1.307,9.909-1.307s8.462.71,9.908,1.307a.327.327,0,0,1,0,.609" transform="translate(-0.918 -7.525)" fill="#162533"/><path d="M12.909,4.091A11.181,11.181,0,0,0,9.8,4.536a10.831,10.831,0,0,0-1.811.71A11.413,11.413,0,0,0,2.5,19.462s.1-.152.327-.431c.364-.825,1.647-1.9,3.508-3.02a28.041,28.041,0,0,1,5.721-2.831,30.881,30.881,0,0,1,4.224-1.359,20.362,20.362,0,0,1,5.055-.85,3.812,3.812,0,0,1,1.534.241c.163.013.327.038.478.064A11.282,11.282,0,0,0,12.909,4.091" transform="translate(-0.288 -0.811)" fill="#c33"/><path d="M21.714,13.63a22.009,22.009,0,0,0-5.13.685,41.172,41.172,0,0,0-4.174,1.4,39.324,39.324,0,0,0-5.771,2.78,15.569,15.569,0,0,0-3.508,3.02.9.9,0,0,0-.064.711c.189.482.918.711,2.025.711a28.954,28.954,0,0,0,9.229-2.247c5.683-2.221,9.87-5.141,9.342-6.512a.843.843,0,0,0-.49-.456,10.846,10.846,0,0,0-1.459-.089" transform="translate(-0.619 -3.305)" fill="#fff"/><path d="M21.561,11.773c-1.044,1.053-3.735,2.856-8.223,4.62s-7.683,2.247-9.154,2.183A.334.334,0,0,1,3.97,18c1.044-1.054,3.735-2.856,8.224-4.62s7.669-2.235,9.14-2.171a.329.329,0,0,1,.227.559M9.15,5.489a9.964,9.964,0,0,1,11.807,3.63c-3.508.013-8.714,1.993-9.519,2.311a35.467,35.467,0,0,0-7.217,3.693A13.636,13.636,0,0,0,2.863,16.19,10.072,10.072,0,0,1,9.15,5.489m14.95,5.2a.506.506,0,0,0-.025-.076c-.013-.038-.025-.089-.038-.127A12.086,12.086,0,0,0,9.377,3.166L9.2,2.71A1.059,1.059,0,0,0,9.39,1.656a1.034,1.034,0,0,0-1.333-.6l-1.069.432A1.049,1.049,0,0,0,6.4,2.837a1.015,1.015,0,0,0,.842.647l.177.457A12.277,12.277,0,0,0,1.468,19.312c.025.064.05.114.076.165.4.812,1.37,1.219,2.942,1.219a13.927,13.927,0,0,0,1.8-.14,36.021,36.021,0,0,0,7.8-2.183c1.145-.456,10.839-4.353,10.022-7.679" transform="translate(0)" fill="#162533"/></g></svg>