<svg xmlns="http://www.w3.org/2000/svg" width="102.763" height="19.169" viewBox="0 0 102.763 19.169"><g transform="translate(-111 -869)"><g transform="translate(111 869)"><path d="M8.354,17.575,3.64,12.812a2.037,2.037,0,0,0-2.9,0,2.088,2.088,0,0,0,0,2.931L6.9,21.972a2.037,2.037,0,0,0,2.9,0l5.8-5.863-2.9-2.931Z" transform="translate(-0.138 -3.411)" fill="#1bac94" fill-rule="evenodd"/><path d="M26.823,7.709l-9.065,9.159L8.691,7.708a2.036,2.036,0,0,0-2.9,0,2.088,2.088,0,0,0,0,2.931L16.307,21.265a2.037,2.037,0,0,0,2.9,0L29.724,10.64a2.088,2.088,0,0,0,0-2.931A2.037,2.037,0,0,0,26.823,7.709Z" transform="translate(-0.838 -2.703)" fill="#f1ae21" fill-rule="evenodd"/><path d="M34.777,14.33l-6.164,6.228a2.036,2.036,0,0,1-2.9,0L10.843,5.534a2.088,2.088,0,0,1,0-2.931,2.036,2.036,0,0,1,2.9,0L27.162,16.161,31.875,11.4a2.037,2.037,0,0,1,2.9,0A2.088,2.088,0,0,1,34.777,14.33Z" transform="translate(-1.538 -1.996)" fill="#e76450" fill-rule="evenodd"/><path d="M26.694,2.6a2.037,2.037,0,0,0-2.9,0l-9.065,9.159,2.9,2.931,9.065-9.159A2.088,2.088,0,0,0,26.694,2.6Z" transform="translate(-2.159 -1.996)" fill="#1bac94" fill-rule="evenodd"/></g><g transform="translate(149.647 870.95)"><path d="M51.393,4.354H48.861V19.242h9.277V16.994H51.393Z" transform="translate(-48.861 -4.273)" fill="#2a2c2e"/><path d="M65.158,9.551c-2.775,0-4.659,2.228-4.659,5.307,0,3.059,1.884,5.307,4.659,5.307a3.739,3.739,0,0,0,3.14-1.4l.122,1.2h2.188V9.753H68.419l-.122,1.2A3.739,3.739,0,0,0,65.158,9.551Zm.527,2.147a2.8,2.8,0,0,1,2.491,1.519V16.5a2.8,2.8,0,0,1-2.491,1.519c-1.58,0-2.714-1.236-2.714-3.16S64.1,11.7,65.684,11.7Z" transform="translate(-50.474 -4.993)" fill="#2a2c2e"/><path d="M78.553,5.812H76.122V9.235H74.2V11.3h1.924v4.537a3.484,3.484,0,0,0,3.808,3.808,4.157,4.157,0,0,0,2.269-.608l-.648-1.9a2.673,2.673,0,0,1-1.4.324,1.511,1.511,0,0,1-1.6-1.641V11.3h3.079V9.235H78.553Z" transform="translate(-52.372 -4.475)" fill="#2a2c2e"/><path d="M88.2,5.812H85.767V9.235H83.842V11.3h1.924v4.537a3.484,3.484,0,0,0,3.808,3.808,4.157,4.157,0,0,0,2.269-.608l-.648-1.9a2.673,2.673,0,0,1-1.4.324,1.511,1.511,0,0,1-1.6-1.641V11.3h3.079V9.235H88.2Z" transform="translate(-53.708 -4.475)" fill="#2a2c2e"/><path d="M97.33,9.02H94.9V19.229H97.33ZM96.114,4.26a1.459,1.459,0,0,0-1.5,1.5,1.509,1.509,0,0,0,3.018,0A1.464,1.464,0,0,0,96.114,4.26Z" transform="translate(-55.201 -4.26)" fill="#2a2c2e"/><path d="M105.358,9.551a5.03,5.03,0,0,0-5.226,5.307,5.057,5.057,0,0,0,5.246,5.307,4.712,4.712,0,0,0,4.153-2.248l-1.743-1.357a2.772,2.772,0,0,1-2.39,1.479c-1.8,0-2.8-1.4-2.8-3.18,0-1.8.952-3.18,2.775-3.18a2.642,2.642,0,0,1,2.35,1.458l1.763-1.337A4.655,4.655,0,0,0,105.358,9.551Z" transform="translate(-55.965 -4.993)" fill="#2a2c2e"/><path d="M117.053,9.551a4.985,4.985,0,0,0-5,5.327,4.981,4.981,0,0,0,5.185,5.287,5.125,5.125,0,0,0,4.234-1.843l-1.682-1.377a3.042,3.042,0,0,1-2.532,1.175,2.426,2.426,0,0,1-2.734-2.512h7.21v-.851C121.732,11.9,120.192,9.551,117.053,9.551Zm-.04,1.945a2.233,2.233,0,0,1,2.329,2.37h-4.821A2.376,2.376,0,0,1,117.013,11.5Z" transform="translate(-57.616 -4.993)" fill="#2a2c2e"/></g></g></svg>