<?xml version="1.0" standalone="no"?>
<!DOCTYPE svg PUBLIC "-//W3C//DTD SVG 20010904//EN"
 "http://www.w3.org/TR/2001/REC-SVG-20010904/DTD/svg10.dtd">
<svg version="1.0" xmlns="http://www.w3.org/2000/svg"
 width="140.000000pt" height="185.000000pt" viewBox="0 0 140.000000 185.000000"
 preserveAspectRatio="xMidYMid meet">

<g transform="translate(0.000000,185.000000) scale(0.100000,-0.100000)"
fill="#000000" stroke="none">
<path d="M0 925 l0 -925 700 0 700 0 0 925 0 925 -700 0 -700 0 0 -925z m410
465 l0 -250 155 0 c175 0 165 6 142 -85 l-13 -50 -227 -3 -227 -2 0 320 0 320
85 0 85 0 0 -250z m780 180 l0 -70 -90 0 -90 0 0 -250 0 -250 -75 0 -75 0 0
250 0 250 -90 0 -90 0 0 70 0 70 255 0 255 0 0 -70z m-636 -765 c39 -8 73 -18
78 -23 6 -6 -17 -120 -27 -130 -2 -2 -24 4 -49 12 -47 16 -121 21 -150 10 -21
-8 -20 -37 2 -57 9 -8 49 -30 87 -47 89 -40 134 -74 151 -116 36 -86 1 -178
-84 -227 -71 -40 -196 -48 -287 -20 l-60 19 -3 72 c-2 40 -1 72 1 72 3 0 23
-6 45 -14 107 -38 204 -40 222 -5 17 31 0 47 -105 99 -123 60 -147 86 -153
171 -6 75 17 121 73 155 74 43 152 52 259 29z m616 -60 l0 -65 -125 0 -125 0
0 -55 0 -55 115 0 115 0 0 -65 0 -65 -115 0 -115 0 0 -55 0 -55 125 0 125 0 0
-65 0 -65 -200 0 -200 0 0 305 0 305 200 0 200 0 0 -65z"/>
</g>
</svg>
