<svg xmlns="http://www.w3.org/2000/svg" width="123" height="33" fill="none" viewBox="0 0 123 33"><path fill="#2C1338" d="M39.461 23.268c1.513 0 2.659-.327 3.435-.982.778-.655 1.166-1.576 1.166-2.763 0-.545-.103-1.035-.311-1.47a3.07 3.07 0 0 0-.897-1.11c-.39-.306-.87-.54-1.44-.702-.57-.163-1.216-.245-1.94-.245h-4.346v7.272h4.333zM35.128 7.993v7.089h3.735c.798 0 1.479-.102 2.044-.305.566-.204 1.03-.472 1.392-.806.362-.333.628-.711.8-1.134.17-.423.256-.858.256-1.305 0-1.164-.369-2.044-1.105-2.641-.736-.598-1.874-.898-3.41-.898h-3.713.001zm3.711-.988c.984 0 1.838.097 2.563.293.724.195 1.322.482 1.794.86s.822.84 1.05 1.385c.228.544.341 1.162.341 1.854 0 .455-.079.895-.237 1.318-.16.426-.392.822-.684 1.171-.297.357-.663.67-1.098.934a5.31 5.31 0 0 1-1.496.604c1.36.194 2.402.644 3.131 1.347.728.705 1.092 1.63 1.092 2.776 0 .731-.13 1.392-.39 1.976a4 4 0 0 1-1.135 1.49c-.496.406-1.107.717-1.831.933-.725.215-1.547.323-2.465.323H33.87V7.005h4.968zm10.912-.488V24.27h-1.172V6.517h1.172zm5.406 5.612v12.14h-1.158v-12.14h1.16-.002zm.5-4.184c0 .146-.03.282-.09.408-.06.125-.141.238-.239.336a1.107 1.107 0 0 1-.342.232c-.13.057-.272.086-.415.085-.142 0-.284-.028-.414-.085a1.107 1.107 0 0 1-.574-.568.98.98 0 0 1-.086-.408c0-.147.029-.288.086-.421a1.083 1.083 0 0 1 .988-.666c.147 0 .286.028.415.086.13.057.245.133.342.232.098.098.177.214.238.348.061.133.091.274.091.42zm10.314 5.684a.309.309 0 0 1-.281.172c-.09 0-.203-.051-.342-.153a4.524 4.524 0 0 0-1.416-.683c-.34-.102-.756-.152-1.245-.152-.439 0-.84.062-1.201.188a2.985 2.985 0 0 0-.928.507c-.248.2-.45.452-.592.738a1.974 1.974 0 0 0-.208.885c0 .382.098.699.294.951.195.253.45.468.763.647.312.178.672.334 1.08.464.406.13.82.26 1.239.39.419.13.831.275 1.238.433.407.159.767.357 1.08.591.314.237.568.525.763.867.195.341.293.756.293 1.244 0 .53-.094 1.021-.281 1.477-.187.455-.461.85-.824 1.183-.389.35-.843.62-1.336.793-.53.195-1.135.293-1.819.293-.854 0-1.59-.136-2.209-.409a6.198 6.198 0 0 1-1.66-1.068l.268-.415a.443.443 0 0 1 .141-.146.405.405 0 0 1 .214-.048c.106 0 .233.065.384.194.15.13.352.272.604.422.253.15.564.29.934.42.37.131.828.196 1.373.196.513 0 .964-.071 1.355-.214.39-.142.716-.335.976-.58.26-.244.458-.53.593-.86.133-.33.2-.676.2-1.043 0-.406-.097-.743-.292-1.012a2.514 2.514 0 0 0-.77-.683 5.376 5.376 0 0 0-1.08-.476c-.402-.13-.815-.26-1.239-.39-.417-.129-.83-.271-1.238-.427a4.504 4.504 0 0 1-1.08-.587 2.826 2.826 0 0 1-.769-.86c-.196-.337-.293-.758-.293-1.262 0-.431.094-.846.28-1.245.188-.398.454-.748.8-1.048a3.92 3.92 0 0 1 1.264-.72 4.912 4.912 0 0 1 1.672-.269c.74 0 1.397.105 1.97.317a4.646 4.646 0 0 1 1.57.976l-.245.402zm10.374 0a.307.307 0 0 1-.28.172c-.09 0-.203-.051-.342-.153a4.518 4.518 0 0 0-1.416-.683c-.341-.102-.756-.152-1.244-.152-.44 0-.84.062-1.203.188a2.985 2.985 0 0 0-.928.507c-.248.2-.45.452-.592.738a1.974 1.974 0 0 0-.207.885c0 .382.098.699.293.951.195.253.45.468.763.647.312.178.673.334 1.08.464.406.13.82.26 1.239.39.42.13.832.275 1.238.433.407.159.768.357 1.08.591.314.237.568.525.764.867.195.341.292.756.292 1.244 0 .53-.093 1.021-.28 1.477-.184.45-.466.854-.824 1.183-.39.35-.844.62-1.337.793-.529.195-1.135.293-1.818.293-.854 0-1.591-.136-2.21-.409a6.198 6.198 0 0 1-1.66-1.068l.269-.415a.441.441 0 0 1 .14-.146.405.405 0 0 1 .215-.048c.105 0 .234.065.383.194.151.13.353.272.605.422.252.15.563.29.934.42.37.131.828.196 1.373.196.512 0 .963-.071 1.354-.214.391-.142.717-.335.977-.58.258-.24.46-.533.592-.86a2.75 2.75 0 0 0 .201-1.043c0-.406-.098-.743-.293-1.012a2.514 2.514 0 0 0-.768-.683 5.384 5.384 0 0 0-1.08-.476c-.403-.13-.816-.26-1.24-.39-.417-.129-.83-.271-1.239-.427a4.506 4.506 0 0 1-1.08-.587 2.825 2.825 0 0 1-.768-.86c-.197-.337-.294-.758-.294-1.262 0-.431.094-.846.281-1.245.188-.398.453-.748.8-1.048a3.92 3.92 0 0 1 1.263-.72 4.912 4.912 0 0 1 1.672-.269c.74 0 1.397.105 1.971.317a4.647 4.647 0 0 1 1.569.976l-.245.402zm4.419 10.64v-10.87l-1.709-.11c-.227-.025-.342-.127-.342-.306v-.475h2.05V10.97c0-.691.09-1.3.268-1.824a3.62 3.62 0 0 1 .758-1.312c.325-.35.725-.618 1.171-.787.485-.18.998-.269 1.514-.262.252 0 .507.023.763.068.257.044.486.107.69.189l-.036.561c-.018.073-.052.12-.105.14a.587.587 0 0 1-.225.024 4.508 4.508 0 0 1-.379-.036 4.17 4.17 0 0 0-.537-.03c-.399 0-.767.058-1.105.176-.333.115-.632.31-.872.567-.245.26-.434.6-.568 1.02-.133.419-.201.933-.201 1.543v1.5h3.942v.866h-3.906V24.27h-1.171zm17.013-12.14v12.14h-.647c-.202 0-.32-.106-.353-.317l-.11-1.806a6.881 6.881 0 0 1-1.947 1.684c-.736.423-1.556.633-2.459.633-.675 0-1.266-.105-1.77-.317a3.247 3.247 0 0 1-1.257-.914 4.05 4.05 0 0 1-.757-1.44c-.17-.562-.256-1.196-.256-1.904V12.13h1.172v7.76c0 1.138.26 2.031.781 2.678.52.646 1.314.97 2.38.97.789 0 1.528-.202 2.216-.604.687-.402 1.299-.962 1.836-1.677v-9.127h1.171zm5.274-5.612V24.27h-1.172V6.517h1.172zm5.393 0V24.27h-1.17V6.517h1.17zm13.928 5.612l-6.982 16.043a.84.84 0 0 1-.189.281c-.077.073-.19.11-.336.11h-.83l2.136-4.746-5.139-11.688h.964a.443.443 0 0 1 .44.293l4.089 9.443c.049.122.092.246.128.372.037.127.072.254.104.385.08-.256.169-.508.268-.757l4.04-9.443a.526.526 0 0 1 .171-.214.406.406 0 0 1 .244-.079h.892z"/><g style="mix-blend-mode:multiply" opacity=".72"><path fill="#2C1338" d="M20.176 28.959a6.319 6.319 0 0 1-8.634 2.313 6.325 6.325 0 0 1 1.523-11.583 6.32 6.32 0 0 1 7.111 9.269z"/></g><g style="mix-blend-mode:multiply" opacity=".72"><path fill="#2C1338" d="M11.795 24.105A6.32 6.32 0 0 1 .215 22.58a6.324 6.324 0 0 1 6.93-7.906 6.321 6.321 0 0 1 4.65 9.43z"/></g><g style="mix-blend-mode:multiply" opacity=".72"><path fill="#2C1338" d="M9.482 5.7a6.324 6.324 0 0 1-3.985 11.746 6.321 6.321 0 0 1-4.65-9.43A6.32 6.32 0 0 1 9.481 5.7z"/></g><g style="mix-blend-mode:multiply" opacity=".72"><path fill="#2C1338" d="M20.176 9.485A6.32 6.32 0 0 1 8.596 7.96a6.324 6.324 0 0 1 6.93-7.906 6.32 6.32 0 0 1 4.65 9.43z"/></g><g style="mix-blend-mode:multiply" opacity=".72"><path fill="#2C1338" d="M19.923 16.653a6.324 6.324 0 0 1 3.985-11.745 6.321 6.321 0 0 1 3.024 11.284 6.32 6.32 0 0 1-7.01.46h.001z"/></g><g style="mix-blend-mode:multiply" opacity=".72"><path fill="#2C1338" d="M19.923 26.42a6.325 6.325 0 0 1 3.985-11.746 6.32 6.32 0 0 1 5.281 4.633 6.324 6.324 0 0 1-9.267 7.113h.001z"/></g><path fill="#fff" d="M22.635 11.553v9.138l-7.896 4.57-7.896-4.57v-9.138l7.896-4.57 7.897 4.57h-.001zm-7.37-6.426a1.123 1.123 0 0 0-1.126 0l-8.602 4.978a1.128 1.128 0 0 0-.562.977v9.956c0 .404.214.776.562.977l8.602 4.979c.348.2.777.2 1.125 0l8.601-4.979a1.13 1.13 0 0 0 .563-.977v-9.956c0-.403-.214-.776-.562-.977l-8.601-4.979v.001z" opacity=".72"/></svg>