<svg xmlns="http://www.w3.org/2000/svg" width="164" height="33" fill="none" viewBox="0 0 164 33"><path fill="#2C1338" d="M20.193 13.677a5.28 5.28 0 007.298-1.71c1.546-2.5.785-5.787-1.7-7.342a5.28 5.28 0 00-7.298 1.71c-1.546 2.5-.784 5.787 1.7 7.342zM11.57 15.257c.096-2.942-2.197-5.406-5.122-5.503-2.924-.097-5.373 2.21-5.47 5.152-.096 2.942 2.197 5.406 5.121 5.503 2.925.097 5.374-2.21 5.47-5.152zM17.242 21.98c-2.581 1.387-3.556 4.616-2.177 7.212a5.282 5.282 0 007.17 2.19c2.58-1.387 3.556-4.617 2.177-7.213a5.282 5.282 0 00-7.17-2.19zM90.637 4.952c4.674 0 7.499 3.376 7.499 7.96v.857h-11.54c.29 2.594 2.074 4.206 4.717 4.206 2.154 0 3.654-.78 4.719-1.889l1.96 2.14c-1.525 1.463-3.509 2.672-6.679 2.672-4.885 0-8.201-3.426-8.201-7.986 0-4.584 3.224-7.96 7.525-7.96zm18.034 0c1.094 0 2.865.236 3.595.757v3.178s-1.446-.938-3.595-.938c-2.944 0-5.081 2.136-5.081 4.976 0 2.866 2.137 4.976 5.081 4.976 2.245 0 3.595-.937 3.595-.937v3.178c-.721.493-2.501.756-3.595.756-5.029 0-8.596-3.465-8.596-7.973 0-4.481 3.567-7.973 8.596-7.973zm23.884 0c4.674 0 7.5 3.376 7.5 7.96v.857h-11.541c.291 2.594 2.075 4.206 4.718 4.206 2.154 0 3.653-.78 4.718-1.889l1.96 2.14c-1.525 1.463-3.508 2.672-6.678 2.672-4.886 0-8.202-3.426-8.202-7.986 0-4.584 3.224-7.96 7.525-7.96zM44.505.08v7.073c1.272-1.29 3.046-2.187 5.463-2.187 4.56 0 7.798 3.257 7.798 7.96 0 4.7-3.186 7.958-7.798 7.958-2.411 0-4.226-.908-5.463-2.244v1.762h-3.518V.08h3.518zM70.07 5.448v8.754c0 2.605 1.368 3.518 3.377 3.518 1.972 0 3.703-2.265 3.703-3.965V5.448h3.518v14.954h-3.361v-2.375c-1.123 1.781-2.793 2.792-4.88 2.792-3.606 0-5.874-2.11-5.874-5.55V5.45h3.517zM63.727.08v20.322H60.21V.08h3.517zm54.551 5.368v3.178c.395-1.234 1.972-3.178 4.314-3.178.959 0 1.321.162 1.321.162v3.717c-.522-.149-1.275-.218-1.789-.218-2.37 0-3.69 1.855-3.69 3.443v7.85h-3.517V5.448h3.361zm26.058 0l3.075 10.161 3.099-10.16h3.727l3.048 10.212 3.1-10.213h3.544l-4.951 14.954h-3.49l-3.205-9.822-3.153 9.822h-3.517l-5.081-14.954h3.804zM49.324 8.001a4.924 4.924 0 100 9.849 4.924 4.924 0 000-9.85zm41.313-.151c-2.034 0-3.55 1.524-3.896 3.299h7.767c-.39-1.858-1.84-3.3-3.871-3.3zm41.918 0c-2.033 0-3.549 1.524-3.895 3.299h7.767c-.39-1.858-1.84-3.3-3.872-3.3z"/></svg>