<svg xmlns="http://www.w3.org/2000/svg" width="89" height="29" fill="none" viewBox="0 0 89 29"><path fill="#2C1338" d="M8.786 6.466a4.53 4.53 0 012.77 1.006l1.247 1.005a4.402 4.402 0 011.558 3.326v3.452c0 .833-.656 1.454-1.627 1.454H2.931v.764a1.402 1.402 0 00.518 1.074l1.247 1.04c.25.215.573.326.902.31h7.136c1.005 0 1.627.622 1.627 1.455 0 .832-.656 1.454-1.627 1.454h-7.17a4.375 4.375 0 01-2.736-.997L1.58 20.77a4.314 4.314 0 01-1.558-3.292V11.8a4.4 4.4 0 011.558-3.326l1.247-1.001a4.375 4.375 0 012.735-1.006h3.223zM4.7 9.69l-1.225 1.036a1.403 1.403 0 00-.518 1.074v1.976h8.496V11.8a1.46 1.46 0 00-.518-1.074l-1.247-1.04a1.566 1.566 0 00-.902-.345H5.598a1.553 1.553 0 00-.898.345v.004zM36.73 3.178H19.04a.673.673 0 00-.673.673v21.34a.673.673 0 00.673.674h17.69a.673.673 0 00.673-.673V3.852a.673.673 0 00-.673-.674zM33.524 22.78a1.688 1.688 0 01-1.247-.622l-4.465-5.44-4.492 5.436a1.58 1.58 0 01-1.247.621 1.377 1.377 0 01-1.42-1.333v-.052c.006-.399.16-.782.432-1.074l4.854-5.85-4.573-5.506a1.696 1.696 0 01-.432-1.178 1.454 1.454 0 011.385-1.294 1.631 1.631 0 011.294.62l4.224 5.092 4.112-5.113a1.622 1.622 0 011.247-.621 1.428 1.428 0 011.42 1.42 1.687 1.687 0 01-.432 1.074l-4.47 5.47 4.824 5.89a1.472 1.472 0 01.331 1.578 1.401 1.401 0 01-1.285.882h-.06zM44.15 8.056l.695-.695a4.565 4.565 0 013.292-1.523h.639a4.345 4.345 0 012.77 1.04l2.46 2.045a4.387 4.387 0 011.557 3.292v4.81a4.389 4.389 0 01-1.558 3.293l-2.442 2.054a4.362 4.362 0 01-2.787 1.026h-.656a4.563 4.563 0 01-3.292-1.523l-.695-.694v6.096c0 1.006-.625 1.627-1.454 1.627a1.489 1.489 0 01-1.454-1.627V7.47c0-1.04.626-1.627 1.454-1.627a1.488 1.488 0 011.454 1.627l.017.587zm2.978 1.143l-2.59 2.563a1.388 1.388 0 00-.43 1.005v3.707a1.388 1.388 0 00.43 1.005l2.59 2.563c.258.26.604.413.97.431h.678a1.725 1.725 0 001.04-.431l2.411-2.011c.267-.268.421-.627.432-1.005V12.21a1.58 1.58 0 00-.431-1.058l-2.425-2.045a1.57 1.57 0 00-1.04-.345h-.656a1.368 1.368 0 00-.98.436zM67.845 6.463a4.53 4.53 0 012.77 1.006l1.247 1.005a4.4 4.4 0 011.557 3.326v3.452c0 .833-.656 1.454-1.626 1.454h-9.8v.764a1.403 1.403 0 00.519 1.074l1.247 1.04c.25.215.572.326.901.31h7.137c1.005 0 1.626.622 1.626 1.455 0 .832-.66 1.454-1.63 1.454h-7.167a4.375 4.375 0 01-2.736-1.006l-1.246-1.04a4.314 4.314 0 01-1.558-3.291v-5.67a4.401 4.401 0 011.558-3.326l1.246-1.006a4.375 4.375 0 012.736-1.005l3.219.004zm-4.086 3.223l-1.247 1.036a1.403 1.403 0 00-.518 1.074v1.976h8.521v-1.976a1.458 1.458 0 00-.517-1.074l-1.247-1.04a1.566 1.566 0 00-.902-.345h-3.184c-.332.013-.65.134-.906.345v.004zM82.818.365c1.006 0 1.627.622 1.627 1.454v18.079h2.666c1.006 0 1.627.621 1.627 1.454 0 .832-.656 1.45-1.627 1.45h-8.245c-1.005 0-1.626-.622-1.626-1.454a1.489 1.489 0 011.626-1.455h2.632V3.273h-2.632c-1.04 0-1.626-.625-1.626-1.454A1.493 1.493 0 0178.866.365h3.952z"/></svg>