<svg xmlns="http://www.w3.org/2000/svg" width="143" height="26" fill="none" viewBox="0 0 143 26"><path fill="#2C1338" d="M11.22 18.983l-6.353-6.33a2.772 2.772 0 0 0-3.902 0 2.772 2.772 0 0 0 0 3.903l8.304 8.28a2.772 2.772 0 0 0 3.903 0l7.804-7.804-3.926-3.902-5.83 5.853z"/><path fill="#2C1338" d="M35.087 6.8L22.904 18.984 10.721 6.801a2.772 2.772 0 0 0-3.902 0 2.772 2.772 0 0 0 0 3.902l14.134 14.134a2.772 2.772 0 0 0 3.902 0L38.99 10.703a2.772 2.772 0 0 0 0-3.902 2.772 2.772 0 0 0-3.902 0z"/><path fill="#2C1338" d="M44.842 16.556l-8.28 8.28a2.772 2.772 0 0 1-3.903 0L12.672 4.85a2.772 2.772 0 0 1 0-3.902 2.772 2.772 0 0 1 3.902 0L34.61 18.983l6.33-6.329a2.772 2.772 0 0 1 3.902 0 2.772 2.772 0 0 1 0 3.902z"/><path fill="#2C1338" d="M33.136.947a2.772 2.772 0 00-3.903 0L17.05 13.13l3.903 3.902L33.136 4.85a2.772 2.772 0 000-3.902zM59.904 2.85h-3.379v19.94h12.42v-2.997h-9.041V2.85zm16.37 5.997c2.07 0 3.45.833 4.212 1.88l.167-1.594h2.927V22.79h-2.927l-.167-1.594c-.761 1.023-2.141 1.88-4.211 1.88-3.712 0-6.235-2.999-6.235-7.115 0-4.14 2.523-7.115 6.235-7.115zm.715 2.88c-2.118 0-3.641 1.665-3.641 4.235 0 2.57 1.523 4.235 3.64 4.235 1.619 0 2.594-.856 3.332-2.022v-4.402c-.738-1.19-1.713-2.047-3.331-2.047zM91.764 4.54h-3.26v4.593h-2.57v2.76h2.57v6.067c0 3.308 1.975 5.092 5.092 5.092 1.357 0 2.356-.38 3.046-.808l-.857-2.546c-.404.238-1 .428-1.88.428-1.284 0-2.141-.81-2.141-2.19v-6.043h4.117v-2.76h-4.117V4.54zm11.207 0h-3.26v4.593h-2.57v2.76h2.57v6.067c0 3.308 1.975 5.092 5.092 5.092 1.357 0 2.356-.38 3.046-.808l-.856-2.546c-.405.238-1 .428-1.88.428-1.285 0-2.142-.81-2.142-2.19v-6.043h4.117v-2.76h-4.117V4.54zm10.327 4.569h-3.26v13.658h3.26V9.109zm-1.618-6.377c-1.142 0-1.999.833-1.999 1.999 0 1.166.857 1.998 1.999 1.998 1.166 0 2.023-.832 2.023-1.998s-.857-2-2.023-2zm11.445 6.115c-4.211 0-6.995 2.975-6.995 7.115 0 4.092 2.831 7.114 7.019 7.114 2.475 0 4.331-1.118 5.568-2.998l-2.332-1.808c-.642 1.094-1.713 1.975-3.188 1.975-2.404 0-3.736-1.88-3.736-4.26 0-2.403 1.285-4.259 3.712-4.259 1.523 0 2.522.857 3.141 1.951l2.355-1.784c-1.237-1.928-3.045-3.046-5.544-3.046zm13.539 0c4.212 0 6.258 3.141 6.258 6.972v1.142h-9.66c.071 2.165 1.38 3.355 3.664 3.355 1.594 0 2.76-.714 3.379-1.57l2.261 1.832c-1.357 1.618-3.141 2.474-5.664 2.474-4.235 0-6.948-2.974-6.948-7.066.024-4.14 2.784-7.139 6.71-7.139zm-.047 2.594c-1.928 0-3.236 1.285-3.331 3.164h6.448c-.071-1.856-1.166-3.164-3.117-3.164z"/></svg>