<svg xmlns="http://www.w3.org/2000/svg" width="179" height="26" fill="none" viewBox="0 0 179 26"><path fill="#2C1338" d="M94.499 17.722c-.446.446-.892.892-1.428 1.249-.535.357-1.07.446-1.784.446-.536 0-1.071-.09-1.517-.357-.446-.178-.892-.535-1.25-.892-.356-.357-.624-.892-.892-1.428a5.602 5.602 0 01-.267-1.695c0-.625.089-1.517.267-2.052.179-.536.447-.982.803-1.339.357-.357.714-.713 1.25-.892.535-.178.981-.357 1.516-.357.714 0 1.25.179 1.785.446.535.357.981.714 1.427 1.25l.268.356 1.339-1.427-.268-.268-.803-.803a3.962 3.962 0 00-.982-.714 5.16 5.16 0 00-1.249-.446c-.446-.09-.892-.178-1.427-.178-.803 0-1.606.178-2.32.535a7.144 7.144 0 00-1.874 1.338c-.535.536-.892 1.25-1.25 1.963-.267.803-.445 1.963-.445 2.677 0 .803.178 1.606.446 2.41a5.671 5.671 0 001.249 1.962c.535.536 1.16.982 1.874 1.339a5.206 5.206 0 002.32.535c1.07 0 1.963-.268 2.676-.714a8.636 8.636 0 001.963-1.695l.268-.268-1.338-1.249-.357.268zM67.91 15.937a3.7 3.7 0 01-.268 1.428c-.178.446-.357.803-.714 1.07a3.208 3.208 0 01-1.07.715c-.357.178-.803.267-1.25.267-.981 0-1.695-.268-2.14-.892-.447-.625-.804-1.428-.804-2.41V8.89H59.79v7.495c0 .713.09 1.338.268 1.962.178.625.535 1.16.892 1.607.446.446.892.803 1.517 1.07.535.268 1.25.357 1.963.357 1.07 0 1.963-.267 2.588-.714.267-.178.535-.446.803-.713v1.16h1.873V8.799h-1.873l.089 7.138zM36.413 4.784H34.45v16.15h11.064V19.06h-9.101V4.784zM107.526 10.049c-.446-.447-.893-.803-1.517-1.071-.536-.268-1.249-.357-1.963-.357-1.071 0-1.963.268-2.588.714-.267.178-.535.446-.803.714V5.14h-1.874v15.882h1.874v-7.048c0-.536.089-.982.268-1.428.178-.446.357-.803.714-1.07a3.198 3.198 0 011.07-.715c.357-.178.803-.267 1.25-.267.981 0 1.695.267 2.141.892.535.624.803 1.428.803 2.409v7.227h1.874v-7.495c0-.713-.089-1.338-.268-1.963-.268-.624-.535-1.07-.981-1.516zM52.295 8.532c-.803 0-1.516.089-2.14.267-.626.179-1.25.447-1.875.714l-.357.179.714 1.695.446-.178c.447-.268.982-.447 1.428-.625a5.196 5.196 0 011.695-.268c.982 0 1.785.268 2.32.714.446.446.803 1.428.803 2.498-.357-.089-.714-.178-1.07-.178-.536-.09-1.25-.178-1.964-.178-.713 0-1.427.089-1.962.267a6.693 6.693 0 00-1.607.714 4.695 4.695 0 00-1.07 1.25c-.268.534-.357 1.338-.357 1.873 0 .625.178 1.25.446 1.695.268.446.625.892 1.07 1.25.447.356.893.535 1.428.713.536.179 1.071.268 1.606.268.536 0 1.071-.09 1.517-.179.446-.089.892-.267 1.25-.535.356-.178.624-.446.892-.625v1.16h1.606v-7.405c0-1.517-.446-2.945-1.16-3.748-.892-.892-2.142-1.338-3.659-1.338zm1.963 9.993c-.356.268-.713.446-1.16.625a3.698 3.698 0 01-1.427.267c-.357 0-.714-.089-1.07-.178-.358-.09-.625-.268-.893-.446-.268-.179-.446-.357-.535-.625-.09-.267-.179-.535-.179-.892 0-.714.268-1.338.714-1.695.535-.447 1.338-.625 2.32-.625.714 0 1.427.09 1.963.178.446.09.892.179 1.249.268v.892c0 .447-.09 1.071-.268 1.339-.089.357-.357.714-.714.892zM81.74 9.87c-.446-.446-.892-.803-1.517-1.07-.535-.268-1.25-.358-1.963-.358-1.07 0-1.963.268-2.588.714-.267.179-.535.446-.803.714v-.981h-1.873v12.134h1.963v-7.227c0-.535.089-.981.267-1.428.179-.446.357-.803.714-1.07a3.208 3.208 0 011.07-.714c.358-.179.804-.268 1.25-.268.981 0 1.695.268 2.141.892.447.625.803 1.428.803 2.41v7.405h1.785V13.44a6.96 6.96 0 00-.268-1.963c-.267-.625-.535-1.16-.981-1.606zM123.23 7.372c-.714-.714-1.607-1.249-2.588-1.695-.981-.357-2.141-.625-3.301-.625h-5.265v15.883h5.265c1.16 0 2.32-.179 3.301-.625.981-.446 1.874-.982 2.588-1.695.713-.714 1.249-1.517 1.695-2.499.357-.981.624-2.052.624-3.123 0-1.07-.178-2.141-.624-3.123-.446-.892-.982-1.784-1.695-2.498zm.267 5.71c0 .893-.178 1.696-.446 2.41-.268.713-.714 1.338-1.249 1.873-.535.536-1.16.982-1.963 1.25-.803.357-1.606.446-2.588.446h-3.301V7.015h3.301c.982 0 1.785.179 2.588.446.803.357 1.428.714 1.963 1.339.535.535.981 1.16 1.249 1.963.268.624.446 1.427.446 2.32zM164.274 5.141H162.4v15.882h1.874V5.141zM176.498 8.888l-3.569 9.101-4.104-9.1h-2.142l5.264 11.33c-.178.358-.356.715-.446.982-.178.268-.357.536-.535.714-.178.179-.357.268-.535.357-.179.09-.357.09-.625.09-.357 0-.625 0-.892-.09-.268-.09-.446-.178-.714-.268l-.446-.178-.625 1.784.357.179c.357.178.714.268 1.071.357.357.09.714.09 1.16.09.892 0 1.606-.269 2.23-.804.625-.535 1.16-1.338 1.696-2.587l4.907-11.957h-2.052zM157.314 8.889l-6.156 6.692V5.14h-1.874v15.793h1.874V18.08l2.141-2.23 4.015 5.085h2.409l-5.085-6.424 5.175-5.621h-2.499zM144.734 8.71c-.625.179-1.339.714-1.606.892a7.143 7.143 0 00-1.16 1.16V8.89h-1.874v12.134h1.874V15.76c0-.803.089-1.606.357-2.23.267-.625.535-1.16.892-1.607.446-.446 1.071-.892 1.517-1.16.535-.178 1.07-.357 1.606-.357h.535V8.533h-.446c-.625 0-1.16.089-1.695.178zM132.153 8.532c-.803 0-1.517.089-2.142.267-.624.179-1.249.447-1.874.714l-.356.179.713 1.695.447-.178c.446-.268.981-.447 1.427-.625a5.2 5.2 0 011.695-.268c.982 0 1.785.268 2.32.714.446.446.803 1.428.803 2.498-.357-.089-.713-.178-1.07-.178a12.32 12.32 0 00-1.963-.178c-.714 0-1.428.089-1.963.267a6.682 6.682 0 00-1.606.714 4.686 4.686 0 00-1.071 1.25c-.268.534-.357 1.338-.357 1.873 0 .625.178 1.25.446 1.695.268.446.625.892 1.071 1.25.446.356.892.535 1.427.713a5.06 5.06 0 001.607.268c.535 0 1.07-.09 1.516-.179.447-.089.893-.267 1.25-.535.356-.178.624-.446.892-.625v1.16h1.874v-7.405c0-1.517-.447-2.945-1.16-3.748-1.16-.892-2.409-1.338-3.926-1.338zm1.963 9.993c-.357.268-.714.446-1.16.625a3.7 3.7 0 01-1.428.267c-.357 0-.714-.089-1.071-.178-.357-.09-.624-.268-.892-.446-.268-.179-.446-.357-.535-.625-.089-.267-.179-.535-.179-.892 0-.714.268-1.338.714-1.695.535-.447 1.339-.625 2.32-.625.714 0 1.428.09 1.963.178.446.09.892.179 1.249.268v.892c0 .447-.089 1.071-.268 1.339-.178.357-.446.714-.713.892zM14.285 25.84c6.87 0 12.402-5.799 12.402-12.848 0-.714-.089-1.338-.178-1.963v.625c0 6.246-4.907 11.242-10.886 11.242-2.587 0-4.907-.892-6.78-2.409-.893.714-1.428 1.25-3.213 1.874 2.32 2.141 5.354 3.48 8.655 3.48zM4.738 11.654C4.738 5.408 9.645.412 15.624.412c.535 0 .981.089 1.516.089-.981-.268-1.963-.357-2.944-.357-6.781 0-12.402 5.8-12.402 12.849 0 1.695.356 3.301.803 4.729.713-.803 1.963-1.607 2.855-2.053-.536-1.249-.714-2.587-.714-4.015z"/><path fill="#2C1338" d="M12.054 9.602c-2.23-.803-4.282-.178-5.264.268 1.606.803 2.498 1.784 3.123 2.677.624-.982 1.963-2.677 2.141-2.945zM16.426 15.936c0-.268-.09-.535-.09-.892-.445.357-1.338.892-2.32 1.428-.088.089-.267.089-.445.178-.268.09-.446.178-.714.357-.09 0-.09 0-.178.09 0 .088.089.178.089.267 0 .089.089.178.089.267 0 .09.09.179.09.268.088.179.088.357.178.625 0 .089.089.267.089.357 0 .089.089.267.089.357.178.624.268 1.427.268 2.141v.535c.892-.624 2.766-2.23 2.766-5.264v-.178-.179c.089-.178.089-.268.089-.357z"/><path fill="#2C1338" d="M27.848 1.928c.713 0 1.249.179 1.606.268-2.499 6.424-7.228 10.172-10.797 12.224-.446.268-.803.446-1.16.625 0-.357-.178-1.071-.267-1.606 0-.09-.179-.179-.268-.09-1.606 1.25-3.123 2.142-5.354 3.034-.089.09-.178.178-.089.357.09.09.179.268.179.446-.447.09-.982.268-1.16.268-.09-.714-.625-1.606-1.16-1.963.178-.357.535-.982.803-1.428.089-.089.089-.178.178-.357.09-.089.09-.178.179-.267.713-.982 1.517-2.231 2.587-3.48.09-.09.179-.179.179-.268.089-.09.178-.178.178-.268 1.963-2.32 4.461-4.729 6.96-6.067 1.695-.892 3.39-1.428 5.175-1.606-.357.625-.982 1.517-2.142 2.588l-.089.089c-.089.089-.089.178-.089.267 0 .357.268.714.535.893.446.357.893.446 1.25.178l.089-.089c1.338-.892 2.23-2.32 2.677-3.748zm-10.53 10.53c.625 0 1.072-.536 1.072-1.16 0-.625-.536-1.16-1.071-1.16-.625 0-1.07.535-1.07 1.16-.09.624.445 1.16 1.07 1.16zm2.41-1.964c-.625 0-1.07-.535-1.07-1.16 0-.624.535-1.16 1.07-1.16.624 0 1.07.536 1.07 1.16.09.714-.445 1.16-1.07 1.16zm2.409-1.874c-.625 0-1.07-.535-1.07-1.16 0-.624.445-1.16 1.07-1.16s1.07.536 1.07 1.16c0 .625-.445 1.16-1.07 1.16zM8.307 16.115c.624 0 1.16 1.16 1.16 1.517s-.179.982-1.25 2.052c-.892.893-2.141 1.428-3.301 1.785-1.874.535-3.837.714-4.818.714 1.16-1.428 2.141-2.588 3.033-3.39 1.071-1.072 2.053-1.696 2.766-2.053 1.339-.714 2.142-.625 2.41-.625-.09 0-.09 0 0 0zm-.179 1.339l.268-.268c0-.09-.09-.09-.09-.178-.446-.536-1.784 0-2.409.357-1.07.624-2.052 1.695-2.409 2.141-.089.09-.089.178-.089.178s.09-.089.179-.089c.446-.446 1.695-1.517 2.587-1.784.09 0-.535 1.606-.535 1.606s1.427-.982 1.427-1.071c.268-.178.447-.357.625-.535.09-.09.178-.179.268-.179 0-.089.089-.178.178-.178z"/></svg>