<svg xmlns="http://www.w3.org/2000/svg" width="32" height="41" fill="none" viewBox="0 0 32 41"><path fill="#fff" d="M.848.006H32v40.152H.848V.006z"/><path fill="#2C1338" d="M26.339 8.938h-3.555v9.394h-3.21V8.938h-3.556V6.292h10.32v2.646zm-.675 15.643h-4.558v2.008h3.61v2.646h-3.61v2.078h4.558v2.645h-7.768V21.901h7.768v2.681zm-10.301 7.05a3.748 3.748 0 0 1-.93 1.261c-.402.355-.912.622-1.514.817-.602.195-1.277.284-2.024.284-1.568 0-3.009-.444-4.358-1.332l1.386-2.468c.474.409.948.71 1.423.906.473.194.93.302 1.385.302.529 0 .912-.107 1.167-.338.255-.231.383-.48.383-.781a1.15 1.15 0 0 0-.092-.461 1.188 1.188 0 0 0-.328-.356 2.32 2.32 0 0 0-.601-.302c-.238-.089-.547-.195-.893-.32-.42-.124-.821-.266-1.222-.408a3.978 3.978 0 0 1-1.076-.604 2.744 2.744 0 0 1-.748-.941c-.2-.373-.291-.852-.291-1.438s.109-1.101.31-1.58c.193-.46.486-.873.856-1.208.39-.353.85-.62 1.35-.782.529-.195 1.13-.284 1.786-.284.62 0 1.259.09 1.915.249.675.16 1.1.365 1.703.685l-.795 2.588c-.346-.266-.962-.645-1.327-.787a3.05 3.05 0 0 0-1.021-.195c-.42 0-.748.088-1.021.284-.255.195-.402.426-.402.728 0 .213.073.373.2.515.129.142.31.248.512.355.218.107.455.178.73.249.273.07.527.142.802.23 1.057.338 1.822.782 2.297 1.332.492.55.728 1.279.728 2.167.04.56-.06 1.121-.29 1.634v-.001zm-4.87-25.357v9.395h6.348l-.74 2.645H7.285V6.274h3.209zM.848 40.158H32V.006H.848v40.152z"/></svg>